<svg width="1064" height="440" viewBox="0 0 1064 440" fill="none" xmlns="http://www.w3.org/2000/svg">
<g clip-path="url(#clip0)">
<rect width="1064" height="440" fill="#E5E5E5"/>
<rect y="269" width="1064" height="171" fill="#CECECE"/>
<rect width="1064" height="269" fill="#CACACA"/>
<rect y="210.283" width="1064" height="58.7169" fill="#B3B3B3"/>
<ellipse cx="508.078" cy="243.822" rx="3.07884" ry="1.35615" fill="#939393"/>
<circle cx="504.999" cy="241.545" r="1.06438" fill="#939393"/>
<path d="M503.699 241.605C503.879 241.48 504.117 241.23 504.117 241.23L504.426 242.051L502.484 242.027C502.484 242.027 503.288 241.894 503.699 241.605Z" fill="#939393"/>
<path d="M505.351 244.069L504.649 242.224L505.818 241.838C505.818 241.838 505.837 242.278 506.008 242.47C506.202 242.688 506.71 242.723 506.71 242.723L507.911 243.203L506.906 244.069H505.351Z" fill="#939393"/>
<ellipse cx="504.65" cy="241.457" rx="0.224609" ry="0.230469" fill="#2E2E2E"/>
<ellipse cx="512.245" cy="232.675" rx="2.29409" ry="1.01049" fill="#939393"/>
<circle cx="509.951" cy="230.979" r="0.793087" fill="#939393"/>
<path d="M508.983 231.024C509.117 230.93 509.294 230.744 509.294 230.744L509.524 231.356L508.078 231.338C508.078 231.338 508.676 231.239 508.983 231.024Z" fill="#939393"/>
<path d="M510.213 232.86L509.691 231.484L510.562 231.197C510.562 231.197 510.576 231.525 510.703 231.668C510.848 231.83 511.226 231.857 511.226 231.857L512.121 232.214L511.372 232.86H510.213Z" fill="#939393"/>
<ellipse cx="509.692" cy="230.913" rx="0.167359" ry="0.171725" fill="#2E2E2E"/>
<ellipse rx="1.71018" ry="0.75329" transform="matrix(-1 0 0 1 508.103 222.637)" fill="#939393"/>
<circle r="0.591224" transform="matrix(-1 0 0 1 509.813 221.373)" fill="#939393"/>
<path d="M510.535 221.406C510.435 221.336 510.303 221.198 510.303 221.198L510.131 221.654L511.209 221.64C511.209 221.64 510.763 221.566 510.535 221.406Z" fill="#939393"/>
<path d="M509.617 222.775L510.007 221.75L509.357 221.535C509.357 221.535 509.347 221.78 509.252 221.887C509.145 222.007 508.862 222.027 508.862 222.027L508.195 222.294L508.754 222.775H509.617Z" fill="#939393"/>
<ellipse rx="0.124762" ry="0.128016" transform="matrix(-1 0 0 1 510.006 221.324)" fill="#2E2E2E"/>
<ellipse rx="1.71018" ry="0.75329" transform="matrix(-1 0 0 1 525.836 227.295)" fill="#939393"/>
<circle r="0.591224" transform="matrix(-1 0 0 1 527.546 226.03)" fill="#939393"/>
<path d="M528.268 226.064C528.168 225.994 528.036 225.856 528.036 225.856L527.864 226.311L528.943 226.298C528.943 226.298 528.496 226.224 528.268 226.064Z" fill="#939393"/>
<path d="M527.35 227.433L527.74 226.407L527.091 226.193C527.091 226.193 527.08 226.437 526.985 226.544C526.878 226.665 526.596 226.685 526.596 226.685L525.929 226.952L526.487 227.433H527.35Z" fill="#939393"/>
<ellipse rx="0.124762" ry="0.128016" transform="matrix(-1 0 0 1 527.739 225.982)" fill="#2E2E2E"/>
<ellipse cx="519.532" cy="240.482" rx="3.07884" ry="1.35615" fill="#939393"/>
<circle cx="516.453" cy="238.205" r="1.06438" fill="#939393"/>
<path d="M515.154 238.266C515.333 238.14 515.572 237.891 515.572 237.891L515.88 238.711L513.939 238.687C513.939 238.687 514.742 238.554 515.154 238.266Z" fill="#939393"/>
<path d="M516.805 240.729L516.104 238.884L517.273 238.498C517.273 238.498 517.291 238.938 517.462 239.13C517.656 239.348 518.164 239.383 518.164 239.383L519.365 239.863L518.36 240.729H516.805Z" fill="#939393"/>
<ellipse cx="516.105" cy="238.117" rx="0.224609" ry="0.230469" fill="#2E2E2E"/>
<ellipse rx="2.48519" ry="1.15478" transform="matrix(-1 0 0 1 499.42 227.589)" fill="#939393"/>
<ellipse rx="0.859154" ry="0.906334" transform="matrix(-1 0 0 1 501.905 225.65)" fill="#939393"/>
<path d="M502.954 225.702C502.809 225.595 502.616 225.382 502.616 225.382L502.367 226.081L503.934 226.061C503.934 226.061 503.286 225.947 502.954 225.702Z" fill="#939393"/>
<path d="M501.621 227.8L502.187 226.228L501.243 225.9C501.243 225.9 501.228 226.274 501.09 226.438C500.934 226.623 500.524 226.653 500.524 226.653L499.555 227.062L500.366 227.8H501.621Z" fill="#939393"/>
<ellipse rx="0.181301" ry="0.196246" transform="matrix(-1 0 0 1 502.186 225.575)" fill="#2E2E2E"/>
<rect x="14.5091" y="177.674" width="32.8496" height="91.3262" fill="#9F9F9F"/>
<path d="M20.5577 171.695L14.5091 177.674H47.3587L41.2279 171.695H20.5577Z" fill="#616161"/>
<rect x="164.687" y="177.674" width="32.8496" height="91.3262" fill="#9F9F9F"/>
<path d="M170.736 171.695L164.687 177.674H197.537L191.406 171.695H170.736Z" fill="#616161"/>
<rect x="47.3587" y="252.432" width="117.329" height="3.30503" fill="#616161"/>
<rect x="47.3587" y="189.025" width="117.329" height="3.30503" fill="#616161"/>
<rect x="104.37" y="255.737" width="66.7124" height="3.30503" transform="rotate(-90 104.37 255.737)" fill="#616161"/>
<rect x="47.3587" y="255.737" width="66.7124" height="3.30503" transform="rotate(-90 47.3587 255.737)" fill="#616161"/>
<rect x="66.7119" y="255.737" width="66.7124" height="3.30503" transform="rotate(-90 66.7119 255.737)" fill="#616161"/>
<rect x="106.023" y="253.227" width="48.9249" height="3.30503" transform="rotate(-40.5748 106.023 253.227)" fill="#616161"/>
<rect width="48.9249" height="3.30503" transform="matrix(-0.759558 -0.65044 -0.65044 0.759558 145.334 222.233)" fill="#616161"/>
<rect width="48.9249" height="3.30503" transform="matrix(-0.759558 -0.65044 -0.65044 0.759558 106.023 253.227)" fill="#616161"/>
<rect x="66.7119" y="222.233" width="48.9249" height="3.30503" transform="rotate(-40.5748 66.7119 222.233)" fill="#616161"/>
<rect x="142.028" y="256.693" width="66.7124" height="3.30503" transform="rotate(-90 142.028 256.693)" fill="#616161"/>
<rect x="161.382" y="255.737" width="66.7124" height="3.30503" transform="rotate(-90 161.382 255.737)" fill="#616161"/>
<circle cx="106.023" cy="223.337" r="12.0538" stroke="#616161" stroke-width="2"/>
<rect x="66.7119" y="224.324" width="1.97348" height="28.2287" transform="rotate(-90 66.7119 224.324)" fill="#616161"/>
<rect x="117.105" y="224.324" width="1.97348" height="28.2287" transform="rotate(-90 117.105 224.324)" fill="#616161"/>
<rect x="164.687" y="177.674" width="32.8496" height="91.3262" fill="#9F9F9F"/>
<path d="M170.736 171.695L164.687 177.674H197.537L191.406 171.695H170.736Z" fill="#616161"/>
<rect x="314.865" y="177.674" width="32.8496" height="91.3262" fill="#9F9F9F"/>
<path d="M320.914 171.695L314.865 177.674H347.715L341.584 171.695H320.914Z" fill="#616161"/>
<rect x="197.537" y="252.432" width="117.329" height="3.30503" fill="#616161"/>
<rect x="197.537" y="189.025" width="117.329" height="3.30503" fill="#616161"/>
<rect x="254.549" y="255.737" width="66.7124" height="3.30503" transform="rotate(-90 254.549 255.737)" fill="#616161"/>
<rect x="197.537" y="255.737" width="66.7124" height="3.30503" transform="rotate(-90 197.537 255.737)" fill="#616161"/>
<rect x="216.89" y="255.737" width="66.7124" height="3.30503" transform="rotate(-90 216.89 255.737)" fill="#616161"/>
<rect x="256.201" y="253.227" width="48.9249" height="3.30503" transform="rotate(-40.5748 256.201 253.227)" fill="#616161"/>
<rect width="48.9249" height="3.30503" transform="matrix(-0.759558 -0.65044 -0.65044 0.759558 295.512 222.233)" fill="#616161"/>
<rect width="48.9249" height="3.30503" transform="matrix(-0.759558 -0.65044 -0.65044 0.759558 256.201 253.227)" fill="#616161"/>
<rect x="216.89" y="222.233" width="48.9249" height="3.30503" transform="rotate(-40.5748 216.89 222.233)" fill="#616161"/>
<rect x="292.207" y="256.693" width="66.7124" height="3.30503" transform="rotate(-90 292.207 256.693)" fill="#616161"/>
<rect x="311.56" y="255.737" width="66.7124" height="3.30503" transform="rotate(-90 311.56 255.737)" fill="#616161"/>
<circle cx="256.201" cy="223.337" r="12.0538" stroke="#616161" stroke-width="2"/>
<rect x="216.89" y="224.324" width="1.97348" height="28.2287" transform="rotate(-90 216.89 224.324)" fill="#616161"/>
<rect x="267.283" y="224.324" width="1.97348" height="28.2287" transform="rotate(-90 267.283 224.324)" fill="#616161"/>
<rect x="314.865" y="177.674" width="32.8496" height="91.3262" fill="#9F9F9F"/>
<path d="M320.914 171.695L314.865 177.674H347.715L341.584 171.695H320.914Z" fill="#616161"/>
<rect x="465.043" y="177.674" width="32.8496" height="91.3262" fill="#9F9F9F"/>
<path d="M471.092 171.695L465.043 177.674H497.893L491.762 171.695H471.092Z" fill="#616161"/>
<rect x="347.715" y="252.432" width="117.329" height="3.30503" fill="#616161"/>
<rect x="347.715" y="189.025" width="117.329" height="3.30503" fill="#616161"/>
<rect x="404.726" y="255.737" width="66.7124" height="3.30503" transform="rotate(-90 404.726 255.737)" fill="#616161"/>
<rect x="347.715" y="255.737" width="66.7124" height="3.30503" transform="rotate(-90 347.715 255.737)" fill="#616161"/>
<rect x="367.068" y="255.737" width="66.7124" height="3.30503" transform="rotate(-90 367.068 255.737)" fill="#616161"/>
<rect x="406.379" y="253.227" width="48.9249" height="3.30503" transform="rotate(-40.5748 406.379 253.227)" fill="#616161"/>
<rect width="48.9249" height="3.30503" transform="matrix(-0.759558 -0.65044 -0.65044 0.759558 445.69 222.233)" fill="#616161"/>
<rect width="48.9249" height="3.30503" transform="matrix(-0.759558 -0.65044 -0.65044 0.759558 406.379 253.227)" fill="#616161"/>
<rect x="367.068" y="222.233" width="48.9249" height="3.30503" transform="rotate(-40.5748 367.068 222.233)" fill="#616161"/>
<rect x="442.384" y="256.693" width="66.7124" height="3.30503" transform="rotate(-90 442.384 256.693)" fill="#616161"/>
<rect x="461.738" y="255.737" width="66.7124" height="3.30503" transform="rotate(-90 461.738 255.737)" fill="#616161"/>
<circle cx="406.379" cy="223.337" r="12.0538" stroke="#616161" stroke-width="2"/>
<rect x="367.068" y="224.324" width="1.97348" height="28.2287" transform="rotate(-90 367.068 224.324)" fill="#616161"/>
<rect x="417.461" y="224.324" width="1.97348" height="28.2287" transform="rotate(-90 417.461 224.324)" fill="#616161"/>
<rect x="465.043" y="177.674" width="32.8496" height="91.3262" fill="#9F9F9F"/>
<path d="M471.092 171.695L465.043 177.674H497.893L491.762 171.695H471.092Z" fill="#616161"/>
<rect x="615.221" y="177.674" width="32.8496" height="91.3262" fill="#9F9F9F"/>
<path d="M621.27 171.695L615.221 177.674H648.071L641.94 171.695H621.27Z" fill="#616161"/>
<rect x="497.893" y="252.432" width="117.329" height="3.30503" fill="#616161"/>
<rect x="497.893" y="189.025" width="117.329" height="3.30503" fill="#616161"/>
<rect x="554.904" y="255.737" width="66.7124" height="3.30503" transform="rotate(-90 554.904 255.737)" fill="#616161"/>
<rect x="497.893" y="255.737" width="66.7124" height="3.30503" transform="rotate(-90 497.893 255.737)" fill="#616161"/>
<rect x="517.246" y="255.737" width="66.7124" height="3.30503" transform="rotate(-90 517.246 255.737)" fill="#616161"/>
<rect x="556.557" y="253.227" width="48.9249" height="3.30503" transform="rotate(-40.5748 556.557 253.227)" fill="#616161"/>
<rect width="48.9249" height="3.30503" transform="matrix(-0.759558 -0.65044 -0.65044 0.759558 595.868 222.233)" fill="#616161"/>
<rect width="48.9249" height="3.30503" transform="matrix(-0.759558 -0.65044 -0.65044 0.759558 556.557 253.227)" fill="#616161"/>
<rect x="517.246" y="222.233" width="48.9249" height="3.30503" transform="rotate(-40.5748 517.246 222.233)" fill="#616161"/>
<rect x="592.562" y="256.693" width="66.7124" height="3.30503" transform="rotate(-90 592.562 256.693)" fill="#616161"/>
<rect x="611.916" y="255.737" width="66.7124" height="3.30503" transform="rotate(-90 611.916 255.737)" fill="#616161"/>
<circle cx="556.557" cy="223.337" r="12.0538" stroke="#616161" stroke-width="2"/>
<rect x="517.246" y="224.324" width="1.97348" height="28.2287" transform="rotate(-90 517.246 224.324)" fill="#616161"/>
<rect x="567.639" y="224.324" width="1.97348" height="28.2287" transform="rotate(-90 567.639 224.324)" fill="#616161"/>
<rect x="615.221" y="177.674" width="32.8496" height="91.3262" fill="#9F9F9F"/>
<path d="M621.27 171.695L615.221 177.674H648.071L641.94 171.695H621.27Z" fill="#616161"/>
<rect x="765.399" y="177.674" width="32.8496" height="91.3262" fill="#9F9F9F"/>
<path d="M771.448 171.695L765.399 177.674H798.249L792.118 171.695H771.448Z" fill="#616161"/>
<rect x="648.071" y="252.432" width="117.329" height="3.30503" fill="#616161"/>
<rect x="648.071" y="189.025" width="117.329" height="3.30503" fill="#616161"/>
<rect x="705.083" y="255.737" width="66.7124" height="3.30503" transform="rotate(-90 705.083 255.737)" fill="#616161"/>
<rect x="648.071" y="255.737" width="66.7124" height="3.30503" transform="rotate(-90 648.071 255.737)" fill="#616161"/>
<rect x="667.424" y="255.737" width="66.7124" height="3.30503" transform="rotate(-90 667.424 255.737)" fill="#616161"/>
<rect x="706.735" y="253.227" width="48.9249" height="3.30503" transform="rotate(-40.5748 706.735 253.227)" fill="#616161"/>
<rect width="48.9249" height="3.30503" transform="matrix(-0.759558 -0.65044 -0.65044 0.759558 746.046 222.233)" fill="#616161"/>
<rect width="48.9249" height="3.30503" transform="matrix(-0.759558 -0.65044 -0.65044 0.759558 706.735 253.227)" fill="#616161"/>
<rect x="667.424" y="222.233" width="48.9249" height="3.30503" transform="rotate(-40.5748 667.424 222.233)" fill="#616161"/>
<rect x="742.741" y="256.693" width="66.7124" height="3.30503" transform="rotate(-90 742.741 256.693)" fill="#616161"/>
<rect x="762.094" y="255.737" width="66.7124" height="3.30503" transform="rotate(-90 762.094 255.737)" fill="#616161"/>
<circle cx="706.735" cy="223.337" r="12.0538" stroke="#616161" stroke-width="2"/>
<rect x="667.424" y="224.324" width="1.97348" height="28.2287" transform="rotate(-90 667.424 224.324)" fill="#616161"/>
<rect x="717.817" y="224.324" width="1.97348" height="28.2287" transform="rotate(-90 717.817 224.324)" fill="#616161"/>
<rect x="765.399" y="177.674" width="32.8496" height="91.3262" fill="#9F9F9F"/>
<path d="M771.448 171.695L765.399 177.674H798.249L792.118 171.695H771.448Z" fill="#616161"/>
<rect x="915.577" y="177.674" width="32.8496" height="91.3262" fill="#9F9F9F"/>
<path d="M921.626 171.695L915.577 177.674H948.427L942.296 171.695H921.626Z" fill="#616161"/>
<rect x="798.249" y="252.432" width="117.329" height="3.30503" fill="#616161"/>
<rect x="798.249" y="189.025" width="117.329" height="3.30503" fill="#616161"/>
<rect x="855.261" y="255.737" width="66.7124" height="3.30503" transform="rotate(-90 855.261 255.737)" fill="#616161"/>
<rect x="798.249" y="255.737" width="66.7124" height="3.30503" transform="rotate(-90 798.249 255.737)" fill="#616161"/>
<rect x="817.602" y="255.737" width="66.7124" height="3.30503" transform="rotate(-90 817.602 255.737)" fill="#616161"/>
<rect x="856.913" y="253.227" width="48.9249" height="3.30503" transform="rotate(-40.5748 856.913 253.227)" fill="#616161"/>
<rect width="48.9249" height="3.30503" transform="matrix(-0.759558 -0.65044 -0.65044 0.759558 896.224 222.233)" fill="#616161"/>
<rect width="48.9249" height="3.30503" transform="matrix(-0.759558 -0.65044 -0.65044 0.759558 856.913 253.227)" fill="#616161"/>
<rect x="817.602" y="222.233" width="48.9249" height="3.30503" transform="rotate(-40.5748 817.602 222.233)" fill="#616161"/>
<rect x="892.919" y="256.693" width="66.7124" height="3.30503" transform="rotate(-90 892.919 256.693)" fill="#616161"/>
<rect x="912.272" y="255.737" width="66.7124" height="3.30503" transform="rotate(-90 912.272 255.737)" fill="#616161"/>
<circle cx="856.913" cy="223.337" r="12.0538" stroke="#616161" stroke-width="2"/>
<rect x="817.602" y="224.324" width="1.97348" height="28.2287" transform="rotate(-90 817.602 224.324)" fill="#616161"/>
<rect x="867.995" y="224.324" width="1.97348" height="28.2287" transform="rotate(-90 867.995 224.324)" fill="#616161"/>
<rect x="915.577" y="177.674" width="32.8496" height="91.3262" fill="#9F9F9F"/>
<path d="M921.626 171.695L915.577 177.674H948.427L942.296 171.695H921.626Z" fill="#616161"/>
<rect x="948.427" y="252.432" width="117.329" height="3.30503" fill="#616161"/>
<rect x="948.427" y="189.025" width="117.329" height="3.30503" fill="#616161"/>
<rect x="1005.44" y="255.737" width="66.7124" height="3.30503" transform="rotate(-90 1005.44 255.737)" fill="#616161"/>
<rect x="948.427" y="255.737" width="66.7124" height="3.30503" transform="rotate(-90 948.427 255.737)" fill="#616161"/>
<rect x="967.78" y="255.737" width="66.7124" height="3.30503" transform="rotate(-90 967.78 255.737)" fill="#616161"/>
<rect x="1007.09" y="253.227" width="48.9249" height="3.30503" transform="rotate(-40.5748 1007.09 253.227)" fill="#616161"/>
<rect width="48.9249" height="3.30503" transform="matrix(-0.759558 -0.65044 -0.65044 0.759558 1046.4 222.233)" fill="#616161"/>
<rect width="48.9249" height="3.30503" transform="matrix(-0.759558 -0.65044 -0.65044 0.759558 1007.09 253.227)" fill="#616161"/>
<rect x="967.78" y="222.233" width="48.9249" height="3.30503" transform="rotate(-40.5748 967.78 222.233)" fill="#616161"/>
<rect x="1043.1" y="256.693" width="66.7124" height="3.30503" transform="rotate(-90 1043.1 256.693)" fill="#616161"/>
<rect x="1062.45" y="255.737" width="66.7124" height="3.30503" transform="rotate(-90 1062.45 255.737)" fill="#616161"/>
<circle cx="1007.09" cy="223.337" r="12.0538" stroke="#616161" stroke-width="2"/>
<rect x="967.78" y="224.324" width="1.97348" height="28.2287" transform="rotate(-90 967.78 224.324)" fill="#616161"/>
<rect x="1018.17" y="224.324" width="1.97348" height="28.2287" transform="rotate(-90 1018.17 224.324)" fill="#616161"/>
<rect x="13.8785" y="177.326" width="32.8496" height="91.3262" fill="#9F9F9F"/>
<path d="M19.9271 171.347L13.8785 177.326H46.7281L40.5973 171.347H19.9271Z" fill="#616161"/>
<rect x="-103.45" y="252.085" width="117.329" height="3.30503" fill="#616161"/>
<rect x="-103.45" y="188.677" width="117.329" height="3.30503" fill="#616161"/>
<rect x="10.5736" y="255.39" width="66.7124" height="3.30503" transform="rotate(-90 10.5736 255.39)" fill="#616161"/>
</g>
<defs>
<clipPath id="clip0">
<rect width="1064" height="440" fill="white"/>
</clipPath>
</defs>
</svg>
