<svg width="445" height="498" viewBox="0 0 445 498" fill="none" xmlns="http://www.w3.org/2000/svg">
<rect width="445" height="498" fill="white"/>
<rect width="445" height="380.843" fill="#D9D9D9"/>
<rect y="380.843" width="445" height="117.157" fill="#797979"/>
<rect x="103.5" y="62.8434" width="238" height="318" fill="#A6A6A6"/>
<rect x="221.072" y="62.8434" width="2.856" height="318" fill="black"/>
<path d="M18.9667 115.354H36.6901H54.4135H72.1369H89.8603V134.281V150.637V166.993V183.349V199.705V216.061V232.417V248.773V265.129H72.1369H54.4135H36.6901H18.9667V248.773V232.417V216.061V199.705V183.349V166.993V150.637V134.281V115.354Z" fill="#919191"/>
<circle cx="36.6274" cy="142.556" r="5.7162" fill="#C4C4C4"/>
<circle cx="36.6274" cy="157.638" r="5.7162" fill="#C4C4C4"/>
<circle cx="36.6274" cy="202.886" r="5.7162" fill="#C4C4C4"/>
<circle cx="72.6574" cy="187.803" r="5.7162" fill="#C4C4C4"/>
<circle cx="72.6574" cy="217.968" r="5.7162" fill="#C4C4C4"/>
<circle cx="72.6574" cy="202.886" r="5.7162" fill="#C4C4C4"/>
<circle cx="72.6574" cy="172.721" r="5.7162" fill="#C4C4C4"/>
<circle cx="72.6574" cy="157.638" r="5.7162" fill="#C4C4C4"/>
<circle cx="72.6574" cy="142.556" r="5.7162" fill="#C4C4C4"/>
<circle cx="36.6274" cy="217.968" r="5.7162" fill="#C4C4C4"/>
<circle cx="36.6274" cy="187.803" r="5.7162" fill="#C4C4C4"/>
<circle cx="36.6274" cy="172.721" r="5.7162" fill="#C4C4C4"/>
<rect x="64.1214" y="245.606" width="16.0449" height="6.78823" fill="#C4C4C4"/>
<rect x="29.0626" y="245.606" width="16.0449" height="6.78823" fill="#C4C4C4"/>
<path d="M32.7164 249.161C32.3144 249.045 32.0214 248.903 31.8375 248.736C31.6552 248.566 31.5641 248.358 31.5641 248.111C31.5641 247.831 31.6756 247.6 31.8986 247.417C32.1232 247.233 32.4145 247.142 32.7726 247.142C33.0167 247.142 33.234 247.189 33.4244 247.283C33.6165 247.378 33.7646 247.508 33.8688 247.674C33.9746 247.84 34.0275 248.021 34.0275 248.218H33.5563C33.5563 248.003 33.4879 247.835 33.3512 247.713C33.2145 247.589 33.0216 247.527 32.7726 247.527C32.5415 247.527 32.3608 247.579 32.2306 247.681C32.102 247.782 32.0377 247.923 32.0377 248.103C32.0377 248.248 32.0988 248.371 32.2208 248.472C32.3445 248.571 32.5537 248.663 32.8483 248.746C33.1445 248.829 33.3756 248.92 33.5416 249.021C33.7093 249.121 33.833 249.237 33.9127 249.371C33.9941 249.504 34.0348 249.661 34.0348 249.842C34.0348 250.13 33.9225 250.361 33.6979 250.535C33.4733 250.708 33.173 250.794 32.797 250.794C32.5529 250.794 32.325 250.747 32.1134 250.655C31.9018 250.56 31.7382 250.432 31.6227 250.269C31.5087 250.106 31.4518 249.921 31.4518 249.715H31.923C31.923 249.93 32.0019 250.1 32.1598 250.225C32.3193 250.349 32.5317 250.411 32.797 250.411C33.0444 250.411 33.234 250.36 33.3658 250.259C33.4977 250.158 33.5636 250.021 33.5636 249.847C33.5636 249.672 33.5026 249.538 33.3805 249.444C33.2584 249.348 33.0371 249.253 32.7164 249.161ZM37.0939 247.576H35.9513V250.745H35.485V247.576H34.3448V247.19H37.0939V247.576ZM40.2872 249.082C40.2872 249.431 40.2286 249.735 40.1115 249.996C39.9943 250.254 39.8282 250.452 39.6134 250.589C39.3986 250.725 39.1479 250.794 38.8615 250.794C38.5815 250.794 38.3333 250.725 38.1168 250.589C37.9003 250.45 37.7319 250.254 37.6115 250C37.4926 249.745 37.4316 249.449 37.4283 249.114V248.858C37.4283 248.516 37.4878 248.214 37.6066 247.952C37.7254 247.69 37.893 247.49 38.1095 247.351C38.3276 247.211 38.5766 247.142 38.8566 247.142C39.1414 247.142 39.392 247.211 39.6085 247.349C39.8266 247.486 39.9943 247.685 40.1115 247.947C40.2286 248.208 40.2872 248.511 40.2872 248.858V249.082ZM39.8209 248.853C39.8209 248.431 39.7363 248.108 39.567 247.884C39.3977 247.657 39.1609 247.544 38.8566 247.544C38.5603 247.544 38.3268 247.657 38.1559 247.884C37.9866 248.108 37.8995 248.421 37.8947 248.821V249.082C37.8947 249.491 37.9801 249.812 38.151 250.047C38.3235 250.28 38.5603 250.396 38.8615 250.396C39.1642 250.396 39.3986 250.286 39.5646 250.066C39.7306 249.845 39.816 249.528 39.8209 249.117V248.853ZM41.4591 249.353V250.745H40.9904V247.19H42.3014C42.6904 247.19 42.9948 247.29 43.2145 247.488C43.4358 247.687 43.5465 247.95 43.5465 248.277C43.5465 248.622 43.4383 248.888 43.2218 249.075C43.007 249.261 42.6985 249.353 42.2965 249.353H41.4591ZM41.4591 248.97H42.3014C42.552 248.97 42.7441 248.912 42.8776 248.794C43.011 248.676 43.0778 248.505 43.0778 248.282C43.0778 248.07 43.011 247.901 42.8776 247.774C42.7441 247.647 42.561 247.581 42.3282 247.576H41.4591V248.97Z" fill="black"/>
<path d="M69.4381 249.478C69.3942 249.854 69.255 250.144 69.0206 250.35C68.7879 250.553 68.4778 250.655 68.0904 250.655C67.6705 250.655 67.3336 250.504 67.0797 250.203C66.8274 249.902 66.7013 249.499 66.7013 248.995V248.653C66.7013 248.322 66.7599 248.032 66.8771 247.781C66.9959 247.531 67.1635 247.338 67.38 247.205C67.5965 247.07 67.8471 247.002 68.132 247.002C68.5096 247.002 68.8123 247.108 69.0402 247.32C69.268 247.53 69.4007 247.821 69.4381 248.194H68.9669C68.9262 247.911 68.8375 247.706 68.7008 247.579C68.5657 247.452 68.3761 247.388 68.132 247.388C67.8325 247.388 67.5973 247.499 67.4264 247.72C67.2571 247.942 67.1725 248.256 67.1725 248.665V249.009C67.1725 249.395 67.253 249.702 67.4142 249.93C67.5753 250.157 67.8007 250.271 68.0904 250.271C68.3509 250.271 68.5502 250.213 68.6886 250.096C68.8286 249.977 68.9213 249.771 68.9669 249.478H69.4381ZM72.0431 249.678H70.5538L70.2194 250.606H69.736L71.0934 247.051H71.5035L72.8634 250.606H72.3824L72.0431 249.678ZM70.6954 249.292H71.9039L71.2985 247.63L70.6954 249.292ZM73.8131 250.223H75.4977V250.606H73.3419V247.051H73.8131V250.223ZM76.5035 250.223H78.1881V250.606H76.0323V247.051H76.5035V250.223Z" fill="black"/>
<path d="M70.9109 221.252H70.0935V215.833L68.4543 216.435V215.697L70.7834 214.823H70.9109V221.252ZM77.4851 221.252H73.2927V220.667L75.5076 218.206C75.8357 217.834 76.0613 217.532 76.1843 217.301C76.3103 217.067 76.3733 216.825 76.3733 216.576C76.3733 216.242 76.2722 215.968 76.0701 215.754C75.8679 215.54 75.5984 215.433 75.2615 215.433C74.8572 215.433 74.5422 215.549 74.3166 215.781C74.094 216.009 73.9827 216.328 73.9827 216.739H73.1697C73.1697 216.15 73.3586 215.674 73.7366 215.31C74.1174 214.947 74.6257 214.765 75.2615 214.765C75.8562 214.765 76.3264 214.922 76.6721 215.236C77.0178 215.546 77.1907 215.961 77.1907 216.479C77.1907 217.109 76.7893 217.859 75.9866 218.729L74.2727 220.588H77.4851V221.252Z" fill="black"/>
<path d="M70.8161 206.169H69.9987V200.751L68.3595 201.353V200.615L70.6886 199.74H70.8161V206.169ZM75.8698 206.169H75.0524V200.751L73.4132 201.353V200.615L75.7423 199.74H75.8698V206.169Z" fill="black"/>
<path d="M70.1448 191.087H69.3274V185.668L67.6882 186.271V185.532L70.0173 184.658H70.1448V191.087ZM76.5388 188.358C76.5388 189.31 76.3762 190.018 76.051 190.48C75.7258 190.943 75.2175 191.175 74.5261 191.175C73.8435 191.175 73.3381 190.949 73.01 190.498C72.6819 190.044 72.512 189.367 72.5002 188.468V187.382C72.5002 186.442 72.6628 185.743 72.988 185.286C73.3132 184.829 73.823 184.601 74.5173 184.601C75.2058 184.601 75.7126 184.822 76.0378 185.264C76.363 185.704 76.53 186.383 76.5388 187.303V188.358ZM75.7258 187.246C75.7258 186.558 75.6292 186.057 75.4358 185.743C75.2424 185.427 74.9363 185.269 74.5173 185.269C74.1013 185.269 73.7981 185.425 73.6077 185.739C73.4172 186.052 73.3191 186.534 73.3132 187.185V188.485C73.3132 189.177 73.4128 189.688 73.6121 190.019C73.8142 190.347 74.1189 190.511 74.5261 190.511C74.9275 190.511 75.2249 190.356 75.4182 190.045C75.6145 189.735 75.717 189.246 75.7258 188.578V187.246Z" fill="black"/>
<path d="M73.5812 173.192C73.4112 173.394 73.2076 173.557 72.9703 173.68C72.736 173.803 72.4781 173.864 72.1969 173.864C71.8277 173.864 71.5055 173.774 71.2301 173.592C70.9576 173.41 70.7467 173.155 70.5973 172.827C70.4479 172.496 70.3732 172.131 70.3732 171.733C70.3732 171.305 70.4537 170.92 70.6149 170.577C70.7789 170.235 71.0104 169.972 71.3092 169.791C71.608 169.609 71.9567 169.518 72.3551 169.518C72.9879 169.518 73.486 169.756 73.8492 170.23C74.2154 170.702 74.3985 171.346 74.3985 172.164V172.401C74.3985 173.646 74.1525 174.556 73.6603 175.13C73.1681 175.701 72.4254 175.994 71.4322 176.009H71.274V175.323H71.4454C72.1163 175.312 72.6319 175.137 72.9923 174.8C73.3526 174.461 73.5489 173.924 73.5812 173.192ZM72.3287 173.192C72.6012 173.192 72.8517 173.109 73.0802 172.942C73.3116 172.775 73.4801 172.568 73.5856 172.322V171.997C73.5856 171.464 73.4698 171.03 73.2384 170.696C73.0069 170.362 72.714 170.195 72.3595 170.195C72.0021 170.195 71.715 170.333 71.4982 170.608C71.2814 170.881 71.173 171.241 71.173 171.689C71.173 172.126 71.277 172.486 71.485 172.77C71.6959 173.051 71.9772 173.192 72.3287 173.192Z" fill="black"/>
<path d="M74.3458 156.194C74.3458 156.513 74.2609 156.797 74.0909 157.046C73.9239 157.295 73.6969 157.49 73.4098 157.631C73.7438 157.774 74.0074 157.984 74.2008 158.259C74.3971 158.534 74.4952 158.846 74.4952 159.195C74.4952 159.749 74.3077 160.19 73.9327 160.518C73.5607 160.846 73.0699 161.01 72.4606 161.01C71.8453 161.01 71.3517 160.846 70.9796 160.518C70.6105 160.187 70.4259 159.746 70.4259 159.195C70.4259 158.849 70.5196 158.537 70.7071 158.259C70.8976 157.981 71.1598 157.77 71.4938 157.626C71.2096 157.486 70.9855 157.291 70.8214 157.042C70.6573 156.793 70.5753 156.51 70.5753 156.194C70.5753 155.655 70.7482 155.227 71.0939 154.91C71.4396 154.594 71.8951 154.436 72.4606 154.436C73.0231 154.436 73.4772 154.594 73.8229 154.91C74.1715 155.227 74.3458 155.655 74.3458 156.194ZM73.6822 159.178C73.6822 158.82 73.568 158.529 73.3395 158.303C73.1139 158.077 72.818 157.965 72.4518 157.965C72.0856 157.965 71.7911 158.076 71.5685 158.299C71.3487 158.521 71.2389 158.814 71.2389 159.178C71.2389 159.541 71.3458 159.826 71.5597 160.034C71.7765 160.242 72.0768 160.346 72.4606 160.346C72.8414 160.346 73.1402 160.242 73.357 160.034C73.5738 159.824 73.6822 159.538 73.6822 159.178ZM72.4606 155.104C72.1412 155.104 71.8819 155.203 71.6827 155.403C71.4864 155.599 71.3883 155.867 71.3883 156.207C71.3883 156.532 71.485 156.796 71.6783 156.998C71.8746 157.197 72.1354 157.297 72.4606 157.297C72.7858 157.297 73.045 157.197 73.2384 156.998C73.4347 156.796 73.5328 156.532 73.5328 156.207C73.5328 155.882 73.4318 155.616 73.2296 155.411C73.0275 155.206 72.7711 155.104 72.4606 155.104Z" fill="black"/>
<path d="M74.5963 139.898L71.9464 145.84H71.0939L73.735 140.109H70.2721V139.441H74.5963V139.898Z" fill="black"/>
<path d="M37.6259 214.849V215.539H37.4765C36.8437 215.551 36.3398 215.738 35.9648 216.101C35.5898 216.465 35.373 216.976 35.3144 217.635C35.6513 217.248 36.1113 217.055 36.6943 217.055C37.2509 217.055 37.6948 217.251 38.0258 217.644C38.3598 218.036 38.5268 218.543 38.5268 219.164C38.5268 219.824 38.3466 220.351 37.9863 220.746C37.6288 221.142 37.1484 221.34 36.5449 221.34C35.9326 221.34 35.436 221.105 35.0551 220.636C34.6743 220.165 34.4838 219.558 34.4838 218.817V218.505C34.4838 217.327 34.7343 216.428 35.2353 215.807C35.7392 215.183 36.4877 214.864 37.4809 214.849H37.6259ZM36.558 217.732C36.2797 217.732 36.0234 217.815 35.789 217.982C35.5546 218.149 35.392 218.359 35.3012 218.611V218.909C35.3012 219.437 35.4199 219.862 35.6572 220.184C35.8945 220.506 36.1904 220.667 36.5449 220.667C36.9111 220.667 37.1982 220.532 37.4062 220.263C37.6171 219.993 37.7226 219.64 37.7226 219.204C37.7226 218.764 37.6157 218.41 37.4018 218.14C37.1909 217.868 36.9096 217.732 36.558 217.732Z" fill="black"/>
<path d="M34.809 202.961L35.1342 199.771H38.4125V200.522H35.8242L35.6308 202.267C35.9443 202.082 36.3002 201.99 36.6987 201.99C37.2817 201.99 37.7446 202.183 38.0873 202.57C38.4301 202.954 38.6015 203.474 38.6015 204.13C38.6015 204.789 38.4228 205.309 38.0654 205.69C37.7109 206.068 37.2143 206.257 36.5756 206.257C36.0102 206.257 35.5488 206.1 35.1913 205.787C34.8339 205.474 34.6303 205.04 34.5805 204.486H35.3495C35.3993 204.852 35.5297 205.129 35.7407 205.317C35.9516 205.501 36.2299 205.594 36.5756 205.594C36.9535 205.594 37.2494 205.465 37.4633 205.207C37.6801 204.949 37.7885 204.593 37.7885 204.139C37.7885 203.711 37.6713 203.369 37.4369 203.111C37.2055 202.85 36.8964 202.72 36.5097 202.72C36.1552 202.72 35.8769 202.797 35.6747 202.953L35.4594 203.128L34.809 202.961Z" fill="black"/>
<path d="M37.8676 188.938H38.7553V189.602H37.8676V191.087H37.0502V189.602H34.1367V189.123L37.0019 184.688H37.8676V188.938ZM35.0595 188.938H37.0502V185.8L36.9535 185.976L35.0595 188.938Z" fill="black"/>
<path d="M35.6176 172.41H36.2285C36.6122 172.404 36.914 172.303 37.1337 172.107C37.3535 171.91 37.4633 171.645 37.4633 171.311C37.4633 170.561 37.0898 170.186 36.3427 170.186C35.9911 170.186 35.7099 170.287 35.499 170.489C35.291 170.689 35.1869 170.954 35.1869 171.285H34.374C34.374 170.778 34.5585 170.358 34.9277 170.024C35.2997 169.687 35.7714 169.518 36.3427 169.518C36.9462 169.518 37.4194 169.678 37.7621 169.997C38.1049 170.317 38.2763 170.76 38.2763 171.329C38.2763 171.607 38.1855 171.877 38.0038 172.137C37.8251 172.398 37.5805 172.593 37.27 172.722C37.6215 172.833 37.8925 173.018 38.0829 173.276C38.2763 173.533 38.373 173.848 38.373 174.22C38.373 174.795 38.1855 175.25 37.8105 175.587C37.4355 175.924 36.9477 176.092 36.3471 176.092C35.7465 176.092 35.2573 175.93 34.8793 175.605C34.5043 175.279 34.3168 174.85 34.3168 174.317H35.1342C35.1342 174.654 35.2441 174.923 35.4638 175.126C35.6835 175.328 35.978 175.429 36.3471 175.429C36.7397 175.429 37.04 175.326 37.248 175.121C37.456 174.916 37.56 174.622 37.56 174.238C37.56 173.866 37.4457 173.58 37.2172 173.381C36.9887 173.182 36.6591 173.079 36.2285 173.073H35.6176V172.41Z" fill="black"/>
<path d="M38.6279 160.922H34.4355V160.338L36.6503 157.877C36.9785 157.505 37.204 157.203 37.3271 156.971C37.4531 156.737 37.516 156.495 37.516 156.246C37.516 155.912 37.415 155.638 37.2128 155.425C37.0107 155.211 36.7411 155.104 36.4042 155.104C35.9999 155.104 35.685 155.219 35.4594 155.451C35.2368 155.679 35.1254 155.999 35.1254 156.409H34.3124C34.3124 155.82 34.5014 155.344 34.8793 154.981C35.2602 154.617 35.7685 154.436 36.4042 154.436C36.999 154.436 37.4692 154.593 37.8149 154.906C38.1606 155.217 38.3334 155.631 38.3334 156.15C38.3334 156.78 37.9321 157.53 37.1293 158.4L35.4155 160.259H38.6279V160.922Z" fill="black"/>
<path d="M37.1074 145.84H36.29V140.421L34.6508 141.023V140.285L36.9799 139.411H37.1074V145.84Z" fill="black"/>
</svg>
