<svg width="900" height="610" viewBox="0 0 900 610" fill="none" xmlns="http://www.w3.org/2000/svg">
<rect width="900" height="610" fill="white"/>
<rect y="441" width="900" height="169" fill="#959595"/>
<rect width="900" height="441" fill="#545454"/>
<rect x="307.958" y="270.077" width="7.55437" height="170.923" fill="#434343"/>
<rect x="307.958" y="270.077" width="7.55437" height="170.923" fill="#434343"/>
<rect x="585.816" y="270.077" width="7.55437" height="170.923" fill="#434343"/>
<rect x="585.816" y="270.077" width="7.55437" height="170.923" fill="#434343"/>
<rect x="315.512" y="269.033" width="270.304" height="80.0363" fill="#979797"/>
<rect x="307.958" y="262.66" width="285.413" height="7.41647" fill="#434343"/>
<rect x="303" y="349.069" width="294" height="64" fill="#B9B9B9"/>
<path d="M351.793 312.16C354.654 305.588 414.841 306.726 418.532 312.16C422.224 317.595 423.149 349.069 418.532 349.069C413.916 349.069 357.013 349.069 351.793 349.069C346.573 349.069 348.933 318.733 351.793 312.16Z" fill="#E8E8E8"/>
<path d="M481.96 312.16C484.82 305.588 545.007 306.726 548.699 312.16C552.39 317.595 553.315 349.069 548.699 349.069C544.083 349.069 487.18 349.069 481.96 349.069C476.74 349.069 479.1 318.733 481.96 312.16Z" fill="#E8E8E8"/>
<rect x="24" y="84.4592" width="189" height="314" fill="#8F8F8F"/>
<rect x="116.028" y="84.4592" width="4.94429" height="314" fill="#4A4A4A"/>
<rect x="70.0793" y="238.403" width="26.3561" height="6.11154" fill="#4A4A4A"/>
<rect x="140.564" y="238.403" width="26.3561" height="6.11154" fill="#4A4A4A"/>
<rect x="27.0558" y="398.459" width="9.16732" height="42.5408" fill="#4A4A4A"/>
<rect x="198.943" y="398.459" width="9.16732" height="42.5408" fill="#4A4A4A"/>
<rect x="226.796" y="351.634" width="67.3662" height="75.4007" fill="#424242"/>
<rect x="232.279" y="427.034" width="4.24932" height="13.9655" fill="#BCBCBC"/>
<rect x="287.048" y="427.034" width="4.24932" height="13.9655" fill="#BCBCBC"/>
<rect x="226.796" y="426.378" width="67.3662" height="1.31314" fill="#0E0E0E"/>
<rect x="226.796" y="426.378" width="67.3662" height="1.31314" fill="#0E0E0E"/>
<rect x="226.796" y="426.378" width="67.3662" height="1.31314" fill="#0E0E0E"/>
<rect x="226.796" y="402.036" width="67.3662" height="1.31314" fill="#0E0E0E"/>
<rect x="226.796" y="402.036" width="67.3662" height="1.31314" fill="#0E0E0E"/>
<rect x="226.796" y="402.036" width="67.3662" height="1.31314" fill="#0E0E0E"/>
<rect x="226.796" y="376.835" width="67.3662" height="1.31314" fill="#0E0E0E"/>
<rect x="226.796" y="376.835" width="67.3662" height="1.31314" fill="#0E0E0E"/>
<rect x="226.796" y="376.835" width="67.3662" height="1.31314" fill="#0E0E0E"/>
<rect x="248.004" y="387.758" width="23.1985" height="4.6689" fill="#0E0E0E"/>
<rect x="248.004" y="412.959" width="23.1985" height="4.6689" fill="#0E0E0E"/>
<rect x="248.004" y="362.556" width="23.1985" height="4.6689" fill="#0E0E0E"/>
<rect x="605.838" y="351.634" width="67.3662" height="75.4007" fill="#424242"/>
<rect x="611.321" y="427.034" width="4.24932" height="13.9655" fill="#BCBCBC"/>
<rect x="666.091" y="427.034" width="4.24932" height="13.9655" fill="#BCBCBC"/>
<rect x="605.838" y="426.378" width="67.3662" height="1.31314" fill="#0E0E0E"/>
<rect x="605.838" y="426.378" width="67.3662" height="1.31314" fill="#0E0E0E"/>
<rect x="605.838" y="426.378" width="67.3662" height="1.31314" fill="#0E0E0E"/>
<rect x="605.838" y="402.036" width="67.3662" height="1.31314" fill="#0E0E0E"/>
<rect x="605.838" y="402.036" width="67.3662" height="1.31314" fill="#0E0E0E"/>
<rect x="605.838" y="402.036" width="67.3662" height="1.31314" fill="#0E0E0E"/>
<rect x="605.838" y="376.835" width="67.3662" height="1.31314" fill="#0E0E0E"/>
<rect x="605.838" y="376.835" width="67.3662" height="1.31314" fill="#0E0E0E"/>
<rect x="605.838" y="376.835" width="67.3662" height="1.31314" fill="#0E0E0E"/>
<rect x="627.046" y="387.758" width="23.1985" height="4.6689" fill="#0E0E0E"/>
<rect x="627.046" y="412.959" width="23.1985" height="4.6689" fill="#0E0E0E"/>
<rect x="627.046" y="362.556" width="23.1985" height="4.6689" fill="#0E0E0E"/>
<rect x="682.042" y="84.4592" width="203.073" height="356.541" fill="#727272"/>
<path d="M829.933 279.27H865.25V271.184H829.933V279.27Z" fill="#1C1C1C"/>
</svg>
