<svg width="1717" height="573" viewBox="0 0 1717 573" fill="none" xmlns="http://www.w3.org/2000/svg">
<rect width="1717" height="573" fill="white"/>
<rect y="398" width="1717" height="175" fill="#B0B0B0"/>
<rect width="1717" height="398" fill="#D0C9C9"/>
<path d="M325.161 254.028L477.891 254.028L478.526 398H325.161V254.028Z" fill="#EDEDED"/>
<path d="M329.038 239.188H474.083L477.887 254.028H325.161L329.038 239.188Z" fill="#3D3D3D"/>
<rect x="325.161" y="296.126" width="153.365" height="3.20594" fill="#3D3D3D"/>
<rect x="325.161" y="385.938" width="153.365" height="12.0625" fill="#3D3D3D"/>
<rect x="325.161" y="341.032" width="153.365" height="3.20594" fill="#3D3D3D"/>
<rect x="382.529" y="270.939" width="38.6286" height="8.27508" fill="#3D3D3D"/>
<rect x="382.21" y="316.044" width="38.6286" height="8.27508" fill="#3D3D3D"/>
<rect x="382.529" y="360.95" width="38.6286" height="8.27508" fill="#3D3D3D"/>
<rect x="464.532" y="239.188" width="25.1595" height="14.8407" fill="#3D3D3D"/>
<path d="M477.887 254.028L630.617 254.028L631.252 398H477.887V254.028Z" fill="#EDEDED"/>
<path d="M481.765 239.188H626.809L630.614 254.028H477.887L481.765 239.188Z" fill="#3D3D3D"/>
<rect x="477.887" y="296.126" width="153.365" height="3.20594" fill="#3D3D3D"/>
<rect x="477.887" y="385.938" width="153.365" height="12.0625" fill="#3D3D3D"/>
<rect x="477.887" y="341.032" width="153.365" height="3.20594" fill="#3D3D3D"/>
<rect x="535.255" y="270.94" width="38.6286" height="8.27508" fill="#3D3D3D"/>
<rect x="534.936" y="316.044" width="38.6286" height="8.27508" fill="#3D3D3D"/>
<rect x="535.255" y="360.95" width="38.6286" height="8.27508" fill="#3D3D3D"/>
<rect x="476.494" y="254.028" width="2.7869" height="131.909" fill="#3D3D3D"/>
<path d="M795.393 254.028L948.123 254.028L948.759 398H795.393V254.028Z" fill="#EDEDED"/>
<path d="M799.271 239.188H944.315L948.12 254.028H795.393L799.271 239.188Z" fill="#3D3D3D"/>
<rect x="795.393" y="296.126" width="153.365" height="3.20594" fill="#3D3D3D"/>
<rect x="795.393" y="385.938" width="153.365" height="12.0625" fill="#3D3D3D"/>
<rect x="795.393" y="341.032" width="153.365" height="3.20594" fill="#3D3D3D"/>
<rect x="852.762" y="270.94" width="38.6286" height="8.27508" fill="#3D3D3D"/>
<rect x="852.442" y="316.044" width="38.6286" height="8.27508" fill="#3D3D3D"/>
<rect x="852.762" y="360.95" width="38.6286" height="8.27508" fill="#3D3D3D"/>
<rect x="636" y="254.028" width="154.12" height="143.972" fill="#E7E7E7"/>
<path d="M639.913 239.188H786.281L790.12 254.028H636L639.913 239.188Z" fill="#A8A8A8"/>
<rect x="662.348" y="294.538" width="101.424" height="62.9529" fill="#C4C4C4"/>
<rect x="662.348" y="323.683" width="101.424" height="2.33159" fill="#777777"/>
<rect x="660.774" y="287.65" width="104.572" height="6.88793" fill="#4A4A4A"/>
<ellipse cx="682.597" cy="246.608" rx="20.2492" ry="5.66761" fill="#797979"/>
<ellipse cx="743.523" cy="246.608" rx="20.2492" ry="5.66761" fill="#797979"/>
<rect x="639.947" y="228.166" width="146.328" height="11.0215" fill="#ADADAD"/>
<path fill-rule="evenodd" clip-rule="evenodd" d="M1150.07 77.016C1150.07 2.328 970 37.0659 970 77.016C970 116.966 970 183.587 970 183.587H1150.07C1150.07 183.587 1150.07 151.704 1150.07 77.016Z" fill="#F0F0F0"/>
<path d="M970 398H1150.07V183.587H970V398Z" fill="#F0F0F0"/>
<rect x="970" y="149.923" width="180.071" height="2.96905" fill="#7C7C7C"/>
<rect x="1114.21" y="92.3484" width="13.0639" height="43.2093" fill="#7C7C7C"/>
<rect x="1114.21" y="174.807" width="13.0639" height="141.237" fill="#7C7C7C"/>
<rect x="1341.65" y="280.538" width="10.5688" height="117.462" fill="#5B5B5B"/>
<rect x="1580.92" y="280.538" width="10.5688" height="117.462" fill="#5B5B5B"/>
<path d="M1332.05 268.12H1607.03L1615.29 311.142H1323.17L1332.05 268.12Z" fill="#AFAFAF"/>
<path d="M1700.38 228.744C1700.44 223.309 1689.82 223.379 1689.81 228.744C1689.81 234.109 1689.81 317.434 1689.81 317.434V398H1700.38V317.434C1700.38 317.434 1700.33 234.179 1700.38 228.744Z" fill="#5B5B5B"/>
<rect width="10.57" height="80.2312" transform="matrix(-1 0 0 1 1634.57 317.769)" fill="#5B5B5B"/>
<rect width="18.968" height="76.2151" transform="matrix(0 -1 -1 0 1700.22 336.737)" fill="#5B5B5B"/>
<path d="M1239.26 228.744C1239.2 223.309 1249.83 223.379 1249.83 228.744C1249.83 234.109 1249.83 317.434 1249.83 317.434V398H1239.26V317.434C1239.26 317.434 1239.32 234.179 1239.26 228.744Z" fill="#5B5B5B"/>
<rect x="1305.08" y="317.769" width="10.57" height="80.2312" fill="#5B5B5B"/>
<rect x="1239.43" y="336.737" width="18.968" height="76.2151" transform="rotate(-90 1239.43 336.737)" fill="#5B5B5B"/>
<ellipse cx="1365.11" cy="286.5" rx="23.4556" ry="7.27419" fill="#E0E0E0"/>
<ellipse cx="1365.11" cy="286.5" rx="23.4556" ry="7.27419" fill="#E0E0E0"/>
<ellipse cx="1365.11" cy="286.5" rx="23.4556" ry="7.27419" fill="#E0E0E0"/>
<ellipse cx="1365.11" cy="286.5" rx="23.4556" ry="7.27419" fill="#E0E0E0"/>
<ellipse cx="1365.11" cy="286.5" rx="23.4556" ry="7.27419" fill="#E0E0E0"/>
<ellipse cx="1568.04" cy="286.5" rx="23.4556" ry="7.27419" fill="#E0E0E0"/>
<ellipse cx="1568.04" cy="286.5" rx="23.4556" ry="7.27419" fill="#E0E0E0"/>
<ellipse cx="1568.04" cy="286.5" rx="23.4556" ry="7.27419" fill="#E0E0E0"/>
<ellipse cx="1568.04" cy="286.5" rx="23.4556" ry="7.27419" fill="#E0E0E0"/>
<ellipse cx="1568.04" cy="286.5" rx="23.4556" ry="7.27419" fill="#E0E0E0"/>
<rect x="55.7053" y="55.0248" width="195.347" height="342.975" fill="#727272"/>
<path d="M197.969 242.424H231.942V234.645H197.969V242.424Z" fill="#1C1C1C"/>
</svg>
