<svg width="1021" height="423" viewBox="0 0 1021 423" fill="none" xmlns="http://www.w3.org/2000/svg">
<g clip-path="url(#clip0)">
<rect width="1021" height="423" fill="white"/>
<rect y="309" width="1021" height="114" fill="#D0D0D0"/>
<rect width="1021" height="309" fill="#BABABA"/>
<path d="M996.319 107.82L1021 114.646V320.141L996.319 308.93V107.82Z" fill="#9F9F9F"/>
<rect x="28.6929" y="70.3399" width="195.614" height="149.82" fill="#9F9F9F"/>
<rect x="40" y="79" width="173" height="132.5" fill="#D9D9D9"/>
<path fill-rule="evenodd" clip-rule="evenodd" d="M164.743 215.008C167.824 207.996 169.034 203.068 168.477 194.132C166.827 167.699 133.222 150.519 116.269 150.519C99.3168 150.519 79.5488 170.034 77.4136 194.132C76.7698 201.397 76.8348 207.054 78.9231 212.751L164.743 215.008Z" fill="#9F9E9E"/>
<path d="M40 205.091H213L226.168 221.591H27.1552L40 205.091Z" fill="#747474"/>
<path d="M97.8831 155.374C94.4405 154.482 93.0584 153.461 91.7551 150.56L94.6732 142.389L149.678 148.955C150.148 152.291 150.278 154.078 147.49 155.374C144.458 158.548 142.469 159.002 138.59 158.292L129.982 160.189L120.498 161.648L111.16 160.189L104.157 159.022C100.606 158.991 99.4117 157.967 97.8831 155.374Z" fill="#424242"/>
<path d="M147.823 132.258C147.823 149.873 145.09 162.616 121.034 162.616C98.2175 162.616 94.7908 149.873 94.7908 132.258C94.7908 114.643 106.238 101.912 121.034 101.912C135.829 101.912 147.823 114.643 147.823 132.258Z" fill="#F5F5F5"/>
<circle cx="109.343" cy="130.898" r="4.71721" fill="#232323"/>
<circle cx="133.552" cy="130.898" r="4.71721" fill="#232323"/>
<path d="M121.895 135.808C121.895 135.808 123.824 139.12 123.944 139.841C124.063 140.562 121.895 140.865 121.895 140.865" stroke="#E2E2E2" stroke-width="0.5"/>
<path d="M93.4327 148.461C93.3846 151.748 92.5134 153.511 88.9969 151.346C88.09 150.565 87.8897 149.975 88.3657 148.461C85.1492 146.653 84.81 145.198 87.6616 141.427C85.3775 137.579 85.6058 135.488 88.4731 131.869C86.5205 127.596 87.1653 126.096 90.1864 124.384C87.6686 118.878 87.9559 116.364 94.2442 113.834C92.6142 109.401 93.3114 107.901 97.1298 106.801C97.8452 101.613 99.8608 100.773 104.614 100.759C107.498 96.8358 109.537 95.8135 114.533 97.7832C118.123 95.4604 120.234 95.2235 124.272 97.7832C130.09 96.0065 133.135 96.1544 137.618 101.39C143.114 102.625 145.078 104.32 146.004 109.686C150.976 111.585 151.79 114.183 152.226 119.605C156.977 123.273 157.381 125.929 156.284 131.147C158.391 134.289 158.817 136.261 157.185 140.435C158.018 143.39 157.96 144.926 155.833 147.198C156.192 150.175 155.486 151.474 153.759 153.601C152.951 154.545 152.759 155.33 150.783 155.133C149.532 154.903 149.06 154.4 148.709 152.699C146.387 149.888 145.094 148.309 146.004 143.952C145.391 141.03 146.057 139.417 148.078 136.558C144.906 134.138 143.941 132.294 144.651 127.54C140.924 126.909 138.886 126.454 136.806 122.671C134.418 123.803 133.308 123.614 131.666 122.04C128.466 125.02 126.648 126.626 122.288 126.458C117.745 126.613 115.745 125.484 113.271 120.958C109.392 121.636 107.401 121.573 104.614 119.605C104.097 122.153 103.317 123.258 100.647 124.384C102.193 127.548 102.117 129.368 100.647 132.68C102.091 135.489 102.185 136.985 101.278 139.534C101.141 142.157 100.788 143.48 98.6627 145.034C98.2942 148.11 97.9086 149.648 93.4327 148.461Z" fill="#555555"/>
<path d="M116.305 149.259C117.899 149.525 118.778 149.788 120.387 149.939C122.504 150.139 123.715 150.139 125.831 149.939" stroke="black" stroke-width="0.5"/>
<rect x="726.182" y="250.638" width="4.69675" height="58.3622" fill="#808080"/>
<rect x="872.887" y="250.638" width="4.69676" height="58.3622" fill="#808080"/>
<path d="M720.077 240.032L885.216 240.032L889 255.967H716L720.077 240.032Z" fill="#808080"/>
<rect x="671" y="206.5" width="4.39554" height="102.5" fill="#808080"/>
<path d="M671 203H675.396V264.306H671V203Z" fill="#808080"/>
<rect x="700.323" y="268.277" width="4.39554" height="40.7234" fill="#808080"/>
<path d="M671 270.495L672.904 261.491H706L704.644 270.495H671Z" fill="#808080"/>
<rect width="4.39554" height="102.5" transform="matrix(-1 0 0 1 934 206.5)" fill="#808080"/>
<path d="M934 203H929.604V264.306H934V203Z" fill="#808080"/>
<rect width="4.39554" height="40.7234" transform="matrix(-1 0 0 1 904.677 268.277)" fill="#808080"/>
<path d="M934 270.495L932.096 261.491H899L900.356 270.495H934Z" fill="#808080"/>
<path d="M433.198 268.277H437.593V289.719V309H433.198C435.944 280.695 435.884 272.025 433.198 268.277Z" fill="#808080"/>
<path d="M464.97 268.277H460.575V289.719V309H464.97C462.225 280.695 462.285 272.025 464.97 268.277Z" fill="#808080"/>
<path d="M433.198 203H437.593V268.277H433.198V203Z" fill="#808080"/>
<path d="M435.396 270.495V261.491H466L464.814 270.495H435.396Z" fill="#808080"/>
<path d="M599 268.277H594.578V289.719V309H599C596.238 280.695 596.298 272.025 599 268.277Z" fill="#808080"/>
<path d="M567.036 268.277H571.458V289.719V309H567.036C569.798 280.695 569.738 272.025 567.036 268.277Z" fill="#808080"/>
<path d="M599 203H594.578V268.277H599V203Z" fill="#808080"/>
<path d="M596.789 270.495V261.491H566L567.193 270.495H596.789Z" fill="#808080"/>
<ellipse cx="517" cy="239.263" rx="51" ry="10.2629" fill="#808080"/>
<path d="M484.307 242.281H490.625V309H484.307C485.983 279.498 491.777 252.971 484.307 242.281Z" fill="#808080"/>
<path d="M547.487 242.281H541.169V309H547.487C545.811 279.498 540.017 252.971 547.487 242.281Z" fill="#808080"/>
<path d="M946.686 326.9C946.686 325.821 947.608 324.947 948.745 324.947C949.882 324.947 950.804 325.821 950.804 326.9V359.447C950.804 360.525 949.882 361.4 948.745 361.4C947.608 361.4 946.686 360.525 946.686 359.447V326.9Z" fill="white"/>
<path fill-rule="evenodd" clip-rule="evenodd" d="M946.686 356.192H950.804V364.004H948.059H946.686H943.941V362.702C943.941 361.983 944.556 361.4 945.314 361.4H946.686V356.192Z" fill="#606060"/>
<path d="M948.059 293.702L934.984 344.475H961.134L948.059 293.702Z" fill="#232323"/>
<path d="M949.556 310.096C949.541 309.551 949.07 309.116 948.495 309.116C947.923 309.116 947.454 309.546 947.434 310.088L946.736 328.96C946.709 329.697 947.331 330.308 948.108 330.308H948.713C949.485 330.308 950.105 329.704 950.085 328.971L949.556 310.096Z" fill="white"/>
<path d="M912.703 265.704C912.703 287.993 916.134 304.117 946.331 304.117C985.448 304.117 979.272 287.993 979.272 265.704C979.272 243.414 964.902 227.305 946.331 227.305C927.759 227.305 912.703 243.414 912.703 265.704Z" fill="#F5F5F5"/>
<path d="M925.412 283.287C922.759 283.287 920.608 281.246 920.608 278.73C920.608 276.213 922.759 274.173 925.412 274.173C928.065 274.173 930.216 276.213 930.216 278.73C930.216 281.246 928.065 283.287 925.412 283.287Z" fill="#232323"/>
<path d="M913.745 279.381L911.368 287.192H916.122L913.745 279.381Z" fill="#F5F5F5"/>
<path d="M925.195 293.084C925.554 292.97 925.943 293.155 926.063 293.496C926.183 293.837 925.988 294.205 925.629 294.319L925.195 293.084ZM921.294 295.004C920.915 295.004 920.608 294.712 920.608 294.353C920.608 293.993 920.915 293.702 921.294 293.702V295.004ZM925.629 294.319L924.626 294.636L924.192 293.401L925.195 293.084L925.629 294.319ZM922.239 295.004H921.294V293.702H922.239V295.004ZM924.626 294.636C923.857 294.879 923.051 295.004 922.239 295.004V293.702C922.903 293.702 923.563 293.6 924.192 293.401L924.626 294.636Z" fill="black"/>
<path d="M912.381 252.527L911.864 255.026C911.289 257.803 911 260.627 911 263.457V268.966H935.04C939.726 268.966 943.525 272.569 943.525 277.014V303.466L953.158 305.394C957.557 306.274 962.063 306.581 966.55 306.305L981 305.419V289.145V274.173V263.972C981 260.803 980.598 257.646 979.802 254.569C978.265 248.626 975.292 243.103 971.118 238.437L969.246 236.345C968.128 235.094 966.898 233.933 965.575 232.878C960.017 228.443 952.977 226.004 945.714 226.004C940.118 226.004 934.627 227.448 929.831 230.181L928.237 231.09C924.328 233.318 920.931 236.269 918.249 239.767C915.337 243.564 913.334 247.919 912.381 252.527Z" fill="#232323"/>
<path d="M946.686 326.9C946.686 325.821 947.608 324.947 948.745 324.947C949.882 324.947 950.804 325.821 950.804 326.9V359.447C950.804 360.525 949.882 361.4 948.745 361.4C947.608 361.4 946.686 360.525 946.686 359.447V326.9Z" fill="white"/>
<path fill-rule="evenodd" clip-rule="evenodd" d="M946.686 356.192H950.804V364.004H948.059H946.686H943.941V362.702C943.941 361.983 944.556 361.4 945.314 361.4H946.686V356.192Z" fill="#606060"/>
<path d="M948.059 293.702L934.984 344.475H961.134L948.059 293.702Z" fill="#232323"/>
<path d="M949.556 310.096C949.541 309.551 949.07 309.116 948.495 309.116C947.923 309.116 947.454 309.546 947.434 310.088L946.736 328.96C946.709 329.697 947.331 330.308 948.108 330.308H948.713C949.485 330.308 950.105 329.703 950.085 328.971L949.556 310.096Z" fill="white"/>
<path d="M912.703 265.704C912.703 287.993 916.134 304.117 946.331 304.117C985.448 304.117 979.272 287.993 979.272 265.704C979.272 243.414 964.902 227.305 946.331 227.305C927.759 227.305 912.703 243.414 912.703 265.704Z" fill="#F5F5F5"/>
<path d="M925.412 283.287C922.759 283.287 920.608 281.246 920.608 278.73C920.608 276.213 922.759 274.173 925.412 274.173C928.065 274.173 930.216 276.213 930.216 278.73C930.216 281.246 928.065 283.287 925.412 283.287Z" fill="#232323"/>
<path d="M925.195 293.084C925.554 292.97 925.943 293.155 926.063 293.496C926.183 293.837 925.988 294.206 925.629 294.319L925.195 293.084ZM921.294 295.004C920.915 295.004 920.608 294.712 920.608 294.353C920.608 293.993 920.915 293.702 921.294 293.702V295.004ZM925.629 294.319L924.626 294.636L924.192 293.401L925.195 293.084L925.629 294.319ZM922.239 295.004H921.294V293.702H922.239V295.004ZM924.626 294.636C923.857 294.879 923.051 295.004 922.239 295.004V293.702C922.903 293.702 923.563 293.6 924.192 293.401L924.626 294.636Z" fill="black"/>
<path d="M912.381 252.527L911.864 255.026C911.289 257.803 911 260.627 911 263.457V268.966H935.04C939.726 268.966 943.525 272.569 943.525 277.014V303.466L953.158 305.394C957.557 306.274 962.063 306.581 966.55 306.305L981 305.419V289.145V274.173V263.972C981 260.803 980.598 257.646 979.802 254.569C978.265 248.626 975.292 243.103 971.118 238.437L969.246 236.345C968.128 235.094 966.898 233.933 965.575 232.878C960.017 228.443 952.977 226.004 945.714 226.004C940.118 226.004 934.627 227.448 929.831 230.181L928.237 231.09C924.328 233.318 920.931 236.269 918.249 239.767C915.337 243.564 913.334 247.919 912.381 252.527Z" fill="#232323"/>
<path d="M938.649 240.416L941.102 241.586C941.779 241.909 942.052 242.691 941.711 243.334L939.245 247.987C938.905 248.629 938.08 248.888 937.402 248.565L934.95 247.395C934.273 247.072 934 246.29 934.34 245.647L936.806 240.995C937.147 240.352 937.972 240.093 938.649 240.416Z" fill="#F5F5F5"/>
<path d="M938.026 244.491L929.273 232.745L922.866 244.833L938.026 244.491Z" fill="#F5F5F5"/>
<path d="M938.026 244.491L929.273 232.745L922.866 244.833L938.026 244.491Z" fill="#F5F5F5"/>
<path d="M938.026 244.491L929.273 232.745L922.866 244.833L938.026 244.491Z" fill="#F5F5F5"/>
<path d="M938.026 244.491L946.778 256.236L953.186 244.149L938.026 244.491Z" fill="#F5F5F5"/>
<path d="M938.026 244.491L946.778 256.236L953.186 244.149L938.026 244.491Z" fill="#F5F5F5"/>
<path d="M938.026 244.491L946.778 256.236L953.186 244.149L938.026 244.491Z" fill="#F5F5F5"/>
<path d="M946.686 353.589H950.804V354.89H946.686V353.589Z" fill="#232323"/>
<path d="M946.686 345.777H950.804V347.079H946.686V345.777Z" fill="#232323"/>
<path d="M946.686 348.381H950.804V349.683H946.686V348.381Z" fill="#232323"/>
<path d="M946.686 350.985H950.804V352.287H946.686V350.985Z" fill="#232323"/>
<path d="M950.804 344.475H946.686V345.777H950.804V344.475Z" fill="#C4C4C4"/>
<path d="M950.804 347.079H946.686V348.381H950.804V347.079Z" fill="#C4C4C4"/>
<path d="M950.804 349.683H946.686V350.985H950.804V349.683Z" fill="#C4C4C4"/>
<path d="M950.804 352.287H946.686V353.588H950.804V352.287Z" fill="#C4C4C4"/>
<path d="M950.804 354.89H946.686V356.192H950.804V354.89Z" fill="#C4C4C4"/>
<path d="M946.686 353.589H950.804V354.89H946.686V353.589Z" fill="#232323"/>
<path d="M946.686 345.777H950.804V347.079H946.686V345.777Z" fill="#232323"/>
<path d="M946.686 348.381H950.804V349.683H946.686V348.381Z" fill="#232323"/>
<path d="M946.686 350.985H950.804V352.287H946.686V350.985Z" fill="#232323"/>
<path d="M257.929 184.647L316.315 175.722L324.988 281.143L265.704 291.801L257.929 184.647Z" fill="#A1A1A1"/>
<path d="M261.625 190.047L313.587 182.103L321.306 275.926L268.544 285.411L261.625 190.047Z" fill="#C4C4C4"/>
<rect x="278.745" y="285.411" width="4.58748" height="23.589" fill="#A1A1A1"/>
<rect x="305.89" y="281.007" width="4.58748" height="27.993" fill="#A1A1A1"/>
<path d="M275.549 190.25L278.699 195.647L280.147 189.568L281.35 189.39L282.392 196.423L281.465 196.56L281.059 193.821L280.708 190.852L279.243 196.889L278.533 196.994L275.387 191.656L275.915 194.584L276.321 197.322L275.393 197.46L274.351 190.427L275.549 190.25ZM287.523 192.34L284.475 192.792L284.845 195.284L288.385 194.76L288.497 195.518L284.03 196.18L282.988 189.147L287.407 188.492L287.52 189.256L284.028 189.773L284.363 192.034L287.411 191.582L287.523 192.34ZM295.057 194.546L294.124 194.684L289.781 189.789L290.584 195.209L289.652 195.347L288.61 188.314L289.542 188.176L293.899 193.094L293.092 187.65L294.015 187.513L295.057 194.546ZM300.612 186.536L301.321 191.317C301.416 191.981 301.287 192.555 300.934 193.038C300.585 193.521 300.059 193.841 299.359 193.997L299.114 194.043C298.344 194.157 297.7 194.041 297.181 193.693C296.662 193.345 296.346 192.808 296.232 192.081L295.522 187.29L296.439 187.154L297.145 191.916C297.22 192.425 297.419 192.801 297.741 193.042C298.063 193.281 298.483 193.362 299.001 193.285C299.526 193.207 299.906 193.008 300.142 192.687C300.38 192.365 300.462 191.95 300.387 191.441L299.68 186.674L300.612 186.536Z" fill="#606060"/>
</g>
<defs>
<clipPath id="clip0">
<rect width="1021" height="423" fill="white"/>
</clipPath>
</defs>
</svg>
