<svg width="2791" height="770" viewBox="0 0 2791 770" fill="none" xmlns="http://www.w3.org/2000/svg">
<rect width="2791" height="770" fill="#A03737"/>
<rect width="2791" height="770" fill="white"/>
<rect width="2791" height="623" fill="#E9E9E9"/>
<path d="M2285.5 358L2282.5 339L2275.5 318.5L2269.5 307.5L2259 300L2253.5 298L2245.5 300L2242.5 302" stroke="#757575"/>
<path d="M2246 303L2243 301.5H2242.5H2240.5L2238.5 303L2236 306L2234.5 309.5L2234 312L2235 312.5L2236 313V313.5L2237.5 314V314.5L2238 315L2239 314.5L2238.5 314V313.5L2239.5 313L2240 313.5L2240.5 315L2241 314.5L2242 313.5L2242.5 314.5L2243 314L2243.5 314.5H2244L2244.5 314H2245L2246 314.5L2248 314V310.5L2247 306L2246 303Z" fill="#575757" stroke="#575757"/>
<rect y="623" width="2791" height="147" fill="#C1C1C1"/>
<path d="M259 465H737V559H259V465Z" fill="#7D7D7D"/>
<rect x="723" y="559" width="14" height="64" fill="#494949"/>
<rect x="259" y="558" width="14" height="66" fill="#494949"/>
<rect x="273" y="110" width="451" height="250" fill="white"/>
<circle cx="644" cy="188" r="38" fill="#C4C4C4"/>
<rect x="275" y="113" width="445" height="244" stroke="#6D6D6D" stroke-width="6"/>
<rect x="492" y="110" width="5" height="249" fill="#6D6D6D"/>
<path d="M369 465H259C259 465 269.5 440.19 273.5 435.962C277.5 431.733 286 429.195 290.5 428.068C295 426.94 311.5 426.376 317.5 428.068C323.5 429.759 333 432.297 341.5 435.962C350 439.627 369 465 369 465Z" fill="white" stroke="white"/>
<rect x="2471" y="138" width="276" height="485" fill="#727272"/>
<path d="M2672 403H2720V392H2672V403Z" fill="#1C1C1C"/>
<ellipse cx="77" cy="336.5" rx="27" ry="36.5" fill="#5E5E5E"/>
<ellipse cx="188" cy="336.5" rx="27" ry="36.5" fill="#5E5E5E"/>
<ellipse cx="188" cy="336.5" rx="21" ry="28.5" fill="#C4C4C4"/>
<ellipse cx="77" cy="335" rx="21" ry="28" fill="#C4C4C4"/>
<ellipse cx="130.5" cy="379" rx="64.5" ry="67" fill="#5E5E5E"/>
<circle cx="161.5" cy="365.5" r="13.5" fill="#C4C4C4"/>
<circle cx="104.5" cy="365.5" r="13.5" fill="#C4C4C4"/>
<circle cx="161.5" cy="365.5" r="9.5" fill="black"/>
<circle cx="104.5" cy="365.5" r="9.5" fill="black"/>
<path d="M130.302 386.579C129.579 387.079 127.579 388.079 128.079 388.579C128.579 389.079 130.746 391.079 131.413 391.579C132.079 392.079 134.079 392.079 134.746 391.579C135.413 391.079 137.579 389.079 138.079 388.579C138.579 388.079 136.892 387.119 135.857 386.579C133.934 385.575 131.024 386.079 130.302 386.579Z" fill="#C4C4C4" stroke="#C4C4C4"/>
<ellipse cx="183.695" cy="585.934" rx="25.06" ry="51.435" transform="rotate(-50.788 183.695 585.934)" fill="#5E5E5E"/>
<ellipse cx="82.4503" cy="585.358" rx="25.06" ry="51.4352" transform="rotate(49.7558 82.4503 585.358)" fill="#5E5E5E"/>
<ellipse cx="51.9277" cy="478.365" rx="16.5224" ry="47.5444" transform="rotate(35.2398 51.9277 478.365)" fill="#5E5E5E"/>
<ellipse cx="39.0019" cy="496.029" rx="9.03001" ry="16.6841" transform="rotate(35.2398 39.0019 496.029)" fill="#C4C4C4"/>
<ellipse cx="208.232" cy="478.215" rx="16.52" ry="47.545" transform="rotate(-35.8416 208.232 478.215)" fill="#5E5E5E"/>
<ellipse cx="222.09" cy="496.813" rx="9.03" ry="16.685" transform="rotate(-35.8416 222.09 496.813)" fill="#C4C4C4"/>
<ellipse cx="130.5" cy="513" rx="78.5" ry="111" fill="#5E5E5E"/>
<rect x="1079" y="61" width="333" height="487" fill="#C4C4C4"/>
<rect x="1079" y="61" width="333" height="11" fill="#838383"/>
<rect x="1079" y="161" width="333" height="11" fill="#838383"/>
<rect x="1079" y="261" width="333" height="11" fill="#838383"/>
<rect x="1079" y="361" width="333" height="11" fill="#838383"/>
<rect x="1090" y="61" width="400" height="11" transform="rotate(90 1090 61)" fill="#838383"/>
<rect x="1090" y="223" width="400" height="11" transform="rotate(90 1090 223)" fill="#838383"/>
<rect x="1412" y="226" width="400" height="11" transform="rotate(90 1412 226)" fill="#838383"/>
<rect x="1412" y="61" width="400" height="11" transform="rotate(90 1412 61)" fill="#838383"/>
<rect x="1079" y="461" width="333" height="87" fill="#838383"/>
<rect x="1526" y="112" width="550" height="260" fill="#C4C4C4"/>
<rect x="2066" y="112" width="10" height="260" fill="#606060"/>
<rect x="2066" y="112" width="10" height="260" fill="#606060"/>
<rect x="1526" y="112" width="10" height="260" fill="#606060"/>
<rect x="1526" y="112" width="10" height="260" fill="#606060"/>
<rect x="2076" y="112" width="10" height="550" transform="rotate(90 2076 112)" fill="#606060"/>
<rect x="2076" y="112" width="10" height="550" transform="rotate(90 2076 112)" fill="#606060"/>
<rect x="2076" y="362" width="10" height="550" transform="rotate(90 2076 362)" fill="#606060"/>
<rect x="2076" y="362" width="10" height="550" transform="rotate(90 2076 362)" fill="#606060"/>
<rect x="2229" y="437" width="11" height="184" fill="#C4C4C4"/>
<rect x="2355" y="448" width="11" height="184" fill="#C4C4C4"/>
<ellipse cx="2299" cy="437.5" rx="114" ry="24.5" fill="#ACACAC"/>
<circle cx="1803.5" cy="366.5" r="2.5" fill="#C4C4C4"/>
<path d="M2288 373.5L2293 339.5L2302 319.5L2316.5 301.5H2326" stroke="#757575"/>
<path d="M2279.5 373V354H2296.5V373L2304 387.5L2309 397.5C2309.5 398.5 2309 410.5 2309 413C2309 415.5 2307 426 2306 426.5C2305 427 2299.5 434 2299.5 435C2299.5 436 2279.5 437 2279.5 435C2279.5 433 2274.5 426.5 2273 425.5C2271.5 424.5 2269 414 2269 413V397.5C2269 396.5 2273 387.5 2273 387.5C2273 387.5 2279.5 375 2279.5 373Z" fill="#585858" stroke="#585858"/>
<path d="M2325 303L2326 301.5L2329 300.5L2331.5 301.5L2335 305L2336.5 309.5L2337 312L2337.5 315.5L2336.5 315L2335.5 316L2334.5 315L2334 315.5L2332.5 316L2332 315.5L2331.5 314L2331 315L2329.5 316V315.5L2329 315V314L2328.5 314.5L2327.5 315.5L2327 315V314.5L2326.5 314L2326 314.5L2325.5 315L2325 314.5L2324 314L2322.5 314.5L2323 312L2323.5 309.5L2324.5 305L2325 303Z" fill="#575757" stroke="#575757"/>
<ellipse cx="1124" cy="128.5" rx="16" ry="28.5" transform="rotate(-14.8611 1124 128.5)" fill="#8E8E8E"/>
<circle cx="1116.5" cy="97.5" r="15.5" fill="#8E8E8E"/>
<path d="M1142.69 148.217C1144.76 150.674 1144.36 153.585 1145.19 155.717C1146.07 158.01 1151.89 157.717 1148.58 160.5C1147.42 161.482 1145.88 160.704 1143.19 158.717C1142.19 156.717 1139.05 155.973 1137.46 154.089C1133.17 148.99 1131.19 143.595 1133.03 142.037C1134.88 140.48 1138.39 143.119 1142.69 148.217Z" fill="#8E8E8E"/>
<path d="M1111 149.826C1109.21 151.986 1109.55 154.547 1108.83 156.421C1108.06 158.437 1103 158.18 1105.88 160.627C1106.89 161.491 1110.5 159.5 1110.5 159C1110.5 158.5 1114.17 156.646 1115.55 154.989C1119.28 150.506 1121.01 145.761 1119.4 144.392C1117.79 143.022 1114.74 145.343 1111 149.826Z" fill="#8E8E8E"/>
<path d="M1105.48 127.809C1103.52 129.397 1100.66 132.192 1100.66 134.676C1100.66 137.16 1098.06 136.936 1097.41 136.572C1096.73 136.191 1096.78 134.66 1097.41 132.507C1098.01 130.455 1099.14 127.837 1100.66 125.112C1103.79 119.527 1107.41 115.604 1108.74 116.349C1110.07 117.094 1107.44 126.221 1105.48 127.809Z" fill="#8E8E8E"/>
<path d="M1139.51 121.012C1141.85 121.962 1145.39 123.809 1146.11 126.187C1146.83 128.564 1149.26 127.592 1149.78 127.056C1150.32 126.493 1149.83 125.043 1148.6 123.166C1147.43 121.376 1145.59 119.199 1143.34 117.033C1138.72 112.597 1134.13 109.891 1133.07 110.989C1132.01 112.088 1137.17 120.062 1139.51 121.012Z" fill="#8E8E8E"/>
<circle cx="1110" cy="98" r="4" fill="#EAEAEA"/>
<circle cx="1123" cy="95" r="4" fill="#EAEAEA"/>
<path d="M1115 83L1116 78.5L1118 75.5L1121 75L1124 76.5M1124 76.5C1124 76.5 1125 77 1125 77.5C1125 78 1124.5 78.5 1124 78.5C1123.5 78.5 1123.5 77.5 1124 77.5C1124.5 77.5 1124 76.5 1124 76.5Z" stroke="#8E8E8E"/>
</svg>
