<svg width="1085" height="407" viewBox="0 0 1085 407" fill="none" xmlns="http://www.w3.org/2000/svg">
<g clip-path="url(#clip0)">
<rect width="1085" height="407" fill="white"/>
<rect width="1085" height="252" fill="#E6E6E6"/>
<rect y="150.036" width="1085" height="256.964" fill="#A2A1A1"/>
<path d="M1036.56 150.036H1085V286.216V259.656L1036.56 150.036Z" fill="#6D6D6D"/>
<rect x="994.324" y="121.055" width="39.6758" height="130.945" fill="#B5B5B5"/>
<path d="M1014.36 108L994.324 118.843H1034L1014.36 108Z" fill="#939393"/>
<rect x="994.324" y="118.843" width="39.6758" height="2.21181" fill="#939393"/>
<path d="M930.147 114.344L994.324 125.985V242.425L930.147 202.106V114.344Z" fill="#939393"/>
<rect x="859.928" y="105.471" width="13.9315" height="72.4577" fill="#B5B5B5"/>
<path d="M866.961 98.2465L859.928 104.247H873.859L866.961 98.2465Z" fill="#939393"/>
<rect x="859.928" y="104.247" width="13.9315" height="1.22389" fill="#939393"/>
<path d="M873.859 106.071L912.771 111.39V194.151L873.859 175.506V106.071Z" fill="#939393"/>
<path d="M833.025 102.217L859.928 105.649V171.764L833.026 158.43L833.025 102.217Z" fill="#939393"/>
<rect x="912.771" y="112.715" width="17.3756" height="88.3715" fill="#B5B5B5"/>
<path d="M921.544 103.664L912.771 111.182H930.147L921.544 103.664Z" fill="#939393"/>
<rect x="912.771" y="111.182" width="17.3756" height="1.53346" fill="#939393"/>
<rect x="822.584" y="102.217" width="10.4418" height="56.5794" fill="#B5B5B5"/>
<path d="M827.855 96.5762L822.584 101.262H833.025L827.855 96.5762Z" fill="#939393"/>
<rect x="822.584" y="101.262" width="10.4418" height="0.955692" fill="#939393"/>
<rect x="352.274" y="99.393" width="17.7471" height="59.107" fill="#B5B5B5"/>
<path d="M361.235 93.5L352.274 98.3946H370.021L361.235 93.5Z" fill="#939393"/>
<rect x="352.274" y="98.3946" width="17.7471" height="0.998388" fill="#939393"/>
<rect x="370.022" y="101.618" width="98.0038" height="52.56" fill="#939393"/>
<path d="M476.986 93.5L468.025 98.3946H485.772L476.986 93.5Z" fill="#939393"/>
<rect x="468.025" y="98.3946" width="17.7472" height="0.998388" fill="#939393"/>
<rect x="468.025" y="99.393" width="17.7472" height="59.107" fill="#B5B5B5"/>
<rect x="236.523" y="99.393" width="17.7471" height="59.107" fill="#B5B5B5"/>
<path d="M245.484 93.5L236.523 98.3946H254.271L245.484 93.5Z" fill="#939393"/>
<rect x="236.523" y="98.3946" width="17.7471" height="0.998388" fill="#939393"/>
<rect x="254.271" y="101.618" width="98.0038" height="52.56" fill="#939393"/>
<path d="M361.235 93.5L352.274 98.3946H370.022L361.235 93.5Z" fill="#939393"/>
<rect x="352.274" y="98.3946" width="17.7472" height="0.998388" fill="#939393"/>
<rect x="352.274" y="99.393" width="17.7472" height="59.107" fill="#B5B5B5"/>
<rect x="120.772" y="99.393" width="17.7471" height="59.107" fill="#B5B5B5"/>
<path d="M129.733 93.5L120.772 98.3946H138.52L129.733 93.5Z" fill="#939393"/>
<rect x="120.772" y="98.3946" width="17.7471" height="0.998388" fill="#939393"/>
<rect x="138.52" y="101.618" width="98.0038" height="52.56" fill="#939393"/>
<path d="M245.484 93.5L236.523 98.3946H254.271L245.484 93.5Z" fill="#939393"/>
<rect x="236.523" y="98.3946" width="17.7472" height="0.998388" fill="#939393"/>
<rect x="236.523" y="99.393" width="17.7472" height="59.107" fill="#B5B5B5"/>
<rect x="5.02142" y="99.393" width="17.7471" height="59.107" fill="#B5B5B5"/>
<path d="M13.9817 93.5L5.02142 98.3946H22.7686L13.9817 93.5Z" fill="#939393"/>
<rect x="5.02142" y="98.3946" width="17.7471" height="0.998388" fill="#939393"/>
<rect x="22.7686" y="101.618" width="98.0038" height="52.56" fill="#939393"/>
<path d="M129.733 93.5L120.772 98.3946H138.52L129.733 93.5Z" fill="#939393"/>
<rect x="120.772" y="98.3946" width="17.7472" height="0.998388" fill="#939393"/>
<rect x="120.772" y="99.393" width="17.7472" height="59.107" fill="#B5B5B5"/>
<rect x="815.278" y="99.6897" width="17.7472" height="59.107" fill="#B5B5B5"/>
<path d="M824.238 93.7967L815.278 98.6913H833.025L824.238 93.7967Z" fill="#939393"/>
<rect x="815.278" y="98.6913" width="17.7472" height="0.998386" fill="#939393"/>
<rect x="699.527" y="99.6897" width="17.7472" height="59.107" fill="#B5B5B5"/>
<path d="M708.488 93.7967L699.527 98.6913H717.274L708.488 93.7967Z" fill="#939393"/>
<rect x="699.527" y="98.6913" width="17.7472" height="0.998386" fill="#939393"/>
<rect x="717.274" y="101.915" width="98.0037" height="52.56" fill="#939393"/>
<rect x="583.776" y="99.6897" width="17.7472" height="59.107" fill="#B5B5B5"/>
<path d="M592.737 93.7967L583.776 98.6913H601.523L592.737 93.7967Z" fill="#939393"/>
<rect x="583.776" y="98.6913" width="17.7472" height="0.998386" fill="#939393"/>
<rect x="601.523" y="101.915" width="98.0038" height="52.56" fill="#939393"/>
<rect x="468.025" y="99.6897" width="17.7472" height="59.107" fill="#B5B5B5"/>
<path d="M476.986 93.7967L468.025 98.6913H485.772L476.986 93.7967Z" fill="#939393"/>
<rect x="468.025" y="98.6913" width="17.7472" height="0.998386" fill="#939393"/>
<rect x="485.772" y="101.915" width="98.0038" height="52.56" fill="#939393"/>
<path d="M1034 251.747H908V128.49H1034V251.747Z" stroke="#8A8A8A" stroke-width="3"/>
<path d="M908 129.032L912.792 121.612M912.792 121.612C912.792 121.612 914.073 119.56 917.583 114.192C921.093 108.825 922.925 108.037 927.795 108.509C932.665 108.981 934.708 112.14 934.708 112.14C934.708 112.14 937.223 115.486 936.75 119.56C936.277 123.634 934.837 124.561 932.796 125.244C930.756 125.926 926.327 126 922.296 125.244C918.393 124.511 912.792 121.612 912.792 121.612Z" stroke="#8A8A8A" stroke-width="3"/>
<path d="M908 128.094L915.631 116.276M915.631 116.276C915.631 116.276 917.672 113.008 923.263 104.459C928.853 95.9108 931.77 94.6567 939.526 95.408C947.282 96.1593 950.535 101.191 950.535 101.191C950.535 101.191 954.541 106.519 953.788 113.008C953.034 119.497 950.74 120.973 947.491 122.059C944.241 123.146 937.188 123.264 930.769 122.059C924.552 120.893 915.631 116.276 915.631 116.276Z" stroke="#8A8A8A" stroke-width="3"/>
<path d="M1034 128.094L1026.37 116.276M1026.37 116.276C1026.37 116.276 1024.33 113.008 1018.74 104.459C1013.15 95.9108 1010.23 94.6567 1002.47 95.408C994.718 96.1593 991.465 101.191 991.465 101.191C991.465 101.191 987.459 106.519 988.212 113.008C988.966 119.497 991.26 120.973 994.509 122.059C997.759 123.146 1004.81 123.264 1011.23 122.059C1017.45 120.893 1026.37 116.276 1026.37 116.276Z" stroke="#8A8A8A" stroke-width="3"/>
<path d="M1034 129.032L1029.21 121.612M1029.21 121.612C1029.21 121.612 1027.93 119.56 1024.42 114.192C1020.91 108.825 1019.08 108.037 1014.2 108.509C1009.33 108.981 1007.29 112.14 1007.29 112.14C1007.29 112.14 1004.78 115.486 1005.25 119.56C1005.72 123.634 1007.16 124.561 1009.2 125.244C1011.24 125.926 1015.67 126 1019.7 125.244C1023.61 124.511 1029.21 121.612 1029.21 121.612Z" stroke="#8A8A8A" stroke-width="3"/>
<path d="M916.461 128.094L916.471 251.061" stroke="#8A8A8A" stroke-width="3"/>
<path d="M924.849 128.49L924.859 251.457" stroke="#8A8A8A" stroke-width="3"/>
<path d="M941.624 129.032L941.634 252" stroke="#8A8A8A" stroke-width="3"/>
<path d="M950.012 128.49L950.022 251.457" stroke="#8A8A8A" stroke-width="3"/>
<path d="M958.4 128.49L958.409 251.457" stroke="#8A8A8A" stroke-width="3"/>
<path d="M966.787 129.032L966.797 252" stroke="#8A8A8A" stroke-width="3"/>
<path d="M971 129.032L971 251.061" stroke="#595959" stroke-width="3"/>
<path d="M971 67L971 189.029" stroke="#595959" stroke-width="3"/>
<path d="M1029.91 121.89L1019.21 105.32M1019.21 105.32C1019.21 105.32 1016.35 100.737 1008.51 88.7509C1000.68 76.7645 996.586 75.0059 985.71 76.0594C974.834 77.1128 970.274 84.1679 970.274 84.1679C970.274 84.1679 964.656 91.6392 965.713 100.737C966.77 109.835 969.986 111.905 974.542 113.429C979.098 114.953 988.988 115.118 997.989 113.429C1006.71 111.793 1019.21 105.32 1019.21 105.32Z" stroke="#8A8A8A" stroke-width="3"/>
<path d="M912.017 121.89L922.717 105.32M922.717 105.32C922.717 105.32 925.579 100.737 933.418 88.7509C941.256 76.7645 945.346 75.0059 956.222 76.0594C967.097 77.1128 971.658 84.1679 971.658 84.1679C971.658 84.1679 977.276 91.6392 976.219 100.737C975.162 109.835 971.946 111.905 967.39 113.429C962.833 114.953 952.944 115.118 943.943 113.429C935.226 111.793 922.717 105.32 922.717 105.32Z" stroke="#8A8A8A" stroke-width="3"/>
<path d="M975.175 129.032L975.185 252" stroke="#8A8A8A" stroke-width="3"/>
<path d="M983.563 129.032L983.573 252" stroke="#8A8A8A" stroke-width="3"/>
<path d="M991.951 128.49L991.96 251.457" stroke="#8A8A8A" stroke-width="3"/>
<path d="M1000.34 128.094L1000.35 251.061" stroke="#8A8A8A" stroke-width="3"/>
<path d="M1008.73 129.032L1008.74 252" stroke="#8A8A8A" stroke-width="3"/>
<path d="M1017.11 129.032L1017.12 252" stroke="#8A8A8A" stroke-width="3"/>
<path d="M1025.5 128.094L1025.51 251.061" stroke="#8A8A8A" stroke-width="3"/>
<path d="M933.236 128.685L933.246 251.652" stroke="#8A8A8A" stroke-width="3"/>
<path d="M940.034 80.2778C940.034 80.2778 945.582 73.0773 952.885 70.325C958.958 68.0359 963.524 67.1553 971.033 67.0188C979.38 66.8671 984.957 67.602 991.442 70.325C998.089 73.1163 1001.97 80.275 1001.97 80.275" stroke="#8A8A8A" stroke-width="3"/>
<rect width="321.367" height="313.534" fill="#ADADAD"/>
<path d="M271.676 -14.5484H345.519V298.986L271.676 313.599V-14.5484Z" fill="#9A9A9A"/>
<path d="M298.447 161.73L332.29 142.604V279.046L298.447 307.47L298.447 161.73Z" fill="#717171"/>
<rect x="31.9642" y="29.5598" width="199.836" height="102.883" fill="#8E8D8D"/>
<rect x="37.4837" y="35.3633" width="188.797" height="91.2759" fill="#C4C4C4"/>
<rect x="129.122" y="35.3633" width="5.5195" height="91.2759" fill="#8E8D8D"/>
<rect x="37.4837" y="57.9302" width="5.5195" height="188.797" transform="rotate(-90 37.4837 57.9302)" fill="#8E8D8D"/>
<path d="M289.587 20.5319L340.241 8.52118V83.1051L289.587 105.129V20.5319Z" fill="#8E8D8D"/>
<path d="M291.615 23.4375L338.214 12.3883V81.0013L291.615 101.262V23.4375Z" fill="#C4C4C4"/>
<path d="M291.621 35.5075L338.214 24.504L338.214 27.8795L291.621 38.956L291.621 35.5075Z" fill="#8E8D8D"/>
<path d="M4.2 201.531L11.04 197.391H23.4V204.471H11.52V211.251H23.4V218.271H11.04L4.2 214.191V201.531ZM45.54 215.391L38.46 211.251H26.1V218.271H37.98V225.111H26.34V231.891H38.46L45.54 227.811V215.391ZM11.76 220.971V225.111H23.4V231.891H11.22L4.2 227.811V220.971H11.76ZM45.54 208.551V201.531L38.46 197.391H26.1V204.471H37.98V208.551H45.54ZM53.9461 201.531L60.7861 197.391H73.1461V204.471H61.2661V211.251H73.1461V218.271H60.7861L53.9461 214.191V201.531ZM95.2861 215.391L88.2061 211.251H75.8461V218.271H87.7261V225.111H76.0861V231.891H88.2061L95.2861 227.811V215.391ZM61.5061 220.971V225.111H73.1461V231.891H60.9661L53.9461 227.811V220.971H61.5061ZM95.2861 208.551V201.531L88.2061 197.391H75.8461V204.471H87.7261V208.551H95.2861ZM118.452 214.131V217.071H104.292V214.131H118.452ZM169.361 227.691L162.581 231.831H150.161V224.811H162.101V218.031H150.161V211.191H162.581L169.361 215.331V227.691ZM161.861 208.311V204.111H150.161V197.331H162.581L169.361 201.471V208.311H161.861ZM128.081 201.471L134.861 197.331H147.281V204.111H135.581V211.191H147.281V218.031H135.581V224.811H147.281V231.831H135.581L128.081 227.691V201.471ZM210.109 231.951H197.689V224.871H209.389V218.031H197.689V211.251H209.389V204.171H197.689V197.331H210.109L216.949 201.471V211.731L211.309 214.611L216.949 217.311V227.811L210.109 231.951ZM183.049 220.731V224.871H194.749V231.951H182.329L175.249 227.811V220.731H183.049ZM175.489 208.311V201.471L182.329 197.331H194.749V204.171H183.049V208.311H175.489ZM194.749 218.031H187.189V211.251H194.749V218.031ZM222.841 215.331L229.681 211.191H242.101V217.971H230.161V224.811H241.861V231.891H222.841V215.331ZM222.841 208.251V201.411L229.681 197.271H242.101V204.111H230.401V208.251H222.841ZM264.301 231.891H245.041V224.811H264.301V231.891ZM256.501 217.971H244.801V211.191H256.501V204.111H244.801V197.271H257.221L264.301 201.411V213.831L256.501 217.971Z" fill="black"/>
<path d="M305.438 218.981L308.598 217.936V229.571L305.438 231.092V218.981Z" fill="#C4C4C4"/>
<path d="M344.939 252L992.52 252L1034 313.599H271.676L344.939 252Z" fill="#C4C4C4"/>
<ellipse cx="572.848" cy="187.166" rx="82.0468" ry="19.9366" fill="#C4C4C4"/>
<ellipse cx="572.848" cy="187.166" rx="71.3393" ry="16.3336" fill="#868686"/>
</g>
<defs>
<clipPath id="clip0">
<rect width="1085" height="407" fill="white"/>
</clipPath>
</defs>
</svg>
