<svg width="884" height="576" viewBox="0 0 884 576" fill="none" xmlns="http://www.w3.org/2000/svg">
<g clip-path="url(#clip0)">
<rect width="884" height="576" fill="white"/>
<rect width="884" height="576" fill="#666666"/>
<rect x="611" y="266" width="402" height="44" fill="#252525"/>
<rect width="734.581" height="38.8747" transform="matrix(-0.829261 0.558861 0.558861 0.829261 602.142 270.117)" fill="#252525"/>
<rect x="513.968" y="277" width="97.0321" height="33" fill="#252525"/>
<rect x="465.452" y="310" width="97.0321" height="33" fill="#252525"/>
<rect x="416.936" y="343" width="97.0321" height="33" fill="#252525"/>
<rect x="368.42" y="376" width="97.0321" height="33" fill="#252525"/>
<rect x="319.904" y="409" width="97.0321" height="33" fill="#252525"/>
<rect x="271.388" y="442" width="97.0321" height="33" fill="#252525"/>
<rect x="222.872" y="475" width="97.0321" height="33" fill="#252525"/>
<rect x="174.356" y="508" width="97.0321" height="33" fill="#252525"/>
<rect x="125.84" y="541" width="97.0321" height="33" fill="#252525"/>
<rect x="486.824" y="200" width="97.0321" height="33" fill="#252525"/>
<rect x="535.34" y="233" width="97.0321" height="33" fill="#252525"/>
<rect x="438.308" y="167" width="97.0321" height="33" fill="#252525"/>
<rect x="341.275" y="101" width="97.0321" height="33" fill="#252525"/>
<rect x="292.759" y="68" width="97.0321" height="33" fill="#252525"/>
<rect x="244.243" y="35" width="97.0321" height="33" fill="#252525"/>
<rect x="195.727" y="2" width="97.0321" height="33" fill="#252525"/>
<rect x="389.792" y="134" width="97.0321" height="33" fill="#252525"/>
<rect x="5.88342" y="-123.516" width="734.581" height="43.2624" transform="rotate(32.7251 5.88342 -123.516)" fill="#252525"/>
</g>
<defs>
<clipPath id="clip0">
<rect width="884" height="576" fill="white"/>
</clipPath>
</defs>
</svg>
