<svg width="1865" height="425" viewBox="0 0 1865 425" fill="none" xmlns="http://www.w3.org/2000/svg">
<path d="M1865 0H0V355H1865V0Z" fill="#C4C4C4"/>
<path d="M1865 355H0V424H1865V355Z" fill="#989898"/>
<path d="M301.938 189.138C301.938 190.439 303.112 191.493 304.56 191.493C306.008 191.493 307.182 190.439 307.182 189.138C307.182 187.837 306.008 186.783 304.56 186.783C303.112 186.783 301.938 187.837 301.938 189.138Z" fill="#545454"/>
<path d="M298.66 189.153C298.66 190.454 299.834 191.508 301.282 191.508C302.73 191.508 303.904 190.454 303.904 189.153C303.904 187.852 302.73 186.798 301.282 186.798C299.834 186.798 298.66 187.852 298.66 189.153Z" fill="#545454"/>
<path d="M296.037 189.166C296.037 190.467 297.211 191.521 298.66 191.521C300.108 191.521 301.282 190.467 301.282 189.166C301.282 187.865 300.108 186.811 298.66 186.811C297.211 186.811 296.037 187.865 296.037 189.166Z" fill="#545454"/>
<path d="M292.76 189.181C292.76 190.482 293.934 191.536 295.382 191.536C296.83 191.536 298.004 190.482 298.004 189.181C298.004 187.88 296.83 186.826 295.382 186.826C293.934 186.826 292.76 187.88 292.76 189.181Z" fill="#545454"/>
<path d="M316.36 189.072C316.36 190.373 317.534 191.427 318.982 191.427C320.43 191.427 321.604 190.373 321.604 189.072C321.604 187.771 320.43 186.717 318.982 186.717C317.534 186.717 316.36 187.771 316.36 189.072Z" fill="#545454"/>
<path d="M313.738 189.084C313.738 190.385 314.912 191.439 316.36 191.439C317.808 191.439 318.982 190.385 318.982 189.084C318.982 187.783 317.808 186.729 316.36 186.729C314.912 186.729 313.738 187.783 313.738 189.084Z" fill="#545454"/>
<path d="M310.46 189.099C310.46 190.4 311.634 191.454 313.082 191.454C314.53 191.454 315.704 190.4 315.704 189.099C315.704 187.798 314.53 186.744 313.082 186.744C311.634 186.744 310.46 187.798 310.46 189.099Z" fill="#545454"/>
<path d="M307.837 189.111C307.837 190.412 309.011 191.466 310.46 191.466C311.908 191.466 313.082 190.412 313.082 189.111C313.082 187.81 311.908 186.756 310.46 186.756C309.011 186.756 307.837 187.81 307.837 189.111Z" fill="#545454"/>
<path d="M304.56 189.126C304.56 190.427 305.734 191.481 307.182 191.481C308.63 191.481 309.804 190.427 309.804 189.126C309.804 187.825 308.63 186.771 307.182 186.771C305.734 186.771 304.56 187.825 304.56 189.126Z" fill="#545454"/>
<path d="M319.638 189.056C319.638 190.357 320.812 191.411 322.26 191.411C323.708 191.411 324.882 190.357 324.882 189.056C324.882 187.755 323.708 186.701 322.26 186.701C320.812 186.701 319.638 187.755 319.638 189.056Z" fill="#545454"/>
<path d="M322.915 189.041C322.915 190.342 324.089 191.396 325.538 191.396C326.986 191.396 328.16 190.342 328.16 189.041C328.16 187.74 326.986 186.686 325.538 186.686C324.089 186.686 322.915 187.74 322.915 189.041Z" fill="#545454"/>
<path d="M326.193 189.026C326.193 190.327 327.367 191.381 328.815 191.381C330.263 191.381 331.438 190.327 331.438 189.026C331.438 187.725 330.263 186.671 328.815 186.671C327.367 186.671 326.193 187.725 326.193 189.026Z" fill="#545454"/>
<path d="M329.471 189.011C329.471 190.312 330.645 191.366 332.093 191.366C333.541 191.366 334.715 190.312 334.715 189.011C334.715 187.71 333.541 186.656 332.093 186.656C330.645 186.656 329.471 187.71 329.471 189.011Z" fill="#545454"/>
<path d="M334.715 191.354C333.267 191.354 332.093 190.299 332.093 188.999C332.093 187.698 333.267 186.644 334.715 186.644C336.163 186.644 337.338 187.698 337.338 188.999C337.338 190.299 336.163 191.354 334.715 191.354Z" fill="#545454"/>
<path d="M299.971 126.355C299.971 127.656 301.439 128.71 303.249 128.71C305.059 128.71 306.527 127.656 306.527 126.355C306.527 125.054 305.059 124 303.249 124C301.439 124 299.971 125.054 299.971 126.355Z" fill="#545454"/>
<path d="M296.694 126.355C296.694 127.656 297.868 128.71 299.316 128.71C300.764 128.71 301.938 127.656 301.938 126.355C301.938 125.054 300.764 124 299.316 124C297.868 124 296.694 125.054 296.694 126.355Z" fill="#545454"/>
<path d="M293.415 126.355C293.415 127.656 294.736 128.71 296.365 128.71C297.994 128.71 299.315 127.656 299.315 126.355C299.315 125.054 297.994 124 296.365 124C294.736 124 293.415 125.054 293.415 126.355Z" fill="#545454"/>
<path d="M290.137 126.355C290.137 127.656 291.458 128.71 293.087 128.71C294.717 128.71 296.037 127.656 296.037 126.355C296.037 125.054 294.717 124 293.087 124C291.458 124 290.137 125.054 290.137 126.355Z" fill="#545454"/>
<path d="M316.36 126.355C316.36 127.656 317.534 128.71 318.982 128.71C320.43 128.71 321.604 127.656 321.604 126.355C321.604 125.054 320.43 124 318.982 124C317.534 124 316.36 125.054 316.36 126.355Z" fill="#545454"/>
<path d="M313.082 126.355C313.082 127.656 314.403 128.71 316.032 128.71C317.661 128.71 318.982 127.656 318.982 126.355C318.982 125.054 317.661 124 316.032 124C314.403 124 313.082 125.054 313.082 126.355Z" fill="#545454"/>
<path d="M309.804 126.355C309.804 127.656 311.125 128.71 312.754 128.71C314.384 128.71 315.705 127.656 315.705 126.355C315.705 125.054 314.384 124 312.754 124C311.125 124 309.804 125.054 309.804 126.355Z" fill="#545454"/>
<path d="M307.182 126.355C307.182 127.656 308.356 128.71 309.804 128.71C311.253 128.71 312.427 127.656 312.427 126.355C312.427 125.054 311.253 124 309.804 124C308.356 124 307.182 125.054 307.182 126.355Z" fill="#545454"/>
<path d="M303.249 126.355C303.249 127.656 304.57 128.71 306.199 128.71C307.828 128.71 309.149 127.656 309.149 126.355C309.149 125.054 307.828 124 306.199 124C304.57 124 303.249 125.054 303.249 126.355Z" fill="#545454"/>
<path d="M319.638 126.355C319.638 127.656 320.959 128.71 322.588 128.71C324.218 128.71 325.539 127.656 325.539 126.355C325.539 125.054 324.218 124 322.588 124C320.959 124 319.638 125.054 319.638 126.355Z" fill="#545454"/>
<path d="M322.916 126.355C322.916 127.656 324.384 128.71 326.194 128.71C328.004 128.71 329.472 127.656 329.472 126.355C329.472 125.054 328.004 124 326.194 124C324.384 124 322.916 125.054 322.916 126.355Z" fill="#545454"/>
<path d="M327.505 126.355C327.505 127.656 328.679 128.71 330.127 128.71C331.575 128.71 332.749 127.656 332.749 126.355C332.749 125.054 331.575 124 330.127 124C328.679 124 327.505 125.054 327.505 126.355Z" fill="#545454"/>
<path d="M330.782 126.355C330.782 127.656 332.103 128.71 333.732 128.71C335.361 128.71 336.682 127.656 336.682 126.355C336.682 125.054 335.361 124 333.732 124C332.103 124 330.782 125.054 330.782 126.355Z" fill="#545454"/>
<path d="M336.355 128.71C334.726 128.71 333.405 127.656 333.405 126.355C333.405 125.054 334.726 124 336.355 124C337.984 124 339.305 125.054 339.305 126.355C339.305 127.656 337.984 128.71 336.355 128.71Z" fill="#545454"/>
<path d="M337.339 182.405C339.149 182.405 340.616 181.562 340.616 180.521C340.616 179.481 339.149 178.637 337.339 178.637C335.528 178.637 334.061 179.481 334.061 180.521C334.061 181.562 335.528 182.405 337.339 182.405Z" fill="#545454"/>
<path d="M337.339 184.76C339.149 184.76 340.616 183.917 340.616 182.876C340.616 181.836 339.149 180.992 337.339 180.992C335.528 180.992 334.061 181.836 334.061 182.876C334.061 183.917 335.528 184.76 337.339 184.76Z" fill="#545454"/>
<path d="M337.339 186.644C339.149 186.644 340.616 185.801 340.616 184.76C340.616 183.72 339.149 182.876 337.339 182.876C335.528 182.876 334.061 183.72 334.061 184.76C334.061 185.801 335.528 186.644 337.339 186.644Z" fill="#545454"/>
<path d="M337.339 188.999C339.149 188.999 340.616 188.156 340.616 187.115C340.616 186.075 339.149 185.231 337.339 185.231C335.528 185.231 334.061 186.075 334.061 187.115C334.061 188.156 335.528 188.999 337.339 188.999Z" fill="#545454"/>
<path d="M337.339 172.042C339.149 172.042 340.616 171.199 340.616 170.158C340.616 169.118 339.149 168.274 337.339 168.274C335.528 168.274 334.061 169.118 334.061 170.158C334.061 171.199 335.528 172.042 337.339 172.042Z" fill="#545454"/>
<path d="M337.339 173.926C339.149 173.926 340.616 173.083 340.616 172.042C340.616 171.002 339.149 170.158 337.339 170.158C335.528 170.158 334.061 171.002 334.061 172.042C334.061 173.083 335.528 173.926 337.339 173.926Z" fill="#545454"/>
<path d="M337.339 176.281C339.149 176.281 340.616 175.438 340.616 174.397C340.616 173.357 339.149 172.513 337.339 172.513C335.528 172.513 334.061 173.357 334.061 174.397C334.061 175.438 335.528 176.281 337.339 176.281Z" fill="#545454"/>
<path d="M337.339 178.166C339.149 178.166 340.616 177.323 340.616 176.282C340.616 175.242 339.149 174.398 337.339 174.398C335.528 174.398 334.061 175.242 334.061 176.282C334.061 177.323 335.528 178.166 337.339 178.166Z" fill="#545454"/>
<path d="M337.339 180.521C339.149 180.521 340.616 179.678 340.616 178.637C340.616 177.597 339.149 176.753 337.339 176.753C335.528 176.753 334.061 177.597 334.061 178.637C334.061 179.678 335.528 180.521 337.339 180.521Z" fill="#545454"/>
<path d="M337.339 169.687C339.149 169.687 340.616 168.844 340.616 167.803C340.616 166.763 339.149 165.919 337.339 165.919C335.528 165.919 334.061 166.763 334.061 167.803C334.061 168.844 335.528 169.687 337.339 169.687Z" fill="#545454"/>
<path d="M337.339 167.332C339.149 167.332 340.616 166.489 340.616 165.448C340.616 164.408 339.149 163.564 337.339 163.564C335.528 163.564 334.061 164.408 334.061 165.448C334.061 166.489 335.528 167.332 337.339 167.332Z" fill="#545454"/>
<path d="M337.339 164.977C339.149 164.977 340.616 164.134 340.616 163.093C340.616 162.053 339.149 161.209 337.339 161.209C335.528 161.209 334.061 162.053 334.061 163.093C334.061 164.134 335.528 164.977 337.339 164.977Z" fill="#545454"/>
<path d="M337.339 162.622C339.149 162.622 340.616 161.779 340.616 160.738C340.616 159.698 339.149 158.854 337.339 158.854C335.528 158.854 334.061 159.698 334.061 160.738C334.061 161.779 335.528 162.622 337.339 162.622Z" fill="#545454"/>
<path d="M340.616 158.854C340.616 159.895 339.148 160.738 337.339 160.738C335.528 160.738 334.061 159.895 334.061 158.854C334.061 157.814 335.528 156.97 337.339 156.97C339.148 156.97 340.616 157.814 340.616 158.854Z" fill="#545454"/>
<path d="M337.339 152.26C339.149 152.26 340.616 151.417 340.616 150.376C340.616 149.336 339.149 148.492 337.339 148.492C335.528 148.492 334.061 149.336 334.061 150.376C334.061 151.417 335.528 152.26 337.339 152.26Z" fill="#545454"/>
<path d="M337.339 154.615C339.149 154.615 340.616 153.772 340.616 152.731C340.616 151.691 339.149 150.847 337.339 150.847C335.528 150.847 334.061 151.691 334.061 152.731C334.061 153.772 335.528 154.615 337.339 154.615Z" fill="#545454"/>
<path d="M337.339 156.499C339.149 156.499 340.616 155.656 340.616 154.615C340.616 153.575 339.149 152.731 337.339 152.731C335.528 152.731 334.061 153.575 334.061 154.615C334.061 155.656 335.528 156.499 337.339 156.499Z" fill="#545454"/>
<path d="M337.339 158.854C339.149 158.854 340.616 158.011 340.616 156.97C340.616 155.93 339.149 155.086 337.339 155.086C335.528 155.086 334.061 155.93 334.061 156.97C334.061 158.011 335.528 158.854 337.339 158.854Z" fill="#545454"/>
<path d="M337.339 141.898C339.149 141.898 340.616 141.055 340.616 140.014C340.616 138.974 339.149 138.13 337.339 138.13C335.528 138.13 334.061 138.974 334.061 140.014C334.061 141.055 335.528 141.898 337.339 141.898Z" fill="#545454"/>
<path d="M337.339 143.782C339.149 143.782 340.616 142.939 340.616 141.898C340.616 140.858 339.149 140.014 337.339 140.014C335.528 140.014 334.061 140.858 334.061 141.898C334.061 142.939 335.528 143.782 337.339 143.782Z" fill="#545454"/>
<path d="M337.339 146.137C339.149 146.137 340.616 145.294 340.616 144.253C340.616 143.213 339.149 142.369 337.339 142.369C335.528 142.369 334.061 143.213 334.061 144.253C334.061 145.294 335.528 146.137 337.339 146.137Z" fill="#545454"/>
<path d="M337.339 148.021C339.149 148.021 340.616 147.178 340.616 146.137C340.616 145.097 339.149 144.253 337.339 144.253C335.528 144.253 334.061 145.097 334.061 146.137C334.061 147.178 335.528 148.021 337.339 148.021Z" fill="#545454"/>
<path d="M337.339 150.376C339.149 150.376 340.616 149.533 340.616 148.492C340.616 147.452 339.149 146.608 337.339 146.608C335.528 146.608 334.061 147.452 334.061 148.492C334.061 149.533 335.528 150.376 337.339 150.376Z" fill="#545454"/>
<path d="M337.339 139.543C339.149 139.543 340.616 138.7 340.616 137.659C340.616 136.619 339.149 135.775 337.339 135.775C335.528 135.775 334.061 136.619 334.061 137.659C334.061 138.7 335.528 139.543 337.339 139.543Z" fill="#545454"/>
<path d="M337.339 137.188C339.149 137.188 340.616 136.345 340.616 135.304C340.616 134.264 339.149 133.42 337.339 133.42C335.528 133.42 334.061 134.264 334.061 135.304C334.061 136.345 335.528 137.188 337.339 137.188Z" fill="#545454"/>
<path d="M337.339 134.833C339.149 134.833 340.616 133.99 340.616 132.949C340.616 131.909 339.149 131.065 337.339 131.065C335.528 131.065 334.061 131.909 334.061 132.949C334.061 133.99 335.528 134.833 337.339 134.833Z" fill="#545454"/>
<path d="M337.339 132.478C339.149 132.478 340.616 131.635 340.616 130.594C340.616 129.554 339.149 128.71 337.339 128.71C335.528 128.71 334.061 129.554 334.061 130.594C334.061 131.635 335.528 132.478 337.339 132.478Z" fill="#545454"/>
<path d="M340.616 128.71C340.616 129.751 339.148 130.594 337.339 130.594C335.528 130.594 334.061 129.751 334.061 128.71C334.061 127.67 335.528 126.826 337.339 126.826C339.148 126.826 340.616 127.67 340.616 128.71Z" fill="#545454"/>
<path d="M292.104 182.405C293.915 182.405 295.382 181.562 295.382 180.521C295.382 179.481 293.915 178.637 292.104 178.637C290.294 178.637 288.827 179.481 288.827 180.521C288.827 181.562 290.294 182.405 292.104 182.405Z" fill="#545454"/>
<path d="M292.104 184.76C293.915 184.76 295.382 183.917 295.382 182.876C295.382 181.836 293.915 180.992 292.104 180.992C290.294 180.992 288.827 181.836 288.827 182.876C288.827 183.917 290.294 184.76 292.104 184.76Z" fill="#545454"/>
<path d="M292.104 186.644C293.915 186.644 295.382 185.801 295.382 184.76C295.382 183.72 293.915 182.876 292.104 182.876C290.294 182.876 288.827 183.72 288.827 184.76C288.827 185.801 290.294 186.644 292.104 186.644Z" fill="#545454"/>
<path d="M292.104 188.999C293.915 188.999 295.382 188.156 295.382 187.115C295.382 186.075 293.915 185.231 292.104 185.231C290.294 185.231 288.827 186.075 288.827 187.115C288.827 188.156 290.294 188.999 292.104 188.999Z" fill="#545454"/>
<path d="M292.104 172.042C293.915 172.042 295.382 171.199 295.382 170.158C295.382 169.118 293.915 168.274 292.104 168.274C290.294 168.274 288.827 169.118 288.827 170.158C288.827 171.199 290.294 172.042 292.104 172.042Z" fill="#545454"/>
<path d="M292.104 173.926C293.915 173.926 295.382 173.083 295.382 172.042C295.382 171.002 293.915 170.158 292.104 170.158C290.294 170.158 288.827 171.002 288.827 172.042C288.827 173.083 290.294 173.926 292.104 173.926Z" fill="#545454"/>
<path d="M292.104 176.281C293.915 176.281 295.382 175.438 295.382 174.397C295.382 173.357 293.915 172.513 292.104 172.513C290.294 172.513 288.827 173.357 288.827 174.397C288.827 175.438 290.294 176.281 292.104 176.281Z" fill="#545454"/>
<path d="M292.104 178.166C293.915 178.166 295.382 177.323 295.382 176.282C295.382 175.242 293.915 174.398 292.104 174.398C290.294 174.398 288.827 175.242 288.827 176.282C288.827 177.323 290.294 178.166 292.104 178.166Z" fill="#545454"/>
<path d="M292.104 180.521C293.915 180.521 295.382 179.678 295.382 178.637C295.382 177.597 293.915 176.753 292.104 176.753C290.294 176.753 288.827 177.597 288.827 178.637C288.827 179.678 290.294 180.521 292.104 180.521Z" fill="#545454"/>
<path d="M292.104 169.687C293.915 169.687 295.382 168.844 295.382 167.803C295.382 166.763 293.915 165.919 292.104 165.919C290.294 165.919 288.827 166.763 288.827 167.803C288.827 168.844 290.294 169.687 292.104 169.687Z" fill="#545454"/>
<path d="M292.104 167.332C293.915 167.332 295.382 166.489 295.382 165.448C295.382 164.408 293.915 163.564 292.104 163.564C290.294 163.564 288.827 164.408 288.827 165.448C288.827 166.489 290.294 167.332 292.104 167.332Z" fill="#545454"/>
<path d="M292.104 164.977C293.915 164.977 295.382 164.134 295.382 163.093C295.382 162.053 293.915 161.209 292.104 161.209C290.294 161.209 288.827 162.053 288.827 163.093C288.827 164.134 290.294 164.977 292.104 164.977Z" fill="#545454"/>
<path d="M292.104 162.622C293.915 162.622 295.382 161.779 295.382 160.738C295.382 159.698 293.915 158.854 292.104 158.854C290.294 158.854 288.827 159.698 288.827 160.738C288.827 161.779 290.294 162.622 292.104 162.622Z" fill="#545454"/>
<path d="M295.382 158.854C295.382 159.895 293.915 160.738 292.104 160.738C290.294 160.738 288.827 159.895 288.827 158.854C288.827 157.814 290.294 156.97 292.104 156.97C293.915 156.97 295.382 157.814 295.382 158.854Z" fill="#545454"/>
<path d="M292.104 152.26C293.915 152.26 295.382 151.417 295.382 150.376C295.382 149.336 293.915 148.492 292.104 148.492C290.294 148.492 288.827 149.336 288.827 150.376C288.827 151.417 290.294 152.26 292.104 152.26Z" fill="#545454"/>
<path d="M292.104 154.615C293.915 154.615 295.382 153.772 295.382 152.731C295.382 151.691 293.915 150.847 292.104 150.847C290.294 150.847 288.827 151.691 288.827 152.731C288.827 153.772 290.294 154.615 292.104 154.615Z" fill="#545454"/>
<path d="M292.104 156.499C293.915 156.499 295.382 155.656 295.382 154.615C295.382 153.575 293.915 152.731 292.104 152.731C290.294 152.731 288.827 153.575 288.827 154.615C288.827 155.656 290.294 156.499 292.104 156.499Z" fill="#545454"/>
<path d="M292.104 158.854C293.915 158.854 295.382 158.011 295.382 156.97C295.382 155.93 293.915 155.086 292.104 155.086C290.294 155.086 288.827 155.93 288.827 156.97C288.827 158.011 290.294 158.854 292.104 158.854Z" fill="#545454"/>
<path d="M292.104 141.898C293.915 141.898 295.382 141.055 295.382 140.014C295.382 138.974 293.915 138.13 292.104 138.13C290.294 138.13 288.827 138.974 288.827 140.014C288.827 141.055 290.294 141.898 292.104 141.898Z" fill="#545454"/>
<path d="M292.104 143.782C293.915 143.782 295.382 142.939 295.382 141.898C295.382 140.858 293.915 140.014 292.104 140.014C290.294 140.014 288.827 140.858 288.827 141.898C288.827 142.939 290.294 143.782 292.104 143.782Z" fill="#545454"/>
<path d="M292.104 146.137C293.915 146.137 295.382 145.294 295.382 144.253C295.382 143.213 293.915 142.369 292.104 142.369C290.294 142.369 288.827 143.213 288.827 144.253C288.827 145.294 290.294 146.137 292.104 146.137Z" fill="#545454"/>
<path d="M292.104 148.021C293.915 148.021 295.382 147.178 295.382 146.137C295.382 145.097 293.915 144.253 292.104 144.253C290.294 144.253 288.827 145.097 288.827 146.137C288.827 147.178 290.294 148.021 292.104 148.021Z" fill="#545454"/>
<path d="M292.104 150.376C293.915 150.376 295.382 149.533 295.382 148.492C295.382 147.452 293.915 146.608 292.104 146.608C290.294 146.608 288.827 147.452 288.827 148.492C288.827 149.533 290.294 150.376 292.104 150.376Z" fill="#545454"/>
<path d="M292.104 139.543C293.915 139.543 295.382 138.7 295.382 137.659C295.382 136.619 293.915 135.775 292.104 135.775C290.294 135.775 288.827 136.619 288.827 137.659C288.827 138.7 290.294 139.543 292.104 139.543Z" fill="#545454"/>
<path d="M292.104 137.188C293.915 137.188 295.382 136.345 295.382 135.304C295.382 134.264 293.915 133.42 292.104 133.42C290.294 133.42 288.827 134.264 288.827 135.304C288.827 136.345 290.294 137.188 292.104 137.188Z" fill="#545454"/>
<path d="M292.104 134.833C293.915 134.833 295.382 133.99 295.382 132.949C295.382 131.909 293.915 131.065 292.104 131.065C290.294 131.065 288.827 131.909 288.827 132.949C288.827 133.99 290.294 134.833 292.104 134.833Z" fill="#545454"/>
<path d="M292.104 132.478C293.915 132.478 295.382 131.635 295.382 130.594C295.382 129.554 293.915 128.71 292.104 128.71C290.294 128.71 288.827 129.554 288.827 130.594C288.827 131.635 290.294 132.478 292.104 132.478Z" fill="#545454"/>
<path d="M295.382 128.71C295.382 129.751 293.915 130.594 292.104 130.594C290.294 130.594 288.827 129.751 288.827 128.71C288.827 127.67 290.294 126.826 292.104 126.826C293.915 126.826 295.382 127.67 295.382 128.71Z" fill="#545454"/>
<path d="M335.372 128.239H294.071V188.057H335.372V128.239Z" fill="#9C9C9C"/>
<path d="M382.446 274.142H246.001V346.142H382.446V274.142Z" fill="#3D3D3D"/>
<path d="M251.976 346.232H246.001V355H251.976V346.232Z" fill="#3D3D3D"/>
<path d="M382.446 346.232H376.47V355H382.446V346.232Z" fill="#3D3D3D"/>
<path d="M271.895 307.265H251.976V310.188H271.895V307.265Z" fill="#C4C4C4"/>
<path d="M271.895 288.755H251.976V291.678H271.895V288.755Z" fill="#C4C4C4"/>
<path d="M324.681 307.265H304.762V310.188H324.681V307.265Z" fill="#C4C4C4"/>
<path d="M324.681 289.729H304.762V292.652H324.681V289.729Z" fill="#C4C4C4"/>
<path d="M376.47 289.729H356.551V292.652H376.47V289.729Z" fill="#C4C4C4"/>
<path d="M376.47 307.265H356.551V310.188H376.47V307.265Z" fill="#C4C4C4"/>
<path d="M342.11 274.142V346.232" stroke="black"/>
<path d="M287.333 274.142V346.232" stroke="black"/>
<path d="M382.446 298.997H246.001" stroke="black"/>
<path d="M1543.73 346H1537.75V355H1543.73V346Z" fill="#3D3D3D"/>
<path d="M1616.43 346H1610.46V355H1616.43V346Z" fill="#3D3D3D"/>
<path d="M1616.43 274H1537.75V346H1616.43V274Z" fill="#3D3D3D"/>
<path d="M1537.75 274.5H1616.43" stroke="black"/>
<path d="M1537.75 293.5H1616.43" stroke="black"/>
<path d="M1587.55 283H1567.63V285H1587.55V283Z" fill="#C4C4C4"/>
<path d="M1587.55 331H1567.63V333H1587.55V331Z" fill="#C4C4C4"/>
<path d="M1587.55 305H1567.63V307H1587.55V305Z" fill="#C4C4C4"/>
<path d="M1537.75 317.5H1616.43" stroke="black"/>
<path d="M1537.75 345.5H1616.43" stroke="black"/>
<path d="M1184.19 40.5H1003.92V221.5H1184.19V40.5Z" fill="white"/>
<path d="M1003.92 131H1184.19" stroke="black"/>
<path d="M1003.92 40H1184.19" stroke="black"/>
<path d="M1003.92 221H1184.19" stroke="black"/>
<path d="M1093.06 40.5V221.5" stroke="black"/>
<path d="M1004.42 40.5V221.5" stroke="black"/>
<path d="M1183.69 40.5V221.5" stroke="black"/>
<path d="M1189.17 221.5H996.95V240.5H1189.17V221.5Z" fill="black"/>
<path d="M996.95 240H1189.17" stroke="black"/>
<path d="M997.447 221.5V239.5" stroke="black"/>
<path d="M996.95 222H1189.17" stroke="black"/>
<path d="M1188.67 221.5V239.5" stroke="black"/>
<path d="M1255.4 180V355" stroke="black"/>
<path d="M1244.94 354.5C1248.43 354.5 1255.4 351.8 1255.4 341" stroke="black"/>
<path d="M1265.86 354.5C1262.37 354.5 1255.4 351.8 1255.4 341" stroke="black"/>
<path d="M1263.11 181C1264.58 184.173 1265.08 191.659 1255.33 196.215" stroke="black"/>
<path d="M1269.34 181C1269.34 184.5 1266.65 191.5 1255.9 191.5" stroke="black"/>
<path d="M1241.95 181C1241.95 184.5 1244.64 191.5 1255.4 191.5" stroke="black"/>
<path d="M1247.23 181.066C1245.82 184.263 1245.44 191.756 1255.27 196.149" stroke="black"/>
<path d="M1247.38 188.999V203" stroke="#5E5E5E"/>
<path d="M1247.66 202.566L1219.95 215.108" stroke="#5E5E5E"/>
<path d="M1252.91 215H1220.04" stroke="#5E5E5E"/>
<path d="M1276.81 215L1243.95 215" stroke="#5E5E5E"/>
<path d="M1276.97 215.119L1246.74 202.462" stroke="#5E5E5E"/>
<path d="M1238.17 245.409L1210.19 218.978L1235.29 207.62L1238.17 245.409Z" fill="black"/>
<path d="M1221.08 213.92H1275.13L1268.38 242.774L1262.97 267.693H1233.24L1227.83 242.774L1221.08 213.92Z" fill="black"/>
<path d="M1259.13 246.162L1261.16 207.926L1286.55 218.593L1259.13 246.162Z" fill="black"/>
<path d="M1275 352L1276.88 355H1273.12L1275 352Z" fill="black"/>
<path d="M1276.63 352L1278.51 355H1274.75L1276.63 352Z" fill="black"/>
<path d="M1276.63 352H1275V353.5H1276.63V352Z" fill="black"/>
<path d="M1269.02 352L1270.91 355H1267.14L1269.02 352Z" fill="black"/>
<path d="M1270.66 352L1272.54 355H1268.78L1270.66 352Z" fill="black"/>
<path d="M1270.65 352H1269.02V353.5H1270.65V352Z" fill="black"/>
<path d="M1231.19 176.585L1222.36 189.218C1220.63 191.704 1221.22 195.136 1223.7 196.883L1226.14 198.609C1228.62 200.356 1232.03 199.756 1233.77 197.27L1242.6 184.637C1244.33 182.15 1243.74 178.718 1241.26 176.971L1238.82 175.246C1236.34 173.499 1232.93 174.098 1231.19 176.585Z" fill="black"/>
<path d="M1243.55 175.183L1225.24 201.357C1224.92 201.809 1225.03 202.432 1225.48 202.75L1227.65 204.282C1228.1 204.6 1228.72 204.491 1229.04 204.039L1247.35 177.865C1247.67 177.413 1247.56 176.79 1247.11 176.472L1244.93 174.939C1244.48 174.622 1243.86 174.731 1243.55 175.183Z" fill="black"/>
<rect x="1679.82" y="125" width="130.47" height="230" fill="#727272"/>
<path d="M1698.28 250.67H1720.97V245.454H1698.28V250.67Z" fill="#1C1C1C"/>
<path d="M1492.93 125H1370.43V355H1492.93V125Z" fill="#3D3D3D"/>
<path d="M1478.75 237.5H1458.83V242.5H1478.75V237.5Z" fill="#C4C4C4"/>
<ellipse cx="1431.68" cy="191.597" rx="3.35671" ry="3.37034" fill="#C4C4C4"/>
<ellipse cx="1431.68" cy="191.597" rx="1.96913" ry="1.97759" fill="#A3A3A3"/>
<rect x="417.305" y="125" width="130.47" height="230" fill="#727272"/>
<path d="M436.054 245.216H458.745V240H436.054V245.216Z" fill="#1C1C1C"/>
<rect x="31.8705" y="125" width="130.47" height="230" fill="#727272"/>
<path d="M50.6423 250.67H73.3328V245.454H50.6423V250.67Z" fill="#1C1C1C"/>
<path d="M313.073 173.274C313.073 172.854 312.724 172.514 312.292 172.514C311.861 172.514 311.512 172.854 311.512 173.274V185.943C311.512 186.362 311.861 186.703 312.292 186.703C312.724 186.703 313.073 186.362 313.073 185.943V173.274Z" fill="white"/>
<path fill-rule="evenodd" clip-rule="evenodd" d="M313.073 184.676H311.512V187.716H312.552H313.073H314.114V187.209C314.114 186.93 313.881 186.703 313.594 186.703H313.073V184.676Z" fill="#606060"/>
<path d="M312.552 160.351L317.511 180.115H307.594L312.552 160.351Z" fill="#232323"/>
<path d="M311.985 166.733C311.991 166.521 312.169 166.351 312.387 166.351C312.604 166.351 312.783 166.519 312.79 166.73L313.054 174.076C313.064 174.362 312.828 174.6 312.534 174.6H312.304C312.012 174.6 311.776 174.365 311.784 174.08L311.985 166.733Z" fill="white"/>
<path d="M325.96 149.453C325.96 158.129 324.66 164.405 313.207 164.405C298.372 164.405 300.715 158.129 300.715 149.453C300.715 140.777 306.165 134.507 313.207 134.507C320.251 134.507 325.96 140.777 325.96 149.453Z" fill="#F5F5F5"/>
<path d="M321.141 156.297C322.147 156.297 322.962 155.503 322.962 154.524C322.962 153.544 322.147 152.75 321.141 152.75C320.135 152.75 319.32 153.544 319.32 154.524C319.32 155.503 320.135 156.297 321.141 156.297Z" fill="#232323"/>
<path d="M325.566 154.777L326.468 157.818H324.664L325.566 154.777Z" fill="#F5F5F5"/>
<path d="M321.224 160.111C321.088 160.067 320.94 160.138 320.894 160.271C320.849 160.404 320.922 160.547 321.059 160.592L321.224 160.111ZM322.703 160.858C322.847 160.858 322.963 160.745 322.963 160.605C322.963 160.465 322.847 160.351 322.703 160.351V160.858ZM321.059 160.592L321.439 160.715L321.604 160.234L321.224 160.111L321.059 160.592ZM322.345 160.858H322.703V160.351H322.345V160.858ZM321.439 160.715C321.731 160.81 322.037 160.858 322.345 160.858V160.351C322.093 160.351 321.843 160.312 321.604 160.234L321.439 160.715Z" fill="black"/>
<path d="M326.083 144.324L326.28 145.297C326.498 146.378 326.607 147.477 326.607 148.579V150.723H317.49C315.712 150.723 314.272 152.126 314.272 153.856V164.152L310.619 164.902C308.951 165.245 307.242 165.365 305.54 165.257L300.06 164.912V158.578V152.75V148.779C300.06 147.546 300.212 146.317 300.514 145.119C301.097 142.806 302.225 140.656 303.808 138.84L304.518 138.025C304.941 137.539 305.408 137.087 305.909 136.676C308.018 134.95 310.688 134 313.442 134C315.564 134 317.647 134.562 319.465 135.626L320.07 135.98C321.553 136.847 322.841 137.996 323.858 139.357C324.962 140.836 325.722 142.531 326.083 144.324Z" fill="#232323"/>
<path d="M313.073 173.274C313.073 172.854 312.724 172.514 312.292 172.514C311.861 172.514 311.512 172.854 311.512 173.274V185.943C311.512 186.362 311.861 186.703 312.292 186.703C312.724 186.703 313.073 186.362 313.073 185.943V173.274Z" fill="white"/>
<path fill-rule="evenodd" clip-rule="evenodd" d="M313.073 184.676H311.512V187.716H312.552H313.073H314.114V187.209C314.114 186.93 313.881 186.703 313.594 186.703H313.073V184.676Z" fill="#606060"/>
<path d="M312.552 160.351L317.511 180.115H307.594L312.552 160.351Z" fill="#232323"/>
<path d="M311.985 166.733C311.991 166.521 312.169 166.351 312.387 166.351C312.604 166.351 312.783 166.519 312.79 166.73L313.054 174.076C313.064 174.362 312.828 174.6 312.534 174.6H312.304C312.012 174.6 311.776 174.365 311.784 174.08L311.985 166.733Z" fill="white"/>
<path d="M325.96 149.453C325.96 158.129 324.66 164.405 313.207 164.405C298.372 164.405 300.715 158.129 300.715 149.453C300.715 140.777 306.165 134.507 313.207 134.507C320.251 134.507 325.96 140.777 325.96 149.453Z" fill="#F5F5F5"/>
<path d="M321.141 156.297C322.147 156.297 322.962 155.503 322.962 154.524C322.962 153.544 322.147 152.75 321.141 152.75C320.135 152.75 319.32 153.544 319.32 154.524C319.32 155.503 320.135 156.297 321.141 156.297Z" fill="#232323"/>
<path d="M325.566 154.777L326.468 157.818H324.664L325.566 154.777Z" fill="#F5F5F5"/>
<path d="M321.224 160.111C321.088 160.067 320.94 160.138 320.894 160.271C320.849 160.404 320.922 160.547 321.059 160.592L321.224 160.111ZM322.703 160.858C322.847 160.858 322.963 160.745 322.963 160.605C322.963 160.465 322.847 160.351 322.703 160.351V160.858ZM321.059 160.592L321.439 160.715L321.604 160.234L321.224 160.111L321.059 160.592ZM322.345 160.858H322.703V160.351H322.345V160.858ZM321.439 160.715C321.731 160.81 322.037 160.858 322.345 160.858V160.351C322.093 160.351 321.843 160.312 321.604 160.234L321.439 160.715Z" fill="black"/>
<path d="M326.083 144.324L326.28 145.297C326.498 146.378 326.607 147.477 326.607 148.579V150.723H317.49C315.712 150.723 314.272 152.126 314.272 153.856V164.152L310.619 164.902C308.951 165.245 307.242 165.365 305.54 165.257L300.06 164.912V158.578V152.75V148.779C300.06 147.546 300.212 146.317 300.514 145.119C301.097 142.806 302.225 140.656 303.808 138.84L304.518 138.025C304.941 137.539 305.408 137.087 305.909 136.676C308.018 134.95 310.688 134 313.442 134C315.564 134 317.647 134.562 319.465 135.626L320.07 135.98C321.553 136.847 322.841 137.996 323.858 139.357C324.962 140.836 325.722 142.531 326.083 144.324Z" fill="#232323"/>
<path d="M316.121 139.61L315.191 140.065C314.935 140.191 314.831 140.496 314.96 140.746L315.894 142.557C316.024 142.807 316.337 142.908 316.593 142.782L317.523 142.327C317.78 142.201 317.884 141.896 317.754 141.646L316.82 139.835C316.69 139.585 316.377 139.484 316.121 139.61Z" fill="#F5F5F5"/>
<path d="M316.358 141.196L319.677 136.624L322.106 141.329L316.358 141.196Z" fill="#F5F5F5"/>
<path d="M316.358 141.196L319.677 136.624L322.106 141.329L316.358 141.196Z" fill="#F5F5F5"/>
<path d="M316.358 141.196L319.677 136.624L322.106 141.329L316.358 141.196Z" fill="#F5F5F5"/>
<path d="M316.358 141.196L313.038 145.768L310.608 141.063L316.358 141.196Z" fill="#F5F5F5"/>
<path d="M316.358 141.196L313.038 145.768L310.608 141.063L316.358 141.196Z" fill="#F5F5F5"/>
<path d="M316.358 141.196L313.038 145.768L310.608 141.063L316.358 141.196Z" fill="#F5F5F5"/>
<path d="M313.073 183.662H311.512V184.169H313.073V183.662Z" fill="#232323"/>
<path d="M313.073 180.622H311.512V181.128H313.073V180.622Z" fill="#232323"/>
<path d="M313.073 181.635H311.512V182.142H313.073V181.635Z" fill="#232323"/>
<path d="M313.073 182.649H311.512V183.155H313.073V182.649Z" fill="#232323"/>
<path d="M311.512 180.115H313.073V180.622H311.512V180.115Z" fill="#C4C4C4"/>
<path d="M311.512 181.128H313.073V181.635H311.512V181.128Z" fill="#C4C4C4"/>
<path d="M311.512 182.142H313.073V182.649H311.512V182.142Z" fill="#C4C4C4"/>
<path d="M311.512 183.155H313.073V183.662H311.512V183.155Z" fill="#C4C4C4"/>
<path d="M311.512 184.169H313.073V184.676H311.512V184.169Z" fill="#C4C4C4"/>
<path d="M313.073 183.662H311.512V184.169H313.073V183.662Z" fill="#232323"/>
<path d="M313.073 180.622H311.512V181.128H313.073V180.622Z" fill="#232323"/>
<path d="M313.073 181.635H311.512V182.142H313.073V181.635Z" fill="#232323"/>
<path d="M313.073 182.649H311.512V183.155H313.073V182.649Z" fill="#232323"/>
</svg>
