<svg width="3089" height="411" viewBox="0 0 3089 411" fill="none" xmlns="http://www.w3.org/2000/svg">
<g clip-path="url(#clip0)">
<rect width="3089" height="411" fill="white"/>
<rect width="3089" height="301" fill="#D5D5D5"/>
<rect y="300.446" width="3089" height="110.554" fill="#B6B6B6"/>
<rect width="41.1413" height="300.446" fill="#C4C4C4"/>
<path d="M3068.68 112.206L3089 118.613V311.509L3068.68 300.986V112.206Z" fill="#717171"/>
<path d="M24.681 99L1.14441e-05 105.826V311.321L24.681 300.11V99Z" fill="#717171"/>
<ellipse cx="20.7085" cy="215.695" rx="1.77056" ry="5.54772" fill="#C4C4C4"/>
<rect x="2856" y="111.666" width="102.594" height="188.78" fill="#9F9F9F"/>
<rect x="2869.03" y="198.288" width="4.96561" height="26.738" fill="#DFDFDF"/>
<rect x="2882.47" y="85.9882" width="49.6564" height="17.1887" fill="#C4C4C4"/>
<path d="M2901.42 95.83C2901.3 96.8827 2900.91 97.6962 2900.25 98.2704C2899.6 98.84 2898.73 99.1249 2897.64 99.1249C2896.47 99.1249 2895.53 98.7033 2894.81 97.8602C2894.11 97.0171 2893.76 95.8892 2893.76 94.4764V93.5194C2893.76 92.5943 2893.92 91.7808 2894.25 91.079C2894.58 90.3772 2895.05 89.8394 2895.66 89.4657C2896.26 89.0874 2896.96 88.8983 2897.76 88.8983C2898.82 88.8983 2899.67 89.1945 2900.3 89.787C2900.94 90.3749 2901.31 91.1906 2901.42 92.2343H2900.1C2899.98 91.4413 2899.74 90.8671 2899.35 90.5116C2898.98 90.1561 2898.44 89.9784 2897.76 89.9784C2896.92 89.9784 2896.26 90.2883 2895.79 90.9081C2895.31 91.5279 2895.07 92.4097 2895.07 93.5536V94.5175C2895.07 95.5975 2895.3 96.4566 2895.75 97.0946C2896.2 97.7326 2896.83 98.0516 2897.64 98.0516C2898.37 98.0516 2898.93 97.8876 2899.32 97.5594C2899.71 97.2268 2899.97 96.6503 2900.1 95.83H2901.42ZM2905.65 95.2762H2902.31V94.244H2905.65V95.2762ZM2910.91 98.9882H2909.64V90.5594L2907.09 91.496V90.3475L2910.72 88.9872H2910.91V98.9882ZM2921.14 98.9882H2914.62V98.079L2918.06 94.2509C2918.57 93.6721 2918.93 93.2027 2919.12 92.8427C2919.31 92.4781 2919.41 92.1021 2919.41 91.7147C2919.41 91.1952 2919.25 90.7691 2918.94 90.4364C2918.62 90.1037 2918.21 89.9374 2917.68 89.9374C2917.05 89.9374 2916.56 90.1174 2916.21 90.4774C2915.86 90.8329 2915.69 91.3296 2915.69 91.9677H2914.43C2914.43 91.0516 2914.72 90.3111 2915.31 89.746C2915.9 89.1809 2916.69 88.8983 2917.68 88.8983C2918.61 88.8983 2919.34 89.1421 2919.88 89.6298C2920.41 90.1128 2920.68 90.7577 2920.68 91.5643C2920.68 92.5441 2920.06 93.7108 2918.81 95.0643L2916.14 97.9559H2921.14V98.9882Z" fill="#545454"/>
<rect x="2643.32" y="111.666" width="102.594" height="188.78" fill="#9F9F9F"/>
<rect x="2656.35" y="198.288" width="4.96561" height="26.738" fill="#DFDFDF"/>
<rect x="2669.79" y="85.9882" width="49.6564" height="17.1887" fill="#C4C4C4"/>
<path d="M2688.73 95.83C2688.61 96.8827 2688.22 97.6962 2687.57 98.2704C2686.91 98.84 2686.05 99.1249 2684.96 99.1249C2683.79 99.1249 2682.84 98.7033 2682.13 97.8602C2681.42 97.0171 2681.07 95.8892 2681.07 94.4764V93.5194C2681.07 92.5943 2681.24 91.7808 2681.56 91.079C2681.9 90.3772 2682.37 89.8394 2682.97 89.4657C2683.58 89.0874 2684.28 88.8983 2685.08 88.8983C2686.13 88.8983 2686.98 89.1945 2687.62 89.787C2688.26 90.3749 2688.63 91.1906 2688.73 92.2343H2687.42C2687.3 91.4413 2687.05 90.8671 2686.67 90.5116C2686.29 90.1561 2685.76 89.9784 2685.08 89.9784C2684.24 89.9784 2683.58 90.2883 2683.1 90.9081C2682.63 91.5279 2682.39 92.4097 2682.39 93.5536V94.5175C2682.39 95.5975 2682.62 96.4566 2683.07 97.0946C2683.52 97.7326 2684.15 98.0516 2684.96 98.0516C2685.69 98.0516 2686.25 97.8876 2686.64 97.5594C2687.03 97.2268 2687.29 96.6503 2687.42 95.83H2688.73ZM2692.97 95.2762H2689.63V94.244H2692.97V95.2762ZM2698.23 98.9882H2696.96V90.5594L2694.41 91.496V90.3475L2698.03 88.9872H2698.23V98.9882ZM2706.09 98.9882H2704.82V90.5594L2702.27 91.496V90.3475L2705.89 88.9872H2706.09V98.9882Z" fill="#545454"/>
<rect x="2430.63" y="111.666" width="102.594" height="188.78" fill="#9F9F9F"/>
<rect x="2443.66" y="198.288" width="4.96561" height="26.738" fill="#DFDFDF"/>
<rect x="2457.1" y="85.9882" width="49.6564" height="17.1887" fill="#C4C4C4"/>
<path d="M2476.05 95.83C2475.93 96.8827 2475.54 97.6962 2474.88 98.2704C2474.23 98.84 2473.36 99.1249 2472.28 99.1249C2471.1 99.1249 2470.16 98.7033 2469.45 97.8602C2468.74 97.0171 2468.39 95.8892 2468.39 94.4764V93.5194C2468.39 92.5943 2468.55 91.7808 2468.88 91.079C2469.21 90.3772 2469.68 89.8394 2470.29 89.4657C2470.89 89.0874 2471.6 88.8983 2472.39 88.8983C2473.45 88.8983 2474.3 89.1945 2474.94 89.787C2475.58 90.3749 2475.95 91.1906 2476.05 92.2343H2474.73C2474.62 91.4413 2474.37 90.8671 2473.99 90.5116C2473.61 90.1561 2473.08 89.9784 2472.39 89.9784C2471.56 89.9784 2470.9 90.2883 2470.42 90.9081C2469.94 91.5279 2469.71 92.4097 2469.71 93.5536V94.5175C2469.71 95.5975 2469.93 96.4566 2470.38 97.0946C2470.84 97.7326 2471.47 98.0516 2472.28 98.0516C2473.01 98.0516 2473.57 97.8876 2473.95 97.5594C2474.34 97.2268 2474.6 96.6503 2474.73 95.83H2476.05ZM2480.28 95.2762H2476.95V94.244H2480.28V95.2762ZM2485.55 98.9882H2484.27V90.5594L2481.73 91.496V90.3475L2485.35 88.9872H2485.55V98.9882ZM2495.49 94.743C2495.49 96.2242 2495.24 97.3247 2494.73 98.0448C2494.23 98.7649 2493.44 99.1249 2492.36 99.1249C2491.3 99.1249 2490.51 98.774 2490 98.0721C2489.49 97.3658 2489.23 96.313 2489.21 94.9139V93.2255C2489.21 91.7626 2489.46 90.6757 2489.97 89.9647C2490.48 89.2538 2491.27 88.8983 2492.35 88.8983C2493.42 88.8983 2494.21 89.2424 2494.71 89.9305C2495.22 90.6141 2495.48 91.6714 2495.49 93.1024V94.743ZM2494.23 93.0135C2494.23 91.9426 2494.08 91.1633 2493.78 90.6757C2493.48 90.1835 2493 89.9374 2492.35 89.9374C2491.7 89.9374 2491.23 90.1812 2490.93 90.6688C2490.64 91.1565 2490.48 91.9061 2490.48 92.9178V94.9413C2490.48 96.0168 2490.63 96.8121 2490.94 97.327C2491.25 97.8374 2491.73 98.0927 2492.36 98.0927C2492.99 98.0927 2493.45 97.8511 2493.75 97.368C2494.05 96.885 2494.21 96.1239 2494.23 95.0848V93.0135Z" fill="#545454"/>
<rect x="2217.95" y="111.666" width="102.594" height="188.78" fill="#9F9F9F"/>
<rect x="2230.98" y="198.288" width="4.96561" height="26.738" fill="#DFDFDF"/>
<rect x="2244.42" y="85.9882" width="49.6564" height="17.1887" fill="#C4C4C4"/>
<path d="M2267.3 95.83C2267.18 96.8827 2266.79 97.6962 2266.13 98.2704C2265.48 98.84 2264.61 99.1249 2263.53 99.1249C2262.35 99.1249 2261.41 98.7033 2260.7 97.8602C2259.99 97.0171 2259.64 95.8892 2259.64 94.4764V93.5194C2259.64 92.5943 2259.8 91.7808 2260.13 91.079C2260.46 90.3772 2260.93 89.8394 2261.54 89.4657C2262.14 89.0874 2262.84 88.8983 2263.64 88.8983C2264.7 88.8983 2265.55 89.1945 2266.18 89.787C2266.82 90.3749 2267.19 91.1906 2267.3 92.2343H2265.98C2265.87 91.4413 2265.62 90.8671 2265.23 90.5116C2264.86 90.1561 2264.33 89.9784 2263.64 89.9784C2262.8 89.9784 2262.14 90.2883 2261.67 90.9081C2261.19 91.5279 2260.95 92.4097 2260.95 93.5536V94.5175C2260.95 95.5975 2261.18 96.4566 2261.63 97.0946C2262.08 97.7326 2262.71 98.0516 2263.53 98.0516C2264.25 98.0516 2264.81 97.8876 2265.2 97.5594C2265.59 97.2268 2265.85 96.6503 2265.98 95.83H2267.3ZM2271.53 95.2762H2268.19V94.244H2271.53V95.2762ZM2277.48 94.6132C2277.22 94.9276 2276.9 95.1805 2276.53 95.3719C2276.17 95.5634 2275.77 95.6591 2275.33 95.6591C2274.76 95.6591 2274.26 95.5178 2273.83 95.2352C2273.4 94.9527 2273.08 94.5562 2272.84 94.0458C2272.61 93.5308 2272.49 92.9634 2272.49 92.3436C2272.49 91.6783 2272.62 91.079 2272.87 90.5458C2273.13 90.0126 2273.49 89.6047 2273.95 89.3221C2274.41 89.0396 2274.96 88.8983 2275.58 88.8983C2276.56 88.8983 2277.34 89.2675 2277.9 90.0057C2278.47 90.7395 2278.76 91.7421 2278.76 93.0135V93.3827C2278.76 95.3195 2278.37 96.7346 2277.61 97.6278C2276.84 98.5165 2275.69 98.9722 2274.14 98.995H2273.9V97.9286H2274.16C2275.21 97.9104 2276.01 97.6392 2276.57 97.1151C2277.13 96.5865 2277.43 95.7525 2277.48 94.6132ZM2275.54 94.6132C2275.96 94.6132 2276.35 94.4833 2276.7 94.2235C2277.06 93.9637 2277.33 93.6425 2277.49 93.2596V92.7538C2277.49 91.9244 2277.31 91.2499 2276.95 90.7303C2276.59 90.2108 2276.14 89.951 2275.58 89.951C2275.03 89.951 2274.58 90.1652 2274.24 90.5936C2273.91 91.0175 2273.74 91.578 2273.74 92.2753C2273.74 92.9543 2273.9 93.5149 2274.22 93.9569C2274.55 94.3944 2274.99 94.6132 2275.54 94.6132Z" fill="#545454"/>
<rect x="2005.27" y="111.666" width="102.594" height="188.78" fill="#9F9F9F"/>
<rect x="2018.3" y="198.288" width="4.96561" height="26.738" fill="#DFDFDF"/>
<rect x="2031.74" y="85.9882" width="49.6564" height="17.1887" fill="#C4C4C4"/>
<path d="M2054.62 95.83C2054.49 96.8827 2054.1 97.6962 2053.45 98.2704C2052.79 98.84 2051.93 99.1249 2050.84 99.1249C2049.67 99.1249 2048.72 98.7033 2048.01 97.8602C2047.31 97.0171 2046.95 95.8892 2046.95 94.4764V93.5194C2046.95 92.5943 2047.12 91.7808 2047.44 91.079C2047.78 90.3772 2048.25 89.8394 2048.85 89.4657C2049.46 89.0874 2050.16 88.8983 2050.96 88.8983C2052.02 88.8983 2052.86 89.1945 2053.5 89.787C2054.14 90.3749 2054.51 91.1906 2054.62 92.2343H2053.3C2053.18 91.4413 2052.93 90.8671 2052.55 90.5116C2052.17 90.1561 2051.64 89.9784 2050.96 89.9784C2050.12 89.9784 2049.46 90.2883 2048.98 90.9081C2048.51 91.5279 2048.27 92.4097 2048.27 93.5536V94.5175C2048.27 95.5975 2048.5 96.4566 2048.95 97.0946C2049.4 97.7326 2050.03 98.0516 2050.84 98.0516C2051.57 98.0516 2052.13 97.8876 2052.52 97.5594C2052.91 97.2268 2053.17 96.6503 2053.3 95.83H2054.62ZM2058.85 95.2762H2055.51V94.244H2058.85V95.2762ZM2065.99 91.6327C2065.99 92.1294 2065.86 92.5715 2065.59 92.9589C2065.33 93.3462 2064.98 93.6493 2064.53 93.868C2065.05 94.0913 2065.46 94.4172 2065.76 94.8456C2066.07 95.274 2066.22 95.7593 2066.22 96.3016C2066.22 97.163 2065.93 97.8488 2065.35 98.3593C2064.77 98.8697 2064.01 99.1249 2063.06 99.1249C2062.1 99.1249 2061.33 98.8697 2060.75 98.3593C2060.18 97.8443 2059.89 97.1584 2059.89 96.3016C2059.89 95.7639 2060.04 95.2785 2060.33 94.8456C2060.63 94.4126 2061.03 94.0845 2061.55 93.8612C2061.11 93.6425 2060.76 93.3394 2060.51 92.952C2060.25 92.5647 2060.13 92.1249 2060.13 91.6327C2060.13 90.7941 2060.39 90.1288 2060.93 89.6366C2061.47 89.1444 2062.18 88.8983 2063.06 88.8983C2063.93 88.8983 2064.64 89.1444 2065.18 89.6366C2065.72 90.1288 2065.99 90.7941 2065.99 91.6327ZM2064.96 96.2743C2064.96 95.7183 2064.78 95.2649 2064.42 94.9139C2064.07 94.563 2063.61 94.3876 2063.04 94.3876C2062.47 94.3876 2062.02 94.5608 2061.67 94.9071C2061.33 95.2535 2061.16 95.7092 2061.16 96.2743C2061.16 96.8394 2061.32 97.2837 2061.66 97.6073C2061.99 97.9309 2062.46 98.0927 2063.06 98.0927C2063.65 98.0927 2064.11 97.9309 2064.45 97.6073C2064.79 97.2792 2064.96 96.8348 2064.96 96.2743ZM2063.06 89.9374C2062.56 89.9374 2062.16 90.0923 2061.85 90.4022C2061.54 90.7076 2061.39 91.1246 2061.39 91.6532C2061.39 92.1591 2061.54 92.5692 2061.84 92.8837C2062.15 93.1936 2062.55 93.3485 2063.06 93.3485C2063.56 93.3485 2063.97 93.1936 2064.27 92.8837C2064.57 92.5692 2064.73 92.1591 2064.73 91.6532C2064.73 91.1473 2064.57 90.7349 2064.25 90.4159C2063.94 90.0969 2063.54 89.9374 2063.06 89.9374Z" fill="#545454"/>
<rect x="1630.87" y="93.6786" width="257.722" height="207.321" fill="#9F9F9F"/>
<rect x="1757.71" y="93.6786" width="4.04566" height="207.321" fill="#646464"/>
<rect x="1624.29" y="93.6786" width="6.58294" height="207.321" fill="#646464"/>
<rect x="1888.59" y="93.6786" width="6.58294" height="207.321" fill="#646464"/>
<rect x="1624.29" y="93.6786" width="6.58294" height="270.888" transform="rotate(-90 1624.29 93.6786)" fill="#646464"/>
<circle cx="1739.45" cy="206.61" r="5.92056" fill="#C4C4C4"/>
<circle cx="1778.03" cy="206.61" r="5.92056" fill="#C4C4C4"/>
<rect x="1411.61" y="111.666" width="102.594" height="188.78" fill="#9F9F9F"/>
<rect x="1424.64" y="198.288" width="4.96561" height="26.738" fill="#DFDFDF"/>
<rect x="1438.07" y="85.9882" width="49.6564" height="17.1887" fill="#C4C4C4"/>
<path d="M1460.95 95.83C1460.83 96.8827 1460.44 97.6962 1459.79 98.2704C1459.13 98.84 1458.27 99.1249 1457.18 99.1249C1456.01 99.1249 1455.06 98.7033 1454.35 97.8602C1453.64 97.0171 1453.29 95.8892 1453.29 94.4764V93.5194C1453.29 92.5943 1453.46 91.7808 1453.78 91.079C1454.12 90.3772 1454.59 89.8394 1455.19 89.4657C1455.8 89.0874 1456.5 88.8983 1457.3 88.8983C1458.35 88.8983 1459.2 89.1945 1459.84 89.787C1460.48 90.3749 1460.85 91.1906 1460.95 92.2343H1459.64C1459.52 91.4413 1459.27 90.8671 1458.89 90.5116C1458.51 90.1561 1457.98 89.9784 1457.3 89.9784C1456.46 89.9784 1455.8 90.2883 1455.32 90.9081C1454.85 91.5279 1454.61 92.4097 1454.61 93.5536V94.5175C1454.61 95.5975 1454.84 96.4566 1455.29 97.0946C1455.74 97.7326 1456.37 98.0516 1457.18 98.0516C1457.91 98.0516 1458.47 97.8876 1458.86 97.5594C1459.25 97.2268 1459.51 96.6503 1459.64 95.83H1460.95ZM1465.19 95.2762H1461.85V94.244H1465.19V95.2762ZM1472.72 89.746L1468.6 98.9882H1467.27L1471.38 90.0741H1465.99V89.035H1472.72V89.746Z" fill="#545454"/>
<rect x="1198.92" y="111.666" width="102.594" height="188.78" fill="#9F9F9F"/>
<rect x="1211.95" y="198.288" width="4.96561" height="26.738" fill="#DFDFDF"/>
<rect x="1225.39" y="85.9882" width="49.6564" height="17.1887" fill="#C4C4C4"/>
<path d="M1248.27 95.83C1248.15 96.8827 1247.76 97.6962 1247.1 98.2704C1246.45 98.84 1245.58 99.1249 1244.5 99.1249C1243.32 99.1249 1242.38 98.7033 1241.67 97.8602C1240.96 97.0171 1240.61 95.8892 1240.61 94.4764V93.5194C1240.61 92.5943 1240.77 91.7808 1241.1 91.079C1241.43 90.3772 1241.9 89.8394 1242.51 89.4657C1243.11 89.0874 1243.82 88.8983 1244.61 88.8983C1245.67 88.8983 1246.52 89.1945 1247.16 89.787C1247.8 90.3749 1248.17 91.1906 1248.27 92.2343H1246.95C1246.84 91.4413 1246.59 90.8671 1246.21 90.5116C1245.83 90.1561 1245.3 89.9784 1244.61 89.9784C1243.78 89.9784 1243.12 90.2883 1242.64 90.9081C1242.16 91.5279 1241.93 92.4097 1241.93 93.5536V94.5175C1241.93 95.5975 1242.15 96.4566 1242.6 97.0946C1243.06 97.7326 1243.69 98.0516 1244.5 98.0516C1245.23 98.0516 1245.79 97.8876 1246.17 97.5594C1246.56 97.2268 1246.82 96.6503 1246.95 95.83H1248.27ZM1252.5 95.2762H1249.17V94.244H1252.5V95.2762ZM1258.57 89.0282V90.1014H1258.34C1257.36 90.1197 1256.57 90.4113 1255.99 90.9764C1255.41 91.5415 1255.07 92.3368 1254.98 93.3622C1255.5 92.7606 1256.22 92.4598 1257.12 92.4598C1257.99 92.4598 1258.68 92.7652 1259.2 93.3759C1259.71 93.9865 1259.97 94.7749 1259.97 95.7411C1259.97 96.7665 1259.69 97.5868 1259.13 98.202C1258.58 98.8173 1257.83 99.1249 1256.89 99.1249C1255.94 99.1249 1255.17 98.7603 1254.57 98.0311C1253.98 97.2974 1253.69 96.354 1253.69 95.201V94.7157C1253.69 92.8837 1254.08 91.4846 1254.85 90.5184C1255.64 89.5477 1256.8 89.051 1258.35 89.0282H1258.57ZM1256.91 93.5126C1256.48 93.5126 1256.08 93.6425 1255.72 93.9022C1255.35 94.162 1255.1 94.4878 1254.96 94.8798V95.3446C1254.96 96.1649 1255.14 96.8257 1255.51 97.327C1255.88 97.8283 1256.34 98.079 1256.89 98.079C1257.46 98.079 1257.91 97.8693 1258.23 97.4501C1258.56 97.0308 1258.72 96.4816 1258.72 95.8026C1258.72 95.119 1258.56 94.5676 1258.22 94.1483C1257.9 93.7245 1257.46 93.5126 1256.91 93.5126Z" fill="#545454"/>
<rect x="986.239" y="111.666" width="102.594" height="188.78" fill="#9F9F9F"/>
<rect x="999.27" y="198.288" width="4.96561" height="26.738" fill="#DFDFDF"/>
<rect x="1012.71" y="85.9882" width="49.6564" height="17.1887" fill="#C4C4C4"/>
<path d="M1035.59 95.83C1035.46 96.8827 1035.08 97.6962 1034.42 98.2704C1033.77 98.84 1032.9 99.1249 1031.81 99.1249C1030.64 99.1249 1029.7 98.7033 1028.98 97.8602C1028.28 97.0171 1027.92 95.8892 1027.92 94.4764V93.5194C1027.92 92.5943 1028.09 91.7808 1028.42 91.079C1028.75 90.3772 1029.22 89.8394 1029.83 89.4657C1030.43 89.0874 1031.13 88.8983 1031.93 88.8983C1032.99 88.8983 1033.84 89.1945 1034.47 89.787C1035.11 90.3749 1035.48 91.1906 1035.59 92.2343H1034.27C1034.15 91.4413 1033.91 90.8671 1033.52 90.5116C1033.15 90.1561 1032.61 89.9784 1031.93 89.9784C1031.09 89.9784 1030.43 90.2883 1029.96 90.9081C1029.48 91.5279 1029.24 92.4097 1029.24 93.5536V94.5175C1029.24 95.5975 1029.47 96.4566 1029.92 97.0946C1030.37 97.7326 1031 98.0516 1031.81 98.0516C1032.54 98.0516 1033.1 97.8876 1033.49 97.5594C1033.88 97.2268 1034.14 96.6503 1034.27 95.83H1035.59ZM1039.82 95.2762H1036.48V94.244H1039.82V95.2762ZM1041.51 93.9979L1042.01 89.035H1047.11V90.204H1043.09L1042.79 92.9178C1043.27 92.6307 1043.83 92.4872 1044.45 92.4872C1045.35 92.4872 1046.07 92.788 1046.61 93.3895C1047.14 93.9865 1047.41 94.7955 1047.41 95.8163C1047.41 96.8417 1047.13 97.6506 1046.57 98.243C1046.02 98.8309 1045.25 99.1249 1044.26 99.1249C1043.38 99.1249 1042.66 98.8811 1042.1 98.3934C1041.55 97.9058 1041.23 97.2313 1041.15 96.37H1042.35C1042.43 96.9397 1042.63 97.3703 1042.96 97.662C1043.29 97.9491 1043.72 98.0927 1044.26 98.0927C1044.84 98.0927 1045.3 97.8921 1045.64 97.4911C1045.97 97.09 1046.14 96.5363 1046.14 95.83C1046.14 95.1646 1045.96 94.6314 1045.6 94.2303C1045.24 93.8247 1044.75 93.6219 1044.15 93.6219C1043.6 93.6219 1043.17 93.7427 1042.85 93.9843L1042.52 94.2577L1041.51 93.9979Z" fill="#545454"/>
<rect x="773.556" y="111.666" width="102.594" height="188.78" fill="#9F9F9F"/>
<rect x="786.587" y="198.288" width="4.96561" height="26.738" fill="#DFDFDF"/>
<rect x="800.025" y="85.9882" width="49.6564" height="17.1887" fill="#C4C4C4"/>
<path d="M822.905 95.83C822.782 96.8827 822.392 97.6962 821.736 98.2704C821.084 98.84 820.216 99.1249 819.131 99.1249C817.955 99.1249 817.012 98.7033 816.301 97.8602C815.595 97.0171 815.242 95.8892 815.242 94.4764V93.5194C815.242 92.5943 815.406 91.7808 815.734 91.079C816.066 90.3772 816.536 89.8394 817.142 89.4657C817.748 89.0874 818.45 88.8983 819.247 88.8983C820.305 88.8983 821.152 89.1945 821.79 89.787C822.428 90.3749 822.8 91.1906 822.905 92.2343H821.585C821.471 91.4413 821.223 90.8671 820.84 90.5116C820.462 90.1561 819.931 89.9784 819.247 89.9784C818.409 89.9784 817.75 90.2883 817.272 90.9081C816.798 91.5279 816.561 92.4097 816.561 93.5536V94.5175C816.561 95.5975 816.786 96.4566 817.238 97.0946C817.689 97.7326 818.32 98.0516 819.131 98.0516C819.86 98.0516 820.419 97.8876 820.806 97.5594C821.198 97.2268 821.458 96.6503 821.585 95.83H822.905ZM827.136 95.2762H823.8V94.244H827.136V95.2762ZM833.582 95.6454H834.963V96.6776H833.582V98.9882H832.311V96.6776H827.779V95.9325L832.236 89.035H833.582V95.6454ZM829.214 95.6454H832.311V90.7645L832.16 91.038L829.214 95.6454Z" fill="#545454"/>
<rect x="560.872" y="111.666" width="102.594" height="188.78" fill="#9F9F9F"/>
<rect x="573.903" y="198.288" width="4.96561" height="26.738" fill="#DFDFDF"/>
<rect x="587.341" y="85.9882" width="49.6564" height="17.1887" fill="#C4C4C4"/>
<path d="M610.221 95.83C610.098 96.8827 609.708 97.6962 609.052 98.2704C608.401 98.84 607.532 99.1249 606.448 99.1249C605.272 99.1249 604.329 98.7033 603.618 97.8602C602.911 97.0171 602.558 95.8892 602.558 94.4764V93.5194C602.558 92.5943 602.722 91.7808 603.05 91.079C603.383 90.3772 603.852 89.8394 604.458 89.4657C605.065 89.0874 605.766 88.8983 606.564 88.8983C607.621 88.8983 608.469 89.1945 609.107 89.787C609.745 90.3749 610.116 91.1906 610.221 92.2343H608.902C608.788 91.4413 608.54 90.8671 608.157 90.5116C607.778 90.1561 607.248 89.9784 606.564 89.9784C605.725 89.9784 605.067 90.2883 604.588 90.9081C604.114 91.5279 603.877 92.4097 603.877 93.5536V94.5175C603.877 95.5975 604.103 96.4566 604.554 97.0946C605.005 97.7326 605.637 98.0516 606.448 98.0516C607.177 98.0516 607.735 97.8876 608.123 97.5594C608.514 97.2268 608.774 96.6503 608.902 95.83H610.221ZM614.453 95.2762H611.117V94.244H614.453V95.2762ZM617.399 93.3964H618.349C618.946 93.3872 619.416 93.23 619.757 92.9247C620.099 92.6193 620.27 92.2069 620.27 91.6874C620.27 90.5207 619.689 89.9374 618.527 89.9374C617.98 89.9374 617.542 90.0946 617.214 90.4091C616.891 90.719 616.729 91.1314 616.729 91.6464H615.464C615.464 90.858 615.751 90.204 616.326 89.6844C616.904 89.1604 617.638 88.8983 618.527 88.8983C619.466 88.8983 620.202 89.1467 620.735 89.6434C621.268 90.1402 621.535 90.8306 621.535 91.7147C621.535 92.1477 621.393 92.5669 621.111 92.9725C620.833 93.3781 620.452 93.6812 619.969 93.8817C620.516 94.0549 620.938 94.342 621.234 94.743C621.535 95.1441 621.685 95.634 621.685 96.2128C621.685 97.106 621.393 97.8147 620.81 98.3387C620.227 98.8628 619.468 99.1249 618.534 99.1249C617.599 99.1249 616.838 98.8719 616.25 98.3661C615.667 97.8602 615.375 97.1926 615.375 96.3632H616.647C616.647 96.8872 616.818 97.3065 617.16 97.621C617.501 97.9354 617.959 98.0927 618.534 98.0927C619.144 98.0927 619.611 97.9331 619.935 97.6141C620.259 97.2951 620.42 96.8371 620.42 96.2401C620.42 95.6613 620.243 95.217 619.887 94.9071C619.532 94.5972 619.019 94.4377 618.349 94.4286H617.399V93.3964Z" fill="#545454"/>
<rect x="348.189" y="111.666" width="102.594" height="188.78" fill="#9F9F9F"/>
<rect x="361.22" y="198.288" width="4.96561" height="26.738" fill="#DFDFDF"/>
<rect x="374.658" y="85.9882" width="49.6564" height="17.1887" fill="#C4C4C4"/>
<path d="M397.538 95.83C397.415 96.8827 397.025 97.6962 396.369 98.2704C395.717 98.84 394.849 99.1249 393.764 99.1249C392.589 99.1249 391.645 98.7033 390.934 97.8602C390.228 97.0171 389.875 95.8892 389.875 94.4764V93.5194C389.875 92.5943 390.039 91.7808 390.367 91.079C390.7 90.3772 391.169 89.8394 391.775 89.4657C392.381 89.0874 393.083 88.8983 393.881 88.8983C394.938 88.8983 395.785 89.1945 396.424 89.787C397.062 90.3749 397.433 91.1906 397.538 92.2343H396.218C396.105 91.4413 395.856 90.8671 395.473 90.5116C395.095 90.1561 394.564 89.9784 393.881 89.9784C393.042 89.9784 392.383 90.2883 391.905 90.9081C391.431 91.5279 391.194 92.4097 391.194 93.5536V94.5175C391.194 95.5975 391.42 96.4566 391.871 97.0946C392.322 97.7326 392.953 98.0516 393.764 98.0516C394.494 98.0516 395.052 97.8876 395.439 97.5594C395.831 97.2268 396.091 96.6503 396.218 95.83H397.538ZM401.769 95.2762H398.433V94.244H401.769V95.2762ZM409.398 98.9882H402.877V98.079L406.322 94.2509C406.832 93.6721 407.183 93.2027 407.375 92.8427C407.571 92.4781 407.669 92.1021 407.669 91.7147C407.669 91.1952 407.511 90.7691 407.197 90.4364C406.883 90.1037 406.463 89.9374 405.939 89.9374C405.31 89.9374 404.82 90.1174 404.469 90.4774C404.123 90.8329 403.95 91.3296 403.95 91.9677H402.685C402.685 91.0516 402.979 90.3111 403.567 89.746C404.16 89.1809 404.95 88.8983 405.939 88.8983C406.864 88.8983 407.596 89.1421 408.133 89.6298C408.671 90.1128 408.94 90.7577 408.94 91.5643C408.94 92.5441 408.316 93.7108 407.067 95.0643L404.401 97.9559H409.398V98.9882Z" fill="#545454"/>
<rect x="135.505" y="111.666" width="102.594" height="188.78" fill="#9F9F9F"/>
<rect x="148.536" y="198.288" width="4.96561" height="26.738" fill="#DFDFDF"/>
<rect x="161.974" y="85.9882" width="49.6564" height="17.1887" fill="#C4C4C4"/>
<path d="M184.854 95.83C184.731 96.8827 184.342 97.6962 183.685 98.2704C183.034 98.84 182.166 99.1249 181.081 99.1249C179.905 99.1249 178.962 98.7033 178.251 97.8602C177.544 97.0171 177.191 95.8892 177.191 94.4764V93.5194C177.191 92.5943 177.355 91.7808 177.683 91.079C178.016 90.3772 178.486 89.8394 179.092 89.4657C179.698 89.0874 180.4 88.8983 181.197 88.8983C182.254 88.8983 183.102 89.1945 183.74 89.787C184.378 90.3749 184.75 91.1906 184.854 92.2343H183.535C183.421 91.4413 183.173 90.8671 182.79 90.5116C182.412 90.1561 181.881 89.9784 181.197 89.9784C180.359 89.9784 179.7 90.2883 179.222 90.9081C178.748 91.5279 178.511 92.4097 178.511 93.5536V94.5175C178.511 95.5975 178.736 96.4566 179.187 97.0946C179.639 97.7326 180.27 98.0516 181.081 98.0516C181.81 98.0516 182.368 97.8876 182.756 97.5594C183.148 97.2268 183.407 96.6503 183.535 95.83H184.854ZM189.086 95.2762H185.75V94.244H189.086V95.2762ZM194.349 98.9882H193.078V90.5594L190.528 91.496V90.3475L194.151 88.9872H194.349V98.9882Z" fill="#545454"/>
</g>
<defs>
<clipPath id="clip0">
<rect width="3089" height="411" fill="white"/>
</clipPath>
</defs>
</svg>
