<svg width="4004" height="660" viewBox="0 0 4004 660" fill="none" xmlns="http://www.w3.org/2000/svg">
<g clip-path="url(#clip0)">
<rect width="4004" height="660" fill="white"/>
<rect y="415.327" width="4004" height="244.674" fill="#6D6D6D"/>
<rect width="4004" height="415.327" fill="#E6E6E6"/>
<path d="M0 321.971L4004 321.972V530H0V321.971Z" fill="#A2A1A1"/>
<rect x="3539" y="195.368" width="446" height="195.789" fill="#757575"/>
<rect x="3548.99" y="204.519" width="424.91" height="176.273" fill="#D2D2D2"/>
<rect x="3539" y="391.157" width="9.98531" height="81.6998" fill="#757575"/>
<rect x="3975.01" y="391.157" width="9.98529" height="81.6998" fill="#757575"/>
<path d="M3548.99 363.448H3879.78L3899.36 398.136H3548.99V363.448Z" fill="#676767"/>
<path d="M3610.81 134.859C3539.39 134.859 3539.39 194.991 3539.39 194.991H3984.61C3984.61 194.991 3984.61 134.392 3927.59 134.859C3870.57 135.327 3682.23 134.859 3610.81 134.859Z" fill="#757575" stroke="#757575"/>
<rect x="3632.37" y="144.007" width="259.267" height="41.8339" fill="#CBCBCB"/>
<path d="M3677.11 171.503L3679.32 171.143V153.671L3677.11 153.335V152.807H3684.43C3686.16 152.807 3687.53 152.967 3688.56 153.287C3689.58 153.607 3690.33 154.095 3690.79 154.751C3691.25 155.391 3691.49 156.239 3691.49 157.295C3691.49 159.599 3690.03 161.071 3687.12 161.711V161.831C3688.89 162.071 3690.27 162.599 3691.25 163.415C3692.24 164.231 3692.73 165.367 3692.73 166.823C3692.73 168.583 3692.09 169.887 3690.79 170.735C3689.51 171.583 3687.77 172.007 3685.58 172.007H3677.11V171.503ZM3684.62 161.639C3685.9 161.639 3686.89 161.279 3687.57 160.559C3688.26 159.839 3688.61 158.815 3688.61 157.487V157.343C3688.61 154.719 3687.21 153.407 3684.43 153.407H3681.96V161.639H3684.62ZM3685.58 171.431C3686.94 171.431 3688 171.039 3688.75 170.255C3689.5 169.455 3689.88 168.319 3689.88 166.847V166.583C3689.88 165.127 3689.5 164.039 3688.75 163.319C3688.01 162.599 3686.96 162.239 3685.58 162.239H3681.96V171.431H3685.58ZM3703.68 172.487C3701.33 172.487 3699.61 171.967 3698.52 170.927C3697.43 169.871 3696.89 168.479 3696.89 166.751V153.671L3694.68 153.335V152.807H3701.74V153.335L3699.53 153.671V166.751C3699.53 168.319 3699.97 169.527 3700.85 170.375C3701.73 171.207 3703.06 171.623 3704.86 171.623C3708.25 171.623 3709.94 169.999 3709.94 166.751V154.271L3707.71 153.335V152.807H3712.82V153.335L3710.52 154.271V166.751C3710.52 168.671 3709.98 170.111 3708.91 171.071C3707.84 172.015 3706.1 172.487 3703.68 172.487ZM3722.01 172.487C3720.52 172.487 3719.05 172.063 3717.61 171.215L3715.57 172.247H3715.05V166.079H3715.57L3717.64 170.543C3718.97 171.487 3720.49 171.959 3722.2 171.959C3723.61 171.959 3724.77 171.591 3725.68 170.855C3726.61 170.103 3727.07 169.055 3727.07 167.711C3727.07 166.735 3726.77 165.967 3726.18 165.407C3725.59 164.831 3724.63 164.375 3723.3 164.039L3719.32 163.007C3717.93 162.639 3716.88 162.015 3716.17 161.135C3715.47 160.239 3715.12 159.183 3715.12 157.967C3715.12 156.863 3715.33 155.887 3715.77 155.039C3716.21 154.175 3716.86 153.511 3717.71 153.047C3718.56 152.567 3719.57 152.327 3720.73 152.327C3722.19 152.327 3723.49 152.575 3724.65 153.071L3726.4 152.327H3726.93V157.223H3726.4L3724.67 153.719C3723.47 153.143 3722.17 152.855 3720.76 152.855C3719.37 152.855 3718.27 153.215 3717.47 153.935C3716.67 154.639 3716.27 155.575 3716.27 156.743C3716.27 157.607 3716.55 158.287 3717.11 158.783C3717.69 159.279 3718.53 159.671 3719.63 159.959L3723.93 161.087C3725.32 161.439 3726.35 162.047 3727.02 162.911C3727.71 163.759 3728.05 165.055 3728.05 166.799C3728.05 168.575 3727.5 169.967 3726.4 170.975C3725.31 171.983 3723.85 172.487 3722.01 172.487ZM3743.73 172.487C3742.24 172.487 3740.78 172.063 3739.34 171.215L3737.3 172.247H3736.77V166.079H3737.3L3739.36 170.543C3740.69 171.487 3742.21 171.959 3743.92 171.959C3745.33 171.959 3746.49 171.591 3747.4 170.855C3748.33 170.103 3748.8 169.055 3748.8 167.711C3748.8 166.735 3748.5 165.967 3747.91 165.407C3747.32 164.831 3746.36 164.375 3745.03 164.039L3741.04 163.007C3739.65 162.639 3738.6 162.015 3737.9 161.135C3737.2 160.239 3736.84 159.183 3736.84 157.967C3736.84 156.863 3737.06 155.887 3737.49 155.039C3737.94 154.175 3738.59 153.511 3739.44 153.047C3740.28 152.567 3741.29 152.327 3742.46 152.327C3743.92 152.327 3745.22 152.575 3746.37 153.071L3748.12 152.327H3748.65V157.223H3748.12L3746.4 153.719C3745.2 153.143 3743.89 152.855 3742.48 152.855C3741.09 152.855 3740 153.215 3739.2 153.935C3738.4 154.639 3738 155.575 3738 156.743C3738 157.607 3738.28 158.287 3738.84 158.783C3739.41 159.279 3740.25 159.671 3741.36 159.959L3745.65 161.087C3747.04 161.439 3748.08 162.047 3748.75 162.911C3749.44 163.759 3749.78 165.055 3749.78 166.799C3749.78 168.575 3749.23 169.967 3748.12 170.975C3747.04 171.983 3745.57 172.487 3743.73 172.487ZM3756.02 172.007V171.503L3758.23 171.143V153.407H3754.27L3752.45 158.159H3751.75V152.807H3767.37V158.159H3766.65L3764.85 153.407H3760.87V171.143L3763.08 171.503V172.007H3756.02ZM3765.59 172.007V171.503L3767.95 170.543L3774.88 152.327H3775.27L3781.82 171.143L3784.03 171.503V172.007H3776.97V171.503L3778.94 171.191L3776.9 165.503H3770.51L3768.57 170.543L3770.73 171.503V172.007H3765.59ZM3770.71 164.999H3776.73L3773.85 156.551L3770.71 164.999ZM3786.7 172.007V171.503L3788.91 171.143V153.407H3784.95L3783.12 158.159H3782.43V152.807H3798.05V158.159H3797.33L3795.53 153.407H3791.55V171.143L3793.76 171.503V172.007H3786.7ZM3799.59 172.007V171.503L3801.8 171.143V153.671L3799.59 153.335V152.807H3806.65V153.335L3804.44 153.671V171.143L3806.65 171.503V172.007H3799.59ZM3817.95 172.487C3816.21 172.487 3814.65 172.063 3813.27 171.215C3811.9 170.367 3810.83 169.183 3810.06 167.663C3809.29 166.127 3808.91 164.375 3808.91 162.407C3808.91 160.439 3809.29 158.695 3810.06 157.175C3810.83 155.639 3811.9 154.447 3813.27 153.599C3814.65 152.751 3816.21 152.327 3817.95 152.327C3819.7 152.327 3821.26 152.751 3822.63 153.599C3824.01 154.447 3825.08 155.639 3825.85 157.175C3826.62 158.695 3827 160.439 3827 162.407C3827 164.375 3826.62 166.127 3825.85 167.663C3825.08 169.183 3824.01 170.367 3822.63 171.215C3821.26 172.063 3819.7 172.487 3817.95 172.487ZM3817.95 171.935C3819.11 171.935 3820.14 171.631 3821.05 171.023C3821.98 170.415 3822.71 169.535 3823.23 168.383C3823.76 167.215 3824.03 165.839 3824.03 164.255V160.559C3824.03 158.975 3823.76 157.607 3823.23 156.455C3822.71 155.287 3821.98 154.399 3821.05 153.791C3820.14 153.183 3819.11 152.879 3817.95 152.879C3816.79 152.879 3815.75 153.183 3814.83 153.791C3813.92 154.399 3813.2 155.287 3812.67 156.455C3812.15 157.607 3811.88 158.975 3811.88 160.559V164.255C3811.88 165.839 3812.15 167.215 3812.67 168.383C3813.2 169.535 3813.92 170.415 3814.83 171.023C3815.75 171.631 3816.79 171.935 3817.95 171.935ZM3829.34 172.007V171.503L3831.57 170.543V154.271L3829.34 153.335V152.807H3833.8L3844.15 167.303V154.271L3841.91 153.335V152.807H3847.03V153.335L3844.75 154.271V172.007H3844.15L3832.17 155.183V170.543L3834.47 171.503V172.007H3829.34Z" fill="black"/>
<rect y="48.5013" width="476.043" height="366.825" fill="#ADADAD"/>
<rect x="300.907" y="80.5912" width="144.251" height="74.2656" fill="#8E8D8D"/>
<rect x="304.891" y="84.7804" width="136.282" height="65.8871" fill="#C4C4C4"/>
<rect x="371.041" y="84.7804" width="3.98423" height="65.8871" fill="#8E8D8D"/>
<rect x="304.891" y="101.07" width="3.98423" height="136.282" transform="rotate(-90 304.891 101.07)" fill="#8E8D8D"/>
<rect x="74.7139" y="80.5912" width="144.251" height="74.2656" fill="#8E8D8D"/>
<rect x="78.6982" y="84.7804" width="136.282" height="65.8871" fill="#C4C4C4"/>
<rect x="144.847" y="84.7804" width="3.98423" height="65.8871" fill="#8E8D8D"/>
<rect x="78.6982" y="101.07" width="3.98423" height="136.282" transform="rotate(-90 78.6982 101.07)" fill="#8E8D8D"/>
<path d="M-24.4219 18.399H455.797L476.043 48.5013H-24.4219V18.399Z" fill="#6F6F6F"/>
<rect x="2649.19" y="183.687" width="87.812" height="289.17" fill="#B5B5B5"/>
<path d="M2693.52 154.857L2649.19 178.803H2737L2693.52 154.857Z" fill="#939393"/>
<rect x="2649.19" y="178.803" width="87.812" height="4.88441" fill="#939393"/>
<rect x="2076.46" y="183.687" width="87.812" height="289.17" fill="#B5B5B5"/>
<path d="M2120.79 154.857L2076.46 178.803H2164.27L2120.79 154.857Z" fill="#939393"/>
<rect x="2076.46" y="178.803" width="87.812" height="4.88441" fill="#939393"/>
<rect x="2164.27" y="194.573" width="484.917" height="257.14" fill="#939393"/>
<rect x="1503.73" y="183.687" width="87.812" height="289.17" fill="#B5B5B5"/>
<path d="M1548.06 154.857L1503.73 178.803H1591.54L1548.06 154.857Z" fill="#939393"/>
<rect x="1503.73" y="178.803" width="87.812" height="4.88441" fill="#939393"/>
<rect x="1591.54" y="194.573" width="484.917" height="257.14" fill="#939393"/>
<rect x="931" y="183.687" width="87.812" height="289.17" fill="#B5B5B5"/>
<path d="M975.335 154.857L931 178.803H1018.81L975.335 154.857Z" fill="#939393"/>
<rect x="931" y="178.803" width="87.812" height="4.88441" fill="#939393"/>
<rect x="1018.81" y="194.573" width="484.917" height="257.14" fill="#939393"/>
<rect y="183.687" width="87.812" height="289.17" fill="#B5B5B5"/>
<path d="M44.335 154.857L0 178.803H87.812L44.335 154.857Z" fill="#939393"/>
<rect y="178.803" width="87.812" height="4.88441" fill="#939393"/>
<rect x="87.812" y="194.573" width="484.917" height="257.14" fill="#939393"/>
<path d="M617.064 154.857L572.729 178.803H660.541L617.064 154.857Z" fill="#939393"/>
<rect x="572.729" y="178.803" width="87.812" height="4.88441" fill="#939393"/>
<rect x="572.729" y="183.687" width="87.812" height="289.17" fill="#B5B5B5"/>
<rect x="2911" y="145.364" width="453" height="269.963" fill="#C4C4C4"/>
<path d="M3341.5 108.803H2937.5L2886.5 178.803H3388.5L3341.5 108.803Z" fill="#999999"/>
<rect x="2945.07" y="234.48" width="98.2681" height="180.846" fill="#999999"/>
<ellipse cx="2958.21" cy="320.961" rx="1.81881" ry="2.95776" fill="#C7C7C7"/>
<ellipse cx="2958.21" cy="334.329" rx="1.81881" ry="2.95776" fill="#C7C7C7"/>
<path d="M2958.12 320.591L2955.69 321.576V333.222L2958.12 335.282" stroke="#C7C7C7"/>
<rect x="3188.49" y="219.225" width="142.769" height="106.563" fill="#757575"/>
<rect x="3193.6" y="223.041" width="132.544" height="98.9307" fill="#A6A6A6"/>
<rect x="3257.32" y="223.041" width="5.11255" height="98.9307" fill="#757575"/>
<rect x="3193.6" y="275.062" width="5.11255" height="132.544" transform="rotate(-90 3193.6 275.062)" fill="#757575"/>
<path d="M931 461.458H858V197.622H931V461.458Z" stroke="#8A8A8A" stroke-width="3"/>
<path d="M858 198.783L860.776 182.9M860.776 182.9C860.776 182.9 861.519 178.507 863.552 167.017C865.586 155.528 866.647 153.842 869.469 154.852C872.29 155.862 873.474 162.624 873.474 162.624C873.474 162.624 874.931 169.786 874.657 178.507C874.383 187.228 873.548 189.212 872.366 190.673C871.184 192.133 868.618 192.291 866.283 190.673C864.021 189.105 860.776 182.9 860.776 182.9Z" stroke="#8A8A8A" stroke-width="3"/>
<path d="M858 196.773L862.421 171.478M862.421 171.478C862.421 171.478 863.604 164.482 866.843 146.183C870.081 127.885 871.771 125.2 876.265 126.808C880.759 128.417 882.643 139.187 882.643 139.187C882.643 139.187 884.964 150.593 884.528 164.482C884.091 178.371 882.762 181.531 880.88 183.857C878.997 186.183 874.911 186.435 871.191 183.857C867.59 181.36 862.421 171.478 862.421 171.478Z" stroke="#8A8A8A" stroke-width="3"/>
<path d="M931 196.773L926.579 171.478M926.579 171.478C926.579 171.478 925.396 164.482 922.157 146.183C918.919 127.885 917.229 125.2 912.735 126.808C908.241 128.417 906.357 139.187 906.357 139.187C906.357 139.187 904.036 150.593 904.472 164.482C904.909 178.371 906.238 181.531 908.12 183.857C910.003 186.183 914.089 186.435 917.809 183.857C921.41 181.36 926.579 171.478 926.579 171.478Z" stroke="#8A8A8A" stroke-width="3"/>
<path d="M931 198.783L928.224 182.9M928.224 182.9C928.224 182.9 927.481 178.507 925.448 167.017C923.414 155.528 922.353 153.842 919.531 154.852C916.71 155.862 915.526 162.624 915.526 162.624C915.526 162.624 914.069 169.786 914.343 178.507C914.617 187.228 915.452 189.212 916.634 190.673C917.816 192.133 920.382 192.291 922.717 190.673C924.979 189.105 928.224 182.9 928.224 182.9Z" stroke="#8A8A8A" stroke-width="3"/>
<path d="M862.902 196.773L862.908 459.99" stroke="#8A8A8A" stroke-width="3"/>
<path d="M867.762 197.622L867.767 460.839" stroke="#8A8A8A" stroke-width="3"/>
<path d="M877.481 198.783L877.486 462" stroke="#8A8A8A" stroke-width="3"/>
<path d="M882.34 197.622L882.346 460.839" stroke="#8A8A8A" stroke-width="3"/>
<path d="M887.2 197.622L887.206 460.839" stroke="#8A8A8A" stroke-width="3"/>
<path d="M892.059 198.783L892.065 462" stroke="#8A8A8A" stroke-width="3"/>
<path d="M894.5 198.783L894.5 459.99" stroke="#595959" stroke-width="3"/>
<path d="M894.5 66L894.5 327.208" stroke="#595959" stroke-width="3"/>
<path d="M928.633 183.494L922.434 148.026M922.434 148.026C922.434 148.026 920.776 138.216 916.234 112.559C911.693 86.9012 909.324 83.1371 903.023 85.392C896.722 87.6469 894.079 102.749 894.079 102.749C894.079 102.749 890.825 118.741 891.437 138.216C892.049 157.691 893.913 162.121 896.552 165.383C899.192 168.645 904.922 168.998 910.137 165.383C915.187 161.882 922.434 148.026 922.434 148.026Z" stroke="#8A8A8A" stroke-width="3"/>
<path d="M860.327 183.494L866.527 148.026M866.527 148.026C866.527 148.026 868.185 138.216 872.726 112.559C877.267 86.9012 879.637 83.1371 885.938 85.392C892.239 87.6469 894.881 102.749 894.881 102.749C894.881 102.749 898.136 118.741 897.524 138.216C896.911 157.691 895.048 162.121 892.408 165.383C889.769 168.645 884.039 168.998 878.824 165.383C873.774 161.882 866.527 148.026 866.527 148.026Z" stroke="#8A8A8A" stroke-width="3"/>
<path d="M896.919 198.783L896.925 462" stroke="#8A8A8A" stroke-width="3"/>
<path d="M901.778 198.783L901.784 462" stroke="#8A8A8A" stroke-width="3"/>
<path d="M906.638 197.622L906.644 460.839" stroke="#8A8A8A" stroke-width="3"/>
<path d="M911.498 196.773L911.503 459.99" stroke="#8A8A8A" stroke-width="3"/>
<path d="M916.357 198.783L916.363 462" stroke="#8A8A8A" stroke-width="3"/>
<path d="M921.217 198.783L921.222 462" stroke="#8A8A8A" stroke-width="3"/>
<path d="M926.076 196.773L926.082 459.99" stroke="#8A8A8A" stroke-width="3"/>
<path d="M872.621 198.038L872.627 461.256" stroke="#8A8A8A" stroke-width="3"/>
<path d="M876.559 94.4216C876.559 94.4216 879.774 79.0087 884.005 73.1173C887.523 68.2174 890.169 66.3324 894.519 66.0403C899.355 65.7156 902.586 67.2886 906.343 73.1173C910.195 79.0922 912.441 94.4158 912.441 94.4158" stroke="#8A8A8A" stroke-width="3"/>
</g>
<defs>
<clipPath id="clip0">
<rect width="4004" height="660" fill="white"/>
</clipPath>
</defs>
</svg>
