<svg width="1853" height="534" viewBox="0 0 1853 534" fill="none" xmlns="http://www.w3.org/2000/svg">
<g clip-path="url(#clip0)">
<rect width="1853" height="534" fill="white"/>
<rect y="364" width="2022" height="170" fill="#373737"/>
<rect width="2022" height="364" fill="#666666"/>
<path d="M1470 47.9837H1301V364H1470V47.9837Z" fill="#414141"/>
<path d="M1348.75 203.103H1321.79V208.881H1348.75V203.103Z" fill="#D2D2D2"/>
<path d="M1376.34 104.893C1376.34 105.145 1376.38 105.383 1376.48 105.607C1376.57 105.831 1376.7 106.027 1376.85 106.195C1377.01 106.363 1377.2 106.499 1377.41 106.601C1377.63 106.695 1377.86 106.741 1378.11 106.741C1378.37 106.741 1378.6 106.695 1378.83 106.601C1379.05 106.499 1379.25 106.363 1379.42 106.195C1379.58 106.027 1379.71 105.831 1379.81 105.607C1379.91 105.383 1379.96 105.145 1379.96 104.893C1379.96 104.641 1379.91 104.403 1379.81 104.179C1379.71 103.955 1379.58 103.759 1379.42 103.591C1379.25 103.423 1379.05 103.293 1378.83 103.199C1378.6 103.106 1378.37 103.059 1378.11 103.059C1377.87 103.059 1377.64 103.106 1377.41 103.199C1377.2 103.293 1377.01 103.423 1376.85 103.591C1376.7 103.759 1376.57 103.955 1376.48 104.179C1376.38 104.403 1376.34 104.641 1376.34 104.893ZM1375.02 104.893C1375.02 104.399 1375.09 103.932 1375.24 103.493C1375.4 103.045 1375.61 102.63 1375.86 102.247C1376.12 101.855 1376.41 101.496 1376.73 101.169C1377.05 100.833 1377.39 100.525 1377.72 100.245C1378.07 99.9559 1378.4 99.6946 1378.73 99.4613C1379.06 99.2279 1379.35 99.0179 1379.61 98.8313C1379.74 98.9899 1379.87 99.1533 1380 99.3213C1380.14 99.4893 1380.28 99.6526 1380.41 99.8113C1380.14 99.9979 1379.85 100.199 1379.54 100.413C1379.23 100.628 1378.94 100.843 1378.65 101.057C1378.36 101.272 1378.1 101.477 1377.88 101.673C1377.65 101.869 1377.49 102.033 1377.39 102.163C1377.48 102.061 1377.59 101.977 1377.71 101.911C1377.83 101.846 1377.96 101.813 1378.11 101.813C1378.53 101.813 1378.94 101.893 1379.32 102.051C1379.7 102.21 1380.03 102.429 1380.31 102.709C1380.6 102.98 1380.83 103.302 1381 103.675C1381.17 104.049 1381.25 104.45 1381.25 104.879C1381.25 105.309 1381.17 105.715 1381 106.097C1380.83 106.471 1380.6 106.797 1380.31 107.077C1380.03 107.357 1379.7 107.581 1379.32 107.749C1378.94 107.908 1378.55 107.987 1378.13 107.987C1377.77 107.987 1377.41 107.927 1377.05 107.805C1376.69 107.684 1376.35 107.497 1376.04 107.245C1375.74 106.984 1375.5 106.662 1375.3 106.279C1375.11 105.887 1375.02 105.425 1375.02 104.893ZM1383.61 103.297C1383.91 102.737 1384.26 102.177 1384.64 101.617C1385.02 101.048 1385.37 100.479 1385.66 99.9093H1382.82V98.6493H1387.71C1387.38 99.2093 1387.04 99.7693 1386.69 100.329C1386.33 100.889 1385.99 101.449 1385.66 102.009C1386.26 102.252 1386.74 102.625 1387.11 103.129C1387.48 103.633 1387.67 104.221 1387.67 104.893C1387.67 105.313 1387.58 105.715 1387.41 106.097C1387.25 106.471 1387.02 106.797 1386.73 107.077C1386.45 107.357 1386.12 107.581 1385.73 107.749C1385.36 107.908 1384.96 107.987 1384.54 107.987C1384.09 107.987 1383.66 107.894 1383.27 107.707C1382.88 107.521 1382.54 107.278 1382.25 106.979L1383.19 106.097C1383.35 106.303 1383.55 106.461 1383.77 106.573C1384.01 106.685 1384.26 106.741 1384.53 106.741C1384.78 106.741 1385.02 106.695 1385.24 106.601C1385.47 106.499 1385.66 106.363 1385.83 106.195C1386 106.027 1386.13 105.831 1386.22 105.607C1386.33 105.383 1386.38 105.145 1386.38 104.893C1386.38 104.641 1386.33 104.408 1386.22 104.193C1386.13 103.969 1386 103.773 1385.83 103.605C1385.66 103.437 1385.47 103.307 1385.24 103.213C1385.02 103.12 1384.78 103.073 1384.53 103.073C1384.18 103.073 1383.88 103.148 1383.61 103.297ZM1389.04 99.8953V98.6493H1391.23V107.875H1389.93V99.8953H1389.04Z" fill="black"/>
<circle cx="1385.5" cy="133.872" r="3.37034" fill="#C4C4C4"/>
<circle cx="1385.5" cy="133.872" r="1.97759" fill="#A3A3A3"/>
<path d="M1804 47.9837H1635V364H1804V47.9837Z" fill="#3D3D3D"/>
<path d="M1675.61 203.492H1655.61V208.492H1675.61V203.492Z" fill="#C4C4C4"/>
<circle cx="1719.5" cy="133.872" r="3.37034" fill="#C4C4C4"/>
<circle cx="1719.5" cy="133.872" r="1.97759" fill="#A3A3A3"/>
<path d="M1710.6 111.409C1710.6 111.661 1710.64 111.899 1710.74 112.123C1710.83 112.347 1710.95 112.543 1711.11 112.711C1711.27 112.879 1711.46 113.015 1711.67 113.117C1711.89 113.211 1712.12 113.257 1712.37 113.257C1712.63 113.257 1712.86 113.211 1713.09 113.117C1713.31 113.015 1713.51 112.879 1713.68 112.711C1713.84 112.543 1713.97 112.347 1714.07 112.123C1714.17 111.899 1714.22 111.661 1714.22 111.409C1714.22 111.157 1714.17 110.919 1714.07 110.695C1713.97 110.471 1713.84 110.275 1713.68 110.107C1713.51 109.939 1713.31 109.809 1713.09 109.715C1712.86 109.622 1712.63 109.575 1712.37 109.575C1712.13 109.575 1711.9 109.622 1711.67 109.715C1711.46 109.809 1711.27 109.939 1711.11 110.107C1710.95 110.275 1710.83 110.471 1710.74 110.695C1710.64 110.919 1710.6 111.157 1710.6 111.409ZM1709.28 111.409C1709.28 110.915 1709.35 110.448 1709.5 110.009C1709.66 109.561 1709.87 109.146 1710.12 108.763C1710.38 108.371 1710.67 108.012 1710.99 107.685C1711.31 107.349 1711.65 107.041 1711.98 106.761C1712.33 106.472 1712.66 106.211 1712.99 105.977C1713.32 105.744 1713.61 105.534 1713.87 105.347C1714 105.506 1714.13 105.669 1714.26 105.837C1714.4 106.005 1714.54 106.169 1714.67 106.327C1714.4 106.514 1714.11 106.715 1713.8 106.929C1713.49 107.144 1713.19 107.359 1712.91 107.573C1712.62 107.788 1712.36 107.993 1712.14 108.189C1711.91 108.385 1711.75 108.549 1711.65 108.679C1711.74 108.577 1711.85 108.493 1711.97 108.427C1712.09 108.362 1712.22 108.329 1712.37 108.329C1712.79 108.329 1713.19 108.409 1713.58 108.567C1713.96 108.726 1714.29 108.945 1714.57 109.225C1714.86 109.496 1715.09 109.818 1715.26 110.191C1715.43 110.565 1715.51 110.966 1715.51 111.395C1715.51 111.825 1715.43 112.231 1715.26 112.613C1715.09 112.987 1714.86 113.313 1714.57 113.593C1714.29 113.873 1713.96 114.097 1713.58 114.265C1713.2 114.424 1712.81 114.503 1712.39 114.503C1712.03 114.503 1711.67 114.443 1711.31 114.321C1710.95 114.2 1710.61 114.013 1710.3 113.761C1710 113.5 1709.76 113.178 1709.56 112.795C1709.37 112.403 1709.28 111.941 1709.28 111.409ZM1717.87 109.813C1718.17 109.253 1718.52 108.693 1718.9 108.133C1719.28 107.564 1719.62 106.995 1719.92 106.425H1717.08V105.165H1721.97C1721.64 105.725 1721.3 106.285 1720.95 106.845C1720.59 107.405 1720.25 107.965 1719.92 108.525C1720.52 108.768 1721 109.141 1721.37 109.645C1721.74 110.149 1721.93 110.737 1721.93 111.409C1721.93 111.829 1721.84 112.231 1721.67 112.613C1721.51 112.987 1721.28 113.313 1720.99 113.593C1720.71 113.873 1720.38 114.097 1719.99 114.265C1719.62 114.424 1719.22 114.503 1718.8 114.503C1718.35 114.503 1717.92 114.41 1717.53 114.223C1717.14 114.037 1716.8 113.794 1716.51 113.495L1717.45 112.613C1717.61 112.819 1717.81 112.977 1718.03 113.089C1718.27 113.201 1718.52 113.257 1718.79 113.257C1719.04 113.257 1719.28 113.211 1719.5 113.117C1719.73 113.015 1719.92 112.879 1720.09 112.711C1720.26 112.543 1720.39 112.347 1720.48 112.123C1720.59 111.899 1720.64 111.661 1720.64 111.409C1720.64 111.157 1720.59 110.924 1720.48 110.709C1720.39 110.485 1720.26 110.289 1720.09 110.121C1719.92 109.953 1719.73 109.823 1719.5 109.729C1719.28 109.636 1719.04 109.589 1718.79 109.589C1718.44 109.589 1718.14 109.664 1717.87 109.813ZM1726.44 113.145H1729.72V114.391H1723.36C1723.94 113.803 1724.5 113.234 1725.04 112.683C1725.6 112.133 1726.08 111.601 1726.5 111.087C1726.92 110.565 1727.26 110.065 1727.51 109.589C1727.77 109.104 1727.9 108.637 1727.9 108.189C1727.9 107.863 1727.84 107.583 1727.73 107.349C1727.62 107.107 1727.48 106.911 1727.31 106.761C1727.15 106.603 1726.98 106.486 1726.78 106.411C1726.58 106.337 1726.4 106.299 1726.23 106.299C1725.89 106.299 1725.6 106.36 1725.38 106.481C1725.17 106.603 1724.99 106.752 1724.86 106.929C1724.73 107.097 1724.64 107.275 1724.58 107.461C1724.54 107.648 1724.51 107.811 1724.51 107.951C1724.51 108.269 1724.56 108.544 1724.65 108.777C1724.76 109.011 1724.89 109.221 1725.06 109.407L1724.3 110.205C1724.13 110.103 1723.98 109.963 1723.84 109.785C1723.71 109.599 1723.6 109.403 1723.5 109.197C1723.41 108.983 1723.34 108.768 1723.29 108.553C1723.25 108.329 1723.22 108.129 1723.22 107.951C1723.22 107.578 1723.29 107.219 1723.42 106.873C1723.55 106.519 1723.74 106.206 1723.99 105.935C1724.26 105.665 1724.57 105.45 1724.95 105.291C1725.32 105.133 1725.75 105.053 1726.23 105.053C1726.68 105.053 1727.09 105.133 1727.45 105.291C1727.82 105.45 1728.12 105.669 1728.38 105.949C1728.64 106.22 1728.84 106.537 1728.98 106.901C1729.13 107.256 1729.2 107.629 1729.2 108.021C1729.2 108.479 1729.13 108.927 1728.98 109.365C1728.83 109.795 1728.62 110.224 1728.36 110.653C1728.11 111.073 1727.82 111.489 1727.48 111.899C1727.15 112.31 1726.81 112.725 1726.44 113.145Z" fill="black"/>
<rect x="902" y="31" width="250" height="333" fill="#A6A6A6"/>
<rect x="1025.5" y="31" width="3" height="333" fill="black"/>
<path fill-rule="evenodd" clip-rule="evenodd" d="M1200 203.103V185.603H1184V203.103H1200Z" fill="#C4C4C4"/>
<path d="M1200 168.103H1184V185.603H1200V168.103Z" fill="#C4C4C4"/>
<ellipse cx="1192" cy="177.032" rx="4.97852" ry="5.05632" fill="#3A3A3A"/>
<path d="M1192 173.327L1195.21 178.884H1188.79L1192 173.327Z" fill="#F1F1F1"/>
<ellipse cx="1192" cy="194.012" rx="4.97852" ry="5.05632" fill="#3A3A3A"/>
<path d="M1192 197.717L1188.79 192.159H1195.21L1192 197.717Z" fill="#F1F1F1"/>
<rect x="579.719" y="0.46582" width="188.027" height="364" fill="#3E3E3E"/>
<rect x="248.525" y="218.315" width="215.221" height="10.4086" fill="#252525"/>
<rect x="247.275" y="312.111" width="216.471" height="10.4086" fill="#252525"/>
<rect x="453.337" y="364.466" width="146.151" height="10.4086" transform="rotate(-90 453.337 364.466)" fill="#252525"/>
<rect x="245.302" y="364.466" width="146.151" height="10.4086" transform="rotate(-90 245.302 364.466)" fill="#252525"/>
<rect x="279.975" y="312.111" width="83.3879" height="10.4086" transform="rotate(-90 279.975 312.111)" fill="#252525"/>
<rect x="314.647" y="312.111" width="83.3879" height="10.4086" transform="rotate(-90 314.647 312.111)" fill="#252525"/>
<rect x="349.32" y="312.111" width="83.3879" height="10.4086" transform="rotate(-90 349.32 312.111)" fill="#252525"/>
<rect x="418.665" y="312.111" width="83.3879" height="10.4086" transform="rotate(-90 418.665 312.111)" fill="#252525"/>
<rect x="383.992" y="312.111" width="83.3879" height="10.4086" transform="rotate(-90 383.992 312.111)" fill="#252525"/>
<path fill-rule="evenodd" clip-rule="evenodd" d="M463.735 228.722L511.125 22.2596L500.452 22.2345L453.59 226.394L463.735 228.722Z" fill="#252525"/>
<path fill-rule="evenodd" clip-rule="evenodd" d="M505.273 1.23142L505.448 0.470248L516.127 0.470249L515.946 1.25656L511.125 22.2596L500.452 22.2345L505.273 1.23142Z" fill="#252525"/>
<path fill-rule="evenodd" clip-rule="evenodd" d="M258.173 221.509L257.998 220.748L247.319 220.748L247.499 221.534L252.32 242.537L262.994 242.512L258.173 221.509Z" fill="#252525"/>
<path fill-rule="evenodd" clip-rule="evenodd" d="M252.32 242.537L280.341 364.615L291.021 364.615L262.994 242.512L252.32 242.537Z" fill="#252525"/>
<rect x="463.746" y="334" width="304" height="30" fill="#252525"/>
<rect x="470.746" y="304" width="290" height="30" fill="#252525"/>
<rect x="477.746" y="274" width="276" height="30" fill="#252525"/>
<rect x="484.746" y="244" width="262" height="30" fill="#252525"/>
<rect x="491.746" y="214" width="248" height="30" fill="#252525"/>
<rect x="498.746" y="184" width="234" height="30" fill="#252525"/>
<rect x="505.746" y="154" width="220" height="30" fill="#252525"/>
<rect x="512.746" y="124" width="206" height="30" fill="#252525"/>
<rect x="519.746" y="94" width="192" height="30" fill="#252525"/>
<rect x="526.746" y="64" width="178" height="30" fill="#252525"/>
<rect x="533.746" y="34" width="164" height="30" fill="#252525"/>
<rect x="540.746" y="0.106857" width="150" height="33.8931" fill="#252525"/>
<path d="M463.746 334H767.746" stroke="black"/>
<path d="M470.746 304H760.746" stroke="black"/>
<path d="M477.746 274H753.746" stroke="black"/>
<path d="M484.746 244H746.746" stroke="black"/>
<path d="M491.746 214H739.746" stroke="black"/>
<path d="M498.746 184H732.746" stroke="black"/>
<path d="M505.746 154H725.746" stroke="black"/>
<path d="M512.746 124H718.746" stroke="black"/>
<path d="M519.746 94H711.746" stroke="black"/>
<path d="M526.746 64H704.746" stroke="black"/>
<path d="M533.746 34H697.746" stroke="black"/>
</g>
<defs>
<clipPath id="clip0">
<rect width="1853" height="534" fill="white"/>
</clipPath>
</defs>
</svg>
