<svg width="1659" height="364" viewBox="0 0 1659 364" fill="none" xmlns="http://www.w3.org/2000/svg">
<g clip-path="url(#clip0)">
<rect width="1659" height="364" fill="white"/>
<rect width="1659" height="286.928" fill="#CACACA"/>
<rect x="-227.508" y="147.198" width="2012.65" height="139.731" fill="#A2A1A1"/>
<rect x="1083.56" y="102.706" width="17.7471" height="59.107" fill="#B5B5B5"/>
<path d="M1092.52 96.8128L1083.56 101.707H1101.31L1092.52 96.8128Z" fill="#939393"/>
<rect x="1083.56" y="101.707" width="17.7471" height="0.998388" fill="#939393"/>
<rect x="1101.31" y="104.931" width="98.0038" height="52.56" fill="#939393"/>
<path d="M1208.27 96.8128L1199.31 101.707H1217.06L1208.27 96.8128Z" fill="#939393"/>
<rect x="1199.31" y="101.707" width="17.7472" height="0.998388" fill="#939393"/>
<rect x="1199.31" y="102.706" width="17.7472" height="59.107" fill="#B5B5B5"/>
<rect x="967.811" y="102.706" width="17.7471" height="59.107" fill="#B5B5B5"/>
<path d="M976.771 96.8128L967.811 101.707H985.558L976.771 96.8128Z" fill="#939393"/>
<rect x="967.811" y="101.707" width="17.7471" height="0.998388" fill="#939393"/>
<rect x="985.558" y="104.931" width="98.0038" height="52.56" fill="#939393"/>
<path d="M1092.52 96.8128L1083.56 101.707H1101.31L1092.52 96.8128Z" fill="#939393"/>
<rect x="1083.56" y="101.707" width="17.7472" height="0.998388" fill="#939393"/>
<rect x="1083.56" y="102.706" width="17.7472" height="59.107" fill="#B5B5B5"/>
<rect x="852.06" y="102.706" width="17.7471" height="59.107" fill="#B5B5B5"/>
<path d="M861.02 96.8128L852.06 101.707H869.807L861.02 96.8128Z" fill="#939393"/>
<rect x="852.06" y="101.707" width="17.7471" height="0.998388" fill="#939393"/>
<rect x="869.807" y="104.931" width="98.0038" height="52.56" fill="#939393"/>
<path d="M976.771 96.8128L967.811 101.707H985.558L976.771 96.8128Z" fill="#939393"/>
<rect x="967.811" y="101.707" width="17.7472" height="0.998388" fill="#939393"/>
<rect x="967.811" y="102.706" width="17.7472" height="59.107" fill="#B5B5B5"/>
<rect x="736.309" y="102.706" width="17.7471" height="59.107" fill="#B5B5B5"/>
<path d="M745.269 96.8128L736.309 101.707H754.056L745.269 96.8128Z" fill="#939393"/>
<rect x="736.309" y="101.707" width="17.7471" height="0.998388" fill="#939393"/>
<rect x="754.056" y="104.931" width="98.0038" height="52.56" fill="#939393"/>
<path d="M861.02 96.8128L852.06 101.707H869.807L861.02 96.8128Z" fill="#939393"/>
<rect x="852.06" y="101.707" width="17.7472" height="0.998388" fill="#939393"/>
<rect x="852.06" y="102.706" width="17.7472" height="59.107" fill="#B5B5B5"/>
<rect x="1546.57" y="103.002" width="17.7472" height="59.107" fill="#B5B5B5"/>
<path d="M1555.53 97.1095L1546.57 102.004H1564.31L1555.53 97.1095Z" fill="#939393"/>
<rect x="1546.57" y="102.004" width="17.7472" height="0.998386" fill="#939393"/>
<rect x="1430.81" y="103.002" width="17.7472" height="59.107" fill="#B5B5B5"/>
<path d="M1439.77 97.1095L1430.81 102.004H1448.56L1439.77 97.1095Z" fill="#939393"/>
<rect x="1430.81" y="102.004" width="17.7472" height="0.998386" fill="#939393"/>
<rect x="1448.56" y="105.228" width="98.0037" height="52.56" fill="#939393"/>
<rect x="1315.06" y="103.002" width="17.7472" height="59.107" fill="#B5B5B5"/>
<path d="M1324.02 97.1095L1315.06 102.004H1332.81L1324.02 97.1095Z" fill="#939393"/>
<rect x="1315.06" y="102.004" width="17.7472" height="0.998386" fill="#939393"/>
<rect x="1332.81" y="105.228" width="98.0038" height="52.56" fill="#939393"/>
<rect x="1199.31" y="103.002" width="17.7472" height="59.107" fill="#B5B5B5"/>
<path d="M1208.27 97.1095L1199.31 102.004H1217.06L1208.27 97.1095Z" fill="#939393"/>
<rect x="1199.31" y="102.004" width="17.7472" height="0.998386" fill="#939393"/>
<rect x="1217.06" y="105.228" width="98.0038" height="52.56" fill="#939393"/>
<rect x="273.305" y="102.409" width="17.7471" height="59.107" fill="#B5B5B5"/>
<path d="M282.265 96.5161L273.305 101.411H291.052L282.265 96.5161Z" fill="#939393"/>
<rect x="273.305" y="101.411" width="17.7471" height="0.998388" fill="#939393"/>
<rect x="291.052" y="104.634" width="98.0038" height="52.56" fill="#939393"/>
<path d="M398.016 96.5161L389.056 101.411H406.803L398.016 96.5161Z" fill="#939393"/>
<rect x="389.056" y="101.411" width="17.7472" height="0.998388" fill="#939393"/>
<rect x="389.056" y="102.409" width="17.7472" height="59.107" fill="#B5B5B5"/>
<rect x="157.554" y="102.409" width="17.7471" height="59.107" fill="#B5B5B5"/>
<path d="M166.514 96.5161L157.554 101.411H175.301L166.514 96.5161Z" fill="#939393"/>
<rect x="157.554" y="101.411" width="17.7471" height="0.998388" fill="#939393"/>
<rect x="175.301" y="104.634" width="98.0038" height="52.56" fill="#939393"/>
<path d="M282.265 96.5161L273.305 101.411H291.052L282.265 96.5161Z" fill="#939393"/>
<rect x="273.305" y="101.411" width="17.7472" height="0.998388" fill="#939393"/>
<rect x="273.305" y="102.409" width="17.7472" height="59.107" fill="#B5B5B5"/>
<rect x="41.8032" y="102.409" width="17.7471" height="59.107" fill="#B5B5B5"/>
<path d="M50.7634 96.5161L41.8032 101.411H59.5503L50.7634 96.5161Z" fill="#939393"/>
<rect x="41.8032" y="101.411" width="17.7471" height="0.998388" fill="#939393"/>
<rect x="59.5503" y="104.634" width="98.0038" height="52.56" fill="#939393"/>
<path d="M166.514 96.5161L157.554 101.411H175.301L166.514 96.5161Z" fill="#939393"/>
<rect x="157.554" y="101.411" width="17.7472" height="0.998388" fill="#939393"/>
<rect x="157.554" y="102.409" width="17.7472" height="59.107" fill="#B5B5B5"/>
<rect x="-56.2007" y="104.634" width="98.0038" height="52.56" fill="#939393"/>
<path d="M50.7634 96.5161L41.8031 101.411H59.5503L50.7634 96.5161Z" fill="#939393"/>
<rect x="41.8031" y="101.411" width="17.7472" height="0.998388" fill="#939393"/>
<rect x="41.8031" y="102.409" width="17.7472" height="59.107" fill="#B5B5B5"/>
<rect x="736.309" y="102.706" width="17.7472" height="59.107" fill="#B5B5B5"/>
<path d="M745.269 96.8128L736.309 101.707H754.056L745.269 96.8128Z" fill="#939393"/>
<rect x="736.309" y="101.707" width="17.7472" height="0.998386" fill="#939393"/>
<rect x="620.558" y="102.706" width="17.7472" height="59.107" fill="#B5B5B5"/>
<path d="M629.518 96.8128L620.558 101.707H638.305L629.518 96.8128Z" fill="#939393"/>
<rect x="620.558" y="101.707" width="17.7472" height="0.998386" fill="#939393"/>
<rect x="638.305" y="104.931" width="98.0037" height="52.56" fill="#939393"/>
<rect x="504.807" y="102.706" width="17.7472" height="59.107" fill="#B5B5B5"/>
<path d="M513.767 96.8128L504.807 101.707H522.554L513.767 96.8128Z" fill="#939393"/>
<rect x="504.807" y="101.707" width="17.7472" height="0.998386" fill="#939393"/>
<rect x="522.554" y="104.931" width="98.0038" height="52.56" fill="#939393"/>
<rect x="389.056" y="102.706" width="17.7472" height="59.107" fill="#B5B5B5"/>
<path d="M398.016 96.8128L389.056 101.707H406.803L398.016 96.8128Z" fill="#939393"/>
<rect x="389.056" y="101.707" width="17.7472" height="0.998386" fill="#939393"/>
<rect x="406.803" y="104.931" width="98.0038" height="52.56" fill="#939393"/>
<rect width="406.453" height="414.918" transform="matrix(-1 0 0 1 1994.64 -51)" fill="#ADADAD"/>
<path d="M1651.03 -51H1557.64V345.519L1651.03 364V-51Z" fill="#9A9A9A"/>
<path d="M1617.17 171.936L1574.37 147.746V320.302L1617.17 356.249L1617.17 171.936Z" fill="#717171"/>
<path d="M1628.38 -6.63476L1564.31 -21.8245V72.5001L1628.38 100.354V-6.63476Z" fill="#8E8D8D"/>
<path d="M1625.81 -2.96018L1566.88 -16.9338V69.8394L1625.81 95.4629V-2.96018Z" fill="#C4C4C4"/>
<path d="M1625.81 12.3045L1566.88 -1.61144L1566.88 2.65752L1625.81 16.6657L1625.81 12.3045Z" fill="#8E8D8D"/>
<path d="M1608.33 244.34L1604.33 243.017V257.732L1608.33 259.656V244.34Z" fill="#C4C4C4"/>
<path d="M1557.9 286.914L738.146 286.914L685.638 364H1650.64L1557.9 286.914Z" fill="#B7B7B7"/>
<path d="M819.317 286.928L-0.433044 286.928L-52.9415 364.014H912.059L819.317 286.928Z" fill="#B7B7B7"/>
<circle cx="1369.26" cy="54.15" r="29.1223" fill="#EFEFEF"/>
<rect x="1296.74" y="125.478" width="108.647" height="20.5" fill="#8D8D8D"/>
<rect x="1322.66" y="104.978" width="82.7231" height="20.5" fill="#8D8D8D"/>
<rect x="1274.6" y="145.978" width="108.647" height="20.5" fill="#8D8D8D"/>
<rect x="1252.46" y="166.478" width="108.647" height="20.5" fill="#8D8D8D"/>
<rect x="1230.32" y="186.978" width="108.647" height="20.5" fill="#8D8D8D"/>
<rect x="1208.19" y="207.478" width="108.647" height="20.5" fill="#8D8D8D"/>
<rect x="1307.84" y="125.478" width="97.5466" height="102.5" fill="#8D8D8D"/>
<rect width="108.647" height="20.5" transform="matrix(-1 0 0 1 159.323 125.478)" fill="#8D8D8D"/>
<rect width="82.7231" height="20.5" transform="matrix(-1 0 0 1 133.4 104.978)" fill="#8D8D8D"/>
<rect width="108.647" height="20.5" transform="matrix(-1 0 0 1 181.461 145.978)" fill="#8D8D8D"/>
<rect width="108.647" height="20.5" transform="matrix(-1 0 0 1 203.598 166.478)" fill="#8D8D8D"/>
<rect width="108.647" height="20.5" transform="matrix(-1 0 0 1 225.735 186.978)" fill="#8D8D8D"/>
<rect width="108.647" height="20.5" transform="matrix(-1 0 0 1 247.872 207.478)" fill="#8D8D8D"/>
<rect width="97.5466" height="102.5" transform="matrix(-1 0 0 1 148.223 125.478)" fill="#8D8D8D"/>
<ellipse cx="708.66" cy="220.274" rx="424.919" ry="49.9616" fill="#BCBCBC"/>
<path d="M333.557 218.737L332.012 221.092M333.557 218.737L335.286 216.935M333.557 218.737H402.718M333.557 218.737V228.155M347.389 204.316L345.66 206.119M347.389 204.316L348.824 201.999M347.389 204.316H402.718M347.389 204.316V228.155M358.867 185.775L357.432 188.093M358.867 185.775L360.78 183.274M358.867 185.775H402.718M358.867 185.775V228.155M374.171 165.763L372.258 168.264M374.171 165.763L375.734 164.291M374.171 165.763H402.718M374.171 165.763V228.155M399.187 142.218L397.623 143.69M399.187 142.218L400.952 140.305M399.187 142.218H400.952M399.187 142.218V228.155M330.467 223.446L328.921 225.801M330.467 223.446L332.012 221.092M330.467 223.446H400.952M330.467 223.446V228.155M340.473 211.527L338.744 213.329M340.473 211.527L342.202 209.724M340.473 211.527H402.718M340.473 211.527V228.155M353.128 195.046L351.693 197.363M353.128 195.046L354.563 192.728M353.128 195.046H402.718M353.128 195.046V228.155M366.519 175.769L364.606 178.27M366.519 175.769L368.432 173.267M366.519 175.769H402.718M366.519 175.769V228.155M370.345 170.766L368.432 173.267M370.345 170.766L372.258 168.264M370.345 170.766H402.718M370.345 170.766V228.155M386.679 153.99L385.115 155.462M386.679 153.99L388.242 152.519M386.679 153.99H402.718M386.679 153.99V228.155M380.425 159.876L381.988 158.405M380.425 159.876L378.861 161.348M380.425 159.876H402.718M380.425 159.876V228.155M392.933 148.104L391.369 149.576M392.933 148.104L394.496 146.633M392.933 148.104H402.718M392.933 148.104V228.155M362.693 180.772L360.78 183.274M362.693 180.772L364.606 178.27M362.693 180.772H402.718M362.693 180.772V228.155M343.931 207.922L342.202 209.724M343.931 207.922L345.66 206.119M343.931 207.922H402.718M343.931 207.922V228.155M337.015 215.132L335.286 216.935M337.015 215.132L338.744 213.329M337.015 215.132H402.718M337.015 215.132V228.155M350.259 199.681L348.824 201.999M350.259 199.681L351.693 197.363M350.259 199.681H402.718M350.259 199.681V228.155M355.997 190.41L354.563 192.728M355.997 190.41L357.432 188.093M355.997 190.41H402.718M355.997 190.41V228.155M328.921 225.801L327.376 228.155H328.921M328.921 225.801H400.952M328.921 225.801V228.155M332.012 221.092H400.952M332.012 221.092V228.155M335.286 216.935H402.718M335.286 216.935V228.155M338.744 213.329H402.718M338.744 213.329V228.155M342.202 209.724H402.718M342.202 209.724V228.155M345.66 206.119H402.718M345.66 206.119V228.155M348.824 201.999H402.718M348.824 201.999V228.155M351.693 197.363H402.718M351.693 197.363V228.155M354.563 192.728H402.718M354.563 192.728V228.155M357.432 188.093H402.718M357.432 188.093V228.155M360.78 183.274H402.718M360.78 183.274V228.155M364.606 178.27H402.718M364.606 178.27V228.155M368.432 173.267H402.718M368.432 173.267V228.155M372.258 168.264H402.718M372.258 168.264V228.155M377.298 162.819L375.734 164.291M377.298 162.819L378.861 161.348M377.298 162.819H402.718M377.298 162.819V228.155M383.552 156.933L381.988 158.405M383.552 156.933L385.115 155.462M383.552 156.933H402.718M383.552 156.933V228.155M381.988 158.405H402.718M381.988 158.405V228.155M385.115 155.462H402.718M385.115 155.462V228.155M375.734 164.291H402.718M375.734 164.291V228.155M378.861 161.348H402.718M378.861 161.348V228.155M389.806 151.047L388.242 152.519M389.806 151.047L391.369 149.576M389.806 151.047H402.718M389.806 151.047V228.155M388.242 152.519H402.718M388.242 152.519V228.155M391.369 149.576H402.718M391.369 149.576V228.155M396.06 145.161L394.496 146.633M396.06 145.161L397.623 143.69M396.06 145.161H402.718M396.06 145.161V228.155M394.496 146.633H402.718M394.496 146.633V228.155M397.623 143.69C399.321 143.645 402.718 143.582 402.718 143.69M397.623 143.69V228.155M400.952 140.305L402.718 138.392V140.305M400.952 140.305H402.718M400.952 140.305V142.218M400.952 228.155H402.718V225.801M400.952 228.155V225.801M400.952 228.155H399.187M400.952 225.801V223.446M400.952 225.801H402.718M400.952 223.446V221.092M400.952 223.446H402.718M400.952 221.092H402.718M400.952 221.092V142.218M402.718 218.737V221.092M402.718 218.737V216.935M402.718 221.092V223.446M402.718 223.446V225.801M402.718 216.935V215.132M402.718 215.132V213.329M402.718 213.329V211.527M402.718 211.527V209.724M402.718 209.724V207.922M402.718 207.922V206.119M402.718 206.119V204.316M402.718 204.316V201.999M402.718 201.999V199.681M402.718 199.681V197.363M402.718 197.363V195.046M402.718 195.046V192.728M402.718 192.728V190.41M402.718 190.41V188.093M402.718 188.093V185.775M402.718 185.775V183.274M402.718 183.274V180.772M402.718 180.772V178.27M402.718 178.27V175.769M402.718 175.769V173.267M402.718 173.267V170.766M402.718 170.766V168.264M402.718 168.264V165.763M402.718 165.763V164.291M402.718 164.291V162.819M402.718 162.819V161.348M402.718 161.348V159.876M402.718 159.876V158.405M402.718 158.405V156.933M402.718 156.933V155.462M402.718 155.462V153.99M402.718 153.99V152.519M402.718 152.519V151.047M402.718 151.047V149.576M402.718 149.576V148.104M402.718 148.104V146.633M402.718 146.633V145.161M402.718 145.161V143.69M402.718 143.69V142.218M402.718 142.218V140.305M402.718 142.218H400.952M399.187 228.155H397.623M328.921 228.155H330.467M330.467 228.155H332.012M332.012 228.155H333.557M333.557 228.155H335.286M335.286 228.155H337.015M337.015 228.155H338.744M338.744 228.155H340.473M340.473 228.155H342.202M342.202 228.155H343.931M343.931 228.155H345.66M345.66 228.155H347.389M347.389 228.155H348.824M348.824 228.155H350.259M350.259 228.155H351.693M351.693 228.155H353.128M353.128 228.155H354.563M354.563 228.155H355.997M355.997 228.155H357.432M357.432 228.155H358.867M358.867 228.155H360.78M360.78 228.155H362.693M362.693 228.155H364.606M364.606 228.155H366.519M366.519 228.155H368.432M368.432 228.155H370.345M370.345 228.155H372.258M372.258 228.155H374.171M374.171 228.155H375.734M375.734 228.155H377.298M377.298 228.155H378.861M378.861 228.155H380.425M380.425 228.155H381.988M381.988 228.155H383.552M383.552 228.155H385.115M385.115 228.155H386.679M386.679 228.155H388.242M388.242 228.155H389.806M389.806 228.155H391.369M391.369 228.155H392.933M392.933 228.155H394.496M394.496 228.155H396.06M396.06 228.155H397.623" stroke="#7E7E7E" stroke-width="0.2"/>
<rect x="401.606" y="138.392" width="2.18269" height="89.7283" fill="#626262"/>
<rect x="327.376" y="230.303" width="2.18269" height="76.4127" transform="rotate(-90 327.376 230.303)" fill="#626262"/>
<path d="M1095.13 217.646L1096.67 220M1095.13 217.646L1093.4 215.843M1095.13 217.646H1025.97M1095.13 217.646V227.064M1081.3 203.225L1083.03 205.028M1081.3 203.225L1079.86 200.907M1081.3 203.225H1025.97M1081.3 203.225V227.064M1069.82 184.684L1071.25 187.002M1069.82 184.684L1067.91 182.182M1069.82 184.684H1025.97M1069.82 184.684V227.064M1054.51 164.671L1056.43 167.173M1054.51 164.671L1052.95 163.2M1054.51 164.671H1025.97M1054.51 164.671V227.064M1029.5 141.127L1031.06 142.598M1029.5 141.127L1027.73 139.214M1029.5 141.127H1027.73M1029.5 141.127V227.064M1098.22 222.355L1099.76 224.709M1098.22 222.355L1096.67 220M1098.22 222.355H1027.73M1098.22 222.355V227.064M1088.21 210.435L1089.94 212.238M1088.21 210.435L1086.48 208.633M1088.21 210.435H1025.97M1088.21 210.435V227.064M1075.56 193.954L1076.99 196.272M1075.56 193.954L1074.12 191.637M1075.56 193.954H1025.97M1075.56 193.954V227.064M1062.17 174.678L1064.08 177.179M1062.17 174.678L1060.25 172.176M1062.17 174.678H1025.97M1062.17 174.678V227.064M1058.34 169.674L1060.25 172.176M1058.34 169.674L1056.43 167.173M1058.34 169.674H1025.97M1058.34 169.674V227.064M1042.01 152.899L1043.57 154.371M1042.01 152.899L1040.44 151.427M1042.01 152.899H1025.97M1042.01 152.899V227.064M1048.26 158.785L1046.7 157.314M1048.26 158.785L1049.82 160.257M1048.26 158.785H1025.97M1048.26 158.785V227.064M1035.75 147.013L1037.32 148.484M1035.75 147.013L1034.19 145.541M1035.75 147.013H1025.97M1035.75 147.013V227.064M1065.99 179.681L1067.91 182.182M1065.99 179.681L1064.08 177.179M1065.99 179.681H1025.97M1065.99 179.681V227.064M1084.75 206.83L1086.48 208.633M1084.75 206.83L1083.03 205.028M1084.75 206.83H1025.97M1084.75 206.83V227.064M1091.67 214.041L1093.4 215.843M1091.67 214.041L1089.94 212.238M1091.67 214.041H1025.97M1091.67 214.041V227.064M1078.43 198.59L1079.86 200.907M1078.43 198.59L1076.99 196.272M1078.43 198.59H1025.97M1078.43 198.59V227.064M1072.69 189.319L1074.12 191.637M1072.69 189.319L1071.25 187.002M1072.69 189.319H1025.97M1072.69 189.319V227.064M1099.76 224.709L1101.31 227.064H1099.76M1099.76 224.709H1027.73M1099.76 224.709V227.064M1096.67 220H1027.73M1096.67 220V227.064M1093.4 215.843H1025.97M1093.4 215.843V227.064M1089.94 212.238H1025.97M1089.94 212.238V227.064M1086.48 208.633H1025.97M1086.48 208.633V227.064M1083.03 205.028H1025.97M1083.03 205.028V227.064M1079.86 200.907H1025.97M1079.86 200.907V227.064M1076.99 196.272H1025.97M1076.99 196.272V227.064M1074.12 191.637H1025.97M1074.12 191.637V227.064M1071.25 187.002H1025.97M1071.25 187.002V227.064M1067.91 182.182H1025.97M1067.91 182.182V227.064M1064.08 177.179H1025.97M1064.08 177.179V227.064M1060.25 172.176H1025.97M1060.25 172.176V227.064M1056.43 167.173H1025.97M1056.43 167.173V227.064M1051.39 161.728L1052.95 163.2M1051.39 161.728L1049.82 160.257M1051.39 161.728H1025.97M1051.39 161.728V227.064M1045.13 155.842L1046.7 157.314M1045.13 155.842L1043.57 154.371M1045.13 155.842H1025.97M1045.13 155.842V227.064M1046.7 157.314H1025.97M1046.7 157.314V227.064M1043.57 154.371H1025.97M1043.57 154.371V227.064M1052.95 163.2H1025.97M1052.95 163.2V227.064M1049.82 160.257H1025.97M1049.82 160.257V227.064M1038.88 149.956L1040.44 151.427M1038.88 149.956L1037.32 148.484M1038.88 149.956H1025.97M1038.88 149.956V227.064M1040.44 151.427H1025.97M1040.44 151.427V227.064M1037.32 148.484H1025.97M1037.32 148.484V227.064M1032.63 144.07L1034.19 145.541M1032.63 144.07L1031.06 142.598M1032.63 144.07H1025.97M1032.63 144.07V227.064M1034.19 145.541H1025.97M1034.19 145.541V227.064M1031.06 142.598C1029.36 142.553 1025.97 142.491 1025.97 142.598M1031.06 142.598V227.064M1027.73 139.214L1025.97 137.301V139.214M1027.73 139.214H1025.97M1027.73 139.214V141.127M1027.73 227.064H1025.97V224.709M1027.73 227.064V224.709M1027.73 227.064H1029.5M1027.73 224.709V222.355M1027.73 224.709H1025.97M1027.73 222.355V220M1027.73 222.355H1025.97M1027.73 220H1025.97M1027.73 220V141.127M1025.97 217.646V220M1025.97 217.646V215.843M1025.97 220V222.355M1025.97 222.355V224.709M1025.97 215.843V214.041M1025.97 214.041V212.238M1025.97 212.238V210.435M1025.97 210.435V208.633M1025.97 208.633V206.83M1025.97 206.83V205.028M1025.97 205.028V203.225M1025.97 203.225V200.907M1025.97 200.907V198.59M1025.97 198.59V196.272M1025.97 196.272V193.954M1025.97 193.954V191.637M1025.97 191.637V189.319M1025.97 189.319V187.002M1025.97 187.002V184.684M1025.97 184.684V182.182M1025.97 182.182V179.681M1025.97 179.681V177.179M1025.97 177.179V174.678M1025.97 174.678V172.176M1025.97 172.176V169.674M1025.97 169.674V167.173M1025.97 167.173V164.671M1025.97 164.671V163.2M1025.97 163.2V161.728M1025.97 161.728V160.257M1025.97 160.257V158.785M1025.97 158.785V157.314M1025.97 157.314V155.842M1025.97 155.842V154.371M1025.97 154.371V152.899M1025.97 152.899V151.427M1025.97 151.427V149.956M1025.97 149.956V148.484M1025.97 148.484V147.013M1025.97 147.013V145.541M1025.97 145.541V144.07M1025.97 144.07V142.598M1025.97 142.598V141.127M1025.97 141.127V139.214M1025.97 141.127H1027.73M1029.5 227.064H1031.06M1099.76 227.064H1098.22M1098.22 227.064H1096.67M1096.67 227.064H1095.13M1095.13 227.064H1093.4M1093.4 227.064H1091.67M1091.67 227.064H1089.94M1089.94 227.064H1088.21M1088.21 227.064H1086.48M1086.48 227.064H1084.75M1084.75 227.064H1083.03M1083.03 227.064H1081.3M1081.3 227.064H1079.86M1079.86 227.064H1078.43M1078.43 227.064H1076.99M1076.99 227.064H1075.56M1075.56 227.064H1074.12M1074.12 227.064H1072.69M1072.69 227.064H1071.25M1071.25 227.064H1069.82M1069.82 227.064H1067.91M1067.91 227.064H1065.99M1065.99 227.064H1064.08M1064.08 227.064H1062.17M1062.17 227.064H1060.25M1060.25 227.064H1058.34M1058.34 227.064H1056.43M1056.43 227.064H1054.51M1054.51 227.064H1052.95M1052.95 227.064H1051.39M1051.39 227.064H1049.82M1049.82 227.064H1048.26M1048.26 227.064H1046.7M1046.7 227.064H1045.13M1045.13 227.064H1043.57M1043.57 227.064H1042.01M1042.01 227.064H1040.44M1040.44 227.064H1038.88M1038.88 227.064H1037.32M1037.32 227.064H1035.75M1035.75 227.064H1034.19M1034.19 227.064H1032.63M1032.63 227.064H1031.06" stroke="#7E7E7E" stroke-width="0.2"/>
<rect width="2.18269" height="89.7283" transform="matrix(-1 0 0 1 1027.08 137.301)" fill="#626262"/>
<rect width="2.18269" height="76.4127" transform="matrix(0 -1 -1 0 1101.31 229.212)" fill="#626262"/>
<circle cx="184.373" cy="299.415" r="9.58531" fill="#A6A6A6"/>
<path d="M181.047 293.432L181.433 291.585L183.795 290.727L185.513 291.585V294.806C184.382 294.963 182.077 295.27 181.906 295.235C181.734 295.201 181.262 294.019 181.047 293.432Z" fill="#D6D6D6"/>
<path d="M177.426 297.262L178.905 297.452L179.728 299.259L179.158 300.666L176.621 300.866C176.427 299.985 176.042 298.189 176.059 298.051C176.075 297.914 176.977 297.468 177.426 297.262Z" fill="#D6D6D6"/>
<path d="M181.655 302.323L182.746 303.339L182.362 305.288L181.08 306.099L178.901 304.783C179.256 303.954 179.991 302.27 180.084 302.168C180.177 302.066 181.17 302.229 181.655 302.323Z" fill="#D6D6D6"/>
<path d="M184.89 296.952L186.328 298.291L185.822 300.859L184.132 301.927L181.261 300.194C181.729 299.101 182.697 296.881 182.82 296.747C182.943 296.612 184.251 296.828 184.89 296.952Z" fill="#D6D6D6"/>
<path d="M187.36 295.163L188.837 293.869L191.341 294.633L192.232 296.423L190.215 299.103C189.175 298.526 187.066 297.338 186.945 297.202C186.823 297.065 187.171 295.786 187.36 295.163Z" fill="#D6D6D6"/>
<path d="M185.753 303.992L186.169 302.071L188.635 301.194L190.417 302.1L190.395 305.454C189.216 305.61 186.814 305.913 186.635 305.876C186.457 305.839 185.973 304.604 185.753 303.992Z" fill="#D6D6D6"/>
</g>
<defs>
<clipPath id="clip0">
<rect width="1659" height="364" fill="white"/>
</clipPath>
</defs>
</svg>
