<svg width="2534" height="436" viewBox="0 0 2534 436" fill="none" xmlns="http://www.w3.org/2000/svg">
<g clip-path="url(#clip0)">
<rect width="2534" height="436" fill="white"/>
<rect width="2534" height="279.137" fill="#CACACA"/>
<rect y="198" width="2537.3" height="238" fill="#B0B0B0"/>
<rect y="331.492" width="2534" height="104.508" fill="#BEBEBE"/>
<path d="M656.567 75.7185C656.926 64.8997 656.567 48 656.567 48H694.818C694.818 48 693.752 64.8847 693.459 75.7185C693.1 89.0145 693.308 96.4775 693.459 109.777C693.677 128.894 694.567 139.597 694.818 158.713C695.043 175.866 694.4 185.49 694.818 202.639C695.345 224.295 692.976 236.924 697.874 258.025C701.888 275.322 714.298 300.424 714.298 300.424C714.298 300.424 702.556 303.914 694.818 305.008C682.854 306.699 675.917 306.036 663.878 305.008C652.883 304.069 646.62 303.404 635.994 300.424C629.907 298.717 620.715 295.077 620.715 295.077C620.715 295.077 624.264 288.588 626.445 284.381C631.697 274.253 635.242 268.781 639.05 258.025C646.649 236.56 646.481 200.194 646.481 200.194C646.481 200.194 649.727 172.747 651.202 155.104C652.679 137.43 652.81 127.471 654.035 109.777C654.956 96.4718 656.123 89.0487 656.567 75.7185Z" fill="#939393"/>
<path d="M636.376 62.4557C626.907 67.4358 622.182 67.2142 614.604 62.4557C606.678 65.9541 602.995 66.3304 599.707 60.1639C592.293 57.9842 591.548 54.6753 592.831 47.1768C585.752 42.441 583.752 38.523 585.574 28.0782C580.911 21.7853 580.005 17.8303 585.574 8.97965C583.469 -0.318359 585.617 -3.38728 592.831 -6.68121L614.604 -24.2519L779.616 -6.68121C781.225 1.04537 781.845 5.34115 775.414 12.0354C778.336 20.9562 777.128 25.1742 769.302 31.134C768.572 41.3845 765.778 45.4667 755.551 49.0867C754.873 57.4882 752.19 61.087 744.856 66.2754C739.833 73.6507 735.849 76.6107 724.612 77.7346C715.065 81.1847 709.712 81.7571 700.165 77.7346C690.858 79.318 686.799 76.9257 681.831 66.2754C671.691 72.3691 666.005 75.476 655.857 74.2969C645.435 73.5069 641.2 70.87 636.376 62.4557Z" fill="#A9A8A8"/>
<path d="M2184.12 48.8133C2183.76 37.9946 2184.12 21.0948 2184.12 21.0948H2145.87C2145.87 21.0948 2146.94 37.9795 2147.23 48.8133C2147.59 62.1093 2147.38 69.5723 2147.23 82.8723C2147.01 101.989 2146.12 112.691 2145.87 131.807C2145.65 148.96 2146.29 158.585 2145.87 175.734C2145.34 197.39 2147.71 210.019 2142.82 231.12C2138.8 248.417 2126.39 273.519 2126.39 273.519C2126.39 273.519 2138.13 277.009 2145.87 278.103C2157.83 279.794 2164.77 279.13 2176.81 278.103C2187.81 277.164 2194.07 276.499 2204.69 273.519C2210.78 271.812 2219.97 268.171 2219.97 268.171C2219.97 268.171 2216.43 261.683 2214.24 257.476C2208.99 247.348 2205.45 241.875 2201.64 231.12C2194.04 209.655 2194.21 173.288 2194.21 173.288C2194.21 173.288 2190.96 145.842 2189.49 128.198C2188.01 110.525 2187.88 100.565 2186.65 82.8723C2185.73 69.5666 2184.57 62.1435 2184.12 48.8133Z" fill="#939393"/>
<path d="M2204.31 35.5505C2213.78 40.5306 2218.51 40.309 2226.09 35.5505C2234.01 39.049 2237.69 39.4252 2240.98 33.2587C2248.4 31.079 2249.14 27.7701 2247.86 20.2717C2254.94 15.5358 2256.94 11.6178 2255.12 1.17307C2259.78 -5.11993 2260.68 -9.07485 2255.12 -17.9255C2257.22 -27.2235 2255.07 -30.2925 2247.86 -33.5864C2246.83 -38.3375 2246.43 -41.0931 2241.37 -43.6231C2241.84 -49.3515 2240.46 -51.5722 2234.88 -53.6598L2221.9 -73.7331L2076.12 -58.2093C2068.92 -54.7232 2067.88 -51.8384 2068.59 -45.8979C2060.98 -43.221 2060.96 -39.7854 2061.07 -33.5864C2059.46 -25.8598 2058.84 -21.564 2065.28 -14.8698C2062.35 -5.94897 2063.56 -1.73099 2071.39 4.22884C2072.12 14.4793 2074.91 18.5615 2085.14 22.1815C2085.82 30.583 2088.5 34.1819 2095.83 39.3703C2100.86 46.7455 2104.84 49.7056 2116.08 50.8294C2125.62 54.2796 2130.98 54.8519 2140.52 50.8294C2149.83 52.4129 2153.89 50.0205 2158.86 39.3703C2169 45.464 2174.68 48.5708 2184.83 47.3917C2195.25 46.6017 2199.49 43.9648 2204.31 35.5505Z" fill="#A9A8A8"/>
<path d="M366 217C363.332 231.954 354 254 354 254C354 254 388.68 258.869 410 254C421.32 251.415 438 244 438 244C438 244 427.353 217.624 423 200C419.859 187.284 418.308 180.033 417 167C415.362 150.68 417 141.402 417 125C417 110.551 416.27 102.431 417 88C417.994 68.3588 413.134 55.0122 423 38C425.939 32.9327 432 26 432 26L390 9L366 26C366 26 369.43 33.1719 371 38C377.037 56.5696 371 68.4738 371 88C371 102.449 371.798 110.573 371 125C370.087 141.493 367.06 150.516 366 167C364.747 186.486 369.43 197.777 366 217Z" fill="#939393"/>
<path d="M354.9 38.9554C343.951 37.6549 338.409 35.9572 332.945 25.7353C320.209 19.4213 316.491 15.0011 315.475 5.66905C313.592 -3.43409 315.195 -8.00354 323.266 -15.1054L503.862 -7.31499C506.529 -1.28972 505.413 1.50005 499.849 5.66905C496.401 15.029 491.706 16.2324 481.907 16.2924C480.141 26.9291 477.573 31.618 468.215 36.1225C461.139 45.1588 456.7 49.5573 438.942 43.4408C430.94 43.9464 428.25 41.3022 426.194 36.1225C419.74 42.8818 415.94 46.3636 403.767 43.4408C392.759 45.9156 387.167 45.6578 380.396 36.1225C371.012 42.9646 365.561 44.8999 354.9 38.9554Z" fill="#A9A8A8"/>
<path d="M1658.56 185.789C1661.23 200.743 1670.56 222.789 1670.56 222.789C1670.56 222.789 1635.88 227.658 1614.56 222.789C1603.24 220.203 1586.56 212.789 1586.56 212.789C1586.56 212.789 1597.2 186.413 1601.56 168.789C1604.7 156.072 1606.25 148.822 1607.56 135.789C1609.2 119.469 1607.56 110.191 1607.56 93.7886C1607.56 79.3392 1608.29 71.2195 1607.56 56.7886C1606.56 37.1475 1611.42 23.8009 1601.56 6.78862C1598.62 1.7213 1592.56 -5.21138 1592.56 -5.21138L1634.56 -22.2114L1658.56 -5.21138C1658.56 -5.21138 1655.13 1.96053 1653.56 6.78862C1647.52 25.3582 1653.56 37.2624 1653.56 56.7886C1653.56 71.238 1652.76 79.3613 1653.56 93.7886C1654.47 110.281 1657.5 119.305 1658.56 135.789C1659.81 155.275 1655.13 166.566 1658.56 185.789Z" fill="#939393"/>
<path d="M1669.66 7.74403C1680.61 6.44355 1686.15 4.74583 1691.61 -5.47608C1704.35 -11.7901 1708.07 -16.2103 1709.08 -25.5423C1710.97 -34.6455 1709.36 -39.2149 1701.29 -46.3168L1520.7 -38.5264C1518.03 -32.5011 1519.14 -29.7113 1524.71 -25.5423C1528.16 -16.1824 1532.85 -14.979 1542.65 -14.919C1544.42 -4.28225 1546.99 0.406647 1556.34 4.91116C1563.42 13.9474 1567.86 18.3459 1585.62 12.2294C1593.62 12.735 1596.31 10.0908 1598.36 4.91116C1604.82 11.6705 1608.62 15.1522 1620.79 12.2294C1631.8 14.7042 1637.39 14.4464 1644.16 4.91116C1653.55 11.7532 1659 13.6886 1669.66 7.74403Z" fill="#A9A8A8"/>
<rect x="278.783" y="242.589" width="7.5544" height="60.1987" fill="#7D7D7D"/>
<rect x="302.554" y="192.286" width="7.5544" height="50.3037" fill="#7D7D7D"/>
<rect x="420.485" y="192.286" width="7.5544" height="50.3037" fill="#7D7D7D"/>
<rect x="443.413" y="242.589" width="7.5544" height="60.1987" fill="#7D7D7D"/>
<rect x="271" y="242.589" width="189.738" height="3.87504" fill="#959595"/>
<rect opacity="0.95" x="271" y="209.539" width="189.738" height="11.4294" fill="#959595"/>
<rect x="271" y="192.285" width="189.738" height="11.4294" fill="#959595"/>
<rect x="271" y="226.064" width="189.738" height="11.4294" fill="#959595"/>
<rect x="271" y="248.727" width="189.738" height="3.87504" fill="#959595"/>
<rect x="271" y="254.865" width="189.738" height="3.87504" fill="#959595"/>
<rect x="834.837" y="242.589" width="7.5544" height="60.1987" fill="#7D7D7D"/>
<rect x="854.572" y="192.285" width="7.5544" height="50.3037" fill="#7D7D7D"/>
<rect x="978.289" y="192.285" width="7.5544" height="50.3037" fill="#7D7D7D"/>
<rect x="999.467" y="242.589" width="7.5544" height="60.1987" fill="#7D7D7D"/>
<rect x="827.054" y="242.589" width="189.738" height="3.87504" fill="#959595"/>
<rect opacity="0.95" x="827.054" y="209.539" width="189.738" height="11.4294" fill="#959595"/>
<rect x="827.054" y="192.285" width="189.738" height="11.4294" fill="#959595"/>
<rect x="827.054" y="226.064" width="189.738" height="11.4294" fill="#959595"/>
<rect x="827.054" y="248.727" width="189.738" height="3.87504" fill="#959595"/>
<rect x="827.054" y="254.865" width="189.738" height="3.87504" fill="#959595"/>
<path d="M1748.36 241.971C1742.98 255.28 1731.67 274.727 1731.67 274.727C1731.67 274.727 1750.37 287.001 1763.81 291.414C1775.69 295.314 1782.9 295.701 1795.33 296.976C1812.86 298.774 1822.94 298.962 1840.45 296.976C1860.46 294.707 1872.45 293.52 1890.51 284.616C1901.44 279.229 1916.47 267.311 1916.47 267.311L1901.01 185.729C1901.01 185.729 1893.53 143.305 1890.51 115.891C1887.53 88.9537 1887.01 77.0819 1885.56 46.6707L1881.86 -31.2022L1787.91 -17.6053C1787.91 -17.6053 1785.59 3.10497 1784.21 16.3868C1781.55 41.9465 1781.46 56.432 1778.02 81.8989C1773.92 112.3 1769.4 128.991 1763.81 159.154C1757.82 191.504 1760.7 211.472 1748.36 241.971Z" fill="#939393"/>
<path d="M1128.33 273.604V293.049H1141.67V237.493H1128.33V273.604Z" fill="#939393"/>
<path d="M1107.44 242.383C1101.17 240.302 1098.35 238.186 1095.18 231.855C1088.32 230.574 1085.02 229.018 1082.78 220.556C1078.44 217.706 1076.87 215.598 1077.22 210C1072.48 204.937 1070.67 201.834 1070.56 195.343C1065.4 186.347 1064.24 180.9 1067.22 170C1063.25 160.188 1062.88 154.608 1067.22 144.444C1062.58 133.163 1061.07 126.837 1067.22 115.556C1063.33 95.8405 1063.54 85.9789 1073.89 73.3333C1069.58 61.1883 1069.4 54.4632 1077.22 42.7778C1079.86 30.9359 1083.33 25.9285 1095.18 21.6667C1104.09 12.1887 1110.34 12.2036 1121.86 13.8889C1132.58 5.76413 1138.44 7.35656 1148.89 10.5556C1162.59 7.24718 1168.32 8.77413 1175.56 16.6667C1188.37 20.2396 1192.73 24.4705 1194.65 36.6667C1203.7 40.1548 1206.79 44.4347 1208.89 56.1111C1219.36 69.8195 1219.45 79.5368 1213.89 98.8889C1221.54 112.557 1220.99 120.221 1213.89 133.889C1216.58 140.19 1216.89 144.2 1213.89 152.778C1216.98 163.089 1215.93 168.688 1208.89 178.333C1209.74 185.32 1209.23 189.108 1204.26 195.343C1206.3 202.911 1204.95 206.624 1199.11 212.511C1200.13 218.908 1199.5 222.454 1194.65 228.649C1195.31 234.191 1193.24 237.162 1188.13 242.383C1180.61 246.501 1176.27 248.373 1166.49 244.786C1161.24 251.368 1147.13 249.609 1145.89 248.124C1141.58 245.392 1139.37 243.789 1139.71 239.54C1136.06 242.181 1133.94 243.554 1127.99 243.133L1121.86 242.383C1121.86 242.383 1113.73 244.641 1107.44 242.383Z" fill="#A9A8A8"/>
<path d="M2435.31 269.888L2436.88 298.396H2407.11L2413.47 218.66H2432.61L2435.31 269.888Z" fill="#939393"/>
<path d="M2462.6 225.678C2471.59 222.692 2475.63 219.655 2480.18 210.568C2490.03 208.73 2494.78 206.496 2497.99 194.351C2504.22 190.261 2506.47 187.235 2505.96 179.201C2512.77 171.934 2515.36 167.481 2515.53 158.165C2522.93 145.254 2524.6 137.436 2520.32 121.792C2526.01 107.708 2526.55 99.7003 2520.32 85.1132C2526.97 68.9211 2529.14 59.8428 2520.32 43.6507C2525.91 15.3549 2525.59 1.20109 2510.75 -16.9482C2516.93 -34.3793 2517.19 -44.0313 2505.96 -60.8028C2502.18 -77.7988 2497.2 -84.9856 2480.18 -91.1023C2467.4 -104.705 2458.44 -104.684 2441.9 -102.265C2426.51 -113.926 2418.1 -111.641 2403.11 -107.049C2383.44 -111.798 2375.22 -109.606 2364.83 -98.2785C2346.45 -93.1505 2340.18 -87.0782 2337.43 -69.5737C2324.44 -64.5673 2320 -58.4247 2316.99 -41.6663C2301.97 -21.9915 2301.83 -8.04478 2309.81 19.7301C2298.84 39.3474 2299.62 50.3461 2309.81 69.9635C2305.95 79.0066 2305.5 84.7619 2309.81 97.0735C2305.39 111.872 2306.88 119.908 2316.99 133.752C2315.76 143.779 2316.51 149.216 2323.63 158.165C2320.71 169.027 2322.64 174.356 2331.02 182.805C2329.57 191.987 2330.47 197.075 2337.43 205.967C2336.48 213.921 2339.45 218.186 2346.79 225.678C2357.58 231.589 2363.81 234.276 2377.84 229.128C2385.37 238.574 2405.63 236.049 2407.4 233.918C2413.6 229.996 2416.76 227.696 2416.28 221.599C2421.51 225.388 2424.56 227.359 2433.1 226.755L2441.9 225.678C2441.9 225.678 2453.57 228.919 2462.6 225.678Z" fill="#9C9C9C"/>
<path d="M1318.11 268.71C1316.18 278.308 1311.82 292.98 1311.82 292.98C1311.82 292.98 1312.97 297.136 1314.48 299.38C1319.08 306.201 1326.36 304.469 1334.4 306.247C1343.85 308.34 1349.43 308.585 1359.12 308.307C1370.24 307.988 1377.63 309.402 1387.27 303.844C1391.97 301.135 1397.92 294.916 1397.92 294.916C1397.92 294.916 1387.96 279.57 1383.84 268.71C1377.03 250.794 1376.63 220.169 1376.63 220.169C1376.63 220.169 1372.28 148.194 1376.63 102.413C1378.36 84.1869 1382.81 55.9413 1382.81 55.9413L1374.44 41.6667C1357.17 42.4074 1322.61 43.4444 1322.61 41.6667C1322.61 39.8889 1314.57 56.1111 1310.56 64.4444C1310.56 64.4444 1319.06 87.2666 1322.61 102.413C1333.09 147.188 1322.61 220.169 1322.61 220.169C1322.61 220.169 1321.87 250.048 1318.11 268.71Z" fill="#939393"/>
<path d="M1262.22 85C1256.33 83.0322 1253.32 81.6138 1252.22 74.4445C1245.31 68.8258 1242.22 65.3142 1242.03 56.628C1237.09 52.5107 1235.48 49.6314 1236.54 42.5504C1231.5 37.6215 1230.41 34.3455 1232.08 27.4428C1227.95 19.5343 1227.18 14.7741 1229.67 5.4681C1224.07 -5.3301 1223.05 -11.6748 1227.78 -23.8889L1495.56 -12.7778C1495.59 -3.42227 1493.23 0.630022 1485.56 6.11111C1487.73 16.7699 1483.95 20.6075 1476.67 27.2222C1476.49 37.6561 1474.54 42.3689 1468.89 49.4445C1467.63 62.2388 1464.39 67.6556 1454.44 74.4445C1452.03 84.0686 1448.72 87.7341 1441.11 92.7778C1434.24 101.148 1430.09 105.528 1417.78 108.333C1409.61 110.318 1405.38 109.948 1398.89 105C1391.54 107.949 1387.23 108.911 1378.89 108.333C1368.79 106 1363.87 103.9 1358.89 96.1111C1349.45 102.68 1343.67 105.088 1331.67 105C1323.86 102.349 1319.93 100.465 1317.78 92.7778C1312.74 98.0002 1308.86 99.3592 1301.11 100.556C1291.68 102.258 1286.91 100.89 1278.89 96.1111C1268.85 94.5618 1265.36 92.0032 1262.22 85Z" fill="#A9A8A8"/>
<path d="M1250.02 198.356L1256.33 294.525M1256.33 294.525L1278.83 209.185M1256.33 294.525L1272.03 166.777" stroke="#707070"/>
<ellipse cx="1282.6" cy="194.738" rx="13.6579" ry="17.1887" transform="rotate(10.6488 1282.6 194.738)" fill="#929292"/>
<ellipse cx="1273.2" cy="153.514" rx="13.0507" ry="15.5972" fill="#929292"/>
<ellipse cx="1249.75" cy="184.177" rx="13.1568" ry="20.3718" fill="#929292"/>
<ellipse cx="1257.04" cy="291.16" rx="7.38923" ry="4.33334" fill="#5F5F5F"/>
<path d="M1248.68 206.596L1249.39 204.338L1251.44 203.841L1252.7 207.132L1250.96 206.022L1250.06 207.323L1249.55 206.213L1248.68 206.596Z" fill="#929292"/>
<path d="M1269.2 170.697L1271.18 168.355H1272.68L1273.51 172.114L1272.19 170.896L1270.76 171.637L1270.44 170.578L1269.2 170.697Z" fill="#929292"/>
<path d="M1276.07 212.284L1277.77 210.806L1279.19 211.035L1279.13 213.966L1278.53 212.565L1277.23 213.488V212.335L1276.07 212.284Z" fill="#929292"/>
<rect x="1390.89" y="242.589" width="7.5544" height="60.1987" fill="#7D7D7D"/>
<rect x="1410.63" y="192.285" width="7.5544" height="50.3037" fill="#7D7D7D"/>
<rect x="1534.34" y="192.285" width="7.5544" height="50.3037" fill="#7D7D7D"/>
<rect x="1555.52" y="242.589" width="7.5544" height="60.1987" fill="#7D7D7D"/>
<rect x="1383.11" y="242.589" width="189.738" height="3.87504" fill="#959595"/>
<rect opacity="0.95" x="1383.11" y="209.539" width="189.738" height="11.4294" fill="#959595"/>
<rect x="1383.11" y="192.285" width="189.738" height="11.4294" fill="#959595"/>
<rect x="1383.11" y="226.064" width="189.738" height="11.4294" fill="#959595"/>
<rect x="1383.11" y="248.727" width="189.738" height="3.87504" fill="#959595"/>
<rect x="1383.11" y="254.865" width="189.738" height="3.87504" fill="#959595"/>
<rect x="1946.94" y="242.589" width="7.5544" height="60.1987" fill="#7D7D7D"/>
<rect x="1966.68" y="192.285" width="7.5544" height="50.3037" fill="#7D7D7D"/>
<rect x="2090.4" y="192.285" width="7.5544" height="50.3037" fill="#7D7D7D"/>
<rect x="2111.57" y="242.589" width="7.5544" height="60.1987" fill="#7D7D7D"/>
<rect x="1939.16" y="242.589" width="189.738" height="3.87504" fill="#959595"/>
<rect opacity="0.95" x="1939.16" y="209.539" width="189.738" height="11.4294" fill="#959595"/>
<rect x="1939.16" y="192.285" width="189.738" height="11.4294" fill="#959595"/>
<rect x="1939.16" y="226.064" width="189.738" height="11.4294" fill="#959595"/>
<rect x="1939.16" y="248.727" width="189.738" height="3.87504" fill="#959595"/>
<rect x="1939.16" y="254.865" width="189.738" height="3.87504" fill="#959595"/>
<path d="M185.448 276.953C187.383 286.552 191.74 301.224 191.74 301.224C191.74 301.224 190.592 305.379 189.079 307.623C184.479 314.444 177.196 312.713 169.164 314.491C159.705 316.584 154.127 316.828 144.443 316.551C133.315 316.232 125.933 317.646 116.288 312.087C111.587 309.378 105.644 303.16 105.644 303.16C105.644 303.16 115.596 287.814 119.721 276.953C126.525 259.038 126.932 228.413 126.932 228.413C126.932 228.413 131.275 156.438 126.932 110.657C125.202 92.4305 120.751 64.1849 120.751 64.1849L129.115 49.9103C146.394 50.651 180.953 51.688 180.953 49.9103C180.953 48.1325 188.987 64.3547 193.004 72.688C193.004 72.688 184.501 95.5102 180.953 110.657C170.465 155.431 180.953 228.413 180.953 228.413C180.953 228.413 181.685 258.292 185.448 276.953Z" fill="#939393"/>
<path d="M241.337 93.2436C247.227 91.2759 250.238 89.8574 251.337 82.6881C258.25 77.0694 261.335 73.5578 261.527 64.8716C266.469 60.7543 268.084 57.875 267.02 50.794C272.063 45.8651 273.149 42.5891 271.484 35.6864C275.608 27.7779 276.377 23.0177 273.887 13.7117C279.487 2.9135 280.508 -3.43122 275.781 -15.6453L8.00372 -4.53416C7.97232 4.82133 10.3266 8.87363 18.0037 14.3547C15.8252 25.0135 19.6073 28.8512 26.8926 35.4658C27.0646 45.8997 29.0163 50.6125 34.6703 57.6881C35.927 70.4824 39.1724 75.8992 49.1148 82.6881C51.5282 92.3122 54.8422 95.9777 62.4481 101.021C69.3157 109.392 73.4716 113.771 85.7815 116.577C93.9537 118.562 98.1767 118.191 104.67 113.244C112.014 116.192 116.327 117.155 124.67 116.577C134.771 114.243 139.691 112.144 144.67 104.355C154.106 110.923 159.887 113.331 171.893 113.244C179.697 110.593 183.627 108.708 185.781 101.021C190.821 106.244 194.702 107.603 202.448 108.799C211.875 110.502 216.654 109.133 224.67 104.355C234.711 102.805 238.201 100.247 241.337 93.2436Z" fill="#A9A8A8"/>
</g>
<defs>
<clipPath id="clip0">
<rect width="2534" height="436" fill="white"/>
</clipPath>
</defs>
</svg>
