<svg width="495" height="483" viewBox="0 0 495 483" fill="none" xmlns="http://www.w3.org/2000/svg">
<rect width="495" height="483" fill="#358A7B"/>
<rect width="495" height="483" fill="white"/>
<path fill-rule="evenodd" clip-rule="evenodd" d="M178.6 281H172V294H176.4H178.6H183V291.833C183 290.637 182.015 289.667 180.8 289.667H178.6V281Z" fill="#606060"/>
<path d="M166 170H186C186 170 189 228.5 186 232C183 235.5 169 235.5 166 232C163 228.5 166 170 166 170Z" fill="#8A8A8A"/>
<path d="M227.6 122L231.2 134.396H224L227.6 122Z" fill="#F5F5F5"/>
<path d="M181.353 188.926C183.235 190.418 187 189.92 187 189.92L186.529 183.455V178.979V175L182.294 175.497H179V178.481C179 179.5 179.471 183.455 179.471 183.455C179.471 183.455 179.471 187.434 181.353 188.926Z" fill="#CACACA"/>
<path d="M173 181.087V175.87L165.471 175L165 184.565V191.522L165.471 194.13L167.824 195H169.706L171.588 193.261L172.059 189.783L172.529 185.435L173 181.087Z" fill="#CACACA"/>
<path d="M228.343 114.936C228.343 150.308 223.147 175.896 177.421 175.896C118.186 175.896 127.539 150.308 127.539 114.936C127.539 79.5637 149.298 54 177.421 54C205.544 54 228.343 79.5637 228.343 114.936Z" fill="#F5F5F5"/>
<path d="M205.913 124.728C209.731 124.728 212.826 121.655 212.826 117.864C212.826 114.073 209.731 111 205.913 111C202.095 111 199 114.073 199 117.864C199 121.655 202.095 124.728 205.913 124.728Z" fill="#232323"/>
<path d="M225 147.5H223.5L221.5 147L219.5 146.5L217.5 146L215.5 144.5C215.5 144.5 214 143.5 214.5 143.5" stroke="black"/>
<path d="M214.5 143.5L215.5 144.5" stroke="black"/>
<path d="M214.406 143.426C214.426 143.43 214.424 143.432 214.436 143.443C214.441 143.448 214.447 143.458 214.453 143.461" stroke="black" stroke-linecap="round" stroke-linejoin="round"/>
<path d="M223.438 94.6449C235.786 94.6449 230.417 89.7245 233.639 84.804C236.86 79.8836 234.712 70.5895 223.438 69.4961C212.163 68.4027 218.069 58.5618 218.069 58.5618C218.069 58.5618 222.364 52.548 211.089 49.8144C199.814 47.0809 195.519 52.548 195.519 52.548C195.519 52.548 185.855 41.6138 178.339 47.0809C170.822 52.548 173.62 37.9557 161.158 47.0809C148.696 56.2061 155.942 59.9238 147.199 56.9217C138.455 53.9196 139.682 62.9355 131.629 64.5757C123.576 66.2158 123.576 67.856 125.186 79.3369C126.797 90.8179 123.576 74.9632 117.67 96.8317C111.764 118.7 131.092 102.299 117.67 116.513C104.248 130.728 122.502 135.102 115.522 138.382C108.543 141.662 113.375 146.583 117.67 154.783C121.965 162.984 127.871 152.05 134.85 159.157C141.83 166.264 150.957 150.41 152.031 152.05C153.105 153.69 162.056 160.173 168.675 148.769C175.293 137.366 168.692 142.013 178.339 138.382C187.985 134.751 187.712 123.109 182.097 121.434C176.482 119.759 183.708 108.859 190.15 107.219C196.593 105.579 205.183 112.686 205.183 99.0186C205.183 85.3508 211.089 94.6449 223.438 94.6449Z" fill="#747474" stroke="#747474"/>
<rect x="172" y="234" width="8" height="54" fill="#8A8A8A"/>
<rect x="172" y="285" width="8" height="3" fill="#C4C4C4"/>
<path d="M173.789 183.85C173.812 182.821 174.515 182 175.374 182C176.227 182 176.927 182.811 176.957 183.834L177.999 219.456C178.039 220.847 177.111 222 175.951 222H175.049C173.896 222 172.97 220.86 173.001 219.477L173.789 183.85Z" fill="#F5F5F5"/>
<path d="M174 183.5C174 184 173.5 187 173.5 187H177.5C177.5 187 177 184 177 183.5C177 183 176.5 182.5 176.5 182.5L176 182C176 182 175.5 181.5 175 182L174.5 182.5C174.5 182.5 174 183 174 183.5Z" fill="#CACACA" stroke="#CACACA"/>
</svg>
