<svg width="739" height="86" viewBox="0 0 739 86" fill="none" xmlns="http://www.w3.org/2000/svg">
<path fill-rule="evenodd" clip-rule="evenodd" d="M721.103 79.254C720.525 79.6279 720.393 79.7132 720.309 80.9374C720.178 82.836 724.374 81.0957 725.113 80.3187C725.556 79.8521 725.578 63.8604 725.524 51.1577L722.297 51.5712C723.765 61.8138 724.844 73.9779 722.529 78.1345C721.874 78.7544 721.421 79.048 721.103 79.254Z" fill="#E2E2E2"/>
<path fill-rule="evenodd" clip-rule="evenodd" d="M726.197 82.6919C725.62 83.0659 725.488 83.1512 725.404 84.3754C725.273 86.2739 729.469 84.5336 730.207 83.7567C730.651 83.2901 730.673 67.2983 730.619 54.5957L727.392 55.0092C728.86 65.2517 729.939 77.4158 727.624 81.5725C726.969 82.1923 726.515 82.4859 726.197 82.6919Z" fill="#E2E2E2"/>
<path fill-rule="evenodd" clip-rule="evenodd" d="M679.169 82.6919C678.592 83.0658 678.46 83.1512 678.376 84.3754C678.245 86.2739 682.441 84.5336 683.18 83.7566C683.623 83.2901 683.645 67.2983 683.591 54.5957L680.364 55.0092C681.832 65.2517 682.911 77.4158 680.596 81.5725C679.941 82.1923 679.487 82.4859 679.169 82.6919Z" fill="#E2E2E2"/>
<path fill-rule="evenodd" clip-rule="evenodd" d="M673.626 78.9366C673.049 79.3105 672.917 79.3959 672.833 80.62C672.702 82.5186 676.898 80.7783 677.636 80.0013C678.08 79.5347 678.102 63.543 678.048 50.8403L674.821 51.2538C676.289 61.4964 677.368 73.6605 675.053 77.8171C674.398 78.437 673.944 78.7306 673.626 78.9366Z" fill="#E2E2E2"/>
<ellipse cx="704.021" cy="55.4101" rx="34.5221" ry="17.283" fill="#E2E2E2"/>
<ellipse rx="10.8039" ry="14.1611" transform="matrix(0.858877 -0.512181 0.509703 0.860351 679.493 53.4949)" fill="#E2E2E2"/>
<ellipse rx="10.8039" ry="14.1611" transform="matrix(0.858877 -0.512181 0.509703 0.860351 688.736 49.968)" fill="#E2E2E2"/>
<ellipse cx="676.252" cy="30.3831" rx="19.2525" ry="14.868" fill="#E2E2E2"/>
<path d="M657.823 17.1341C657.645 18.1691 656.909 26.4319 657.823 26.379C658.737 26.3261 666.47 18.5939 666.47 18.5939C666.47 18.5939 664.454 13.2691 664.189 12.755C663.924 12.2409 662.002 8.57011 660.958 8.57047C659.915 8.57082 658 16.0992 657.823 17.1341Z" fill="#E2E2E2" stroke="#E2E2E2"/>
<path d="M658.68 16.7619C658.54 17.5804 657.957 24.115 658.68 24.0732C659.403 24.0314 665.518 17.9163 665.518 17.9163C665.518 17.9163 663.924 13.7053 663.715 13.2987C663.506 12.8922 661.985 9.98913 661.16 9.98941C660.334 9.98969 658.821 15.9434 658.68 16.7619Z" fill="#606060" stroke="#E2E2E2"/>
<path fill-rule="evenodd" clip-rule="evenodd" d="M688.644 13.5324H693.857C694.448 15.4552 694.926 17.4189 695.01 17.9115C695.188 18.9465 695.924 27.2093 695.01 27.1564C694.096 27.1036 686.363 19.3713 686.363 19.3713C686.363 19.3713 688.379 14.0465 688.644 13.5324Z" fill="#E2E2E2"/>
<path fill-rule="evenodd" clip-rule="evenodd" d="M689.118 14.0761H693.241C693.708 15.5968 694.086 17.1498 694.153 17.5393C694.293 18.3578 694.876 24.8924 694.153 24.8506C693.43 24.8088 687.314 18.6937 687.314 18.6937C687.314 18.6937 688.909 14.4827 689.118 14.0761Z" fill="#606060"/>
<path d="M693.736 13.6243C693.471 14.1383 691.549 17.8091 690.505 17.8088C689.958 17.8086 689.172 15.7412 688.522 13.6243H693.736Z" fill="#E2E2E2"/>
<ellipse cx="676.252" cy="36.8451" rx="5.63295" ry="4.59416" fill="#969696"/>
<path d="M675.394 34.0534C675.287 34.0534 675.098 34.3654 675.074 34.4201C675.05 34.4747 676.204 35.6271 676.307 35.6347C676.411 35.6423 677.38 34.4747 677.427 34.4201C677.474 34.3654 677.175 34.0534 677.038 34.0534H675.394Z" fill="#272727" stroke="#272727"/>
<ellipse cx="686.363" cy="30.3831" rx="5.32313" ry="5.25163" fill="white"/>
<ellipse cx="686.968" cy="31.5911" rx="3.45324" ry="3.46459" fill="#292929"/>
<ellipse cx="666.142" cy="30.3831" rx="5.32313" ry="5.25163" fill="white"/>
<ellipse cx="665.257" cy="29.3723" rx="3.45253" ry="3.46389" fill="#292929"/>
<path d="M676.25 36.909C675.601 36.9232 673.54 37.6881 673.526 38.1271C673.512 38.5662 675.601 39.3311 676.25 39.3453C676.9 39.3594 678.89 38.5237 678.876 38.1271C678.862 37.7305 676.9 36.8949 676.25 36.909Z" fill="#353535" stroke="#353535"/>
<path d="M675.046 38.9776C674.986 38.797 674.743 37.7613 674.784 37.7378C674.825 37.7143 676.198 37.7378 676.198 37.7378C676.198 37.7378 677.585 37.7017 677.619 37.7378C677.652 37.774 677.345 38.9776 677.345 38.9776C677.345 38.9776 677.245 39.773 677.072 39.989C676.899 40.205 676.662 40.5789 676.198 40.5789C675.734 40.5789 675.442 40.1178 675.356 39.989C675.269 39.8603 675.105 39.1582 675.046 38.9776Z" fill="#CECECE" stroke="#CECECE"/>
<path d="M734.706 44.1062C733.001 46.9008 730.64 47.9632 730.64 47.9632L733.74 49.8096C733.74 49.8096 738.572 46.8438 738.799 46.0453C739.026 45.2468 738.998 43.1651 738.799 42.2811C738.6 41.397 738.134 39.0491 737.486 39.1537C736.838 39.2583 736.411 41.3115 734.706 44.1062Z" fill="#E2E2E2"/>
<path fill-rule="evenodd" clip-rule="evenodd" d="M635.05 78.1625C634.402 78.4022 634.254 78.4569 633.906 79.6296C633.366 81.4483 637.863 80.6569 638.757 80.0598C639.294 79.7012 642.783 64.1495 645.486 51.7812L642.227 51.4901C641.447 61.7692 639.869 73.8339 636.694 77.3801C635.916 77.8423 635.407 78.0304 635.05 78.1625Z" fill="#E2E2E2"/>
<path fill-rule="evenodd" clip-rule="evenodd" d="M649.186 82.1913C648.703 82.6819 648.592 82.7939 648.782 84.0018C649.076 85.8751 652.804 83.259 653.355 82.3413C653.686 81.7902 650.147 66.2495 647.267 53.9207L644.194 55.0343C647.914 64.6611 651.68 76.2404 650.336 80.7891C649.831 81.5358 649.452 81.921 649.186 82.1913Z" fill="#E2E2E2"/>
<path fill-rule="evenodd" clip-rule="evenodd" d="M602.939 82.0045C602.482 82.5191 602.378 82.6365 602.63 83.8331C603.021 85.689 606.608 82.8866 607.111 81.942C607.413 81.3747 603.073 66.0347 599.557 53.8689L596.546 55.1374C600.76 64.5621 605.122 75.9345 604.015 80.5456C603.55 81.317 603.191 81.721 602.939 82.0045Z" fill="#E2E2E2"/>
<path fill-rule="evenodd" clip-rule="evenodd" d="M586.287 77.5183C585.627 77.7243 585.477 77.7713 585.068 78.9246C584.433 80.7131 588.966 80.1539 589.89 79.6036C590.445 79.2731 594.744 63.9217 598.09 51.7089L594.851 51.2507C593.534 61.4759 591.326 73.4432 587.97 76.8214C587.169 77.243 586.651 77.4048 586.287 77.5183Z" fill="#E2E2E2"/>
<ellipse cx="622.284" cy="55.2004" rx="34.7157" ry="17.2176" fill="#E2E2E2"/>
<ellipse rx="10.838" ry="14.1422" transform="matrix(0.86098 -0.508638 0.513247 0.858241 597.619 53.2924)" fill="#E2E2E2"/>
<ellipse rx="10.838" ry="14.1422" transform="matrix(0.86098 -0.508639 0.513247 0.858241 606.914 49.7789)" fill="#E2E2E2"/>
<ellipse cx="594.36" cy="30.2681" rx="19.3605" ry="14.8118" fill="#E2E2E2"/>
<path d="M575.827 17.0693C575.649 18.1003 574.908 26.3318 575.827 26.2792C576.747 26.2265 584.523 18.5235 584.523 18.5235C584.523 18.5235 582.496 13.2188 582.23 12.7067C581.963 12.1946 580.03 8.53767 578.981 8.53802C577.931 8.53838 576.006 16.0383 575.827 17.0693Z" fill="#E2E2E2" stroke="#E2E2E2"/>
<path d="M576.69 16.6985C576.548 17.5139 575.963 24.0237 576.69 23.9821C577.416 23.9404 583.566 17.8485 583.566 17.8485C583.566 17.8485 581.963 13.6534 581.753 13.2484C581.542 12.8434 580.013 9.95132 579.183 9.95161C578.353 9.95189 576.831 15.8831 576.69 16.6985Z" fill="#606060" stroke="#E2E2E2"/>
<path fill-rule="evenodd" clip-rule="evenodd" d="M606.821 13.4812H612.064C612.658 15.3967 613.138 17.353 613.223 17.8437C613.402 18.8748 614.143 27.1063 613.223 27.0536C612.304 27.001 604.528 19.2979 604.528 19.2979C604.528 19.2979 606.555 13.9933 606.821 13.4812Z" fill="#E2E2E2"/>
<path fill-rule="evenodd" clip-rule="evenodd" d="M607.298 14.0228H611.444C611.914 15.5377 612.294 17.0848 612.361 17.4729C612.503 18.2883 613.088 24.7982 612.361 24.7565C611.634 24.7149 605.484 18.623 605.484 18.623C605.484 18.623 607.088 14.4279 607.298 14.0228Z" fill="#606060"/>
<path d="M611.942 13.5727C611.676 14.0848 609.743 17.7418 608.693 17.7414C608.143 17.7412 607.352 15.6816 606.699 13.5727H611.942Z" fill="#E2E2E2"/>
<ellipse cx="594.36" cy="36.7056" rx="5.66455" ry="4.57677" fill="#969696"/>
<path d="M593.497 33.9245C593.39 33.9245 593.199 34.2354 593.175 34.2898C593.151 34.3442 594.312 35.4923 594.416 35.4998C594.519 35.5074 595.494 34.3442 595.541 34.2898C595.588 34.2354 595.288 33.9245 595.151 33.9245H593.497Z" fill="#272727" stroke="#272727"/>
<ellipse cx="604.528" cy="30.2681" rx="5.35299" ry="5.23175" fill="white"/>
<ellipse cx="605.136" cy="31.4715" rx="3.47261" ry="3.45148" fill="#292929"/>
<ellipse cx="584.193" cy="30.2681" rx="5.35299" ry="5.23175" fill="white"/>
<ellipse cx="583.303" cy="29.2611" rx="3.4719" ry="3.45078" fill="#292929"/>
<path d="M594.358 36.7693C593.705 36.7834 591.633 37.5454 591.618 37.9828C591.604 38.4203 593.705 39.1822 594.358 39.1964C595.012 39.2105 597.013 38.3779 596.999 37.9828C596.985 37.5877 595.012 36.7552 594.358 36.7693Z" fill="#353535" stroke="#353535"/>
<path d="M593.147 38.8301C593.087 38.6502 592.842 37.6184 592.883 37.595C592.925 37.5715 594.306 37.595 594.306 37.595C594.306 37.595 595.701 37.559 595.734 37.595C595.767 37.631 595.459 38.8301 595.459 38.8301C595.459 38.8301 595.359 39.6225 595.185 39.8377C595.011 40.0528 594.773 40.4253 594.306 40.4253C593.839 40.4253 593.546 39.9659 593.459 39.8377C593.371 39.7094 593.207 39.01 593.147 38.8301Z" fill="#CECECE" stroke="#CECECE"/>
<path d="M652.723 43.6043C651.008 46.3884 648.634 47.4468 648.634 47.4468L651.751 49.2861C651.751 49.2861 656.61 46.3315 656.839 45.5361C657.068 44.7406 657.039 42.6668 656.839 41.7861C656.639 40.9054 656.17 38.5664 655.519 38.6705C654.867 38.7747 654.438 40.8202 652.723 43.6043Z" fill="#E2E2E2"/>
<path fill-rule="evenodd" clip-rule="evenodd" d="M549.257 76.6305C548.574 76.7389 548.418 76.7636 547.843 77.8452C546.951 79.5227 551.518 79.6255 552.513 79.2148C553.111 78.9682 559.628 64.4037 564.74 52.8063L561.603 51.8841C558.792 61.809 554.843 73.3284 551.024 76.1847C550.17 76.4858 549.633 76.5709 549.257 76.6305Z" fill="#E2E2E2"/>
<path fill-rule="evenodd" clip-rule="evenodd" d="M570.824 81.2956C570.438 81.8646 570.35 81.9944 570.757 83.1485C571.388 84.9383 574.577 81.6982 574.952 80.6968C575.178 80.0955 568.863 65.4439 563.782 53.8335L560.962 55.4786C566.377 64.2813 572.192 74.9961 571.699 79.7106C571.339 80.5353 571.036 80.9821 570.824 81.2956Z" fill="#E2E2E2"/>
<path fill-rule="evenodd" clip-rule="evenodd" d="M524.458 80.952C524.1 81.5386 524.019 81.6725 524.481 82.806C525.198 84.5638 528.227 81.1763 528.553 80.1583C528.749 79.547 521.734 65.2114 516.098 53.855L513.361 55.6319C519.194 64.168 525.521 74.595 525.256 79.3274C524.936 80.1682 524.655 80.6288 524.458 80.952Z" fill="#E2E2E2"/>
<path fill-rule="evenodd" clip-rule="evenodd" d="M500.332 75.6449C499.644 75.7084 499.486 75.7229 498.841 76.7647C497.839 78.3804 502.389 78.7809 503.41 78.436C504.023 78.2289 511.493 64.1211 517.365 52.8824L514.296 51.7576C510.832 61.4776 506.125 72.7143 502.125 75.3153C501.253 75.56 500.712 75.6099 500.332 75.6449Z" fill="#E2E2E2"/>
<ellipse cx="540.284" cy="54.7965" rx="34.7157" ry="17.2176" fill="#E2E2E2"/>
<ellipse rx="10.838" ry="14.1422" transform="matrix(0.86098 -0.508638 0.513247 0.858241 515.619 53.2924)" fill="#E2E2E2"/>
<ellipse rx="10.838" ry="14.1422" transform="matrix(0.86098 -0.508638 0.513247 0.858241 524.914 49.7789)" fill="#E2E2E2"/>
<ellipse cx="512.36" cy="30.2681" rx="19.3605" ry="14.8118" fill="#E2E2E2"/>
<path d="M493.827 17.0693C493.649 18.1003 492.908 26.3318 493.827 26.2792C494.747 26.2265 502.523 18.5235 502.523 18.5235C502.523 18.5235 500.496 13.2188 500.23 12.7067C499.963 12.1946 498.03 8.53767 496.981 8.53802C495.931 8.53838 494.006 16.0383 493.827 17.0693Z" fill="#E2E2E2" stroke="#E2E2E2"/>
<path d="M494.69 16.6985C494.548 17.5139 493.963 24.0237 494.69 23.9821C495.416 23.9404 501.566 17.8485 501.566 17.8485C501.566 17.8485 499.963 13.6534 499.753 13.2484C499.542 12.8434 498.013 9.95132 497.183 9.95161C496.353 9.95189 494.831 15.8831 494.69 16.6985Z" fill="#606060" stroke="#E2E2E2"/>
<path fill-rule="evenodd" clip-rule="evenodd" d="M524.821 13.4812H530.064C530.658 15.3967 531.138 17.353 531.223 17.8437C531.402 18.8748 532.143 27.1063 531.223 27.0536C530.304 27.001 522.528 19.2979 522.528 19.2979C522.528 19.2979 524.555 13.9933 524.821 13.4812Z" fill="#E2E2E2"/>
<path fill-rule="evenodd" clip-rule="evenodd" d="M525.298 14.0228H529.444C529.914 15.5377 530.294 17.0848 530.361 17.4729C530.503 18.2883 531.088 24.7982 530.361 24.7565C529.634 24.7149 523.485 18.623 523.485 18.623C523.485 18.623 525.088 14.4279 525.298 14.0228Z" fill="#606060"/>
<path d="M529.942 13.5727C529.676 14.0848 527.743 17.7418 526.693 17.7414C526.143 17.7412 525.352 15.6816 524.699 13.5727H529.942Z" fill="#E2E2E2"/>
<ellipse cx="512.36" cy="36.7056" rx="5.66455" ry="4.57677" fill="#969696"/>
<path d="M511.497 33.9245C511.39 33.9245 511.199 34.2354 511.175 34.2898C511.151 34.3442 512.312 35.4923 512.416 35.4998C512.519 35.5074 513.494 34.3442 513.541 34.2898C513.588 34.2354 513.288 33.9245 513.151 33.9245H511.497Z" fill="#272727" stroke="#272727"/>
<ellipse cx="522.528" cy="30.2681" rx="5.35299" ry="5.23175" fill="white"/>
<ellipse cx="523.136" cy="31.4715" rx="3.47262" ry="3.45148" fill="#292929"/>
<ellipse cx="502.193" cy="30.2681" rx="5.353" ry="5.23175" fill="white"/>
<ellipse cx="501.303" cy="29.2611" rx="3.4719" ry="3.45078" fill="#292929"/>
<path d="M512.358 36.7693C511.705 36.7834 509.633 37.5454 509.618 37.9828C509.604 38.4203 511.705 39.1822 512.358 39.1964C513.012 39.2105 515.013 38.3779 514.999 37.9828C514.985 37.5877 513.012 36.7552 512.358 36.7693Z" fill="#353535" stroke="#353535"/>
<path d="M511.147 38.8301C511.087 38.6502 510.842 37.6184 510.883 37.595C510.925 37.5715 512.306 37.595 512.306 37.595C512.306 37.595 513.701 37.559 513.734 37.595C513.767 37.631 513.459 38.8301 513.459 38.8301C513.459 38.8301 513.359 39.6225 513.185 39.8377C513.011 40.0528 512.773 40.4253 512.306 40.4253C511.839 40.4253 511.546 39.9659 511.459 39.8377C511.371 39.7094 511.207 39.01 511.147 38.8301Z" fill="#CECECE" stroke="#CECECE"/>
<path d="M570.723 43.6043C569.008 46.3884 566.634 47.4468 566.634 47.4468L569.751 49.2861C569.751 49.2861 574.61 46.3315 574.839 45.5361C575.068 44.7406 575.039 42.6668 574.839 41.7861C574.639 40.9054 574.17 38.5664 573.519 38.6705C572.867 38.7747 572.438 40.8202 570.723 43.6043Z" fill="#E2E2E2"/>
<path fill-rule="evenodd" clip-rule="evenodd" d="M471.05 78.4385C470.402 78.6781 470.254 78.7328 469.906 79.9055C469.366 81.7243 473.863 80.9328 474.757 80.3358C475.294 79.9772 478.783 64.4255 481.486 52.0572L478.227 51.766C477.447 62.0451 475.869 74.1099 472.694 77.656C471.916 78.1182 471.407 78.3064 471.05 78.4385Z" fill="#E2E2E2"/>
<path fill-rule="evenodd" clip-rule="evenodd" d="M485.186 82.4673C484.703 82.9579 484.592 83.0699 484.782 84.2778C485.076 86.1511 488.804 83.535 489.355 82.6173C489.686 82.0661 486.147 66.5255 483.267 54.1967L480.194 55.3102C483.914 64.937 487.68 76.5164 486.336 81.0651C485.831 81.8118 485.452 82.197 485.186 82.4673Z" fill="#E2E2E2"/>
<path fill-rule="evenodd" clip-rule="evenodd" d="M438.939 82.2805C438.482 82.795 438.378 82.9125 438.63 84.1091C439.021 85.965 442.608 83.1626 443.111 82.2179C443.413 81.6507 439.073 66.3107 435.557 54.1449L432.546 55.4134C436.76 64.8381 441.122 76.2104 440.015 80.8216C439.55 81.593 439.191 81.997 438.939 82.2805Z" fill="#E2E2E2"/>
<path fill-rule="evenodd" clip-rule="evenodd" d="M422.287 77.7942C421.627 78.0003 421.477 78.0473 421.068 79.2005C420.433 80.9891 424.966 80.4299 425.89 79.8795C426.445 79.549 430.744 64.1976 434.09 51.9849L430.851 51.5266C429.534 61.7518 427.326 73.7192 423.97 77.0974C423.169 77.519 422.651 77.6807 422.287 77.7942Z" fill="#E2E2E2"/>
<ellipse cx="458.284" cy="55.4764" rx="34.7157" ry="17.2176" fill="#E2E2E2"/>
<ellipse rx="10.838" ry="14.1422" transform="matrix(0.86098 -0.508638 0.513247 0.858241 433.619 53.5684)" fill="#E2E2E2"/>
<ellipse rx="10.838" ry="14.1422" transform="matrix(0.86098 -0.508638 0.513247 0.858241 442.914 50.0549)" fill="#E2E2E2"/>
<ellipse cx="430.36" cy="30.5441" rx="19.3605" ry="14.8118" fill="#E2E2E2"/>
<path d="M411.827 17.3452C411.649 18.3763 410.908 26.6078 411.827 26.5551C412.747 26.5025 420.523 18.7994 420.523 18.7994C420.523 18.7994 418.496 13.4948 418.23 12.9827C417.963 12.4705 416.03 8.81364 414.981 8.814C413.931 8.81435 412.006 16.3142 411.827 17.3452Z" fill="#E2E2E2" stroke="#E2E2E2"/>
<path d="M412.69 16.9745C412.548 17.7898 411.963 24.2997 412.69 24.258C413.416 24.2164 419.566 18.1245 419.566 18.1245C419.566 18.1245 417.963 13.9294 417.753 13.5244C417.542 13.1193 416.013 10.2273 415.183 10.2276C414.353 10.2279 412.831 16.1591 412.69 16.9745Z" fill="#606060" stroke="#E2E2E2"/>
<path fill-rule="evenodd" clip-rule="evenodd" d="M442.821 13.7571H448.064C448.658 15.6727 449.138 17.629 449.223 18.1197C449.402 19.1507 450.143 27.3823 449.223 27.3296C448.304 27.2769 440.528 19.5739 440.528 19.5739C440.528 19.5739 442.555 14.2693 442.821 13.7571Z" fill="#E2E2E2"/>
<path fill-rule="evenodd" clip-rule="evenodd" d="M443.298 14.2988H447.444C447.914 15.8137 448.294 17.3608 448.361 17.7489C448.503 18.5643 449.088 25.0741 448.361 25.0325C447.634 24.9908 441.484 18.899 441.484 18.899C441.484 18.899 443.088 14.7038 443.298 14.2988Z" fill="#606060"/>
<path d="M447.942 13.8487C447.676 14.3608 445.743 18.0177 444.693 18.0174C444.143 18.0172 443.353 15.9576 442.699 13.8487H447.942Z" fill="#E2E2E2"/>
<ellipse cx="430.36" cy="36.9816" rx="5.66455" ry="4.57677" fill="#969696"/>
<path d="M429.497 34.2005C429.39 34.2005 429.199 34.5113 429.175 34.5658C429.151 34.6202 430.312 35.7682 430.416 35.7758C430.519 35.7834 431.494 34.6202 431.541 34.5658C431.588 34.5113 431.288 34.2005 431.151 34.2005H429.497Z" fill="#272727" stroke="#272727"/>
<ellipse cx="440.528" cy="30.5441" rx="5.35299" ry="5.23175" fill="white"/>
<ellipse cx="441.136" cy="31.7475" rx="3.47261" ry="3.45148" fill="#292929"/>
<ellipse cx="420.193" cy="30.5441" rx="5.353" ry="5.23175" fill="white"/>
<ellipse cx="419.303" cy="29.537" rx="3.4719" ry="3.45078" fill="#292929"/>
<path d="M430.358 37.0453C429.705 37.0594 427.633 37.8214 427.618 38.2588C427.604 38.6962 429.705 39.4582 430.358 39.4723C431.012 39.4864 433.013 38.6539 432.999 38.2588C432.985 37.8637 431.012 37.0312 430.358 37.0453Z" fill="#353535" stroke="#353535"/>
<path d="M429.147 39.106C429.087 38.9262 428.842 37.8944 428.883 37.8709C428.925 37.8475 430.306 37.8709 430.306 37.8709C430.306 37.8709 431.701 37.8349 431.734 37.8709C431.767 37.907 431.46 39.106 431.46 39.106C431.46 39.106 431.359 39.8985 431.185 40.1136C431.011 40.3288 430.773 40.7012 430.306 40.7012C429.839 40.7012 429.546 40.2419 429.459 40.1136C429.371 39.9854 429.207 39.2859 429.147 39.106Z" fill="#CECECE" stroke="#CECECE"/>
<path d="M488.723 43.8802C487.008 46.6643 484.634 47.7227 484.634 47.7227L487.751 49.5621C487.751 49.5621 492.61 46.6075 492.839 45.8121C493.068 45.0166 493.039 42.9427 492.839 42.0621C492.639 41.1814 492.17 38.8423 491.519 38.9465C490.867 39.0507 490.438 41.0962 488.723 43.8802Z" fill="#E2E2E2"/>
<path fill-rule="evenodd" clip-rule="evenodd" d="M393.135 79.3147C392.557 79.6876 392.425 79.7727 392.341 80.9935C392.21 82.8869 396.408 81.1513 397.147 80.3765C397.591 79.9112 397.612 63.9629 397.559 51.2947L394.33 51.7071C395.799 61.9218 396.878 74.0529 394.562 78.1983C393.907 78.8164 393.453 79.1092 393.135 79.3147Z" fill="#E2E2E2"/>
<path fill-rule="evenodd" clip-rule="evenodd" d="M398.232 82.7433C397.654 83.1162 397.522 83.2013 397.438 84.4221C397.307 86.3156 401.505 84.58 402.244 83.8051C402.688 83.3398 402.71 67.3915 402.656 54.7233L399.427 55.1357C400.896 65.3505 401.975 77.4815 399.659 81.6269C399.004 82.2451 398.55 82.5378 398.232 82.7433Z" fill="#E2E2E2"/>
<path fill-rule="evenodd" clip-rule="evenodd" d="M351.18 82.7433C350.603 83.1162 350.471 83.2013 350.386 84.4221C350.256 86.3156 354.454 84.58 355.193 83.8051C355.637 83.3398 355.658 67.3915 355.604 54.7233L352.375 55.1357C353.844 65.3505 354.924 77.4815 352.608 81.6269C351.952 82.2451 351.499 82.5378 351.18 82.7433Z" fill="#E2E2E2"/>
<path fill-rule="evenodd" clip-rule="evenodd" d="M345.635 78.9981C345.057 79.3711 344.925 79.4562 344.841 80.677C344.71 82.5704 348.908 80.8348 349.647 80.06C350.091 79.5947 350.112 63.6464 350.059 50.9782L346.83 51.3906C348.298 61.6053 349.378 73.7364 347.062 77.8818C346.407 78.4999 345.953 78.7927 345.635 78.9981Z" fill="#E2E2E2"/>
<ellipse cx="376.044" cy="55.5356" rx="34.5393" ry="17.236" fill="#E2E2E2"/>
<ellipse rx="10.8002" ry="14.1345" transform="matrix(0.859601 -0.510965 0.510918 0.85963 351.504 53.6256)" fill="#E2E2E2"/>
<ellipse rx="10.8002" ry="14.1345" transform="matrix(0.859602 -0.510965 0.510918 0.85963 360.752 50.1083)" fill="#E2E2E2"/>
<ellipse cx="348.262" cy="30.5766" rx="19.2621" ry="14.8277" fill="#E2E2E2"/>
<path d="M329.823 17.3636C329.645 18.3957 328.908 26.6361 329.823 26.5833C330.737 26.5306 338.474 18.8193 338.474 18.8193C338.474 18.8193 336.457 13.509 336.193 12.9963C335.928 12.4836 334.005 8.8228 332.96 8.82316C331.916 8.82352 330.001 16.3314 329.823 17.3636Z" fill="#E2E2E2" stroke="#E2E2E2"/>
<path d="M330.68 16.9924C330.54 17.8086 329.957 24.3255 330.68 24.2838C331.404 24.2421 337.522 18.1436 337.522 18.1436C337.522 18.1436 335.927 13.944 335.718 13.5386C335.508 13.1331 333.987 10.238 333.161 10.2383C332.336 10.2385 330.821 16.1761 330.68 16.9924Z" fill="#606060" stroke="#E2E2E2"/>
<path fill-rule="evenodd" clip-rule="evenodd" d="M360.66 13.7716H365.876C366.466 15.6892 366.945 17.6476 367.029 18.1389C367.207 19.171 367.944 27.4113 367.029 27.3586C366.115 27.3059 358.378 19.5946 358.378 19.5946C358.378 19.5946 360.395 14.2843 360.66 13.7716Z" fill="#E2E2E2"/>
<path fill-rule="evenodd" clip-rule="evenodd" d="M361.134 14.3139H365.259C365.726 15.8304 366.105 17.3791 366.171 17.7677C366.312 18.5839 366.895 25.1007 366.171 25.059C365.448 25.0174 359.33 18.9189 359.33 18.9189C359.33 18.9189 360.925 14.7193 361.134 14.3139Z" fill="#606060"/>
<path d="M365.754 13.8632C365.489 14.3759 363.566 18.0367 362.522 18.0364C361.975 18.0362 361.188 15.9744 360.538 13.8632H365.754Z" fill="#E2E2E2"/>
<ellipse cx="348.262" cy="37.021" rx="5.63576" ry="4.58168" fill="#969696"/>
<path d="M347.403 34.2369C347.296 34.2369 347.107 34.5481 347.083 34.6025C347.059 34.657 348.214 35.8063 348.317 35.8139C348.42 35.8215 349.39 34.657 349.437 34.6025C349.484 34.5481 349.185 34.2369 349.048 34.2369H347.403Z" fill="#272727" stroke="#272727"/>
<ellipse cx="358.378" cy="30.5766" rx="5.32579" ry="5.23736" fill="white"/>
<ellipse cx="358.983" cy="31.7812" rx="3.45497" ry="3.45518" fill="#292929"/>
<ellipse cx="338.146" cy="30.5766" rx="5.32579" ry="5.23736" fill="white"/>
<ellipse cx="337.261" cy="29.5684" rx="3.45426" ry="3.45448" fill="#292929"/>
<path d="M348.26 37.0847C347.61 37.0989 345.548 37.8617 345.534 38.2996C345.52 38.7375 347.61 39.5002 348.26 39.5144C348.91 39.5285 350.901 38.6951 350.887 38.2996C350.873 37.904 348.91 37.0706 348.26 37.0847Z" fill="#353535" stroke="#353535"/>
<path d="M347.055 39.1477C346.995 38.9676 346.751 37.9347 346.793 37.9113C346.834 37.8878 348.208 37.9113 348.208 37.9113C348.208 37.9113 349.596 37.8752 349.629 37.9113C349.662 37.9473 349.356 39.1477 349.356 39.1477C349.356 39.1477 349.255 39.941 349.082 40.1564C348.909 40.3718 348.672 40.7446 348.208 40.7446C347.743 40.7446 347.452 40.2848 347.365 40.1564C347.278 40.028 347.115 39.3278 347.055 39.1477Z" fill="#CECECE" stroke="#CECECE"/>
<path d="M406.745 44.2623C405.039 47.0494 402.677 48.1089 402.677 48.1089L405.778 49.9502C405.778 49.9502 410.612 46.9925 410.84 46.1962C411.067 45.3999 411.039 43.3238 410.84 42.4422C410.641 41.5606 410.175 39.219 409.526 39.3233C408.878 39.4276 408.451 41.4752 406.745 44.2623Z" fill="#E2E2E2"/>
<path fill-rule="evenodd" clip-rule="evenodd" d="M317.267 78.8233C316.826 79.3508 316.726 79.4713 317.007 80.6622C317.444 82.5091 320.938 79.6059 321.414 78.6466C321.7 78.0705 316.987 62.8343 313.177 50.7527L310.215 52.1048C314.65 61.4235 319.281 72.6876 318.299 77.3335C317.857 78.1184 317.51 78.5326 317.267 78.8233Z" fill="#E2E2E2"/>
<path fill-rule="evenodd" clip-rule="evenodd" d="M311.816 81.9378C311.171 82.176 311.024 82.2304 310.675 83.4035C310.135 85.223 314.611 84.4429 315.501 83.8476C316.035 83.49 319.528 67.9289 322.234 55.5529L318.992 55.2524C318.202 65.542 316.615 77.6171 313.452 81.1589C312.678 81.6196 312.171 81.8066 311.816 81.9378Z" fill="#E2E2E2"/>
<path fill-rule="evenodd" clip-rule="evenodd" d="M262.584 81.1499C261.916 81.3137 261.764 81.3511 261.285 82.4774C260.543 84.2243 265.078 83.9546 266.029 83.4636C266.601 83.1687 271.829 68.1016 275.915 56.1103L272.728 55.4457C270.781 65.5802 267.84 77.3989 264.298 80.5608C263.476 80.931 262.952 81.0596 262.584 81.1499Z" fill="#E2E2E2"/>
<path fill-rule="evenodd" clip-rule="evenodd" d="M269.796 78.5C269.356 79.0282 269.255 79.1488 269.539 80.3392C269.978 82.1856 273.468 79.2773 273.942 78.3173C274.227 77.7408 269.493 62.5114 265.665 50.4354L262.706 51.7918C267.153 61.104 271.801 72.3614 270.826 77.0088C270.384 77.7943 270.039 78.209 269.796 78.5Z" fill="#E2E2E2"/>
<ellipse cx="294.044" cy="55.5356" rx="34.5393" ry="17.236" fill="#E2E2E2"/>
<ellipse rx="10.8002" ry="14.1345" transform="matrix(0.859601 -0.510965 0.510918 0.85963 269.504 53.6256)" fill="#E2E2E2"/>
<ellipse rx="10.8002" ry="14.1345" transform="matrix(0.859602 -0.510965 0.510918 0.85963 278.752 50.1083)" fill="#E2E2E2"/>
<ellipse cx="266.262" cy="30.5766" rx="19.2621" ry="14.8277" fill="#E2E2E2"/>
<path d="M247.823 17.3636C247.645 18.3957 246.908 26.6361 247.823 26.5833C248.738 26.5306 256.474 18.8193 256.474 18.8193C256.474 18.8193 254.457 13.509 254.193 12.9963C253.928 12.4836 252.005 8.8228 250.96 8.82316C249.916 8.82352 248.001 16.3314 247.823 17.3636Z" fill="#E2E2E2" stroke="#E2E2E2"/>
<path d="M248.68 16.9924C248.54 17.8086 247.957 24.3255 248.68 24.2838C249.404 24.2421 255.522 18.1436 255.522 18.1436C255.522 18.1436 253.927 13.944 253.718 13.5386C253.508 13.1331 251.987 10.238 251.161 10.2383C250.336 10.2385 248.821 16.1761 248.68 16.9924Z" fill="#606060" stroke="#E2E2E2"/>
<path fill-rule="evenodd" clip-rule="evenodd" d="M278.66 13.7716H283.876C284.466 15.6892 284.945 17.6476 285.029 18.1389C285.207 19.171 285.944 27.4113 285.029 27.3586C284.115 27.3059 276.378 19.5946 276.378 19.5946C276.378 19.5946 278.395 14.2843 278.66 13.7716Z" fill="#E2E2E2"/>
<path fill-rule="evenodd" clip-rule="evenodd" d="M279.134 14.3139H283.259C283.726 15.8304 284.105 17.3791 284.171 17.7677C284.312 18.5839 284.895 25.1007 284.171 25.059C283.448 25.0174 277.33 18.9189 277.33 18.9189C277.33 18.9189 278.925 14.7193 279.134 14.3139Z" fill="#606060"/>
<path d="M283.754 13.8632C283.489 14.3759 281.566 18.0367 280.522 18.0364C279.975 18.0362 279.188 15.9744 278.538 13.8632H283.754Z" fill="#E2E2E2"/>
<ellipse cx="266.262" cy="37.021" rx="5.63576" ry="4.58168" fill="#969696"/>
<path d="M265.403 34.2369C265.296 34.2369 265.107 34.5481 265.083 34.6025C265.059 34.657 266.214 35.8063 266.317 35.8139C266.42 35.8215 267.39 34.657 267.437 34.6025C267.484 34.5481 267.185 34.2369 267.048 34.2369H265.403Z" fill="#272727" stroke="#272727"/>
<ellipse cx="276.378" cy="30.5766" rx="5.32579" ry="5.23736" fill="white"/>
<ellipse cx="276.983" cy="31.7812" rx="3.45497" ry="3.45518" fill="#292929"/>
<ellipse cx="256.146" cy="30.5766" rx="5.32579" ry="5.23736" fill="white"/>
<ellipse cx="255.261" cy="29.5684" rx="3.45426" ry="3.45448" fill="#292929"/>
<path d="M266.26 37.0847C265.61 37.0989 263.548 37.8617 263.534 38.2996C263.52 38.7375 265.61 39.5002 266.26 39.5144C266.91 39.5285 268.901 38.6951 268.887 38.2996C268.873 37.904 266.91 37.0706 266.26 37.0847Z" fill="#353535" stroke="#353535"/>
<path d="M265.055 39.1477C264.995 38.9676 264.751 37.9347 264.793 37.9113C264.834 37.8878 266.208 37.9113 266.208 37.9113C266.208 37.9113 267.596 37.8752 267.629 37.9113C267.662 37.9473 267.356 39.1477 267.356 39.1477C267.356 39.1477 267.255 39.941 267.082 40.1564C266.909 40.3718 266.672 40.7446 266.208 40.7446C265.743 40.7446 265.452 40.2848 265.365 40.1564C265.278 40.028 265.115 39.3278 265.055 39.1477Z" fill="#CECECE" stroke="#CECECE"/>
<path d="M324.745 44.2623C323.039 47.0494 320.677 48.109 320.677 48.109L323.778 49.9502C323.778 49.9502 328.612 46.9925 328.84 46.1962C329.067 45.3999 329.039 43.3238 328.84 42.4422C328.641 41.5606 328.175 39.219 327.526 39.3233C326.878 39.4276 326.451 41.4753 324.745 44.2623Z" fill="#E2E2E2"/>
<path fill-rule="evenodd" clip-rule="evenodd" d="M239.002 77.4646C238.67 78.0662 238.595 78.2035 239.099 79.3171C239.882 81.0441 242.755 77.5297 243.038 76.4982C243.208 75.8789 235.665 61.8439 229.611 50.729L226.964 52.621C233.1 60.908 239.803 71.0646 239.73 75.8068C239.446 76.6609 239.185 77.1332 239.002 77.4646Z" fill="#E2E2E2"/>
<path fill-rule="evenodd" clip-rule="evenodd" d="M226.161 80.3544C225.482 80.4644 225.327 80.4896 224.76 81.573C223.882 83.2533 228.424 83.3452 229.411 82.9319C230.004 82.6838 236.415 68.0979 241.442 56.4836L238.318 55.5686C235.571 65.5042 231.699 77.0376 227.916 79.9041C227.068 80.2075 226.535 80.2938 226.161 80.3544Z" fill="#E2E2E2"/>
<path fill-rule="evenodd" clip-rule="evenodd" d="M176.888 79.0048C176.2 79.0281 176.044 79.0334 175.344 80.0365C174.26 81.5922 178.753 82.2577 179.785 81.9726C180.405 81.8014 188.613 68.1435 195.072 57.2584L192.089 55.9558C188.104 65.464 182.802 76.415 178.686 78.7801C177.806 78.9737 177.266 78.992 176.888 79.0048Z" fill="#E2E2E2"/>
<path fill-rule="evenodd" clip-rule="evenodd" d="M190.807 77.4459C190.454 78.0348 190.373 78.1692 190.836 79.3006C191.554 81.0553 194.555 77.6491 194.876 76.6288C195.069 76.0161 188.049 61.7128 182.41 50.3826L179.694 52.1758C185.521 60.6832 191.844 71.0797 191.596 75.816C191.28 76.659 191.002 77.1214 190.807 77.4459Z" fill="#E2E2E2"/>
<ellipse cx="212.044" cy="55.4698" rx="34.5393" ry="17.2155" fill="#E2E2E2"/>
<ellipse rx="10.7969" ry="14.1221" transform="matrix(0.859869 -0.510515 0.511368 0.859362 187.504 53.562)" fill="#E2E2E2"/>
<ellipse rx="10.7969" ry="14.1221" transform="matrix(0.859869 -0.510515 0.511368 0.859362 196.752 50.0489)" fill="#E2E2E2"/>
<ellipse cx="184.262" cy="30.5405" rx="19.2621" ry="14.81" fill="#E2E2E2"/>
<path d="M165.823 17.3432C165.645 18.3741 164.908 26.6047 165.823 26.552C166.737 26.4993 174.474 18.7972 174.474 18.7972C174.474 18.7972 172.457 13.4932 172.193 12.9812C171.928 12.4691 170.005 8.81262 168.96 8.81298C167.916 8.81334 166.001 16.3123 165.823 17.3432Z" fill="#E2E2E2" stroke="#E2E2E2"/>
<path d="M166.68 16.9725C166.54 17.7877 165.957 24.2968 166.68 24.2552C167.404 24.2135 173.522 18.1224 173.522 18.1224C173.522 18.1224 171.927 13.9277 171.718 13.5228C171.508 13.1178 169.987 10.2261 169.161 10.2264C168.336 10.2267 166.821 16.1572 166.68 16.9725Z" fill="#606060" stroke="#E2E2E2"/>
<path fill-rule="evenodd" clip-rule="evenodd" d="M196.66 13.7555H201.876C202.466 15.6708 202.945 17.6269 203.029 18.1176C203.207 19.1485 203.944 27.379 203.029 27.3264C202.115 27.2737 194.378 19.5716 194.378 19.5716C194.378 19.5716 196.395 14.2676 196.66 13.7555Z" fill="#E2E2E2"/>
<path fill-rule="evenodd" clip-rule="evenodd" d="M197.134 14.2971H201.259C201.726 15.8118 202.105 17.3588 202.171 17.7468C202.312 18.5621 202.895 25.0712 202.171 25.0295C201.448 24.9879 195.33 18.8967 195.33 18.8967C195.33 18.8967 196.925 14.7021 197.134 14.2971Z" fill="#606060"/>
<path d="M201.754 13.8471C201.489 14.3591 199.566 18.0156 198.522 18.0152C197.975 18.0151 197.188 15.9557 196.538 13.8471H201.754Z" fill="#E2E2E2"/>
<ellipse cx="184.262" cy="36.9772" rx="5.63576" ry="4.57622" fill="#969696"/>
<path d="M183.403 34.1964C183.296 34.1964 183.107 34.5072 183.083 34.5617C183.059 34.6161 184.214 35.764 184.317 35.7716C184.42 35.7792 185.39 34.6161 185.437 34.5617C185.484 34.5072 185.185 34.1964 185.048 34.1964H183.403Z" fill="#272727" stroke="#272727"/>
<ellipse cx="194.378" cy="30.5405" rx="5.32579" ry="5.23112" fill="white"/>
<ellipse cx="194.983" cy="31.7437" rx="3.45497" ry="3.45107" fill="#292929"/>
<ellipse cx="174.146" cy="30.5405" rx="5.32579" ry="5.23112" fill="white"/>
<ellipse cx="173.261" cy="29.5336" rx="3.45426" ry="3.45036" fill="#292929"/>
<path d="M184.26 37.0409C183.61 37.055 181.548 37.8169 181.534 38.2543C181.52 38.6916 183.61 39.4535 184.26 39.4676C184.91 39.4817 186.901 38.6493 186.887 38.2543C186.873 37.8592 184.91 37.0268 184.26 37.0409Z" fill="#353535" stroke="#353535"/>
<path d="M183.055 39.1014C182.995 38.9216 182.751 37.8899 182.792 37.8665C182.834 37.843 184.208 37.8665 184.208 37.8665C184.208 37.8665 185.596 37.8304 185.629 37.8665C185.662 37.9025 185.356 39.1014 185.356 39.1014C185.356 39.1014 185.255 39.8937 185.082 40.1089C184.909 40.324 184.672 40.6964 184.208 40.6964C183.743 40.6964 183.452 40.2371 183.365 40.1089C183.278 39.9806 183.115 39.2813 183.055 39.1014Z" fill="#CECECE" stroke="#CECECE"/>
<path d="M242.745 44.2099C241.039 46.9937 238.677 48.052 238.677 48.052L241.778 49.8911C241.778 49.8911 246.612 46.9369 246.84 46.1415C247.067 45.3462 247.039 43.2726 246.84 42.392C246.641 41.5114 246.175 39.1726 245.526 39.2768C244.878 39.381 244.451 41.4262 242.745 44.2099Z" fill="#E2E2E2"/>
<path fill-rule="evenodd" clip-rule="evenodd" d="M153.267 78.7297C152.826 79.2567 152.726 79.3769 153.007 80.5664C153.444 82.4112 156.938 79.5114 157.414 78.5532C157.7 77.9779 152.987 62.7598 149.177 50.6926L146.215 52.0431C150.65 61.3507 155.281 72.6014 154.299 77.2418C153.857 78.0257 153.51 78.4394 153.267 78.7297Z" fill="#E2E2E2"/>
<path fill-rule="evenodd" clip-rule="evenodd" d="M147.816 81.8405C147.171 82.0784 147.024 82.1327 146.675 83.3045C146.135 85.1219 150.611 84.3427 151.501 83.748C152.035 83.3909 155.528 67.8483 158.233 55.487L154.992 55.187C154.202 65.4642 152.615 77.525 149.452 81.0626C148.678 81.5227 148.171 81.7095 147.816 81.8405Z" fill="#E2E2E2"/>
<path fill-rule="evenodd" clip-rule="evenodd" d="M98.5838 81.0535C97.916 81.2172 97.7635 81.2545 97.2851 82.3795C96.5431 84.1243 101.078 83.855 102.029 83.3645C102.601 83.07 107.829 68.0208 111.915 56.0438L108.728 55.38C106.781 65.5024 103.84 77.307 100.298 80.4652C99.4761 80.8349 98.9518 80.9634 98.5838 81.0535Z" fill="#E2E2E2"/>
<path fill-rule="evenodd" clip-rule="evenodd" d="M105.796 78.4068C105.356 78.9344 105.255 79.0548 105.539 80.2439C105.978 82.088 109.468 79.1832 109.942 78.2243C110.227 77.6486 105.493 62.4373 101.665 50.3756L98.7056 51.7304C103.153 61.0315 107.801 72.2756 106.826 76.9174C106.384 77.7019 106.039 78.1161 105.796 78.4068Z" fill="#E2E2E2"/>
<ellipse cx="130.044" cy="55.4698" rx="34.5393" ry="17.2155" fill="#E2E2E2"/>
<ellipse rx="10.7969" ry="14.1221" transform="matrix(0.859869 -0.510515 0.511368 0.859362 105.504 53.562)" fill="#E2E2E2"/>
<ellipse rx="10.7969" ry="14.1221" transform="matrix(0.859869 -0.510515 0.511368 0.859362 114.752 50.0489)" fill="#E2E2E2"/>
<ellipse cx="102.262" cy="30.5405" rx="19.2621" ry="14.81" fill="#E2E2E2"/>
<path d="M83.823 17.3432C83.6452 18.3741 82.9085 26.6047 83.823 26.552C84.7375 26.4993 92.4743 18.7972 92.4743 18.7972C92.4743 18.7972 90.4574 13.4932 90.1926 12.9812C89.9278 12.4691 88.0045 8.81262 86.9603 8.81298C85.916 8.81334 84.0007 16.3123 83.823 17.3432Z" fill="#E2E2E2" stroke="#E2E2E2"/>
<path d="M84.6803 16.9725C84.5397 17.7877 83.9571 24.2968 84.6803 24.2552C85.4035 24.2135 91.5221 18.1224 91.5221 18.1224C91.5221 18.1224 89.9271 13.9277 89.7177 13.5228C89.5082 13.1178 87.9873 10.2261 87.1614 10.2264C86.3355 10.2267 84.8209 16.1572 84.6803 16.9725Z" fill="#606060" stroke="#E2E2E2"/>
<path fill-rule="evenodd" clip-rule="evenodd" d="M114.66 13.7555H119.876C120.466 15.6708 120.945 17.6269 121.029 18.1176C121.207 19.1485 121.944 27.379 121.029 27.3264C120.115 27.2737 112.378 19.5716 112.378 19.5716C112.378 19.5716 114.395 14.2676 114.66 13.7555Z" fill="#E2E2E2"/>
<path fill-rule="evenodd" clip-rule="evenodd" d="M115.134 14.2971H119.259C119.726 15.8118 120.105 17.3588 120.171 17.7468C120.312 18.5621 120.895 25.0712 120.171 25.0295C119.448 24.9879 113.33 18.8967 113.33 18.8967C113.33 18.8967 114.925 14.7021 115.134 14.2971Z" fill="#606060"/>
<path d="M119.754 13.8471C119.489 14.3591 117.566 18.0156 116.522 18.0152C115.975 18.0151 115.188 15.9557 114.538 13.8471H119.754Z" fill="#E2E2E2"/>
<ellipse cx="102.262" cy="36.9772" rx="5.63576" ry="4.57622" fill="#969696"/>
<path d="M101.403 34.1964C101.296 34.1964 101.107 34.5072 101.083 34.5617C101.059 34.6161 102.214 35.764 102.317 35.7716C102.42 35.7792 103.39 34.6161 103.437 34.5617C103.484 34.5072 103.185 34.1964 103.048 34.1964H101.403Z" fill="#272727" stroke="#272727"/>
<ellipse cx="112.378" cy="30.5405" rx="5.32579" ry="5.23112" fill="white"/>
<ellipse cx="112.983" cy="31.7437" rx="3.45497" ry="3.45107" fill="#292929"/>
<ellipse cx="92.1464" cy="30.5405" rx="5.32579" ry="5.23112" fill="white"/>
<ellipse cx="91.2612" cy="29.5336" rx="3.45426" ry="3.45036" fill="#292929"/>
<path d="M102.26 37.0409C101.61 37.055 99.5481 37.8169 99.534 38.2543C99.5199 38.6916 101.61 39.4535 102.26 39.4676C102.91 39.4817 104.901 38.6493 104.887 38.2543C104.873 37.8592 102.91 37.0268 102.26 37.0409Z" fill="#353535" stroke="#353535"/>
<path d="M101.055 39.1014C100.995 38.9216 100.751 37.8899 100.792 37.8665C100.834 37.843 102.208 37.8665 102.208 37.8665C102.208 37.8665 103.596 37.8304 103.629 37.8665C103.662 37.9025 103.356 39.1014 103.356 39.1014C103.356 39.1014 103.255 39.8937 103.082 40.1089C102.909 40.324 102.672 40.6964 102.208 40.6964C101.743 40.6964 101.452 40.2371 101.365 40.1089C101.278 39.9806 101.115 39.2813 101.055 39.1014Z" fill="#CECECE" stroke="#CECECE"/>
<path d="M160.745 44.2099C159.039 46.9937 156.677 48.052 156.677 48.052L159.778 49.8911C159.778 49.8911 164.612 46.9369 164.84 46.1415C165.067 45.3462 165.039 43.2726 164.84 42.392C164.641 41.5114 164.175 39.1726 163.526 39.2768C162.878 39.381 162.451 41.4262 160.745 44.2099Z" fill="#E2E2E2"/>
<path fill-rule="evenodd" clip-rule="evenodd" d="M65.1346 79.3147C64.5569 79.6876 64.425 79.7727 64.3406 80.9935C64.2096 82.8869 68.4077 81.1513 69.1468 80.3765C69.5906 79.9112 69.6122 63.9629 69.5586 51.2947L66.3295 51.7071C67.7984 61.9218 68.8781 74.0529 66.5621 78.1983C65.9066 78.8164 65.4529 79.1092 65.1346 79.3147Z" fill="#E2E2E2"/>
<path fill-rule="evenodd" clip-rule="evenodd" d="M70.2319 82.7433C69.6541 83.1162 69.5223 83.2013 69.4378 84.4221C69.3069 86.3156 73.505 84.58 74.2441 83.8051C74.6879 83.3398 74.7095 67.3915 74.6559 54.7233L71.4268 55.1357C72.8957 65.3505 73.9754 77.4815 71.6594 81.6269C71.0038 82.2451 70.5502 82.5378 70.2319 82.7433Z" fill="#E2E2E2"/>
<path fill-rule="evenodd" clip-rule="evenodd" d="M23.1805 82.7433C22.6027 83.1162 22.4708 83.2013 22.3864 84.4221C22.2555 86.3156 26.4535 84.58 27.1926 83.8051C27.6365 83.3398 27.658 67.3915 27.6045 54.7233L24.3753 55.1357C25.8443 65.3505 26.9239 77.4815 24.608 81.6269C23.9524 82.2451 23.4988 82.5378 23.1805 82.7433Z" fill="#E2E2E2"/>
<path fill-rule="evenodd" clip-rule="evenodd" d="M17.6346 78.9982C17.0568 79.3711 16.9249 79.4562 16.8405 80.677C16.7096 82.5704 20.9076 80.8348 21.6467 80.06C22.0906 79.5947 22.1121 63.6464 22.0586 50.9782L18.8294 51.3906C20.2984 61.6053 21.378 73.7364 19.0621 77.8818C18.4065 78.4999 17.9529 78.7927 17.6346 78.9982Z" fill="#E2E2E2"/>
<ellipse cx="48.044" cy="55.5356" rx="34.5393" ry="17.236" fill="#E2E2E2"/>
<ellipse rx="10.8002" ry="14.1345" transform="matrix(0.859601 -0.510965 0.510918 0.85963 23.504 53.6256)" fill="#E2E2E2"/>
<ellipse rx="10.8002" ry="14.1345" transform="matrix(0.859602 -0.510965 0.510918 0.85963 32.7519 50.1083)" fill="#E2E2E2"/>
<ellipse cx="20.2621" cy="30.5766" rx="19.2621" ry="14.8277" fill="#E2E2E2"/>
<path d="M1.82296 17.3636C1.64522 18.3957 0.908452 26.6361 1.82296 26.5833C2.73747 26.5306 10.4742 18.8193 10.4742 18.8193C10.4742 18.8193 8.45742 13.509 8.19258 12.9963C7.92775 12.4836 6.00452 8.8228 4.96024 8.82316C3.91595 8.82352 2.0007 16.3314 1.82296 17.3636Z" fill="#E2E2E2" stroke="#E2E2E2"/>
<path d="M2.68028 16.9924C2.53972 17.8086 1.95705 24.3255 2.68028 24.2838C3.40352 24.2421 9.52209 18.1436 9.52209 18.1436C9.52209 18.1436 7.9271 13.944 7.71765 13.5386C7.50821 13.1331 5.98724 10.238 5.16138 10.2383C4.33551 10.2385 2.82085 16.1761 2.68028 16.9924Z" fill="#606060" stroke="#E2E2E2"/>
<path fill-rule="evenodd" clip-rule="evenodd" d="M32.6596 13.7716H37.8758C38.4664 15.6892 38.9446 17.6476 39.0292 18.1389C39.207 19.171 39.9437 27.4113 39.0292 27.3586C38.1147 27.3059 30.3779 19.5946 30.3779 19.5946C30.3779 19.5946 32.3948 14.2843 32.6596 13.7716Z" fill="#E2E2E2"/>
<path fill-rule="evenodd" clip-rule="evenodd" d="M33.1341 14.3139H37.2592C37.7263 15.8304 38.1045 17.3791 38.1714 17.7677C38.312 18.5839 38.8947 25.1007 38.1714 25.059C37.4482 25.0174 31.3296 18.9189 31.3296 18.9189C31.3296 18.9189 32.9246 14.7193 33.1341 14.3139Z" fill="#606060"/>
<path d="M37.7541 13.8632C37.4893 14.3759 35.566 18.0367 34.5218 18.0364C33.9745 18.0362 33.1881 15.9744 32.5379 13.8632H37.7541Z" fill="#E2E2E2"/>
<ellipse cx="20.2621" cy="37.021" rx="5.63576" ry="4.58168" fill="#969696"/>
<path d="M19.4028 34.2369C19.2964 34.2369 19.1066 34.5481 19.0828 34.6025C19.059 34.657 20.2136 35.8063 20.3169 35.8139C20.4203 35.8215 21.3898 34.657 21.4368 34.6025C21.4838 34.5481 21.1847 34.2369 21.0483 34.2369H19.4028Z" fill="#272727" stroke="#272727"/>
<ellipse cx="30.3779" cy="30.5766" rx="5.32579" ry="5.23736" fill="white"/>
<ellipse cx="30.9831" cy="31.7812" rx="3.45497" ry="3.45518" fill="#292929"/>
<ellipse cx="10.1464" cy="30.5766" rx="5.32579" ry="5.23736" fill="white"/>
<ellipse cx="9.26121" cy="29.5684" rx="3.45426" ry="3.45448" fill="#292929"/>
<path d="M20.2601 37.0847C19.6103 37.0989 17.5481 37.8617 17.534 38.2996C17.5199 38.7375 19.6103 39.5002 20.2601 39.5144C20.9098 39.5285 22.9014 38.6951 22.8873 38.2996C22.8732 37.904 20.9098 37.0706 20.2601 37.0847Z" fill="#353535" stroke="#353535"/>
<path d="M19.0548 39.1477C18.9951 38.9676 18.7514 37.9347 18.7925 37.9113C18.8335 37.8878 20.2077 37.9113 20.2077 37.9113C20.2077 37.9113 21.5958 37.8752 21.6288 37.9113C21.6619 37.9473 21.3555 39.1477 21.3555 39.1477C21.3555 39.1477 21.2553 39.941 21.0823 40.1564C20.9092 40.3718 20.6723 40.7446 20.2077 40.7446C19.7431 40.7446 19.4516 40.2848 19.3648 40.1564C19.2781 40.028 19.1146 39.3278 19.0548 39.1477Z" fill="#CECECE" stroke="#CECECE"/>
<path d="M78.7448 44.2623C77.0385 47.0494 74.6767 48.1089 74.6767 48.1089L77.7779 49.9502C77.7779 49.9502 82.6123 46.9925 82.8398 46.1962C83.0673 45.3999 83.0389 43.3238 82.8398 42.4422C82.6408 41.5606 82.1746 39.219 81.5261 39.3233C80.8776 39.4276 80.4511 41.4752 78.7448 44.2623Z" fill="#E2E2E2"/>
</svg>
