<svg width="739" height="86" viewBox="0 0 739 86" fill="none" xmlns="http://www.w3.org/2000/svg">
<path fill-rule="evenodd" clip-rule="evenodd" d="M17.8974 79.254C18.4749 79.6279 18.6067 79.7132 18.6911 80.9374C18.822 82.836 14.626 81.0957 13.8873 80.3187C13.4437 79.8521 13.4221 63.8604 13.4757 51.1577L16.7031 51.5712C15.2349 61.8138 14.1559 73.9779 16.4706 78.1345C17.1259 78.7544 17.5793 79.048 17.8974 79.254Z" fill="#E2E2E2"/>
<path fill-rule="evenodd" clip-rule="evenodd" d="M12.8027 82.6919C13.3802 83.0658 13.512 83.1512 13.5964 84.3754C13.7272 86.2739 9.53128 84.5336 8.79254 83.7566C8.34892 83.2901 8.32736 67.2983 8.38093 54.5957L11.6084 55.0092C10.1402 65.2517 9.06114 77.4158 11.3759 81.5725C12.0312 82.1923 12.4846 82.4859 12.8027 82.6919Z" fill="#E2E2E2"/>
<path fill-rule="evenodd" clip-rule="evenodd" d="M59.8307 82.6919C60.4081 83.0658 60.5399 83.1512 60.6243 84.3754C60.7552 86.2739 56.5592 84.5336 55.8205 83.7566C55.3769 83.2901 55.3553 67.2983 55.4089 54.5957L58.6364 55.0092C57.1682 65.2517 56.0891 77.4158 58.4039 81.5725C59.0591 82.1923 59.5125 82.4859 59.8307 82.6919Z" fill="#E2E2E2"/>
<path fill-rule="evenodd" clip-rule="evenodd" d="M65.3738 78.9366C65.9512 79.3105 66.083 79.3959 66.1674 80.62C66.2983 82.5186 62.1023 80.7783 61.3636 80.0013C60.92 79.5347 60.8984 63.543 60.952 50.8403L64.1795 51.2538C62.7113 61.4964 61.6322 73.6605 63.947 77.8172C64.6022 78.437 65.0556 78.7306 65.3738 78.9366Z" fill="#E2E2E2"/>
<ellipse rx="34.5221" ry="17.283" transform="matrix(-1 0 0 1 34.9795 55.4101)" fill="#E2E2E2"/>
<ellipse rx="10.8039" ry="14.1611" transform="matrix(-0.858877 -0.512181 -0.509703 0.860351 59.5072 53.4949)" fill="#E2E2E2"/>
<ellipse rx="10.8039" ry="14.1611" transform="matrix(-0.858877 -0.512181 -0.509703 0.860351 50.264 49.968)" fill="#E2E2E2"/>
<ellipse rx="19.2525" ry="14.868" transform="matrix(-1 0 0 1 62.7475 30.3831)" fill="#E2E2E2"/>
<path d="M81.1773 17.1341C81.3549 18.1691 82.0913 26.4319 81.1773 26.379C80.2632 26.3261 72.5303 18.5939 72.5303 18.5939C72.5303 18.5939 74.5461 13.2691 74.8108 12.755C75.0755 12.2409 76.9978 8.57011 78.0415 8.57047C79.0853 8.57082 80.9996 16.0992 81.1773 17.1341Z" fill="#E2E2E2" stroke="#E2E2E2"/>
<path d="M80.3199 16.7619C80.4604 17.5804 81.0428 24.115 80.3199 24.0732C79.597 24.0314 73.4815 17.9163 73.4815 17.9163C73.4815 17.9163 75.0757 13.7053 75.285 13.2987C75.4944 12.8922 77.0146 9.98913 77.84 9.98941C78.6655 9.98969 80.1794 15.9434 80.3199 16.7619Z" fill="#606060" stroke="#E2E2E2"/>
<path fill-rule="evenodd" clip-rule="evenodd" d="M50.3562 13.5324H45.1427C44.5524 15.4552 44.0744 17.4189 43.9898 17.9115C43.8121 18.9465 43.0758 27.2093 43.9898 27.1564C44.9039 27.1036 52.6368 19.3713 52.6368 19.3713C52.6368 19.3713 50.6209 14.0465 50.3562 13.5324Z" fill="#E2E2E2"/>
<path fill-rule="evenodd" clip-rule="evenodd" d="M49.882 14.0761H45.7589C45.2921 15.5968 44.914 17.1498 44.8472 17.5393C44.7067 18.3578 44.1243 24.8924 44.8472 24.8506C45.57 24.8088 51.6855 18.6937 51.6855 18.6937C51.6855 18.6937 50.0914 14.4827 49.882 14.0761Z" fill="#606060"/>
<path d="M45.2643 13.6243C45.529 14.1383 47.4512 17.8091 48.495 17.8088C49.042 17.8086 49.828 15.7412 50.4779 13.6243H45.2643Z" fill="#E2E2E2"/>
<ellipse rx="5.63295" ry="4.59416" transform="matrix(-1 0 0 1 62.7475 36.8451)" fill="#969696"/>
<path d="M63.6065 34.0534C63.7128 34.0534 63.9025 34.3654 63.9263 34.4201C63.95 34.4747 62.796 35.6271 62.6927 35.6347C62.5895 35.6423 61.6204 34.4747 61.5734 34.4201C61.5264 34.3654 61.8254 34.0534 61.9618 34.0534H63.6065Z" fill="#272727" stroke="#272727"/>
<ellipse rx="5.32313" ry="5.25163" transform="matrix(-1 0 0 1 52.6368 30.3831)" fill="white"/>
<ellipse rx="3.45324" ry="3.46459" transform="matrix(-1 0 0 1 52.0319 31.5911)" fill="#292929"/>
<ellipse rx="5.32313" ry="5.25163" transform="matrix(-1 0 0 1 72.8581 30.3831)" fill="white"/>
<ellipse rx="3.45253" ry="3.46389" transform="matrix(-1 0 0 1 73.7429 29.3723)" fill="#292929"/>
<path d="M62.7495 36.909C63.399 36.9232 65.4602 37.6881 65.4743 38.1271C65.4884 38.5662 63.399 39.3311 62.7495 39.3453C62.1001 39.3594 60.1095 38.5237 60.1236 38.1271C60.1377 37.7305 62.1001 36.8949 62.7495 36.909Z" fill="#353535" stroke="#353535"/>
<path d="M63.9542 38.9776C64.014 38.797 64.2574 37.7613 64.2164 37.7378C64.1754 37.7143 62.8019 37.7378 62.8019 37.7378C62.8019 37.7378 61.4145 37.7017 61.3815 37.7378C61.3484 37.774 61.6546 38.9776 61.6546 38.9776C61.6546 38.9776 61.7548 39.773 61.9278 39.989C62.1008 40.205 62.3375 40.5789 62.8019 40.5789C63.2662 40.5789 63.5576 40.1178 63.6443 39.989C63.7311 39.8603 63.8945 39.1582 63.9542 38.9776Z" fill="#CECECE" stroke="#CECECE"/>
<path d="M4.29405 44.1062C5.99947 46.9008 8.36011 47.9632 8.36011 47.9632L5.26046 49.8096C5.26046 49.8096 0.42845 46.8438 0.201061 46.0453C-0.0263271 45.2468 0.00209618 43.1651 0.201061 42.2811C0.400027 41.397 0.865979 39.0491 1.51414 39.1537C2.1623 39.2583 2.58864 41.3115 4.29405 44.1062Z" fill="#E2E2E2"/>
<path fill-rule="evenodd" clip-rule="evenodd" d="M103.95 78.1625C104.598 78.4022 104.746 78.4569 105.094 79.6296C105.634 81.4483 101.137 80.6569 100.243 80.0598C99.706 79.7012 96.2167 64.1495 93.5145 51.7812L96.7734 51.4901C97.553 61.7692 99.1314 73.8339 102.306 77.3801C103.084 77.8423 103.593 78.0304 103.95 78.1625Z" fill="#E2E2E2"/>
<path fill-rule="evenodd" clip-rule="evenodd" d="M89.8144 82.1913C90.2975 82.682 90.4077 82.794 90.2179 84.0018C89.9236 85.8751 86.1962 83.259 85.6448 82.3413C85.3136 81.7902 88.8526 66.2495 91.7331 53.9207L94.8061 55.0343C91.086 64.6611 87.3198 76.2404 88.6644 80.7891C89.169 81.5358 89.5483 81.921 89.8144 82.1913Z" fill="#E2E2E2"/>
<path fill-rule="evenodd" clip-rule="evenodd" d="M136.061 82.0045C136.518 82.5191 136.622 82.6365 136.37 83.8331C135.979 85.689 132.392 82.8866 131.889 81.942C131.587 81.3747 135.927 66.0347 139.443 53.8689L142.454 55.1374C138.24 64.5621 133.878 75.9345 134.985 80.5456C135.45 81.317 135.809 81.721 136.061 82.0045Z" fill="#E2E2E2"/>
<path fill-rule="evenodd" clip-rule="evenodd" d="M152.713 77.5183C153.373 77.7243 153.523 77.7713 153.932 78.9246C154.567 80.7131 150.034 80.1539 149.11 79.6036C148.555 79.2731 144.256 63.9217 140.91 51.7089L144.149 51.2507C145.466 61.4759 147.674 73.4432 151.03 76.8214C151.831 77.243 152.349 77.4048 152.713 77.5183Z" fill="#E2E2E2"/>
<ellipse rx="34.7157" ry="17.2176" transform="matrix(-1 0 0 1 116.716 55.2004)" fill="#E2E2E2"/>
<ellipse rx="10.838" ry="14.1422" transform="matrix(-0.86098 -0.508638 -0.513247 0.858241 141.381 53.2924)" fill="#E2E2E2"/>
<ellipse rx="10.838" ry="14.1422" transform="matrix(-0.86098 -0.508639 -0.513247 0.858241 132.086 49.7789)" fill="#E2E2E2"/>
<ellipse rx="19.3605" ry="14.8118" transform="matrix(-1 0 0 1 144.64 30.2681)" fill="#E2E2E2"/>
<path d="M163.173 17.0693C163.351 18.1003 164.092 26.3318 163.173 26.2792C162.253 26.2265 154.477 18.5235 154.477 18.5235C154.477 18.5235 156.504 13.2188 156.77 12.7067C157.037 12.1946 158.97 8.53767 160.019 8.53802C161.069 8.53838 162.994 16.0383 163.173 17.0693Z" fill="#E2E2E2" stroke="#E2E2E2"/>
<path d="M162.31 16.6985C162.452 17.5139 163.037 24.0237 162.31 23.9821C161.584 23.9404 155.434 17.8485 155.434 17.8485C155.434 17.8485 157.037 13.6534 157.247 13.2484C157.458 12.8434 158.987 9.95132 159.817 9.9516C160.647 9.95188 162.169 15.8831 162.31 16.6985Z" fill="#606060" stroke="#E2E2E2"/>
<path fill-rule="evenodd" clip-rule="evenodd" d="M132.179 13.4812H126.936C126.342 15.3967 125.862 17.353 125.777 17.8437C125.598 18.8748 124.857 27.1063 125.777 27.0536C126.696 27.001 134.472 19.2979 134.472 19.2979C134.472 19.2979 132.445 13.9933 132.179 13.4812Z" fill="#E2E2E2"/>
<path fill-rule="evenodd" clip-rule="evenodd" d="M131.702 14.0228H127.556C127.086 15.5377 126.706 17.0848 126.639 17.4729C126.497 18.2883 125.912 24.7982 126.639 24.7565C127.366 24.7149 133.515 18.623 133.515 18.623C133.515 18.623 131.912 14.4279 131.702 14.0228Z" fill="#606060"/>
<path d="M127.058 13.5727C127.324 14.0848 129.257 17.7418 130.307 17.7414C130.857 17.7412 131.647 15.6816 132.301 13.5727H127.058Z" fill="#E2E2E2"/>
<ellipse rx="5.66455" ry="4.57677" transform="matrix(-1 0 0 1 144.64 36.7056)" fill="#969696"/>
<path d="M145.503 33.9245C145.61 33.9245 145.801 34.2354 145.825 34.2898C145.849 34.3442 144.688 35.4923 144.584 35.4998C144.481 35.5074 143.506 34.3442 143.459 34.2898C143.412 34.2354 143.712 33.9245 143.849 33.9245H145.503Z" fill="#272727" stroke="#272727"/>
<ellipse rx="5.35299" ry="5.23175" transform="matrix(-1 0 0 1 134.472 30.2681)" fill="white"/>
<ellipse rx="3.47261" ry="3.45148" transform="matrix(-1 0 0 1 133.864 31.4715)" fill="#292929"/>
<ellipse rx="5.35299" ry="5.23175" transform="matrix(-1 0 0 1 154.807 30.2681)" fill="white"/>
<ellipse rx="3.4719" ry="3.45078" transform="matrix(-1 0 0 1 155.697 29.2611)" fill="#292929"/>
<path d="M144.642 36.7693C145.295 36.7834 147.367 37.5454 147.382 37.9828C147.396 38.4203 145.295 39.1822 144.642 39.1964C143.988 39.2105 141.987 38.3779 142.001 37.9828C142.015 37.5877 143.988 36.7552 144.642 36.7693Z" fill="#353535" stroke="#353535"/>
<path d="M145.853 38.8301C145.913 38.6502 146.158 37.6184 146.117 37.595C146.075 37.5715 144.694 37.595 144.694 37.595C144.694 37.595 143.299 37.559 143.266 37.595C143.233 37.631 143.541 38.8301 143.541 38.8301C143.541 38.8301 143.641 39.6225 143.815 39.8377C143.989 40.0528 144.227 40.4253 144.694 40.4253C145.161 40.4253 145.454 39.9659 145.541 39.8377C145.629 39.7094 145.793 39.01 145.853 38.8301Z" fill="#CECECE" stroke="#CECECE"/>
<path d="M86.2769 43.6043C87.9919 46.3884 90.3658 47.4468 90.3658 47.4468L87.2487 49.2861C87.2487 49.2861 82.3896 46.3315 82.161 45.5361C81.9323 44.7406 81.9609 42.6668 82.161 41.7861C82.361 40.9054 82.8296 38.5664 83.4814 38.6705C84.1332 38.7747 84.5619 40.8202 86.2769 43.6043Z" fill="#E2E2E2"/>
<path fill-rule="evenodd" clip-rule="evenodd" d="M189.743 76.6305C190.426 76.7389 190.582 76.7636 191.157 77.8452C192.049 79.5227 187.482 79.6255 186.487 79.2148C185.889 78.9682 179.372 64.4037 174.26 52.8063L177.397 51.8841C180.208 61.809 184.157 73.3284 187.976 76.1847C188.83 76.4858 189.367 76.5709 189.743 76.6305Z" fill="#E2E2E2"/>
<path fill-rule="evenodd" clip-rule="evenodd" d="M168.176 81.2956C168.562 81.8646 168.65 81.9944 168.243 83.1485C167.612 84.9383 164.423 81.6982 164.048 80.6968C163.822 80.0955 170.137 65.4439 175.218 53.8335L178.038 55.4786C172.623 64.2813 166.808 74.9961 167.301 79.7106C167.661 80.5353 167.964 80.9821 168.176 81.2956Z" fill="#E2E2E2"/>
<path fill-rule="evenodd" clip-rule="evenodd" d="M214.542 80.952C214.9 81.5386 214.981 81.6725 214.519 82.806C213.802 84.5638 210.773 81.1763 210.447 80.1583C210.251 79.547 217.266 65.2114 222.902 53.855L225.639 55.6319C219.806 64.1679 213.479 74.5949 213.744 79.3274C214.064 80.1682 214.345 80.6288 214.542 80.952Z" fill="#E2E2E2"/>
<path fill-rule="evenodd" clip-rule="evenodd" d="M238.668 75.6449C239.356 75.7084 239.514 75.7229 240.159 76.7647C241.161 78.3804 236.611 78.7809 235.59 78.436C234.977 78.2289 227.507 64.1211 221.635 52.8824L224.704 51.7576C228.168 61.4775 232.875 72.7143 236.875 75.3153C237.747 75.56 238.288 75.6099 238.668 75.6449Z" fill="#E2E2E2"/>
<ellipse rx="34.7157" ry="17.2176" transform="matrix(-1 0 0 1 198.716 54.7965)" fill="#E2E2E2"/>
<ellipse rx="10.838" ry="14.1422" transform="matrix(-0.86098 -0.508638 -0.513247 0.858241 223.381 53.2924)" fill="#E2E2E2"/>
<ellipse rx="10.838" ry="14.1422" transform="matrix(-0.86098 -0.508638 -0.513247 0.858241 214.086 49.7789)" fill="#E2E2E2"/>
<ellipse rx="19.3605" ry="14.8118" transform="matrix(-1 0 0 1 226.64 30.2681)" fill="#E2E2E2"/>
<path d="M245.173 17.0693C245.351 18.1003 246.092 26.3318 245.173 26.2792C244.253 26.2265 236.477 18.5235 236.477 18.5235C236.477 18.5235 238.504 13.2188 238.77 12.7067C239.037 12.1946 240.97 8.53767 242.019 8.53802C243.069 8.53838 244.994 16.0383 245.173 17.0693Z" fill="#E2E2E2" stroke="#E2E2E2"/>
<path d="M244.31 16.6985C244.452 17.5139 245.037 24.0237 244.31 23.9821C243.584 23.9404 237.434 17.8485 237.434 17.8485C237.434 17.8485 239.037 13.6534 239.247 13.2484C239.458 12.8434 240.987 9.95132 241.817 9.9516C242.647 9.95188 244.169 15.8831 244.31 16.6985Z" fill="#606060" stroke="#E2E2E2"/>
<path fill-rule="evenodd" clip-rule="evenodd" d="M214.179 13.4812H208.936C208.342 15.3967 207.862 17.353 207.777 17.8437C207.598 18.8748 206.857 27.1063 207.777 27.0536C208.696 27.001 216.472 19.2979 216.472 19.2979C216.472 19.2979 214.445 13.9933 214.179 13.4812Z" fill="#E2E2E2"/>
<path fill-rule="evenodd" clip-rule="evenodd" d="M213.702 14.0228H209.556C209.086 15.5377 208.706 17.0848 208.639 17.4729C208.497 18.2883 207.912 24.7982 208.639 24.7565C209.366 24.7149 215.515 18.623 215.515 18.623C215.515 18.623 213.912 14.4279 213.702 14.0228Z" fill="#606060"/>
<path d="M209.058 13.5727C209.324 14.0848 211.257 17.7418 212.307 17.7414C212.857 17.7412 213.647 15.6816 214.301 13.5727H209.058Z" fill="#E2E2E2"/>
<ellipse rx="5.66455" ry="4.57677" transform="matrix(-1 0 0 1 226.64 36.7056)" fill="#969696"/>
<path d="M227.503 33.9245C227.61 33.9245 227.801 34.2354 227.825 34.2898C227.849 34.3442 226.688 35.4923 226.584 35.4998C226.481 35.5074 225.506 34.3442 225.459 34.2898C225.412 34.2354 225.712 33.9245 225.849 33.9245H227.503Z" fill="#272727" stroke="#272727"/>
<ellipse rx="5.35299" ry="5.23175" transform="matrix(-1 0 0 1 216.472 30.2681)" fill="white"/>
<ellipse rx="3.47262" ry="3.45148" transform="matrix(-1 0 0 1 215.864 31.4715)" fill="#292929"/>
<ellipse rx="5.353" ry="5.23175" transform="matrix(-1 0 0 1 236.807 30.2681)" fill="white"/>
<ellipse rx="3.4719" ry="3.45078" transform="matrix(-1 0 0 1 237.697 29.2611)" fill="#292929"/>
<path d="M226.642 36.7693C227.295 36.7834 229.367 37.5454 229.382 37.9828C229.396 38.4203 227.295 39.1822 226.642 39.1964C225.988 39.2105 223.987 38.3779 224.001 37.9828C224.015 37.5877 225.988 36.7552 226.642 36.7693Z" fill="#353535" stroke="#353535"/>
<path d="M227.853 38.8301C227.913 38.6502 228.158 37.6184 228.117 37.595C228.075 37.5715 226.694 37.595 226.694 37.595C226.694 37.595 225.299 37.559 225.266 37.595C225.233 37.631 225.541 38.8301 225.541 38.8301C225.541 38.8301 225.641 39.6225 225.815 39.8377C225.989 40.0528 226.227 40.4253 226.694 40.4253C227.161 40.4253 227.454 39.9659 227.541 39.8377C227.629 39.7094 227.793 39.01 227.853 38.8301Z" fill="#CECECE" stroke="#CECECE"/>
<path d="M168.277 43.6043C169.992 46.3884 172.366 47.4468 172.366 47.4468L169.249 49.2861C169.249 49.2861 164.39 46.3315 164.161 45.5361C163.932 44.7406 163.961 42.6668 164.161 41.7861C164.361 40.9054 164.83 38.5664 165.481 38.6705C166.133 38.7747 166.562 40.8202 168.277 43.6043Z" fill="#E2E2E2"/>
<path fill-rule="evenodd" clip-rule="evenodd" d="M267.95 78.4385C268.598 78.6781 268.746 78.7328 269.094 79.9055C269.634 81.7243 265.137 80.9328 264.243 80.3358C263.706 79.9772 260.217 64.4255 257.514 52.0572L260.773 51.766C261.553 62.0451 263.131 74.1099 266.306 77.656C267.084 78.1182 267.593 78.3064 267.95 78.4385Z" fill="#E2E2E2"/>
<path fill-rule="evenodd" clip-rule="evenodd" d="M253.814 82.4673C254.297 82.9579 254.408 83.0699 254.218 84.2778C253.924 86.1511 250.196 83.535 249.645 82.6173C249.314 82.0661 252.853 66.5255 255.733 54.1967L258.806 55.3102C255.086 64.937 251.32 76.5164 252.664 81.0651C253.169 81.8118 253.548 82.197 253.814 82.4673Z" fill="#E2E2E2"/>
<path fill-rule="evenodd" clip-rule="evenodd" d="M300.061 82.2805C300.518 82.795 300.622 82.9125 300.37 84.1091C299.979 85.965 296.392 83.1626 295.889 82.2179C295.587 81.6507 299.927 66.3107 303.443 54.1449L306.454 55.4134C302.24 64.8381 297.878 76.2104 298.985 80.8216C299.45 81.593 299.809 81.997 300.061 82.2805Z" fill="#E2E2E2"/>
<path fill-rule="evenodd" clip-rule="evenodd" d="M316.713 77.7942C317.373 78.0003 317.523 78.0473 317.932 79.2005C318.567 80.9891 314.034 80.4299 313.11 79.8795C312.555 79.549 308.256 64.1976 304.91 51.9849L308.149 51.5266C309.466 61.7518 311.674 73.7192 315.03 77.0974C315.831 77.519 316.349 77.6807 316.713 77.7942Z" fill="#E2E2E2"/>
<ellipse rx="34.7157" ry="17.2176" transform="matrix(-1 0 0 1 280.716 55.4764)" fill="#E2E2E2"/>
<ellipse rx="10.838" ry="14.1422" transform="matrix(-0.86098 -0.508638 -0.513247 0.858241 305.381 53.5684)" fill="#E2E2E2"/>
<ellipse rx="10.838" ry="14.1422" transform="matrix(-0.86098 -0.508638 -0.513247 0.858241 296.086 50.0549)" fill="#E2E2E2"/>
<ellipse rx="19.3605" ry="14.8118" transform="matrix(-1 0 0 1 308.64 30.5441)" fill="#E2E2E2"/>
<path d="M327.173 17.3452C327.351 18.3763 328.092 26.6078 327.173 26.5551C326.253 26.5025 318.477 18.7994 318.477 18.7994C318.477 18.7994 320.504 13.4948 320.77 12.9827C321.037 12.4705 322.97 8.81364 324.019 8.814C325.069 8.81435 326.994 16.3142 327.173 17.3452Z" fill="#E2E2E2" stroke="#E2E2E2"/>
<path d="M326.31 16.9745C326.452 17.7898 327.037 24.2997 326.31 24.258C325.584 24.2164 319.434 18.1245 319.434 18.1245C319.434 18.1245 321.037 13.9294 321.247 13.5243C321.458 13.1193 322.987 10.2273 323.817 10.2276C324.647 10.2279 326.169 16.1591 326.31 16.9745Z" fill="#606060" stroke="#E2E2E2"/>
<path fill-rule="evenodd" clip-rule="evenodd" d="M296.179 13.7571H290.936C290.342 15.6727 289.862 17.629 289.777 18.1197C289.598 19.1507 288.857 27.3823 289.777 27.3296C290.696 27.2769 298.472 19.5739 298.472 19.5739C298.472 19.5739 296.445 14.2693 296.179 13.7571Z" fill="#E2E2E2"/>
<path fill-rule="evenodd" clip-rule="evenodd" d="M295.702 14.2988H291.556C291.086 15.8137 290.706 17.3608 290.639 17.7489C290.497 18.5643 289.912 25.0741 290.639 25.0325C291.366 24.9908 297.515 18.899 297.515 18.899C297.515 18.899 295.912 14.7038 295.702 14.2988Z" fill="#606060"/>
<path d="M291.058 13.8487C291.324 14.3608 293.257 18.0177 294.307 18.0174C294.857 18.0172 295.647 15.9576 296.301 13.8487H291.058Z" fill="#E2E2E2"/>
<ellipse rx="5.66455" ry="4.57677" transform="matrix(-1 0 0 1 308.64 36.9816)" fill="#969696"/>
<path d="M309.503 34.2005C309.61 34.2005 309.801 34.5113 309.825 34.5658C309.849 34.6202 308.688 35.7682 308.584 35.7758C308.481 35.7834 307.506 34.6202 307.459 34.5658C307.412 34.5113 307.712 34.2005 307.849 34.2005H309.503Z" fill="#272727" stroke="#272727"/>
<ellipse rx="5.35299" ry="5.23175" transform="matrix(-1 0 0 1 298.472 30.5441)" fill="white"/>
<ellipse rx="3.47261" ry="3.45148" transform="matrix(-1 0 0 1 297.864 31.7475)" fill="#292929"/>
<ellipse rx="5.353" ry="5.23175" transform="matrix(-1 0 0 1 318.807 30.5441)" fill="white"/>
<ellipse rx="3.4719" ry="3.45078" transform="matrix(-1 0 0 1 319.697 29.537)" fill="#292929"/>
<path d="M308.642 37.0453C309.295 37.0594 311.367 37.8214 311.382 38.2588C311.396 38.6962 309.295 39.4582 308.642 39.4723C307.988 39.4864 305.987 38.6539 306.001 38.2588C306.015 37.8637 307.988 37.0312 308.642 37.0453Z" fill="#353535" stroke="#353535"/>
<path d="M309.853 39.106C309.913 38.9262 310.158 37.8944 310.117 37.8709C310.075 37.8475 308.694 37.8709 308.694 37.8709C308.694 37.8709 307.299 37.8349 307.266 37.8709C307.233 37.907 307.54 39.106 307.54 39.106C307.54 39.106 307.641 39.8985 307.815 40.1136C307.989 40.3288 308.227 40.7012 308.694 40.7012C309.161 40.7012 309.454 40.2419 309.541 40.1136C309.629 39.9854 309.793 39.2859 309.853 39.106Z" fill="#CECECE" stroke="#CECECE"/>
<path d="M250.277 43.8802C251.992 46.6643 254.366 47.7227 254.366 47.7227L251.249 49.5621C251.249 49.5621 246.39 46.6075 246.161 45.8121C245.932 45.0166 245.961 42.9427 246.161 42.0621C246.361 41.1814 246.83 38.8423 247.481 38.9465C248.133 39.0507 248.562 41.0962 250.277 43.8802Z" fill="#E2E2E2"/>
<path fill-rule="evenodd" clip-rule="evenodd" d="M345.865 79.3147C346.443 79.6876 346.575 79.7727 346.659 80.9935C346.79 82.8869 342.592 81.1513 341.853 80.3765C341.409 79.9112 341.388 63.9629 341.441 51.2947L344.67 51.7071C343.202 61.9218 342.122 74.0529 344.438 78.1983C345.093 78.8164 345.547 79.1092 345.865 79.3147Z" fill="#E2E2E2"/>
<path fill-rule="evenodd" clip-rule="evenodd" d="M340.768 82.7433C341.346 83.1162 341.478 83.2013 341.562 84.4221C341.693 86.3156 337.495 84.58 336.756 83.8051C336.312 83.3398 336.29 67.3915 336.344 54.7233L339.573 55.1357C338.104 65.3505 337.025 77.4815 339.341 81.6269C339.996 82.2451 340.45 82.5378 340.768 82.7433Z" fill="#E2E2E2"/>
<path fill-rule="evenodd" clip-rule="evenodd" d="M387.82 82.7433C388.397 83.1162 388.529 83.2013 388.614 84.4221C388.745 86.3156 384.546 84.58 383.807 83.8051C383.364 83.3398 383.342 67.3915 383.396 54.7233L386.625 55.1357C385.156 65.3505 384.076 77.4815 386.392 81.6269C387.048 82.2451 387.501 82.5378 387.82 82.7433Z" fill="#E2E2E2"/>
<path fill-rule="evenodd" clip-rule="evenodd" d="M393.365 78.9982C393.943 79.3711 394.075 79.4562 394.159 80.677C394.29 82.5704 390.092 80.8348 389.353 80.06C388.909 79.5947 388.888 63.6464 388.941 50.9782L392.171 51.3906C390.702 61.6053 389.622 73.7364 391.938 77.8818C392.593 78.4999 393.047 78.7927 393.365 78.9982Z" fill="#E2E2E2"/>
<ellipse rx="34.5393" ry="17.236" transform="matrix(-1 0 0 1 362.956 55.5356)" fill="#E2E2E2"/>
<ellipse rx="10.8002" ry="14.1345" transform="matrix(-0.859601 -0.510965 -0.510918 0.85963 387.496 53.6256)" fill="#E2E2E2"/>
<ellipse rx="10.8002" ry="14.1345" transform="matrix(-0.859602 -0.510965 -0.510918 0.85963 378.248 50.1083)" fill="#E2E2E2"/>
<ellipse rx="19.2621" ry="14.8277" transform="matrix(-1 0 0 1 390.738 30.5766)" fill="#E2E2E2"/>
<path d="M409.177 17.3636C409.355 18.3957 410.092 26.636 409.177 26.5833C408.263 26.5306 400.526 18.8193 400.526 18.8193C400.526 18.8193 402.543 13.509 402.807 12.9963C403.072 12.4836 404.995 8.82279 406.04 8.82315C407.084 8.82351 408.999 16.3314 409.177 17.3636Z" fill="#E2E2E2" stroke="#E2E2E2"/>
<path d="M408.32 16.9924C408.46 17.8086 409.043 24.3255 408.32 24.2838C407.596 24.2421 401.478 18.1436 401.478 18.1436C401.478 18.1436 403.073 13.944 403.282 13.5386C403.492 13.1331 405.013 10.238 405.839 10.2383C406.664 10.2385 408.179 16.1761 408.32 16.9924Z" fill="#606060" stroke="#E2E2E2"/>
<path fill-rule="evenodd" clip-rule="evenodd" d="M378.34 13.7716H373.124C372.534 15.6892 372.055 17.6476 371.971 18.1389C371.793 19.171 371.056 27.4113 371.971 27.3586C372.885 27.3059 380.622 19.5946 380.622 19.5946C380.622 19.5946 378.605 14.2843 378.34 13.7716Z" fill="#E2E2E2"/>
<path fill-rule="evenodd" clip-rule="evenodd" d="M377.866 14.3138H373.741C373.274 15.8304 372.895 17.3791 372.829 17.7677C372.688 18.5839 372.105 25.1007 372.829 25.059C373.552 25.0173 379.67 18.9189 379.67 18.9189C379.67 18.9189 378.075 14.7193 377.866 14.3138Z" fill="#606060"/>
<path d="M373.246 13.8632C373.511 14.3759 375.434 18.0367 376.478 18.0364C377.025 18.0362 377.812 15.9744 378.462 13.8632H373.246Z" fill="#E2E2E2"/>
<ellipse rx="5.63576" ry="4.58168" transform="matrix(-1 0 0 1 390.738 37.021)" fill="#969696"/>
<path d="M391.597 34.2368C391.704 34.2368 391.893 34.548 391.917 34.6025C391.941 34.657 390.786 35.8063 390.683 35.8139C390.58 35.8215 389.61 34.657 389.563 34.6025C389.516 34.548 389.815 34.2368 389.952 34.2368H391.597Z" fill="#272727" stroke="#272727"/>
<ellipse rx="5.32579" ry="5.23736" transform="matrix(-1 0 0 1 380.622 30.5766)" fill="white"/>
<ellipse rx="3.45497" ry="3.45518" transform="matrix(-1 0 0 1 380.017 31.7812)" fill="#292929"/>
<ellipse rx="5.32579" ry="5.23736" transform="matrix(-1 0 0 1 400.854 30.5766)" fill="white"/>
<ellipse rx="3.45426" ry="3.45448" transform="matrix(-1 0 0 1 401.739 29.5684)" fill="#292929"/>
<path d="M390.74 37.0847C391.39 37.0989 393.452 37.8617 393.466 38.2996C393.48 38.7375 391.39 39.5002 390.74 39.5144C390.09 39.5285 388.099 38.6951 388.113 38.2996C388.127 37.904 390.09 37.0706 390.74 37.0847Z" fill="#353535" stroke="#353535"/>
<path d="M391.945 39.1477C392.005 38.9677 392.249 37.9348 392.208 37.9113C392.166 37.8878 390.792 37.9113 390.792 37.9113C390.792 37.9113 389.404 37.8752 389.371 37.9113C389.338 37.9473 389.644 39.1477 389.644 39.1477C389.644 39.1477 389.745 39.941 389.918 40.1564C390.091 40.3718 390.328 40.7446 390.792 40.7446C391.257 40.7446 391.548 40.2848 391.635 40.1564C391.722 40.028 391.885 39.3278 391.945 39.1477Z" fill="#CECECE" stroke="#CECECE"/>
<path d="M332.255 44.2623C333.961 47.0494 336.323 48.1089 336.323 48.1089L333.222 49.9502C333.222 49.9502 328.388 46.9925 328.16 46.1962C327.933 45.3999 327.961 43.3238 328.16 42.4422C328.359 41.5606 328.825 39.219 329.474 39.3233C330.122 39.4276 330.549 41.4752 332.255 44.2623Z" fill="#E2E2E2"/>
<path fill-rule="evenodd" clip-rule="evenodd" d="M421.733 78.8233C422.174 79.3508 422.274 79.4713 421.993 80.6622C421.556 82.5091 418.062 79.6059 417.586 78.6466C417.3 78.0705 422.013 62.8343 425.823 50.7527L428.785 52.1048C424.35 61.4235 419.719 72.6876 420.701 77.3335C421.143 78.1184 421.49 78.5326 421.733 78.8233Z" fill="#E2E2E2"/>
<path fill-rule="evenodd" clip-rule="evenodd" d="M427.184 81.9378C427.829 82.176 427.976 82.2304 428.325 83.4035C428.865 85.223 424.389 84.4429 423.499 83.8476C422.965 83.49 419.472 67.9289 416.767 55.5529L420.008 55.2524C420.798 65.542 422.385 77.6171 425.548 81.1589C426.322 81.6196 426.829 81.8066 427.184 81.9378Z" fill="#E2E2E2"/>
<path fill-rule="evenodd" clip-rule="evenodd" d="M476.416 81.1499C477.084 81.3137 477.236 81.3511 477.715 82.4774C478.457 84.2243 473.922 83.9546 472.971 83.4636C472.399 83.1687 467.171 68.1016 463.085 56.1103L466.272 55.4457C468.219 65.5802 471.16 77.3989 474.702 80.5608C475.524 80.931 476.048 81.0596 476.416 81.1499Z" fill="#E2E2E2"/>
<path fill-rule="evenodd" clip-rule="evenodd" d="M469.204 78.5C469.644 79.0282 469.745 79.1488 469.461 80.3392C469.022 82.1856 465.532 79.2773 465.058 78.3173C464.773 77.7408 469.507 62.5114 473.335 50.4354L476.294 51.7917C471.847 61.104 467.199 72.3614 468.174 77.0088C468.616 77.7943 468.961 78.209 469.204 78.5Z" fill="#E2E2E2"/>
<ellipse rx="34.5393" ry="17.236" transform="matrix(-1 0 0 1 444.956 55.5356)" fill="#E2E2E2"/>
<ellipse rx="10.8002" ry="14.1345" transform="matrix(-0.859601 -0.510965 -0.510918 0.85963 469.496 53.6256)" fill="#E2E2E2"/>
<ellipse rx="10.8002" ry="14.1345" transform="matrix(-0.859602 -0.510965 -0.510918 0.85963 460.248 50.1083)" fill="#E2E2E2"/>
<ellipse rx="19.2621" ry="14.8277" transform="matrix(-1 0 0 1 472.738 30.5766)" fill="#E2E2E2"/>
<path d="M491.177 17.3636C491.355 18.3957 492.092 26.636 491.177 26.5833C490.263 26.5306 482.526 18.8193 482.526 18.8193C482.526 18.8193 484.543 13.509 484.807 12.9963C485.072 12.4836 486.995 8.82279 488.04 8.82315C489.084 8.82351 490.999 16.3314 491.177 17.3636Z" fill="#E2E2E2" stroke="#E2E2E2"/>
<path d="M490.32 16.9924C490.46 17.8086 491.043 24.3255 490.32 24.2838C489.596 24.2421 483.478 18.1436 483.478 18.1436C483.478 18.1436 485.073 13.944 485.282 13.5386C485.492 13.1331 487.013 10.238 487.839 10.2383C488.665 10.2385 490.179 16.1761 490.32 16.9924Z" fill="#606060" stroke="#E2E2E2"/>
<path fill-rule="evenodd" clip-rule="evenodd" d="M460.34 13.7716H455.124C454.534 15.6892 454.055 17.6476 453.971 18.1389C453.793 19.171 453.056 27.4113 453.971 27.3586C454.885 27.3059 462.622 19.5946 462.622 19.5946C462.622 19.5946 460.605 14.2843 460.34 13.7716Z" fill="#E2E2E2"/>
<path fill-rule="evenodd" clip-rule="evenodd" d="M459.866 14.3138H455.741C455.274 15.8304 454.895 17.3791 454.829 17.7677C454.688 18.5839 454.105 25.1007 454.829 25.059C455.552 25.0173 461.67 18.9189 461.67 18.9189C461.67 18.9189 460.075 14.7193 459.866 14.3138Z" fill="#606060"/>
<path d="M455.246 13.8632C455.511 14.3759 457.434 18.0367 458.478 18.0364C459.025 18.0362 459.812 15.9744 460.462 13.8632H455.246Z" fill="#E2E2E2"/>
<ellipse rx="5.63576" ry="4.58168" transform="matrix(-1 0 0 1 472.738 37.021)" fill="#969696"/>
<path d="M473.597 34.2368C473.704 34.2368 473.893 34.548 473.917 34.6025C473.941 34.657 472.786 35.8063 472.683 35.8139C472.58 35.8215 471.61 34.657 471.563 34.6025C471.516 34.548 471.815 34.2368 471.952 34.2368H473.597Z" fill="#272727" stroke="#272727"/>
<ellipse rx="5.32579" ry="5.23736" transform="matrix(-1 0 0 1 462.622 30.5766)" fill="white"/>
<ellipse rx="3.45497" ry="3.45518" transform="matrix(-1 0 0 1 462.017 31.7812)" fill="#292929"/>
<ellipse rx="5.32579" ry="5.23736" transform="matrix(-1 0 0 1 482.854 30.5766)" fill="white"/>
<ellipse rx="3.45426" ry="3.45448" transform="matrix(-1 0 0 1 483.739 29.5684)" fill="#292929"/>
<path d="M472.74 37.0847C473.39 37.0989 475.452 37.8617 475.466 38.2996C475.48 38.7375 473.39 39.5002 472.74 39.5144C472.09 39.5285 470.099 38.6951 470.113 38.2996C470.127 37.904 472.09 37.0706 472.74 37.0847Z" fill="#353535" stroke="#353535"/>
<path d="M473.945 39.1477C474.005 38.9677 474.249 37.9348 474.208 37.9113C474.166 37.8878 472.792 37.9113 472.792 37.9113C472.792 37.9113 471.404 37.8752 471.371 37.9113C471.338 37.9473 471.644 39.1477 471.644 39.1477C471.644 39.1477 471.745 39.941 471.918 40.1564C472.091 40.3718 472.328 40.7446 472.792 40.7446C473.257 40.7446 473.548 40.2848 473.635 40.1564C473.722 40.028 473.885 39.3278 473.945 39.1477Z" fill="#CECECE" stroke="#CECECE"/>
<path d="M414.255 44.2623C415.961 47.0494 418.323 48.109 418.323 48.109L415.222 49.9502C415.222 49.9502 410.388 46.9925 410.16 46.1962C409.933 45.3999 409.961 43.3238 410.16 42.4422C410.359 41.5606 410.825 39.219 411.474 39.3233C412.122 39.4276 412.549 41.4753 414.255 44.2623Z" fill="#E2E2E2"/>
<path fill-rule="evenodd" clip-rule="evenodd" d="M499.998 77.4646C500.33 78.0662 500.405 78.2035 499.901 79.3171C499.118 81.0441 496.245 77.5297 495.962 76.4982C495.792 75.8789 503.335 61.8439 509.389 50.729L512.036 52.621C505.9 60.908 499.197 71.0646 499.27 75.8068C499.554 76.6609 499.815 77.1332 499.998 77.4646Z" fill="#E2E2E2"/>
<path fill-rule="evenodd" clip-rule="evenodd" d="M512.839 80.3544C513.518 80.4644 513.673 80.4896 514.24 81.573C515.118 83.2533 510.577 83.3452 509.589 82.9319C508.996 82.6838 502.585 68.0979 497.558 56.4836L500.682 55.5686C503.429 65.5042 507.301 77.0376 511.084 79.9041C511.932 80.2075 512.465 80.2938 512.839 80.3544Z" fill="#E2E2E2"/>
<path fill-rule="evenodd" clip-rule="evenodd" d="M562.112 79.0048C562.8 79.0281 562.956 79.0335 563.656 80.0365C564.74 81.5922 560.247 82.2577 559.215 81.9726C558.595 81.8014 550.387 68.1435 543.928 57.2584L546.911 55.9558C550.896 65.464 556.198 76.415 560.314 78.7801C561.194 78.9737 561.734 78.992 562.112 79.0048Z" fill="#E2E2E2"/>
<path fill-rule="evenodd" clip-rule="evenodd" d="M548.193 77.4459C548.546 78.0348 548.627 78.1692 548.164 79.3006C547.446 81.0553 544.445 77.6491 544.124 76.6288C543.931 76.0161 550.951 61.7128 556.59 50.3826L559.306 52.1758C553.479 60.6832 547.156 71.0797 547.404 75.816C547.72 76.659 547.998 77.1214 548.193 77.4459Z" fill="#E2E2E2"/>
<ellipse rx="34.5393" ry="17.2155" transform="matrix(-1 0 0 1 526.956 55.4698)" fill="#E2E2E2"/>
<ellipse rx="10.7969" ry="14.1221" transform="matrix(-0.859869 -0.510515 -0.511368 0.859362 551.496 53.562)" fill="#E2E2E2"/>
<ellipse rx="10.7969" ry="14.1221" transform="matrix(-0.859869 -0.510515 -0.511368 0.859362 542.248 50.0489)" fill="#E2E2E2"/>
<ellipse rx="19.2621" ry="14.81" transform="matrix(-1 0 0 1 554.738 30.5405)" fill="#E2E2E2"/>
<path d="M573.177 17.3432C573.355 18.3741 574.092 26.6046 573.177 26.552C572.263 26.4993 564.526 18.7972 564.526 18.7972C564.526 18.7972 566.543 13.4932 566.807 12.9812C567.072 12.4691 568.996 8.81262 570.04 8.81297C571.084 8.81333 572.999 16.3123 573.177 17.3432Z" fill="#E2E2E2" stroke="#E2E2E2"/>
<path d="M572.32 16.9725C572.46 17.7877 573.043 24.2968 572.32 24.2552C571.596 24.2135 565.478 18.1224 565.478 18.1224C565.478 18.1224 567.073 13.9277 567.282 13.5228C567.492 13.1178 569.013 10.2261 569.839 10.2264C570.665 10.2267 572.179 16.1572 572.32 16.9725Z" fill="#606060" stroke="#E2E2E2"/>
<path fill-rule="evenodd" clip-rule="evenodd" d="M542.34 13.7555H537.124C536.534 15.6708 536.055 17.6269 535.971 18.1176C535.793 19.1485 535.056 27.379 535.971 27.3264C536.885 27.2737 544.622 19.5716 544.622 19.5716C544.622 19.5716 542.605 14.2676 542.34 13.7555Z" fill="#E2E2E2"/>
<path fill-rule="evenodd" clip-rule="evenodd" d="M541.866 14.2971H537.741C537.274 15.8118 536.896 17.3588 536.829 17.7468C536.688 18.5621 536.105 25.0712 536.829 25.0295C537.552 24.9879 543.67 18.8967 543.67 18.8967C543.67 18.8967 542.075 14.7021 541.866 14.2971Z" fill="#606060"/>
<path d="M537.246 13.8471C537.511 14.3591 539.434 18.0156 540.478 18.0152C541.026 18.0151 541.812 15.9557 542.462 13.8471H537.246Z" fill="#E2E2E2"/>
<ellipse rx="5.63576" ry="4.57622" transform="matrix(-1 0 0 1 554.738 36.9772)" fill="#969696"/>
<path d="M555.597 34.1964C555.704 34.1964 555.893 34.5072 555.917 34.5617C555.941 34.6161 554.786 35.764 554.683 35.7716C554.58 35.7792 553.61 34.6161 553.563 34.5617C553.516 34.5072 553.815 34.1964 553.952 34.1964H555.597Z" fill="#272727" stroke="#272727"/>
<ellipse rx="5.32579" ry="5.23112" transform="matrix(-1 0 0 1 544.622 30.5405)" fill="white"/>
<ellipse rx="3.45497" ry="3.45107" transform="matrix(-1 0 0 1 544.017 31.7437)" fill="#292929"/>
<ellipse rx="5.32579" ry="5.23112" transform="matrix(-1 0 0 1 564.854 30.5405)" fill="white"/>
<ellipse rx="3.45426" ry="3.45036" transform="matrix(-1 0 0 1 565.739 29.5336)" fill="#292929"/>
<path d="M554.74 37.0409C555.39 37.055 557.452 37.8169 557.466 38.2543C557.48 38.6916 555.39 39.4535 554.74 39.4676C554.09 39.4817 552.099 38.6493 552.113 38.2543C552.127 37.8592 554.09 37.0268 554.74 37.0409Z" fill="#353535" stroke="#353535"/>
<path d="M555.945 39.1014C556.005 38.9216 556.249 37.8899 556.208 37.8665C556.167 37.843 554.792 37.8665 554.792 37.8665C554.792 37.8665 553.404 37.8304 553.371 37.8665C553.338 37.9025 553.644 39.1014 553.644 39.1014C553.644 39.1014 553.745 39.8937 553.918 40.1089C554.091 40.324 554.328 40.6964 554.792 40.6964C555.257 40.6964 555.548 40.2371 555.635 40.1089C555.722 39.9806 555.885 39.2813 555.945 39.1014Z" fill="#CECECE" stroke="#CECECE"/>
<path d="M496.255 44.2099C497.961 46.9937 500.323 48.052 500.323 48.052L497.222 49.8911C497.222 49.8911 492.388 46.9369 492.16 46.1415C491.933 45.3462 491.961 43.2726 492.16 42.392C492.359 41.5114 492.825 39.1726 493.474 39.2768C494.122 39.381 494.549 41.4262 496.255 44.2099Z" fill="#E2E2E2"/>
<path fill-rule="evenodd" clip-rule="evenodd" d="M585.733 78.7297C586.174 79.2567 586.274 79.3769 585.993 80.5664C585.556 82.4112 582.062 79.5114 581.586 78.5532C581.3 77.9779 586.013 62.7598 589.823 50.6926L592.785 52.0431C588.35 61.3507 583.719 72.6014 584.701 77.2418C585.143 78.0257 585.49 78.4394 585.733 78.7297Z" fill="#E2E2E2"/>
<path fill-rule="evenodd" clip-rule="evenodd" d="M591.184 81.8405C591.829 82.0784 591.976 82.1327 592.325 83.3045C592.865 85.1219 588.389 84.3427 587.499 83.748C586.965 83.3909 583.472 67.8483 580.767 55.487L584.008 55.187C584.798 65.4642 586.385 77.525 589.548 81.0626C590.322 81.5227 590.829 81.7095 591.184 81.8405Z" fill="#E2E2E2"/>
<path fill-rule="evenodd" clip-rule="evenodd" d="M640.416 81.0535C641.084 81.2172 641.237 81.2545 641.715 82.3795C642.457 84.1243 637.922 83.855 636.971 83.3645C636.399 83.07 631.171 68.0208 627.085 56.0438L630.272 55.38C632.219 65.5024 635.16 77.307 638.702 80.4652C639.524 80.8349 640.048 80.9634 640.416 81.0535Z" fill="#E2E2E2"/>
<path fill-rule="evenodd" clip-rule="evenodd" d="M633.204 78.4068C633.644 78.9344 633.745 79.0548 633.461 80.2439C633.022 82.088 629.532 79.1832 629.058 78.2243C628.773 77.6486 633.507 62.4373 637.335 50.3756L640.294 51.7304C635.847 61.0315 631.199 72.2756 632.174 76.9174C632.616 77.7019 632.961 78.1161 633.204 78.4068Z" fill="#E2E2E2"/>
<ellipse rx="34.5393" ry="17.2155" transform="matrix(-1 0 0 1 608.956 55.4698)" fill="#E2E2E2"/>
<ellipse rx="10.7969" ry="14.1221" transform="matrix(-0.859869 -0.510515 -0.511368 0.859362 633.496 53.562)" fill="#E2E2E2"/>
<ellipse rx="10.7969" ry="14.1221" transform="matrix(-0.859869 -0.510515 -0.511368 0.859362 624.248 50.0489)" fill="#E2E2E2"/>
<ellipse rx="19.2621" ry="14.81" transform="matrix(-1 0 0 1 636.738 30.5405)" fill="#E2E2E2"/>
<path d="M655.177 17.3432C655.355 18.3741 656.092 26.6046 655.177 26.552C654.263 26.4993 646.526 18.7972 646.526 18.7972C646.526 18.7972 648.543 13.4932 648.807 12.9812C649.072 12.4691 650.996 8.81262 652.04 8.81297C653.084 8.81333 654.999 16.3123 655.177 17.3432Z" fill="#E2E2E2" stroke="#E2E2E2"/>
<path d="M654.32 16.9725C654.46 17.7877 655.043 24.2968 654.32 24.2552C653.596 24.2135 647.478 18.1224 647.478 18.1224C647.478 18.1224 649.073 13.9277 649.282 13.5228C649.492 13.1178 651.013 10.2261 651.839 10.2264C652.665 10.2267 654.179 16.1572 654.32 16.9725Z" fill="#606060" stroke="#E2E2E2"/>
<path fill-rule="evenodd" clip-rule="evenodd" d="M624.34 13.7555H619.124C618.534 15.6708 618.055 17.6269 617.971 18.1176C617.793 19.1485 617.056 27.379 617.971 27.3264C618.885 27.2737 626.622 19.5716 626.622 19.5716C626.622 19.5716 624.605 14.2676 624.34 13.7555Z" fill="#E2E2E2"/>
<path fill-rule="evenodd" clip-rule="evenodd" d="M623.866 14.2971H619.741C619.274 15.8118 618.896 17.3588 618.829 17.7468C618.688 18.5621 618.105 25.0712 618.829 25.0295C619.552 24.9879 625.67 18.8967 625.67 18.8967C625.67 18.8967 624.075 14.7021 623.866 14.2971Z" fill="#606060"/>
<path d="M619.246 13.8471C619.511 14.3591 621.434 18.0156 622.478 18.0152C623.026 18.0151 623.812 15.9557 624.462 13.8471H619.246Z" fill="#E2E2E2"/>
<ellipse rx="5.63576" ry="4.57622" transform="matrix(-1 0 0 1 636.738 36.9772)" fill="#969696"/>
<path d="M637.597 34.1964C637.704 34.1964 637.893 34.5072 637.917 34.5617C637.941 34.6161 636.786 35.764 636.683 35.7716C636.58 35.7792 635.61 34.6161 635.563 34.5617C635.516 34.5072 635.815 34.1964 635.952 34.1964H637.597Z" fill="#272727" stroke="#272727"/>
<ellipse rx="5.32579" ry="5.23112" transform="matrix(-1 0 0 1 626.622 30.5405)" fill="white"/>
<ellipse rx="3.45497" ry="3.45107" transform="matrix(-1 0 0 1 626.017 31.7437)" fill="#292929"/>
<ellipse rx="5.32579" ry="5.23112" transform="matrix(-1 0 0 1 646.854 30.5405)" fill="white"/>
<ellipse rx="3.45426" ry="3.45036" transform="matrix(-1 0 0 1 647.739 29.5336)" fill="#292929"/>
<path d="M636.74 37.0409C637.39 37.055 639.452 37.8169 639.466 38.2543C639.48 38.6916 637.39 39.4535 636.74 39.4676C636.09 39.4817 634.099 38.6493 634.113 38.2543C634.127 37.8592 636.09 37.0268 636.74 37.0409Z" fill="#353535" stroke="#353535"/>
<path d="M637.945 39.1014C638.005 38.9216 638.249 37.8899 638.208 37.8665C638.167 37.843 636.792 37.8665 636.792 37.8665C636.792 37.8665 635.404 37.8304 635.371 37.8665C635.338 37.9025 635.644 39.1014 635.644 39.1014C635.644 39.1014 635.745 39.8937 635.918 40.1089C636.091 40.324 636.328 40.6964 636.792 40.6964C637.257 40.6964 637.548 40.2371 637.635 40.1089C637.722 39.9806 637.885 39.2813 637.945 39.1014Z" fill="#CECECE" stroke="#CECECE"/>
<path d="M578.255 44.2099C579.962 46.9937 582.323 48.052 582.323 48.052L579.222 49.8911C579.222 49.8911 574.388 46.9369 574.16 46.1415C573.933 45.3462 573.961 43.2726 574.16 42.392C574.359 41.5114 574.825 39.1726 575.474 39.2768C576.122 39.381 576.549 41.4262 578.255 44.2099Z" fill="#E2E2E2"/>
<path fill-rule="evenodd" clip-rule="evenodd" d="M673.865 79.3147C674.443 79.6876 674.575 79.7727 674.659 80.9935C674.79 82.8869 670.592 81.1513 669.853 80.3765C669.409 79.9112 669.388 63.9629 669.441 51.2947L672.671 51.7071C671.202 61.9218 670.122 74.0529 672.438 78.1983C673.093 78.8164 673.547 79.1092 673.865 79.3147Z" fill="#E2E2E2"/>
<path fill-rule="evenodd" clip-rule="evenodd" d="M668.768 82.7433C669.346 83.1162 669.478 83.2013 669.562 84.4221C669.693 86.3156 665.495 84.58 664.756 83.8051C664.312 83.3398 664.291 67.3915 664.344 54.7233L667.573 55.1357C666.104 65.3505 665.025 77.4815 667.341 81.6269C667.996 82.2451 668.45 82.5378 668.768 82.7433Z" fill="#E2E2E2"/>
<path fill-rule="evenodd" clip-rule="evenodd" d="M715.82 82.7433C716.397 83.1162 716.529 83.2013 716.614 84.4221C716.745 86.3156 712.546 84.58 711.807 83.8051C711.364 83.3398 711.342 67.3915 711.396 54.7233L714.625 55.1357C713.156 65.3505 712.076 77.4815 714.392 81.6269C715.048 82.2451 715.501 82.5378 715.82 82.7433Z" fill="#E2E2E2"/>
<path fill-rule="evenodd" clip-rule="evenodd" d="M721.365 78.9982C721.943 79.3711 722.075 79.4562 722.16 80.677C722.29 82.5704 718.092 80.8348 717.353 80.06C716.909 79.5947 716.888 63.6464 716.941 50.9782L720.171 51.3906C718.702 61.6053 717.622 73.7364 719.938 77.8818C720.594 78.4999 721.047 78.7927 721.365 78.9982Z" fill="#E2E2E2"/>
<ellipse rx="34.5393" ry="17.236" transform="matrix(-1 0 0 1 690.956 55.5356)" fill="#E2E2E2"/>
<ellipse rx="10.8002" ry="14.1345" transform="matrix(-0.859601 -0.510965 -0.510918 0.85963 715.496 53.6256)" fill="#E2E2E2"/>
<ellipse rx="10.8002" ry="14.1345" transform="matrix(-0.859602 -0.510965 -0.510918 0.85963 706.248 50.1083)" fill="#E2E2E2"/>
<ellipse rx="19.2621" ry="14.8277" transform="matrix(-1 0 0 1 718.738 30.5766)" fill="#E2E2E2"/>
<path d="M737.177 17.3636C737.355 18.3957 738.092 26.636 737.177 26.5833C736.263 26.5306 728.526 18.8193 728.526 18.8193C728.526 18.8193 730.543 13.509 730.807 12.9963C731.072 12.4836 732.995 8.82279 734.04 8.82315C735.084 8.82351 736.999 16.3314 737.177 17.3636Z" fill="#E2E2E2" stroke="#E2E2E2"/>
<path d="M736.32 16.9924C736.46 17.8086 737.043 24.3255 736.32 24.2838C735.596 24.2421 729.478 18.1436 729.478 18.1436C729.478 18.1436 731.073 13.944 731.282 13.5386C731.492 13.1331 733.013 10.238 733.839 10.2383C734.665 10.2385 736.179 16.1761 736.32 16.9924Z" fill="#606060" stroke="#E2E2E2"/>
<path fill-rule="evenodd" clip-rule="evenodd" d="M706.34 13.7716H701.124C700.534 15.6892 700.055 17.6476 699.971 18.1389C699.793 19.171 699.056 27.4113 699.971 27.3586C700.885 27.3059 708.622 19.5946 708.622 19.5946C708.622 19.5946 706.605 14.2843 706.34 13.7716Z" fill="#E2E2E2"/>
<path fill-rule="evenodd" clip-rule="evenodd" d="M705.866 14.3138H701.741C701.274 15.8304 700.895 17.3791 700.829 17.7677C700.688 18.5839 700.105 25.1007 700.829 25.059C701.552 25.0173 707.67 18.9189 707.67 18.9189C707.67 18.9189 706.075 14.7193 705.866 14.3138Z" fill="#606060"/>
<path d="M701.246 13.8632C701.511 14.3759 703.434 18.0367 704.478 18.0364C705.026 18.0362 705.812 15.9744 706.462 13.8632H701.246Z" fill="#E2E2E2"/>
<ellipse rx="5.63576" ry="4.58168" transform="matrix(-1 0 0 1 718.738 37.021)" fill="#969696"/>
<path d="M719.597 34.2368C719.704 34.2368 719.893 34.548 719.917 34.6025C719.941 34.657 718.786 35.8063 718.683 35.8139C718.58 35.8215 717.61 34.657 717.563 34.6025C717.516 34.548 717.815 34.2368 717.952 34.2368H719.597Z" fill="#272727" stroke="#272727"/>
<ellipse rx="5.32579" ry="5.23736" transform="matrix(-1 0 0 1 708.622 30.5766)" fill="white"/>
<ellipse rx="3.45497" ry="3.45518" transform="matrix(-1 0 0 1 708.017 31.7812)" fill="#292929"/>
<ellipse rx="5.32579" ry="5.23736" transform="matrix(-1 0 0 1 728.854 30.5766)" fill="white"/>
<ellipse rx="3.45426" ry="3.45448" transform="matrix(-1 0 0 1 729.739 29.5684)" fill="#292929"/>
<path d="M718.74 37.0847C719.39 37.0989 721.452 37.8617 721.466 38.2996C721.48 38.7375 719.39 39.5002 718.74 39.5144C718.09 39.5285 716.099 38.6951 716.113 38.2996C716.127 37.904 718.09 37.0706 718.74 37.0847Z" fill="#353535" stroke="#353535"/>
<path d="M719.945 39.1477C720.005 38.9677 720.249 37.9348 720.208 37.9113C720.166 37.8878 718.792 37.9113 718.792 37.9113C718.792 37.9113 717.404 37.8752 717.371 37.9113C717.338 37.9473 717.644 39.1477 717.644 39.1477C717.644 39.1477 717.745 39.941 717.918 40.1564C718.091 40.3718 718.328 40.7446 718.792 40.7446C719.257 40.7446 719.548 40.2848 719.635 40.1564C719.722 40.028 719.885 39.3278 719.945 39.1477Z" fill="#CECECE" stroke="#CECECE"/>
<path d="M660.255 44.2623C661.962 47.0494 664.323 48.1089 664.323 48.1089L661.222 49.9502C661.222 49.9502 656.388 46.9925 656.16 46.1962C655.933 45.3999 655.961 43.3238 656.16 42.4422C656.359 41.5606 656.825 39.219 657.474 39.3233C658.122 39.4276 658.549 41.4752 660.255 44.2623Z" fill="#E2E2E2"/>
</svg>
