<svg width="738" height="178" viewBox="0 0 738 178" fill="none" xmlns="http://www.w3.org/2000/svg">
<path fill-rule="evenodd" clip-rule="evenodd" d="M516.685 167.056L521.736 165.329L524.989 174.841L521.622 175.992L519.938 176.568L516.571 177.72L516.029 176.134C515.729 175.259 516.24 174.291 517.17 173.973L518.854 173.397L516.685 167.056Z" fill="#606060"/>
<path d="M516.856 151.062L511.805 152.789L512.348 154.375L517.399 152.647L516.856 151.062Z" fill="#C4C4C4"/>
<path d="M517.941 154.233L512.89 155.96L513.432 157.545L518.483 155.818L517.941 154.233Z" fill="#C4C4C4"/>
<path d="M519.025 157.404L513.975 159.13L514.517 160.716L519.567 158.989L519.025 157.404Z" fill="#C4C4C4"/>
<path d="M520.109 160.573L515.059 162.301L515.601 163.886L520.651 162.159L520.109 160.573Z" fill="#C4C4C4"/>
<path d="M521.194 163.744L516.143 165.471L516.685 167.056L521.736 165.329L521.194 163.744Z" fill="#C4C4C4"/>
<path d="M515.601 163.886L520.651 162.159L521.194 163.744L516.143 165.471L515.601 163.886Z" fill="#232323"/>
<path d="M512.348 154.375L517.399 152.647L517.941 154.233L512.89 155.96L512.348 154.375Z" fill="#232323"/>
<path d="M513.432 157.545L518.483 155.818L519.025 157.404L513.974 159.13L513.432 157.545Z" fill="#232323"/>
<path d="M514.516 160.716L519.567 158.989L520.109 160.573L515.059 162.301L514.516 160.716Z" fill="#232323"/>
<path fill-rule="evenodd" clip-rule="evenodd" d="M502.045 166.335L506.961 168.415L503.042 177.673L499.764 176.285L498.126 175.592L494.849 174.205L495.502 172.663C495.863 171.811 496.888 171.43 497.794 171.813L499.432 172.506L502.045 166.335Z" fill="#606060"/>
<path d="M512.839 154.529L507.923 152.449L507.27 153.992L512.186 156.072L512.839 154.529Z" fill="#C4C4C4"/>
<path d="M511.532 157.615L506.617 155.535L505.964 157.078L510.879 159.158L511.532 157.615Z" fill="#C4C4C4"/>
<path d="M510.226 160.701L505.31 158.621L504.657 160.164L509.573 162.244L510.226 160.701Z" fill="#C4C4C4"/>
<path d="M508.92 163.786L504.004 161.706L503.351 163.249L508.267 165.329L508.92 163.786Z" fill="#C4C4C4"/>
<path d="M507.614 166.872L502.698 164.792L502.045 166.335L506.961 168.415L507.614 166.872Z" fill="#C4C4C4"/>
<path d="M503.351 163.249L508.267 165.329L507.614 166.872L502.698 164.792L503.351 163.249Z" fill="#232323"/>
<path d="M507.27 153.992L512.186 156.072L511.532 157.615L506.617 155.535L507.27 153.992Z" fill="#232323"/>
<path d="M505.964 157.078L510.879 159.158L510.226 160.701L505.31 158.621L505.964 157.078Z" fill="#232323"/>
<path d="M504.657 160.164L509.573 162.244L508.92 163.786L504.004 161.706L504.657 160.164Z" fill="#232323"/>
<path d="M511.886 110.239C511.488 109.66 510.672 109.521 510.046 109.925C509.423 110.327 509.212 111.121 509.569 111.722L521.986 132.615C522.47 133.43 523.575 133.653 524.421 133.106L525.079 132.681C525.92 132.138 526.174 131.049 525.64 130.272L511.886 110.239Z" fill="white"/>
<path d="M510.284 89.2324L493.334 154.572H527.234L510.284 89.2324Z" fill="#232323"/>
<path d="M512.225 110.33C512.205 109.628 511.595 109.069 510.849 109.069C510.108 109.069 509.5 109.622 509.474 110.319L508.57 134.606C508.534 135.554 509.34 136.34 510.348 136.34H511.132C512.133 136.34 512.937 135.563 512.91 134.62L512.225 110.33Z" fill="white"/>
<path d="M464.451 53.2019C464.451 81.8858 468.899 102.635 508.044 102.635C558.754 102.635 550.747 81.8858 550.747 53.2019C550.747 24.5181 532.12 3.78815 508.044 3.78815C483.968 3.78815 464.451 24.5181 464.451 53.2019Z" fill="#F5F5F5"/>
<path d="M480.926 75.8296C477.486 75.8296 474.698 73.2039 474.698 69.9656C474.698 66.7273 477.486 64.1017 480.926 64.1017C484.365 64.1017 487.153 66.7273 487.153 69.9656C487.153 73.2039 484.365 75.8296 480.926 75.8296Z" fill="#232323"/>
<path d="M465.802 70.8033L462.72 80.8553H468.884L465.802 70.8033Z" fill="#F5F5F5"/>
<path d="M480.645 88.4375C481.111 88.2912 481.614 88.5283 481.77 88.9673C481.925 89.4062 481.673 89.8805 481.207 90.0268L480.645 88.4375ZM475.588 90.9078C475.097 90.9078 474.698 90.5328 474.698 90.0701C474.698 89.6074 475.097 89.2324 475.588 89.2324V90.9078ZM481.207 90.0268L479.908 90.4351L479.345 88.8458L480.645 88.4375L481.207 90.0268ZM476.813 90.9078H475.588V89.2324H476.813V90.9078ZM479.908 90.4351C478.91 90.7483 477.865 90.9078 476.813 90.9078V89.2324C477.674 89.2324 478.528 89.1019 479.345 88.8458L479.908 90.4351Z" fill="black"/>
<path d="M464.034 36.2452L463.363 39.4614C462.618 43.0354 462.243 46.6688 462.243 50.3108V57.4H493.408C499.482 57.4 504.407 62.037 504.407 67.7573V101.798L516.894 104.278C522.598 105.412 528.438 105.806 534.255 105.452L552.988 104.311V83.3684V64.1017V50.9737C552.988 46.8959 552.466 42.8331 551.434 38.8729C549.442 31.2248 545.588 24.1177 540.177 18.113L537.751 15.4205C536.3 13.8115 534.707 12.3176 532.992 10.9593C525.786 5.25217 516.66 2.11276 507.244 2.11276C499.99 2.11276 492.873 3.97127 486.654 7.48916L484.588 8.65846C479.52 11.5253 475.117 15.3226 471.64 19.8245C467.865 24.7114 465.269 30.3156 464.034 36.2452Z" fill="#232323"/>
<path d="M510.284 89.2324L493.334 154.572H527.234L510.284 89.2324Z" fill="#232323"/>
<path d="M509.889 112.237C510.357 111.713 510.298 110.888 509.757 110.375C509.218 109.866 508.396 109.849 507.898 110.338L490.544 127.356C489.868 128.02 489.913 129.145 490.644 129.837L491.213 130.376C491.941 131.064 493.059 131.052 493.688 130.349L509.889 112.237Z" fill="white"/>
<path d="M464.451 53.2019C464.451 81.8858 468.899 102.635 508.044 102.635C558.754 102.635 550.747 81.8858 550.747 53.2019C550.747 24.5181 532.12 3.78815 508.044 3.78815C483.968 3.78815 464.451 24.5181 464.451 53.2019Z" fill="#F5F5F5"/>
<path d="M480.926 75.8296C477.486 75.8296 474.698 73.2039 474.698 69.9656C474.698 66.7273 477.486 64.1017 480.926 64.1017C484.365 64.1017 487.153 66.7273 487.153 69.9656C487.153 73.2039 484.365 75.8296 480.926 75.8296Z" fill="#232323"/>
<path d="M465.802 70.8033L462.72 80.8553H468.884L465.802 70.8033Z" fill="#F5F5F5"/>
<path d="M480.645 88.438C481.111 88.2912 481.614 88.5283 481.77 88.9673C481.925 89.4067 481.673 89.8805 481.207 90.0268L480.645 88.438ZM475.588 90.9078C475.097 90.9078 474.698 90.5328 474.698 90.0701C474.698 89.6074 475.097 89.2324 475.588 89.2324V90.9078ZM481.207 90.0268L479.908 90.4351L479.345 88.8458L480.645 88.438L481.207 90.0268ZM476.813 90.9078H475.588V89.2324H476.813V90.9078ZM479.908 90.4351C478.91 90.7483 477.865 90.9078 476.813 90.9078V89.2324C477.674 89.2324 478.528 89.1019 479.345 88.8458L479.908 90.4351Z" fill="black"/>
<path d="M464.034 36.2452L463.363 39.4614C462.618 43.0354 462.243 46.6688 462.243 50.3108V57.4H493.408C499.482 57.4 504.407 62.037 504.407 67.7573V101.798L516.894 104.278C522.598 105.412 528.438 105.806 534.255 105.452L552.988 104.311V83.3684V64.1017V50.9737C552.988 46.8959 552.466 42.8331 551.434 38.8729C549.442 31.2248 545.588 24.1177 540.177 18.113L537.751 15.4205C536.3 13.8115 534.707 12.3176 532.992 10.9593C525.786 5.25217 516.66 2.11276 507.244 2.11276C499.99 2.11276 492.873 3.97127 486.654 7.48916L484.588 8.65846C479.52 11.5253 475.117 15.3226 471.64 19.8245C467.865 24.7114 465.269 30.3156 464.034 36.2452Z" fill="#232323"/>
<path d="M498.086 20.6604L501.265 22.1655C502.143 22.5812 502.497 23.5882 502.056 24.4149L498.859 30.4024C498.417 31.229 497.348 31.5622 496.47 31.1465L493.29 29.6414C492.412 29.2257 492.058 28.2187 492.5 27.392L495.697 21.4046C496.138 20.5779 497.208 20.2447 498.086 20.6604Z" fill="#F5F5F5"/>
<path d="M497.278 25.9034L485.932 10.788L477.625 26.3436L497.278 25.9034Z" fill="#F5F5F5"/>
<path d="M497.278 25.9034L485.932 10.788L477.625 26.3436L497.278 25.9034Z" fill="#F5F5F5"/>
<path d="M497.278 25.9034L485.932 10.788L477.625 26.3436L497.278 25.9034Z" fill="#F5F5F5"/>
<path d="M497.278 25.9034L508.624 41.0189L516.93 25.4633L497.278 25.9034Z" fill="#F5F5F5"/>
<path d="M497.278 25.9034L508.624 41.0189L516.93 25.4633L497.278 25.9034Z" fill="#F5F5F5"/>
<path d="M497.278 25.9034L508.624 41.0189L516.93 25.4633L497.278 25.9034Z" fill="#F5F5F5"/>
<path fill-rule="evenodd" clip-rule="evenodd" d="M133.564 165.214L138.429 167.408L134.293 176.571L131.049 175.108L129.427 174.377L126.184 172.913L126.876 171.386C127.256 170.543 128.292 170.186 129.184 170.591L130.806 171.322L133.564 165.214Z" fill="#606060"/>
<path d="M144.631 153.664L139.766 151.469L139.079 152.997L143.944 155.191L144.631 153.664Z" fill="#C4C4C4"/>
<path d="M143.252 156.719L138.387 154.524L137.7 156.051L142.566 158.246L143.252 156.719Z" fill="#C4C4C4"/>
<path d="M141.874 159.773L137.008 157.578L136.321 159.105L141.187 161.3L141.874 159.773Z" fill="#C4C4C4"/>
<path d="M140.495 162.827L135.629 160.632L134.943 162.159L139.808 164.354L140.495 162.827Z" fill="#C4C4C4"/>
<path d="M139.116 165.881L134.251 163.686L133.564 165.214L138.429 167.408L139.116 165.881Z" fill="#C4C4C4"/>
<path d="M134.943 162.159L139.808 164.354L139.116 165.881L134.25 163.686L134.943 162.159Z" fill="#232323"/>
<path d="M139.079 152.997L143.944 155.191L143.252 156.719L138.387 154.524L139.079 152.997Z" fill="#232323"/>
<path d="M137.7 156.051L142.566 158.246L141.874 159.773L137.008 157.578L137.7 156.051Z" fill="#232323"/>
<path d="M136.321 159.105L141.187 161.3L140.495 162.827L135.629 160.632L136.321 159.105Z" fill="#232323"/>
<path fill-rule="evenodd" clip-rule="evenodd" d="M145.038 167.052L150.025 165.148L153.612 174.538L150.289 175.808L148.625 176.443L145.302 177.713L144.705 176.148C144.372 175.284 144.848 174.298 145.767 173.948L147.431 173.313L145.038 167.052Z" fill="#606060"/>
<path d="M144.642 151.062L139.655 152.967L140.252 154.532L145.239 152.627L144.642 151.062Z" fill="#C4C4C4"/>
<path d="M145.836 154.192L140.849 156.098L141.451 157.663L146.438 155.757L145.836 154.192Z" fill="#C4C4C4"/>
<path d="M147.035 157.322L142.048 159.228L142.645 160.793L147.632 158.887L147.035 157.322Z" fill="#C4C4C4"/>
<path d="M148.229 160.452L143.242 162.357L143.839 163.922L148.826 162.017L148.229 160.452Z" fill="#C4C4C4"/>
<path d="M149.428 163.583L144.441 165.487L145.038 167.052L150.025 165.148L149.428 163.583Z" fill="#C4C4C4"/>
<path d="M143.839 163.922L148.826 162.017L149.428 163.583L144.441 165.487L143.839 163.922Z" fill="#232323"/>
<path d="M140.252 154.532L145.239 152.627L145.836 154.192L140.849 156.098L140.252 154.532Z" fill="#232323"/>
<path d="M141.451 157.663L146.438 155.757L147.035 157.322L142.048 159.228L141.451 157.663Z" fill="#232323"/>
<path d="M142.645 160.793L147.632 158.887L148.229 160.452L143.242 162.357L142.645 160.793Z" fill="#232323"/>
<path d="M140.489 89.7606L123.542 155.1H157.442L140.489 89.7606Z" fill="#232323"/>
<path d="M142.434 110.859C142.412 110.157 141.805 109.597 141.055 109.597C140.315 109.597 139.708 110.15 139.681 110.848L138.778 135.134C138.741 136.082 139.549 136.868 140.553 136.868H141.34C142.338 136.868 143.147 136.091 143.12 135.148L142.434 110.859Z" fill="white"/>
<path d="M94.6563 53.7301C94.6563 82.414 99.1044 103.163 138.25 103.163C188.964 103.163 180.955 82.414 180.955 53.7301C180.955 25.0463 162.328 4.31633 138.25 4.31633C114.176 4.31633 94.6563 25.0463 94.6563 53.7301Z" fill="#F5F5F5"/>
<path d="M111.133 76.3578C107.694 76.3578 104.905 73.7321 104.905 70.4938C104.905 67.2555 107.694 64.6298 111.133 64.6298C114.572 64.6298 117.362 67.2555 117.362 70.4938C117.362 73.7321 114.572 76.3578 111.133 76.3578Z" fill="#232323"/>
<path d="M96.0087 71.3315L92.9288 81.3835H99.0886L96.0087 71.3315Z" fill="#F5F5F5"/>
<path d="M110.853 88.9657C111.318 88.8194 111.82 89.0565 111.978 89.4954C112.132 89.9344 111.878 90.4087 111.413 90.555L110.853 88.9657ZM105.798 91.436C105.306 91.436 104.905 91.061 104.905 90.5983C104.905 90.1356 105.306 89.7606 105.798 89.7606V91.436ZM111.413 90.555L110.114 90.9633L109.554 89.3739L110.853 88.9657L111.413 90.555ZM107.018 91.436H105.798V89.7606H107.018V91.436ZM110.114 90.9633C109.115 91.2765 108.075 91.436 107.018 91.436V89.7606C107.879 89.7606 108.735 89.6301 109.554 89.3739L110.114 90.9633Z" fill="black"/>
<path d="M94.2389 36.7734L93.568 39.9896C92.8231 43.5636 92.4481 47.1969 92.4481 50.839V57.9282H123.616C129.691 57.9282 134.615 62.5652 134.615 68.2854V102.326L147.103 104.807C152.804 105.94 158.646 106.335 164.463 105.98L183.195 104.839V83.8966V64.6298V51.5018C183.195 47.4241 182.672 43.3613 181.642 39.4011C179.65 31.753 175.794 24.6459 170.385 18.6411L167.96 15.9487C166.507 14.3397 164.917 12.8458 163.2 11.4874C155.994 5.78035 146.866 2.64095 137.452 2.64095C130.199 2.64095 123.078 4.49946 116.86 8.01734L114.794 9.18665C109.728 12.0535 105.322 15.8508 101.846 20.3527C98.0742 25.2396 95.4751 30.8438 94.2389 36.7734Z" fill="#232323"/>
<path d="M142.222 113.773C142.676 113.237 142.597 112.413 142.043 111.915C141.488 111.42 140.669 111.425 140.183 111.927L123.284 129.397C122.623 130.079 122.697 131.202 123.447 131.875L124.034 132.399C124.779 133.067 125.893 133.026 126.506 132.307L142.222 113.773Z" fill="white"/>
<path d="M140.489 89.7606L123.542 155.1H157.442L140.489 89.7606Z" fill="#232323"/>
<path d="M142.159 112.355C141.805 111.749 141.002 111.549 140.347 111.905C139.697 112.259 139.422 113.036 139.734 113.661L150.553 135.425C150.976 136.274 152.059 136.579 152.946 136.098L153.633 135.723C154.515 135.244 154.848 134.177 154.372 133.362L142.159 112.355Z" fill="white"/>
<path d="M94.6563 53.7301C94.6563 82.414 99.1044 103.163 138.25 103.163C188.964 103.163 180.955 82.414 180.955 53.7301C180.955 25.0463 162.328 4.31633 138.25 4.31633C114.176 4.31633 94.6563 25.0463 94.6563 53.7301Z" fill="#F5F5F5"/>
<path d="M111.133 76.3578C107.694 76.3578 104.905 73.7321 104.905 70.4938C104.905 67.2555 107.694 64.6298 111.133 64.6298C114.572 64.6298 117.362 67.2555 117.362 70.4938C117.362 73.7321 114.572 76.3578 111.133 76.3578Z" fill="#232323"/>
<path d="M96.0087 71.3315L92.9288 81.3835H99.0886L96.0087 71.3315Z" fill="#F5F5F5"/>
<path d="M110.853 88.9662C111.318 88.8194 111.82 89.0565 111.978 89.4954C112.132 89.9349 111.878 90.4087 111.413 90.555L110.853 88.9662ZM105.798 91.436C105.306 91.436 104.905 91.061 104.905 90.5983C104.905 90.1356 105.306 89.7606 105.798 89.7606V91.436ZM111.413 90.555L110.114 90.9633L109.554 89.374L110.853 88.9662L111.413 90.555ZM107.018 91.436H105.798V89.7606H107.018V91.436ZM110.114 90.9633C109.115 91.2765 108.075 91.436 107.018 91.436V89.7606C107.879 89.7606 108.735 89.6301 109.554 89.374L110.114 90.9633Z" fill="black"/>
<path d="M94.2389 36.7734L93.568 39.9896C92.8231 43.5636 92.4481 47.1969 92.4481 50.839V57.9282H123.616C129.691 57.9282 134.615 62.5652 134.615 68.2854V102.326L147.103 104.807C152.804 105.94 158.646 106.335 164.463 105.98L183.195 104.839V83.8966V64.6298V51.5018C183.195 47.4241 182.672 43.3613 181.642 39.4011C179.65 31.753 175.794 24.6459 170.385 18.6411L167.96 15.9487C166.507 14.3397 164.917 12.8458 163.2 11.4874C155.994 5.78035 146.866 2.64095 137.452 2.64095C130.199 2.64095 123.078 4.49946 116.86 8.01734L114.794 9.18665C109.728 12.0535 105.322 15.8508 101.846 20.3527C98.0742 25.2396 95.4751 30.8438 94.2389 36.7734Z" fill="#232323"/>
<path d="M128.292 21.1885L131.472 22.6937C132.349 23.1094 132.703 24.1164 132.264 24.9431L129.068 30.9305C128.624 31.7572 127.557 32.0904 126.675 31.6747L123.5 30.1696C122.618 29.7539 122.264 28.7468 122.708 27.9202L125.904 21.9328C126.348 21.1061 127.415 20.7729 128.292 21.1885Z" fill="#F5F5F5"/>
<path d="M127.483 26.4316L116.141 11.3161L107.831 26.8718L127.483 26.4316Z" fill="#F5F5F5"/>
<path d="M127.483 26.4316L116.141 11.3161L107.831 26.8718L127.483 26.4316Z" fill="#F5F5F5"/>
<path d="M127.483 26.4316L116.141 11.3161L107.831 26.8718L127.483 26.4316Z" fill="#F5F5F5"/>
<path d="M127.483 26.4316L138.831 41.547L147.14 25.9915L127.483 26.4316Z" fill="#F5F5F5"/>
<path d="M127.483 26.4316L138.831 41.547L147.14 25.9915L127.483 26.4316Z" fill="#F5F5F5"/>
<path d="M127.483 26.4316L138.831 41.547L147.14 25.9915L127.483 26.4316Z" fill="#F5F5F5"/>
<path fill-rule="evenodd" clip-rule="evenodd" d="M605.224 166.817L610.488 165.932L612.154 175.846L608.645 176.435L606.89 176.73L603.381 177.32L603.103 175.668C602.95 174.755 603.611 173.883 604.58 173.72L606.335 173.425L605.224 166.817Z" fill="#606060"/>
<path d="M607.989 151.062L602.725 151.947L603.003 153.599L608.267 152.714L607.989 151.062Z" fill="#C4C4C4"/>
<path d="M608.545 154.367L603.28 155.251L603.558 156.904L608.823 156.019L608.545 154.367Z" fill="#C4C4C4"/>
<path d="M609.1 157.672L603.836 158.556L604.114 160.208L609.378 159.324L609.1 157.672Z" fill="#C4C4C4"/>
<path d="M609.655 160.975L604.391 161.86L604.669 163.512L609.933 162.628L609.655 160.975Z" fill="#C4C4C4"/>
<path d="M610.211 164.28L604.947 165.164L605.224 166.817L610.488 165.932L610.211 164.28Z" fill="#C4C4C4"/>
<path d="M604.669 163.512L609.933 162.628L610.211 164.28L604.947 165.164L604.669 163.512Z" fill="#232323"/>
<path d="M603.003 153.599L608.267 152.714L608.545 154.367L603.28 155.251L603.003 153.599Z" fill="#232323"/>
<path d="M603.558 156.904L608.823 156.019L609.1 157.672L603.836 158.556L603.558 156.904Z" fill="#232323"/>
<path d="M604.114 160.208L609.378 159.324L609.655 160.975L604.391 161.86L604.114 160.208Z" fill="#232323"/>
<path fill-rule="evenodd" clip-rule="evenodd" d="M595.316 166.485L600.579 167.375L598.903 177.287L595.394 176.694L593.64 176.397L590.131 175.804L590.411 174.152C590.565 173.24 591.475 172.633 592.444 172.797L594.199 173.093L595.316 166.485Z" fill="#606060"/>
<path d="M603.093 152.508L597.83 151.618L597.551 153.27L602.814 154.16L603.093 152.508Z" fill="#C4C4C4"/>
<path d="M602.535 155.812L597.272 154.922L596.992 156.574L602.256 157.464L602.535 155.812Z" fill="#C4C4C4"/>
<path d="M601.976 159.116L596.713 158.226L596.433 159.878L601.697 160.768L601.976 159.116Z" fill="#C4C4C4"/>
<path d="M601.417 162.419L596.154 161.529L595.875 163.181L601.138 164.071L601.417 162.419Z" fill="#C4C4C4"/>
<path d="M600.859 165.723L595.596 164.833L595.316 166.485L600.579 167.375L600.859 165.723Z" fill="#C4C4C4"/>
<path d="M595.875 163.181L601.138 164.071L600.859 165.723L595.596 164.833L595.875 163.181Z" fill="#232323"/>
<path d="M597.551 153.27L602.814 154.16L602.535 155.812L597.272 154.922L597.551 153.27Z" fill="#232323"/>
<path d="M596.992 156.574L602.256 157.464L601.976 159.116L596.713 158.226L596.992 156.574Z" fill="#232323"/>
<path d="M596.433 159.878L601.697 160.768L601.417 162.419L596.154 161.529L596.433 159.878Z" fill="#232323"/>
<path d="M602.732 87.1196L585.782 152.459H619.682L602.732 87.1196Z" fill="#232323"/>
<path d="M604.673 108.218C604.653 107.516 604.043 106.956 603.297 106.956C602.556 106.956 601.948 107.509 601.922 108.207L601.018 132.493C600.982 133.441 601.789 134.227 602.796 134.227H603.58C604.581 134.227 605.385 133.45 605.358 132.508L604.673 108.218Z" fill="white"/>
<path d="M556.899 51.0893C556.899 79.773 561.347 100.522 600.492 100.522C651.202 100.522 643.195 79.773 643.195 51.0893C643.195 22.4053 624.568 1.67538 600.492 1.67538C576.416 1.67538 556.899 22.4053 556.899 51.0893Z" fill="#F5F5F5"/>
<path d="M573.374 73.7168C569.934 73.7168 567.146 71.0912 567.146 67.8529C567.146 64.6145 569.934 61.9889 573.374 61.9889C576.813 61.9889 579.602 64.6145 579.602 67.8529C579.602 71.0912 576.813 73.7168 573.374 73.7168Z" fill="#232323"/>
<path d="M558.25 68.6906L555.168 78.7426H561.332L558.25 68.6906Z" fill="#F5F5F5"/>
<path d="M573.093 86.3247C573.559 86.1784 574.062 86.4156 574.218 86.8545C574.373 87.2934 574.121 87.7677 573.655 87.914L573.093 86.3247ZM568.036 88.7951C567.545 88.7951 567.146 88.42 567.146 87.9574C567.146 87.4947 567.545 87.1196 568.036 87.1196V88.7951ZM573.655 87.914L572.356 88.3223L571.793 86.733L573.093 86.3247L573.655 87.914ZM569.261 88.7951H568.036V87.1196H569.261V88.7951ZM572.356 88.3223C571.358 88.6355 570.313 88.7951 569.261 88.7951V87.1196C570.122 87.1196 570.976 86.9892 571.793 86.733L572.356 88.3223Z" fill="black"/>
<path d="M556.482 34.1325L555.811 37.3487C555.066 40.9226 554.691 44.556 554.691 48.1981V55.2872H585.856C591.93 55.2872 596.855 59.9242 596.855 65.6445V99.6848L609.342 102.166C615.046 103.299 620.886 103.694 626.703 103.339L645.436 102.198V81.2557V61.9889V48.8609C645.436 44.7832 644.914 40.7204 643.883 36.7601C641.89 29.112 638.036 22.0049 632.625 16.0002L630.199 13.3077C628.749 11.6987 627.155 10.2048 625.44 8.84649C618.234 3.13941 609.108 0 599.692 0C592.438 0 585.321 1.85851 579.102 5.37639L577.036 6.5457C571.969 9.41256 567.565 13.2099 564.088 17.7117C560.313 22.5987 557.717 28.2028 556.482 34.1325Z" fill="#232323"/>
<path d="M602.732 87.1196L585.782 152.459H619.682L602.732 87.1196Z" fill="#232323"/>
<path d="M603.649 109.238C603.895 108.58 603.539 107.832 602.848 107.552C602.162 107.273 601.39 107.556 601.104 108.193L591.134 130.358C590.745 131.223 591.197 132.255 592.13 132.634L592.857 132.928C593.784 133.305 594.822 132.887 595.151 132.003L603.649 109.238Z" fill="white"/>
<path d="M556.899 51.0893C556.899 79.773 561.347 100.522 600.492 100.522C651.202 100.522 643.195 79.773 643.195 51.0893C643.195 22.4053 624.568 1.67538 600.492 1.67538C576.416 1.67538 556.899 22.4053 556.899 51.0893Z" fill="#F5F5F5"/>
<path d="M573.374 73.7168C569.934 73.7168 567.146 71.0912 567.146 67.8529C567.146 64.6145 569.934 61.9889 573.374 61.9889C576.813 61.9889 579.602 64.6145 579.602 67.8529C579.602 71.0912 576.813 73.7168 573.374 73.7168Z" fill="#232323"/>
<path d="M558.25 68.6906L555.168 78.7426H561.332L558.25 68.6906Z" fill="#F5F5F5"/>
<path d="M573.093 86.3253C573.559 86.1784 574.062 86.4156 574.218 86.8545C574.373 87.294 574.121 87.7677 573.655 87.914L573.093 86.3253ZM568.036 88.7951C567.545 88.7951 567.146 88.4201 567.146 87.9574C567.146 87.4947 567.545 87.1196 568.036 87.1196V88.7951ZM573.655 87.914L572.356 88.3223L571.793 86.733L573.093 86.3253L573.655 87.914ZM569.261 88.7951H568.036V87.1196H569.261V88.7951ZM572.356 88.3223C571.358 88.6356 570.313 88.7951 569.261 88.7951V87.1196C570.122 87.1196 570.976 86.9892 571.793 86.733L572.356 88.3223Z" fill="black"/>
<path d="M556.482 34.1325L555.811 37.3487C555.066 40.9226 554.691 44.556 554.691 48.1981V55.2872H585.856C591.93 55.2872 596.855 59.9242 596.855 65.6445V99.6848L609.342 102.166C615.046 103.299 620.886 103.694 626.703 103.339L645.436 102.198V81.2557V61.9889V48.8609C645.436 44.7832 644.914 40.7204 643.883 36.7601C641.89 29.112 638.036 22.0049 632.625 16.0002L630.199 13.3077C628.749 11.6987 627.155 10.2048 625.44 8.84649C618.234 3.13941 609.108 0 599.692 0C592.438 0 585.321 1.85851 579.102 5.37639L577.036 6.5457C571.969 9.41256 567.565 13.2099 564.088 17.7117C560.313 22.5987 557.717 28.2028 556.482 34.1325Z" fill="#232323"/>
<path d="M590.534 18.5476L593.713 20.0527C594.591 20.4684 594.945 21.4755 594.504 22.3021L591.307 28.2896C590.865 29.1162 589.796 29.4494 588.918 29.0338L585.739 27.5286C584.861 27.1129 584.507 26.1059 584.948 25.2793L588.145 19.2918C588.586 18.4652 589.656 18.1319 590.534 18.5476Z" fill="#F5F5F5"/>
<path d="M589.726 23.7907L578.38 8.6752L570.073 24.2308L589.726 23.7907Z" fill="#F5F5F5"/>
<path d="M589.726 23.7907L578.38 8.6752L570.073 24.2308L589.726 23.7907Z" fill="#F5F5F5"/>
<path d="M589.726 23.7907L578.38 8.6752L570.073 24.2308L589.726 23.7907Z" fill="#F5F5F5"/>
<path d="M589.726 23.7907L601.072 38.9061L609.378 23.3506L589.726 23.7907Z" fill="#F5F5F5"/>
<path d="M589.726 23.7907L601.072 38.9061L609.378 23.3506L589.726 23.7907Z" fill="#F5F5F5"/>
<path d="M589.726 23.7907L601.072 38.9061L609.378 23.3506L589.726 23.7907Z" fill="#F5F5F5"/>
<path fill-rule="evenodd" clip-rule="evenodd" d="M419.271 166.817L424.535 165.932L426.202 175.846L422.692 176.435L420.937 176.73L417.428 177.32L417.15 175.668C416.997 174.755 417.658 173.883 418.627 173.72L420.382 173.425L419.271 166.817Z" fill="#606060"/>
<path d="M422.037 151.062L416.772 151.947L417.05 153.599L422.314 152.714L422.037 151.062Z" fill="#C4C4C4"/>
<path d="M422.592 154.367L417.328 155.251L417.606 156.904L422.87 156.019L422.592 154.367Z" fill="#C4C4C4"/>
<path d="M423.147 157.672L417.883 158.556L418.161 160.208L423.425 159.324L423.147 157.672Z" fill="#C4C4C4"/>
<path d="M423.702 160.975L418.439 161.86L418.716 163.512L423.98 162.628L423.702 160.975Z" fill="#C4C4C4"/>
<path d="M424.258 164.28L418.994 165.164L419.271 166.817L424.535 165.932L424.258 164.28Z" fill="#C4C4C4"/>
<path d="M418.716 163.512L423.98 162.628L424.258 164.28L418.994 165.164L418.716 163.512Z" fill="#232323"/>
<path d="M417.05 153.599L422.314 152.714L422.592 154.367L417.328 155.251L417.05 153.599Z" fill="#232323"/>
<path d="M417.606 156.904L422.87 156.019L423.147 157.672L417.883 158.556L417.606 156.904Z" fill="#232323"/>
<path d="M418.161 160.208L423.425 159.324L423.702 160.975L418.438 161.86L418.161 160.208Z" fill="#232323"/>
<path fill-rule="evenodd" clip-rule="evenodd" d="M410.42 166.485L415.683 167.375L414.007 177.287L410.498 176.694L408.744 176.397L405.235 175.804L405.514 174.152C405.669 173.24 406.579 172.633 407.548 172.797L409.303 173.093L410.42 166.485Z" fill="#606060"/>
<path d="M418.197 152.508L412.934 151.618L412.655 153.27L417.918 154.16L418.197 152.508Z" fill="#C4C4C4"/>
<path d="M417.639 155.812L412.376 154.922L412.096 156.574L417.359 157.464L417.639 155.812Z" fill="#C4C4C4"/>
<path d="M417.08 159.116L411.817 158.226L411.537 159.878L416.8 160.768L417.08 159.116Z" fill="#C4C4C4"/>
<path d="M416.521 162.419L411.258 161.529L410.979 163.181L416.242 164.071L416.521 162.419Z" fill="#C4C4C4"/>
<path d="M415.963 165.723L410.699 164.833L410.42 166.485L415.683 167.375L415.963 165.723Z" fill="#C4C4C4"/>
<path d="M410.979 163.181L416.242 164.071L415.963 165.723L410.699 164.833L410.979 163.181Z" fill="#232323"/>
<path d="M412.655 153.27L417.918 154.16L417.639 155.812L412.376 154.922L412.655 153.27Z" fill="#232323"/>
<path d="M412.096 156.574L417.359 157.464L417.08 159.116L411.817 158.226L412.096 156.574Z" fill="#232323"/>
<path d="M411.537 159.878L416.8 160.768L416.521 162.419L411.258 161.529L411.537 159.878Z" fill="#232323"/>
<path d="M417.836 87.1196L400.886 152.459H434.786L417.836 87.1196Z" fill="#232323"/>
<path d="M419.777 108.218C419.757 107.516 419.147 106.956 418.401 106.956C417.66 106.956 417.052 107.509 417.026 108.207L416.122 132.493C416.086 133.441 416.892 134.227 417.9 134.227H418.684C419.685 134.227 420.489 133.45 420.462 132.508L419.777 108.218Z" fill="white"/>
<path d="M372.003 51.0893C372.003 79.773 376.451 100.522 415.595 100.522C466.306 100.522 458.299 79.773 458.299 51.0893C458.299 22.4053 439.672 1.67538 415.595 1.67538C391.52 1.67538 372.003 22.4053 372.003 51.0893Z" fill="#F5F5F5"/>
<path d="M388.478 73.7168C385.038 73.7168 382.25 71.0912 382.25 67.8529C382.25 64.6145 385.038 61.9889 388.478 61.9889C391.917 61.9889 394.705 64.6145 394.705 67.8529C394.705 71.0912 391.917 73.7168 388.478 73.7168Z" fill="#232323"/>
<path d="M373.354 68.6906L370.272 78.7426H376.435L373.354 68.6906Z" fill="#F5F5F5"/>
<path d="M388.196 86.3247C388.662 86.1784 389.166 86.4156 389.322 86.8545C389.477 87.2934 389.225 87.7677 388.759 87.914L388.196 86.3247ZM383.14 88.7951C382.648 88.7951 382.25 88.42 382.25 87.9574C382.25 87.4947 382.648 87.1196 383.14 87.1196V88.7951ZM388.759 87.914L387.46 88.3223L386.897 86.733L388.196 86.3247L388.759 87.914ZM384.365 88.7951H383.14V87.1196H384.365V88.7951ZM387.46 88.3223C386.462 88.6355 385.417 88.7951 384.365 88.7951V87.1196C385.225 87.1196 386.08 86.9892 386.897 86.733L387.46 88.3223Z" fill="black"/>
<path d="M371.585 34.1325L370.914 37.3487C370.17 40.9226 369.795 44.556 369.795 48.1981V55.2872H400.96C407.034 55.2872 411.959 59.9242 411.959 65.6445V99.6848L424.446 102.166C430.149 103.299 435.99 103.694 441.807 103.339L460.539 102.198V81.2557V61.9889V48.8609C460.539 44.7832 460.018 40.7204 458.986 36.7601C456.994 29.112 453.14 22.0049 447.729 16.0002L445.302 13.3077C443.852 11.6987 442.259 10.2048 440.544 8.84649C433.338 3.13941 424.212 0 414.796 0C407.542 0 400.424 1.85851 394.206 5.37639L392.14 6.5457C387.072 9.41256 382.669 13.2099 379.192 17.7117C375.417 22.5987 372.821 28.2028 371.585 34.1325Z" fill="#232323"/>
<path d="M417.836 87.1196L400.886 152.459H434.786L417.836 87.1196Z" fill="#232323"/>
<path d="M418.753 109.238C418.999 108.58 418.643 107.832 417.952 107.552C417.265 107.273 416.494 107.556 416.208 108.193L406.238 130.358C405.849 131.223 406.3 132.255 407.233 132.634L407.96 132.928C408.888 133.305 409.925 132.887 410.255 132.003L418.753 109.238Z" fill="white"/>
<path d="M372.003 51.0893C372.003 79.773 376.451 100.522 415.595 100.522C466.306 100.522 458.299 79.773 458.299 51.0893C458.299 22.4053 439.672 1.67538 415.595 1.67538C391.52 1.67538 372.003 22.4053 372.003 51.0893Z" fill="#F5F5F5"/>
<path d="M388.478 73.7168C385.038 73.7168 382.25 71.0912 382.25 67.8529C382.25 64.6145 385.038 61.9889 388.478 61.9889C391.917 61.9889 394.705 64.6145 394.705 67.8529C394.705 71.0912 391.917 73.7168 388.478 73.7168Z" fill="#232323"/>
<path d="M373.354 68.6906L370.272 78.7426H376.435L373.354 68.6906Z" fill="#F5F5F5"/>
<path d="M388.196 86.3253C388.662 86.1784 389.166 86.4156 389.322 86.8545C389.477 87.294 389.225 87.7677 388.759 87.914L388.196 86.3253ZM383.14 88.7951C382.648 88.7951 382.25 88.4201 382.25 87.9574C382.25 87.4947 382.648 87.1196 383.14 87.1196V88.7951ZM388.759 87.914L387.46 88.3223L386.897 86.733L388.196 86.3253L388.759 87.914ZM384.365 88.7951H383.14V87.1196H384.365V88.7951ZM387.46 88.3223C386.462 88.6356 385.417 88.7951 384.365 88.7951V87.1196C385.225 87.1196 386.08 86.9892 386.897 86.733L387.46 88.3223Z" fill="black"/>
<path d="M371.585 34.1325L370.914 37.3487C370.17 40.9226 369.795 44.556 369.795 48.1981V55.2872H400.96C407.034 55.2872 411.959 59.9242 411.959 65.6445V99.6848L424.446 102.166C430.149 103.299 435.99 103.694 441.807 103.339L460.539 102.198V81.2557V61.9889V48.8609C460.539 44.7832 460.018 40.7204 458.986 36.7601C456.994 29.112 453.14 22.0049 447.729 16.0002L445.302 13.3077C443.852 11.6987 442.259 10.2048 440.544 8.84649C433.338 3.13941 424.212 0 414.796 0C407.542 0 400.424 1.85851 394.206 5.37639L392.14 6.5457C387.072 9.41256 382.669 13.2099 379.192 17.7117C375.417 22.5987 372.821 28.2028 371.585 34.1325Z" fill="#232323"/>
<path d="M405.638 18.5476L408.817 20.0527C409.695 20.4684 410.049 21.4755 409.607 22.3021L406.411 28.2896C405.969 29.1162 404.899 29.4494 404.022 29.0338L400.842 27.5286C399.964 27.1129 399.61 26.1059 400.052 25.2793L403.249 19.2918C403.69 18.4652 404.76 18.1319 405.638 18.5476Z" fill="#F5F5F5"/>
<path d="M404.83 23.7907L393.483 8.6752L385.177 24.2308L404.83 23.7907Z" fill="#F5F5F5"/>
<path d="M404.83 23.7907L393.483 8.6752L385.177 24.2308L404.83 23.7907Z" fill="#F5F5F5"/>
<path d="M404.83 23.7907L393.483 8.6752L385.177 24.2308L404.83 23.7907Z" fill="#F5F5F5"/>
<path d="M404.83 23.7907L416.176 38.9061L424.482 23.3506L404.83 23.7907Z" fill="#F5F5F5"/>
<path d="M404.83 23.7907L416.176 38.9061L424.482 23.3506L404.83 23.7907Z" fill="#F5F5F5"/>
<path d="M404.83 23.7907L416.176 38.9061L424.482 23.3506L404.83 23.7907Z" fill="#F5F5F5"/>
<path fill-rule="evenodd" clip-rule="evenodd" d="M228.402 166.456L233.702 167.091L232.507 177.072L228.974 176.649L227.207 176.438L223.674 176.015L223.873 174.351C223.983 173.433 224.863 172.783 225.839 172.899L227.605 173.111L228.402 166.456Z" fill="#606060"/>
<path d="M235.494 152.12L230.194 151.485L229.995 153.149L235.295 153.783L235.494 152.12Z" fill="#C4C4C4"/>
<path d="M235.096 155.447L229.796 154.812L229.597 156.476L234.897 157.11L235.096 155.447Z" fill="#C4C4C4"/>
<path d="M234.698 158.774L229.398 158.14L229.198 159.803L234.499 160.437L234.698 158.774Z" fill="#C4C4C4"/>
<path d="M234.299 162.1L228.999 161.466L228.8 163.129L234.1 163.764L234.299 162.1Z" fill="#C4C4C4"/>
<path d="M233.901 165.427L228.601 164.793L228.402 166.456L233.702 167.091L233.901 165.427Z" fill="#C4C4C4"/>
<path d="M228.8 163.129L234.1 163.764L233.901 165.427L228.601 164.793L228.8 163.129Z" fill="#232323"/>
<path d="M229.995 153.149L235.295 153.783L235.096 155.447L229.796 154.812L229.995 153.149Z" fill="#232323"/>
<path d="M229.597 156.476L234.897 157.11L234.698 158.774L229.398 158.14L229.597 156.476Z" fill="#232323"/>
<path d="M229.198 159.803L234.499 160.437L234.299 162.1L228.999 161.466L229.198 159.803Z" fill="#232323"/>
<path fill-rule="evenodd" clip-rule="evenodd" d="M236.848 166.987L242.025 165.686L244.475 175.436L241.024 176.302L239.298 176.736L235.847 177.603L235.438 175.978C235.213 175.081 235.802 174.159 236.756 173.92L238.481 173.486L236.848 166.987Z" fill="#606060"/>
<path d="M238.35 151.062L233.173 152.363L233.582 153.988L238.759 152.687L238.35 151.062Z" fill="#C4C4C4"/>
<path d="M239.167 154.312L233.99 155.613L234.398 157.237L239.575 155.937L239.167 154.312Z" fill="#C4C4C4"/>
<path d="M239.984 157.562L234.807 158.863L235.215 160.487L240.392 159.187L239.984 157.562Z" fill="#C4C4C4"/>
<path d="M240.8 160.811L235.623 162.112L236.032 163.737L241.209 162.436L240.8 160.811Z" fill="#C4C4C4"/>
<path d="M241.617 164.061L236.44 165.361L236.848 166.987L242.025 165.686L241.617 164.061Z" fill="#C4C4C4"/>
<path d="M236.032 163.737L241.209 162.436L241.617 164.061L236.44 165.361L236.032 163.737Z" fill="#232323"/>
<path d="M233.582 153.988L238.759 152.687L239.167 154.312L233.99 155.613L233.582 153.988Z" fill="#232323"/>
<path d="M234.398 157.237L239.575 155.937L239.984 157.562L234.807 158.863L234.398 157.237Z" fill="#232323"/>
<path d="M235.215 160.487L240.392 159.187L240.8 160.811L235.623 162.112L235.215 160.487Z" fill="#232323"/>
<path d="M232.94 87.1196L215.99 152.459H249.89L232.94 87.1196Z" fill="#232323"/>
<path d="M234.881 108.218C234.861 107.516 234.251 106.956 233.505 106.956C232.764 106.956 232.156 107.509 232.13 108.207L231.225 132.493C231.19 133.441 231.996 134.227 233.004 134.227H233.787C234.789 134.227 235.593 133.45 235.566 132.508L234.881 108.218Z" fill="white"/>
<path d="M187.104 51.0893C187.104 79.773 191.552 100.522 230.699 100.522C281.409 100.522 273.403 79.773 273.403 51.0893C273.403 22.4053 254.775 1.67538 230.699 1.67538C206.624 1.67538 187.104 22.4053 187.104 51.0893Z" fill="#F5F5F5"/>
<path d="M203.581 73.7168C200.142 73.7168 197.353 71.0912 197.353 67.8529C197.353 64.6145 200.142 61.9889 203.581 61.9889C207.02 61.9889 209.809 64.6145 209.809 67.8529C209.809 71.0912 207.02 73.7168 203.581 73.7168Z" fill="#232323"/>
<path d="M188.457 68.6906L185.377 78.7426H191.537L188.457 68.6906Z" fill="#F5F5F5"/>
<path d="M203.301 86.3247C203.766 86.1784 204.268 86.4156 204.427 86.8545C204.58 87.2934 204.326 87.7677 203.861 87.914L203.301 86.3247ZM198.246 88.7951C197.754 88.7951 197.353 88.42 197.353 87.9574C197.353 87.4947 197.754 87.1196 198.246 87.1196V88.7951ZM203.861 87.914L202.562 88.3223L202.002 86.733L203.301 86.3247L203.861 87.914ZM199.466 88.7951H198.246V87.1196H199.466V88.7951ZM202.562 88.3223C201.563 88.6355 200.523 88.7951 199.466 88.7951V87.1196C200.327 87.1196 201.183 86.9892 202.002 86.733L202.562 88.3223Z" fill="black"/>
<path d="M186.687 34.1325L186.016 37.3487C185.271 40.9226 184.896 44.556 184.896 48.1981V55.2872H216.063C222.138 55.2872 227.063 59.9242 227.063 65.6445V99.6848L239.55 102.166C245.253 103.299 251.094 103.694 256.911 103.339L275.643 102.198V81.2557V61.9889V48.8609C275.643 44.7832 275.122 40.7204 274.09 36.7601C272.097 29.112 268.244 22.0049 262.833 16.0002L260.406 13.3077C258.956 11.6987 257.363 10.2048 255.648 8.84649C248.442 3.13941 239.316 0 229.9 0C222.646 0 215.528 1.85851 209.308 5.37639L207.242 6.5457C202.176 9.41256 197.77 13.2099 194.294 17.7117C190.522 22.5987 187.923 28.2028 186.687 34.1325Z" fill="#232323"/>
<path d="M232.94 87.1196L215.99 152.459H249.89L232.94 87.1196Z" fill="#232323"/>
<path d="M235.343 108.643C235.081 107.992 234.315 107.678 233.615 107.937C232.92 108.194 232.541 108.923 232.758 109.586L240.33 132.681C240.626 133.582 241.655 134.04 242.599 133.691L243.334 133.419C244.273 133.073 244.758 132.064 244.406 131.19L235.343 108.643Z" fill="white"/>
<path d="M187.104 51.0893C187.104 79.773 191.552 100.522 230.699 100.522C281.409 100.522 273.403 79.773 273.403 51.0893C273.403 22.4053 254.775 1.67538 230.699 1.67538C206.624 1.67538 187.104 22.4053 187.104 51.0893Z" fill="#F5F5F5"/>
<path d="M203.581 73.7168C200.142 73.7168 197.353 71.0912 197.353 67.8529C197.353 64.6145 200.142 61.9889 203.581 61.9889C207.02 61.9889 209.809 64.6145 209.809 67.8529C209.809 71.0912 207.02 73.7168 203.581 73.7168Z" fill="#232323"/>
<path d="M188.457 68.6906L185.377 78.7426H191.537L188.457 68.6906Z" fill="#F5F5F5"/>
<path d="M203.301 86.3253C203.766 86.1784 204.268 86.4156 204.427 86.8545C204.58 87.294 204.326 87.7677 203.861 87.914L203.301 86.3253ZM198.246 88.7951C197.754 88.7951 197.353 88.4201 197.353 87.9574C197.353 87.4947 197.754 87.1196 198.246 87.1196V88.7951ZM203.861 87.914L202.562 88.3223L202.002 86.733L203.301 86.3253L203.861 87.914ZM199.466 88.7951H198.246V87.1196H199.466V88.7951ZM202.562 88.3223C201.563 88.6356 200.523 88.7951 199.466 88.7951V87.1196C200.327 87.1196 201.183 86.9892 202.002 86.733L202.562 88.3223Z" fill="black"/>
<path d="M186.687 34.1325L186.016 37.3487C185.271 40.9226 184.896 44.556 184.896 48.1981V55.2872H216.063C222.138 55.2872 227.063 59.9242 227.063 65.6445V99.6848L239.55 102.166C245.253 103.299 251.094 103.694 256.911 103.339L275.643 102.198V81.2557V61.9889V48.8609C275.643 44.7832 275.122 40.7204 274.09 36.7601C272.097 29.112 268.244 22.0049 262.833 16.0002L260.406 13.3077C258.956 11.6987 257.363 10.2048 255.648 8.84649C248.442 3.13941 239.316 0 229.9 0C222.646 0 215.528 1.85851 209.308 5.37639L207.242 6.5457C202.176 9.41256 197.77 13.2099 194.294 17.7117C190.522 22.5987 187.923 28.2028 186.687 34.1325Z" fill="#232323"/>
<path d="M220.742 18.5476L223.921 20.0527C224.799 20.4684 225.153 21.4755 224.711 22.3021L221.515 28.2896C221.073 29.1162 220.003 29.4494 219.126 29.0338L215.946 27.5286C215.068 27.1129 214.714 26.1059 215.156 25.2793L218.353 19.2918C218.794 18.4652 219.864 18.1319 220.742 18.5476Z" fill="#F5F5F5"/>
<path d="M219.934 23.7907L208.589 8.6752L200.28 24.2308L219.934 23.7907Z" fill="#F5F5F5"/>
<path d="M219.934 23.7907L208.589 8.6752L200.28 24.2308L219.934 23.7907Z" fill="#F5F5F5"/>
<path d="M219.934 23.7907L208.589 8.6752L200.28 24.2308L219.934 23.7907Z" fill="#F5F5F5"/>
<path d="M219.934 23.7907L231.28 38.9061L239.586 23.3506L219.934 23.7907Z" fill="#F5F5F5"/>
<path d="M219.934 23.7907L231.28 38.9061L239.586 23.3506L219.934 23.7907Z" fill="#F5F5F5"/>
<path d="M219.934 23.7907L231.28 38.9061L239.586 23.3506L219.934 23.7907Z" fill="#F5F5F5"/>
<path fill-rule="evenodd" clip-rule="evenodd" d="M43.5034 166.456L48.8073 167.091L47.6134 177.072L44.0793 176.649L42.3096 176.438L38.7754 176.015L38.9761 174.351C39.0871 173.433 39.964 172.783 40.9413 172.899L42.711 173.111L43.5034 166.456Z" fill="#606060"/>
<path d="M50.5981 152.12L45.2996 151.485L45.0988 153.149L50.3974 153.783L50.5981 152.12Z" fill="#C4C4C4"/>
<path d="M50.202 155.447L44.898 154.812L44.7026 156.476L50.0012 157.11L50.202 155.447Z" fill="#C4C4C4"/>
<path d="M49.8005 158.774L44.5019 158.14L44.3011 159.803L49.605 160.437L49.8005 158.774Z" fill="#C4C4C4"/>
<path d="M49.4043 162.1L44.1057 161.466L43.9049 163.129L49.2035 163.764L49.4043 162.1Z" fill="#C4C4C4"/>
<path d="M49.0027 165.427L43.7042 164.793L43.5034 166.456L48.8073 167.091L49.0027 165.427Z" fill="#C4C4C4"/>
<path d="M43.9049 163.129L49.2036 163.764L49.0028 165.427L43.7042 164.793L43.9049 163.129Z" fill="#232323"/>
<path d="M45.0988 153.149L50.3975 153.783L50.202 155.447L44.8981 154.812L45.0988 153.149Z" fill="#232323"/>
<path d="M44.7026 156.476L50.0012 157.11L49.8005 158.774L44.5019 158.14L44.7026 156.476Z" fill="#232323"/>
<path d="M44.3011 159.803L49.5997 160.437L49.4043 162.1L44.1057 161.466L44.3011 159.803Z" fill="#232323"/>
<path fill-rule="evenodd" clip-rule="evenodd" d="M51.9506 166.987L57.1277 165.686L59.5789 175.436L56.1292 176.302L54.4018 176.736L50.9522 177.603L50.5401 175.978C50.3182 175.081 50.9046 174.159 51.8608 173.92L53.583 173.486L51.9506 166.987Z" fill="#606060"/>
<path d="M53.4561 151.062L48.279 152.363L48.6858 153.988L53.8629 152.687L53.4561 151.062Z" fill="#C4C4C4"/>
<path d="M54.2696 154.312L49.0927 155.613L49.5047 157.237L54.6817 155.937L54.2696 154.312Z" fill="#C4C4C4"/>
<path d="M55.0885 157.562L49.9114 158.863L50.3182 160.487L55.4953 159.187L55.0885 157.562Z" fill="#C4C4C4"/>
<path d="M55.9021 160.811L50.7249 162.112L51.137 163.737L56.3141 162.436L55.9021 160.811Z" fill="#C4C4C4"/>
<path d="M56.7208 164.061L51.5438 165.361L51.9506 166.987L57.1276 165.686L56.7208 164.061Z" fill="#C4C4C4"/>
<path d="M51.137 163.737L56.314 162.436L56.7208 164.061L51.5438 165.361L51.137 163.737Z" fill="#232323"/>
<path d="M48.6859 153.988L53.8629 152.687L54.2697 154.312L49.0926 155.613L48.6859 153.988Z" fill="#232323"/>
<path d="M49.5046 157.237L54.6817 155.937L55.0885 157.562L49.9114 158.863L49.5046 157.237Z" fill="#232323"/>
<path d="M50.3182 160.487L55.4953 159.187L55.9021 160.811L50.725 162.112L50.3182 160.487Z" fill="#232323"/>
<path d="M48.0413 87.1196L31.0942 152.459H64.9937L48.0413 87.1196Z" fill="#232323"/>
<path d="M49.9854 108.218C49.9643 107.516 49.3568 106.956 48.6066 106.956C47.8671 106.956 47.2596 107.509 47.2331 108.207L46.3298 132.493C46.2929 133.441 47.1011 134.227 48.1048 134.227H48.8919C49.8903 134.227 50.6986 133.45 50.6722 132.508L49.9854 108.218Z" fill="white"/>
<path d="M2.20819 51.0893C2.20819 79.773 6.65627 100.522 45.8014 100.522C96.5158 100.522 88.5072 79.773 88.5072 51.0893C88.5072 22.4053 69.8802 1.67538 45.8014 1.67538C21.728 1.67538 2.20819 22.4053 2.20819 51.0893Z" fill="#F5F5F5"/>
<path d="M18.6851 73.7168C15.246 73.7168 12.4568 71.0912 12.4568 67.8529C12.4568 64.6145 15.246 61.9889 18.6851 61.9889C22.1241 61.9889 24.9135 64.6145 24.9135 67.8529C24.9135 71.0912 22.1241 73.7168 18.6851 73.7168Z" fill="#232323"/>
<path d="M3.56058 68.6906L0.480774 78.7426H6.64044L3.56058 68.6906Z" fill="#F5F5F5"/>
<path d="M18.4052 86.3247C18.8701 86.1784 19.3719 86.4156 19.5303 86.8545C19.6835 87.2934 19.43 87.7677 18.9651 87.914L18.4052 86.3247ZM13.3495 88.7951C12.8582 88.7951 12.4568 88.42 12.4568 87.9574C12.4568 87.4947 12.8582 87.1196 13.3495 87.1196V88.7951ZM18.9651 87.914L17.6656 88.3223L17.1056 86.733L18.4052 86.3247L18.9651 87.914ZM14.5699 88.7951H13.3495V87.1196H14.5699V88.7951ZM17.6656 88.3223C16.6671 88.6355 15.6264 88.7951 14.5699 88.7951V87.1196C15.431 87.1196 16.2867 86.9892 17.1056 86.733L17.6656 88.3223Z" fill="black"/>
<path d="M1.79086 34.1325L1.11994 37.3487C0.375076 40.9226 7.62939e-06 44.556 7.62939e-06 48.1981V55.2872H31.1682C37.2434 55.2872 42.1669 59.9242 42.1669 65.6445V99.6848L54.6554 102.166C60.3554 103.299 66.1982 103.694 72.0145 103.339L90.7471 102.198V81.2557V61.9889V48.8609C90.7471 44.7832 90.2241 40.7204 89.194 36.7601C87.2024 29.112 83.3459 22.0049 77.9364 16.0002L75.5116 13.3077C74.0589 11.6987 72.4688 10.2048 70.7519 8.84649C63.5462 3.13941 54.4176 0 45.0038 0C37.7506 0 30.6294 1.85851 24.4116 5.37639L22.3461 6.5457C17.2799 9.41256 12.8741 13.2099 9.39803 17.7117C5.62615 22.5987 3.02702 28.2028 1.79086 34.1325Z" fill="#232323"/>
<path d="M48.0413 87.1196L31.0942 152.459H64.9937L48.0413 87.1196Z" fill="#232323"/>
<path d="M50.4449 108.643C50.186 107.992 49.42 107.678 48.7174 107.937C48.0254 108.194 47.645 108.923 47.8616 109.586L55.4319 132.681C55.7277 133.582 56.7578 134.04 57.7034 133.691L58.4377 133.419C59.3781 133.073 59.8641 132.064 59.5102 131.19L50.4449 108.643Z" fill="white"/>
<path d="M2.20819 51.0893C2.20819 79.773 6.65627 100.522 45.8014 100.522C96.5158 100.522 88.5072 79.773 88.5072 51.0893C88.5072 22.4053 69.8802 1.67538 45.8014 1.67538C21.728 1.67538 2.20819 22.4053 2.20819 51.0893Z" fill="#F5F5F5"/>
<path d="M18.6851 73.7168C15.246 73.7168 12.4568 71.0912 12.4568 67.8529C12.4568 64.6145 15.246 61.9889 18.6851 61.9889C22.1241 61.9889 24.9135 64.6145 24.9135 67.8529C24.9135 71.0912 22.1241 73.7168 18.6851 73.7168Z" fill="#232323"/>
<path d="M3.56058 68.6906L0.480774 78.7426H6.64044L3.56058 68.6906Z" fill="#F5F5F5"/>
<path d="M18.4052 86.3253C18.8701 86.1784 19.3719 86.4156 19.5303 86.8545C19.6835 87.294 19.43 87.7677 18.9651 87.914L18.4052 86.3253ZM13.3495 88.7951C12.8582 88.7951 12.4568 88.4201 12.4568 87.9574C12.4568 87.4947 12.8582 87.1196 13.3495 87.1196V88.7951ZM18.9651 87.914L17.6656 88.3223L17.1056 86.733L18.4052 86.3253L18.9651 87.914ZM14.5699 88.7951H13.3495V87.1196H14.5699V88.7951ZM17.6656 88.3223C16.6671 88.6356 15.6264 88.7951 14.5699 88.7951V87.1196C15.431 87.1196 16.2867 86.9892 17.1056 86.733L17.6656 88.3223Z" fill="black"/>
<path d="M1.79086 34.1325L1.11994 37.3487C0.375076 40.9226 7.62939e-06 44.556 7.62939e-06 48.1981V55.2872H31.1682C37.2434 55.2872 42.1669 59.9242 42.1669 65.6445V99.6848L54.6554 102.166C60.3554 103.299 66.1982 103.694 72.0145 103.339L90.7471 102.198V81.2557V61.9889V48.8609C90.7471 44.7832 90.2241 40.7204 89.194 36.7601C87.2024 29.112 83.3459 22.0049 77.9364 16.0002L75.5116 13.3077C74.0589 11.6987 72.4688 10.2048 70.7519 8.84649C63.5462 3.13941 54.4176 0 45.0038 0C37.7506 0 30.6294 1.85851 24.4116 5.37639L22.3461 6.5457C17.2799 9.41256 12.8741 13.2099 9.39803 17.7117C5.62615 22.5987 3.02702 28.2028 1.79086 34.1325Z" fill="#232323"/>
<path d="M35.8434 18.5476L39.0236 20.0527C39.9006 20.4684 40.2545 21.4755 39.816 22.3021L36.62 28.2896C36.1763 29.1162 35.1091 29.4494 34.2269 29.0338L31.052 27.5286C30.1698 27.1129 29.8158 26.1059 30.2596 25.2793L33.4557 19.2918C33.8994 18.4652 34.9665 18.1319 35.8434 18.5476Z" fill="#F5F5F5"/>
<path d="M35.0352 23.7907L23.6931 8.6752L15.3834 24.2308L35.0352 23.7907Z" fill="#F5F5F5"/>
<path d="M35.0352 23.7907L23.6931 8.6752L15.3834 24.2308L35.0352 23.7907Z" fill="#F5F5F5"/>
<path d="M35.0352 23.7907L23.6931 8.6752L15.3834 24.2308L35.0352 23.7907Z" fill="#F5F5F5"/>
<path d="M35.0352 23.7907L46.3826 38.9061L54.6923 23.3506L35.0352 23.7907Z" fill="#F5F5F5"/>
<path d="M35.0352 23.7907L46.3826 38.9061L54.6923 23.3506L35.0352 23.7907Z" fill="#F5F5F5"/>
<path d="M35.0352 23.7907L46.3826 38.9061L54.6923 23.3506L35.0352 23.7907Z" fill="#F5F5F5"/>
<path d="M323.609 129.842C323.609 128.454 324.804 127.329 326.277 127.329C327.752 127.329 328.947 128.454 328.947 129.842V171.726C328.947 173.113 327.752 174.239 326.277 174.239C324.804 174.239 323.609 173.113 323.609 171.726V129.842Z" fill="white"/>
<path fill-rule="evenodd" clip-rule="evenodd" d="M323.609 167.538H328.947V177.59H325.388H323.609H320.05V175.915C320.05 174.99 320.847 174.239 321.829 174.239H323.609V167.538Z" fill="#606060"/>
<path d="M325.388 87.1196L308.438 152.459H342.338L325.388 87.1196Z" fill="#232323"/>
<path d="M327.329 108.218C327.309 107.516 326.699 106.956 325.953 106.956C325.212 106.956 324.604 107.509 324.578 108.207L323.674 132.493C323.638 133.441 324.444 134.227 325.452 134.227H326.236C327.237 134.227 328.041 133.45 328.014 132.508L327.329 108.218Z" fill="white"/>
<path d="M279.555 51.0893C279.555 79.773 284.003 100.522 323.147 100.522C373.857 100.522 365.851 79.773 365.851 51.0893C365.851 22.4053 347.223 1.67538 323.147 1.67538C299.072 1.67538 279.555 22.4053 279.555 51.0893Z" fill="#F5F5F5"/>
<path d="M296.029 73.7168C292.59 73.7168 289.802 71.0912 289.802 67.8529C289.802 64.6145 292.59 61.9889 296.029 61.9889C299.469 61.9889 302.257 64.6145 302.257 67.8529C302.257 71.0912 299.469 73.7168 296.029 73.7168Z" fill="#232323"/>
<path d="M280.905 68.6906L277.824 78.7426H283.987L280.905 68.6906Z" fill="#F5F5F5"/>
<path d="M295.748 86.3247C296.214 86.1784 296.718 86.4156 296.874 86.8545C297.029 87.2934 296.777 87.7677 296.311 87.914L295.748 86.3247ZM290.692 88.7951C290.2 88.7951 289.802 88.42 289.802 87.9574C289.802 87.4947 290.2 87.1196 290.692 87.1196V88.7951ZM296.311 87.914L295.011 88.3223L294.449 86.733L295.748 86.3247L296.311 87.914ZM291.917 88.7951H290.692V87.1196H291.917V88.7951ZM295.011 88.3223C294.014 88.6355 292.969 88.7951 291.917 88.7951V87.1196C292.777 87.1196 293.632 86.9892 294.449 86.733L295.011 88.3223Z" fill="black"/>
<path d="M279.137 34.1325L278.466 37.3487C277.722 40.9226 277.346 44.556 277.346 48.1981V55.2872H308.511C314.586 55.2872 319.511 59.9242 319.511 65.6445V99.6848L331.998 102.166C337.701 103.299 343.542 103.694 349.359 103.339L368.091 102.198V81.2557V61.9889V48.8609C368.091 44.7832 367.57 40.7204 366.538 36.7601C364.546 29.112 360.692 22.0049 355.281 16.0002L352.854 13.3077C351.404 11.6987 349.811 10.2048 348.096 8.84649C340.89 3.13941 331.764 0 322.348 0C315.094 0 307.976 1.85851 301.758 5.37639L299.691 6.5457C294.624 9.41256 290.221 13.2099 286.743 17.7117C282.969 22.5987 280.373 28.2028 279.137 34.1325Z" fill="#232323"/>
<path d="M323.609 129.842C323.609 128.454 324.804 127.329 326.277 127.329C327.752 127.329 328.947 128.454 328.947 129.842V171.726C328.947 173.113 327.752 174.239 326.277 174.239C324.804 174.239 323.609 173.113 323.609 171.726V129.842Z" fill="white"/>
<path fill-rule="evenodd" clip-rule="evenodd" d="M323.609 167.538H328.947V177.59H325.388H323.609H320.05V175.915C320.05 174.99 320.847 174.239 321.829 174.239H323.609V167.538Z" fill="#606060"/>
<path d="M325.388 87.1196L308.438 152.459H342.338L325.388 87.1196Z" fill="#232323"/>
<path d="M327.329 108.218C327.309 107.516 326.699 106.956 325.953 106.956C325.212 106.956 324.604 107.509 324.578 108.207L323.674 132.493C323.638 133.441 324.444 134.227 325.452 134.227H326.236C327.237 134.227 328.041 133.45 328.014 132.508L327.329 108.218Z" fill="white"/>
<path d="M279.555 51.0893C279.555 79.773 284.003 100.522 323.147 100.522C373.857 100.522 365.851 79.773 365.851 51.0893C365.851 22.4053 347.223 1.67538 323.147 1.67538C299.072 1.67538 279.555 22.4053 279.555 51.0893Z" fill="#F5F5F5"/>
<path d="M296.029 73.7168C292.59 73.7168 289.802 71.0912 289.802 67.8529C289.802 64.6145 292.59 61.9889 296.029 61.9889C299.469 61.9889 302.257 64.6145 302.257 67.8529C302.257 71.0912 299.469 73.7168 296.029 73.7168Z" fill="#232323"/>
<path d="M280.905 68.6906L277.824 78.7426H283.987L280.905 68.6906Z" fill="#F5F5F5"/>
<path d="M295.748 86.3253C296.214 86.1784 296.718 86.4156 296.874 86.8545C297.029 87.294 296.777 87.7677 296.311 87.914L295.748 86.3253ZM290.692 88.7951C290.2 88.7951 289.802 88.4201 289.802 87.9574C289.802 87.4947 290.2 87.1196 290.692 87.1196V88.7951ZM296.311 87.914L295.011 88.3223L294.449 86.733L295.748 86.3253L296.311 87.914ZM291.917 88.7951H290.692V87.1196H291.917V88.7951ZM295.011 88.3223C294.014 88.6356 292.969 88.7951 291.917 88.7951V87.1196C292.777 87.1196 293.632 86.9892 294.449 86.733L295.011 88.3223Z" fill="black"/>
<path d="M279.137 34.1325L278.466 37.3487C277.722 40.9226 277.346 44.556 277.346 48.1981V55.2872H308.511C314.586 55.2872 319.511 59.9242 319.511 65.6445V99.6848L331.998 102.166C337.701 103.299 343.542 103.694 349.359 103.339L368.091 102.198V81.2557V61.9889V48.8609C368.091 44.7832 367.57 40.7204 366.538 36.7601C364.546 29.112 360.692 22.0049 355.281 16.0002L352.854 13.3077C351.404 11.6987 349.811 10.2048 348.096 8.84649C340.89 3.13941 331.764 0 322.348 0C315.094 0 307.976 1.85851 301.758 5.37639L299.691 6.5457C294.624 9.41256 290.221 13.2099 286.743 17.7117C282.969 22.5987 280.373 28.2028 279.137 34.1325Z" fill="#232323"/>
<path d="M313.19 18.5476L316.369 20.0527C317.247 20.4684 317.601 21.4755 317.159 22.3021L313.963 28.2896C313.521 29.1162 312.451 29.4494 311.574 29.0338L308.394 27.5286C307.516 27.1129 307.162 26.1059 307.604 25.2793L310.801 19.2918C311.242 18.4652 312.312 18.1319 313.19 18.5476Z" fill="#F5F5F5"/>
<path d="M312.382 23.7907L301.035 8.6752L292.729 24.2308L312.382 23.7907Z" fill="#F5F5F5"/>
<path d="M312.382 23.7907L301.035 8.6752L292.729 24.2308L312.382 23.7907Z" fill="#F5F5F5"/>
<path d="M312.382 23.7907L301.035 8.6752L292.729 24.2308L312.382 23.7907Z" fill="#F5F5F5"/>
<path d="M312.382 23.7907L323.728 38.9061L332.034 23.3506L312.382 23.7907Z" fill="#F5F5F5"/>
<path d="M312.382 23.7907L323.728 38.9061L332.034 23.3506L312.382 23.7907Z" fill="#F5F5F5"/>
<path d="M312.382 23.7907L323.728 38.9061L332.034 23.3506L312.382 23.7907Z" fill="#F5F5F5"/>
<path d="M323.609 164.187H328.947V165.862H323.609V164.187Z" fill="#232323"/>
<path d="M323.609 154.135H328.947V155.81H323.609V154.135Z" fill="#232323"/>
<path d="M323.609 157.486H328.947V159.161H323.609V157.486Z" fill="#232323"/>
<path d="M323.609 160.836H328.947V162.511H323.609V160.836Z" fill="#232323"/>
<path d="M328.947 152.459H323.609V154.135H328.947V152.459Z" fill="#C4C4C4"/>
<path d="M328.947 155.81H323.609V157.486H328.947V155.81Z" fill="#C4C4C4"/>
<path d="M328.947 159.161H323.609V160.836H328.947V159.161Z" fill="#C4C4C4"/>
<path d="M328.947 162.511H323.609V164.187H328.947V162.511Z" fill="#C4C4C4"/>
<path d="M328.947 165.862H323.609V167.538H328.947V165.862Z" fill="#C4C4C4"/>
<path d="M323.609 164.187H328.947V165.862H323.609V164.187Z" fill="#232323"/>
<path d="M323.609 154.135H328.947V155.81H323.609V154.135Z" fill="#232323"/>
<path d="M323.609 157.486H328.947V159.161H323.609V157.486Z" fill="#232323"/>
<path d="M323.609 160.836H328.947V162.511H323.609V160.836Z" fill="#232323"/>
<path d="M693.401 129.842C693.401 128.454 694.596 127.329 696.07 127.329C697.544 127.329 698.739 128.454 698.739 129.842V171.726C698.739 173.113 697.544 174.239 696.07 174.239C694.596 174.239 693.401 173.113 693.401 171.726V129.842Z" fill="white"/>
<path fill-rule="evenodd" clip-rule="evenodd" d="M693.401 167.538H698.739V177.59H695.18H693.401H689.842V175.915C689.842 174.99 690.639 174.239 691.622 174.239H693.401V167.538Z" fill="#606060"/>
<path d="M695.18 87.1196L678.23 152.459H712.131L695.18 87.1196Z" fill="#232323"/>
<path d="M697.121 108.218C697.102 107.516 696.492 106.956 695.746 106.956C695.004 106.956 694.396 107.509 694.37 108.207L693.466 132.493C693.43 133.441 694.237 134.227 695.244 134.227H696.028C697.029 134.227 697.833 133.45 697.806 132.508L697.121 108.218Z" fill="white"/>
<path d="M649.347 51.0893C649.347 79.773 653.795 100.522 692.94 100.522C743.65 100.522 735.643 79.773 735.643 51.0893C735.643 22.4053 717.016 1.67538 692.94 1.67538C668.864 1.67538 649.347 22.4053 649.347 51.0893Z" fill="#F5F5F5"/>
<path d="M665.822 73.7168C662.382 73.7168 659.594 71.0912 659.594 67.8529C659.594 64.6145 662.382 61.9889 665.822 61.9889C669.261 61.9889 672.05 64.6145 672.05 67.8529C672.05 71.0912 669.261 73.7168 665.822 73.7168Z" fill="#232323"/>
<path d="M650.698 68.6906L647.616 78.7426H653.78L650.698 68.6906Z" fill="#F5F5F5"/>
<path d="M665.541 86.3247C666.007 86.1784 666.51 86.4156 666.666 86.8545C666.821 87.2934 666.569 87.7677 666.103 87.914L665.541 86.3247ZM660.484 88.7951C659.993 88.7951 659.594 88.42 659.594 87.9574C659.594 87.4947 659.993 87.1196 660.484 87.1196V88.7951ZM666.103 87.914L664.804 88.3223L664.241 86.733L665.541 86.3247L666.103 87.914ZM661.709 88.7951H660.484V87.1196H661.709V88.7951ZM664.804 88.3223C663.806 88.6355 662.761 88.7951 661.709 88.7951V87.1196C662.57 87.1196 663.425 86.9892 664.241 86.733L664.804 88.3223Z" fill="black"/>
<path d="M648.93 34.1325L648.259 37.3487C647.514 40.9226 647.139 44.556 647.139 48.1981V55.2872H678.304C684.379 55.2872 689.303 59.9242 689.303 65.6445V99.6848L701.791 102.166C707.494 103.299 713.335 103.694 719.151 103.339L737.884 102.198V81.2557V61.9889V48.8609C737.884 44.7832 737.362 40.7204 736.33 36.7601C734.338 29.112 730.484 22.0049 725.073 16.0002L722.647 13.3077C721.197 11.6987 719.603 10.2048 717.888 8.84649C710.683 3.13941 701.556 0 692.14 0C684.886 0 677.769 1.85851 671.55 5.37639L669.484 6.5457C664.417 9.41256 660.013 13.2099 656.536 17.7117C652.761 22.5987 650.165 28.2028 648.93 34.1325Z" fill="#232323"/>
<path d="M693.401 129.842C693.401 128.454 694.596 127.329 696.07 127.329C697.544 127.329 698.739 128.454 698.739 129.842V171.726C698.739 173.113 697.544 174.239 696.07 174.239C694.596 174.239 693.401 173.113 693.401 171.726V129.842Z" fill="white"/>
<path fill-rule="evenodd" clip-rule="evenodd" d="M693.401 167.538H698.739V177.59H695.18H693.401H689.842V175.915C689.842 174.99 690.639 174.239 691.622 174.239H693.401V167.538Z" fill="#606060"/>
<path d="M695.18 87.1196L678.23 152.459H712.131L695.18 87.1196Z" fill="#232323"/>
<path d="M697.121 108.218C697.102 107.516 696.492 106.956 695.746 106.956C695.004 106.956 694.396 107.509 694.37 108.207L693.466 132.493C693.43 133.441 694.237 134.227 695.244 134.227H696.028C697.029 134.227 697.833 133.45 697.806 132.508L697.121 108.218Z" fill="white"/>
<path d="M649.347 51.0893C649.347 79.773 653.795 100.522 692.94 100.522C743.65 100.522 735.643 79.773 735.643 51.0893C735.643 22.4053 717.016 1.67538 692.94 1.67538C668.864 1.67538 649.347 22.4053 649.347 51.0893Z" fill="#F5F5F5"/>
<path d="M665.822 73.7168C662.382 73.7168 659.594 71.0912 659.594 67.8529C659.594 64.6145 662.382 61.9889 665.822 61.9889C669.261 61.9889 672.05 64.6145 672.05 67.8529C672.05 71.0912 669.261 73.7168 665.822 73.7168Z" fill="#232323"/>
<path d="M650.698 68.6906L647.616 78.7426H653.78L650.698 68.6906Z" fill="#F5F5F5"/>
<path d="M665.541 86.3253C666.007 86.1784 666.51 86.4156 666.666 86.8545C666.821 87.294 666.569 87.7677 666.103 87.914L665.541 86.3253ZM660.484 88.7951C659.993 88.7951 659.594 88.4201 659.594 87.9574C659.594 87.4947 659.993 87.1196 660.484 87.1196V88.7951ZM666.103 87.914L664.804 88.3223L664.241 86.733L665.541 86.3253L666.103 87.914ZM661.709 88.7951H660.484V87.1196H661.709V88.7951ZM664.804 88.3223C663.806 88.6356 662.761 88.7951 661.709 88.7951V87.1196C662.57 87.1196 663.425 86.9892 664.241 86.733L664.804 88.3223Z" fill="black"/>
<path d="M648.93 34.1325L648.259 37.3487C647.514 40.9226 647.139 44.556 647.139 48.1981V55.2872H678.304C684.379 55.2872 689.303 59.9242 689.303 65.6445V99.6848L701.791 102.166C707.494 103.299 713.335 103.694 719.151 103.339L737.884 102.198V81.2557V61.9889V48.8609C737.884 44.7832 737.362 40.7204 736.33 36.7601C734.338 29.112 730.484 22.0049 725.073 16.0002L722.647 13.3077C721.197 11.6987 719.603 10.2048 717.888 8.84649C710.683 3.13941 701.556 0 692.14 0C684.886 0 677.769 1.85851 671.55 5.37639L669.484 6.5457C664.417 9.41256 660.013 13.2099 656.536 17.7117C652.761 22.5987 650.165 28.2028 648.93 34.1325Z" fill="#232323"/>
<path d="M682.982 18.5476L686.162 20.0527C687.04 20.4684 687.393 21.4755 686.952 22.3021L683.755 28.2896C683.314 29.1162 682.244 29.4494 681.366 29.0338L678.187 27.5286C677.309 27.1129 676.955 26.1059 677.396 25.2793L680.593 19.2918C681.035 18.4652 682.104 18.1319 682.982 18.5476Z" fill="#F5F5F5"/>
<path d="M682.174 23.7907L670.828 8.6752L662.521 24.2308L682.174 23.7907Z" fill="#F5F5F5"/>
<path d="M682.174 23.7907L670.828 8.6752L662.521 24.2308L682.174 23.7907Z" fill="#F5F5F5"/>
<path d="M682.174 23.7907L670.828 8.6752L662.521 24.2308L682.174 23.7907Z" fill="#F5F5F5"/>
<path d="M682.174 23.7907L693.52 38.9061L701.827 23.3506L682.174 23.7907Z" fill="#F5F5F5"/>
<path d="M682.174 23.7907L693.52 38.9061L701.827 23.3506L682.174 23.7907Z" fill="#F5F5F5"/>
<path d="M682.174 23.7907L693.52 38.9061L701.827 23.3506L682.174 23.7907Z" fill="#F5F5F5"/>
<path d="M693.401 164.187H698.739V165.862H693.401V164.187Z" fill="#232323"/>
<path d="M693.401 154.135H698.739V155.81H693.401V154.135Z" fill="#232323"/>
<path d="M693.401 157.486H698.739V159.161H693.401V157.486Z" fill="#232323"/>
<path d="M693.401 160.836H698.739V162.511H693.401V160.836Z" fill="#232323"/>
<path d="M698.739 152.459H693.401V154.135H698.739V152.459Z" fill="#C4C4C4"/>
<path d="M698.739 155.81H693.401V157.486H698.739V155.81Z" fill="#C4C4C4"/>
<path d="M698.739 159.161H693.401V160.836H698.739V159.161Z" fill="#C4C4C4"/>
<path d="M698.739 162.511H693.401V164.187H698.739V162.511Z" fill="#C4C4C4"/>
<path d="M698.739 165.862H693.401V167.538H698.739V165.862Z" fill="#C4C4C4"/>
<path d="M693.401 164.187H698.739V165.862H693.401V164.187Z" fill="#232323"/>
<path d="M693.401 154.135H698.739V155.81H693.401V154.135Z" fill="#232323"/>
<path d="M693.401 157.486H698.739V159.161H693.401V157.486Z" fill="#232323"/>
<path d="M693.401 160.836H698.739V162.511H693.401V160.836Z" fill="#232323"/>
</svg>
