<svg width="738" height="178" viewBox="0 0 738 178" fill="none" xmlns="http://www.w3.org/2000/svg">
<path fill-rule="evenodd" clip-rule="evenodd" d="M221.199 167.056L216.148 165.329L212.895 174.841L216.262 175.992L217.946 176.568L221.313 177.72L221.855 176.134C222.154 175.259 221.644 174.291 220.714 173.973L219.03 173.397L221.199 167.056Z" fill="#606060"/>
<path d="M221.028 151.062L226.078 152.789L225.536 154.375L220.485 152.647L221.028 151.062Z" fill="#C4C4C4"/>
<path d="M219.943 154.233L224.994 155.96L224.452 157.545L219.401 155.818L219.943 154.233Z" fill="#C4C4C4"/>
<path d="M218.858 157.404L223.909 159.13L223.367 160.716L218.316 158.989L218.858 157.404Z" fill="#C4C4C4"/>
<path d="M217.774 160.573L222.825 162.301L222.283 163.886L217.232 162.159L217.774 160.573Z" fill="#C4C4C4"/>
<path d="M216.69 163.744L221.741 165.471L221.199 167.056L216.148 165.329L216.69 163.744Z" fill="#C4C4C4"/>
<path d="M222.283 163.886L217.232 162.159L216.69 163.744L221.741 165.471L222.283 163.886Z" fill="#232323"/>
<path d="M225.536 154.375L220.485 152.647L219.943 154.233L224.994 155.96L225.536 154.375Z" fill="#232323"/>
<path d="M224.452 157.545L219.401 155.818L218.858 157.404L223.909 159.13L224.452 157.545Z" fill="#232323"/>
<path d="M223.367 160.716L218.316 158.989L217.774 160.573L222.825 162.301L223.367 160.716Z" fill="#232323"/>
<path fill-rule="evenodd" clip-rule="evenodd" d="M235.839 166.335L230.923 168.415L234.842 177.673L238.119 176.285L239.758 175.592L243.035 174.205L242.382 172.663C242.021 171.811 240.995 171.43 240.09 171.813L238.452 172.506L235.839 166.335Z" fill="#606060"/>
<path d="M225.045 154.529L229.961 152.449L230.614 153.992L225.698 156.072L225.045 154.529Z" fill="#C4C4C4"/>
<path d="M226.352 157.615L231.267 155.535L231.92 157.078L227.004 159.158L226.352 157.615Z" fill="#C4C4C4"/>
<path d="M227.657 160.701L232.574 158.621L233.226 160.164L228.311 162.244L227.657 160.701Z" fill="#C4C4C4"/>
<path d="M228.964 163.786L233.879 161.706L234.532 163.249L229.617 165.329L228.964 163.786Z" fill="#C4C4C4"/>
<path d="M230.27 166.872L235.186 164.792L235.839 166.335L230.923 168.415L230.27 166.872Z" fill="#C4C4C4"/>
<path d="M234.532 163.249L229.617 165.329L230.27 166.872L235.186 164.792L234.532 163.249Z" fill="#232323"/>
<path d="M230.614 153.992L225.698 156.072L226.352 157.615L231.267 155.535L230.614 153.992Z" fill="#232323"/>
<path d="M231.92 157.078L227.004 159.158L227.657 160.701L232.574 158.621L231.92 157.078Z" fill="#232323"/>
<path d="M233.227 160.164L228.311 162.244L228.964 163.786L233.879 161.706L233.227 160.164Z" fill="#232323"/>
<path d="M225.998 110.239C226.396 109.66 227.212 109.521 227.838 109.925C228.461 110.327 228.672 111.121 228.315 111.722L215.898 132.615C215.414 133.43 214.309 133.653 213.463 133.106L212.804 132.681C211.964 132.138 211.71 131.049 212.243 130.272L225.998 110.239Z" fill="white"/>
<path d="M227.6 89.2324L244.55 154.572H210.65L227.6 89.2324Z" fill="#232323"/>
<path d="M225.658 110.33C225.678 109.628 226.289 109.069 227.035 109.069C227.776 109.069 228.384 109.622 228.41 110.319L229.314 134.606C229.349 135.554 228.543 136.34 227.536 136.34H226.752C225.751 136.34 224.947 135.563 224.974 134.62L225.658 110.33Z" fill="white"/>
<path d="M273.433 53.2019C273.433 81.8858 268.985 102.635 229.84 102.635C179.13 102.635 187.137 81.8858 187.137 53.2019C187.137 24.5181 205.764 3.78815 229.84 3.78815C253.916 3.78815 273.433 24.5181 273.433 53.2019Z" fill="#F5F5F5"/>
<path d="M256.958 75.8296C260.398 75.8296 263.186 73.2039 263.186 69.9656C263.186 66.7273 260.398 64.1017 256.958 64.1017C253.519 64.1017 250.73 66.7273 250.73 69.9656C250.73 73.2039 253.519 75.8296 256.958 75.8296Z" fill="#232323"/>
<path d="M272.082 70.8033L275.164 80.8553H269L272.082 70.8033Z" fill="#F5F5F5"/>
<path d="M257.239 88.4375C256.773 88.2912 256.27 88.5283 256.114 88.9673C255.959 89.4062 256.211 89.8805 256.677 90.0268L257.239 88.4375ZM262.296 90.9078C262.787 90.9078 263.186 90.5328 263.186 90.0701C263.186 89.6074 262.787 89.2324 262.296 89.2324V90.9078ZM256.677 90.0268L257.976 90.4351L258.539 88.8458L257.239 88.4375L256.677 90.0268ZM261.071 90.9078H262.296V89.2324H261.071V90.9078ZM257.976 90.4351C258.974 90.7483 260.019 90.9078 261.071 90.9078V89.2324C260.21 89.2324 259.355 89.1019 258.539 88.8458L257.976 90.4351Z" fill="black"/>
<path d="M273.85 36.2452L274.521 39.4614C275.266 43.0354 275.641 46.6688 275.641 50.3108V57.4H244.476C238.401 57.4 233.477 62.037 233.477 67.7573V101.798L220.99 104.278C215.286 105.412 209.446 105.806 203.629 105.452L184.896 104.311V83.3684V64.1017V50.9737C184.896 46.8959 185.418 42.8331 186.449 38.8729C188.442 31.2248 192.296 24.1177 197.707 18.113L200.133 15.4205C201.583 13.8115 203.177 12.3176 204.892 10.9593C212.098 5.25217 221.224 2.11276 230.64 2.11276C237.894 2.11276 245.011 3.97127 251.23 7.48916L253.296 8.65846C258.363 11.5253 262.767 15.3226 266.244 19.8245C270.019 24.7114 272.615 30.3156 273.85 36.2452Z" fill="#232323"/>
<path d="M227.6 89.2324L244.55 154.572H210.65L227.6 89.2324Z" fill="#232323"/>
<path d="M227.995 112.237C227.527 111.713 227.586 110.888 228.127 110.375C228.665 109.866 229.487 109.849 229.986 110.338L247.339 127.356C248.016 128.02 247.971 129.145 247.239 129.837L246.671 130.376C245.943 131.064 244.825 131.052 244.196 130.349L227.995 112.237Z" fill="white"/>
<path d="M273.433 53.2019C273.433 81.8858 268.985 102.635 229.84 102.635C179.13 102.635 187.137 81.8858 187.137 53.2019C187.137 24.5181 205.764 3.78815 229.84 3.78815C253.916 3.78815 273.433 24.5181 273.433 53.2019Z" fill="#F5F5F5"/>
<path d="M256.958 75.8296C260.398 75.8296 263.186 73.2039 263.186 69.9656C263.186 66.7273 260.398 64.1017 256.958 64.1017C253.519 64.1017 250.73 66.7273 250.73 69.9656C250.73 73.2039 253.519 75.8296 256.958 75.8296Z" fill="#232323"/>
<path d="M272.082 70.8033L275.164 80.8553H269L272.082 70.8033Z" fill="#F5F5F5"/>
<path d="M257.239 88.438C256.773 88.2912 256.27 88.5283 256.114 88.9673C255.959 89.4067 256.211 89.8805 256.677 90.0268L257.239 88.438ZM262.296 90.9078C262.787 90.9078 263.186 90.5328 263.186 90.0701C263.186 89.6074 262.787 89.2324 262.296 89.2324V90.9078ZM256.677 90.0268L257.976 90.4351L258.539 88.8458L257.239 88.438L256.677 90.0268ZM261.071 90.9078H262.296V89.2324H261.071V90.9078ZM257.976 90.4351C258.974 90.7483 260.019 90.9078 261.071 90.9078V89.2324C260.21 89.2324 259.355 89.1019 258.539 88.8458L257.976 90.4351Z" fill="black"/>
<path d="M273.85 36.2452L274.521 39.4614C275.266 43.0354 275.641 46.6688 275.641 50.3108V57.4H244.476C238.401 57.4 233.477 62.037 233.477 67.7573V101.798L220.99 104.278C215.286 105.412 209.446 105.806 203.629 105.452L184.896 104.311V83.3684V64.1017V50.9737C184.896 46.8959 185.418 42.8331 186.449 38.8729C188.442 31.2248 192.296 24.1177 197.707 18.113L200.133 15.4205C201.583 13.8115 203.177 12.3176 204.892 10.9593C212.098 5.25217 221.224 2.11276 230.64 2.11276C237.894 2.11276 245.011 3.97127 251.23 7.48916L253.296 8.65846C258.363 11.5253 262.767 15.3226 266.244 19.8245C270.019 24.7114 272.615 30.3156 273.85 36.2452Z" fill="#232323"/>
<path d="M239.798 20.6604L236.619 22.1655C235.741 22.5812 235.387 23.5882 235.828 24.4149L239.025 30.4024C239.466 31.229 240.536 31.5622 241.414 31.1465L244.593 29.6414C245.471 29.2257 245.825 28.2187 245.384 27.392L242.187 21.4046C241.745 20.5779 240.676 20.2447 239.798 20.6604Z" fill="#F5F5F5"/>
<path d="M240.606 25.9034L251.952 10.788L260.259 26.3436L240.606 25.9034Z" fill="#F5F5F5"/>
<path d="M240.606 25.9034L251.952 10.788L260.259 26.3436L240.606 25.9034Z" fill="#F5F5F5"/>
<path d="M240.606 25.9034L251.952 10.788L260.259 26.3436L240.606 25.9034Z" fill="#F5F5F5"/>
<path d="M240.606 25.9034L229.26 41.0189L220.954 25.4633L240.606 25.9034Z" fill="#F5F5F5"/>
<path d="M240.606 25.9034L229.26 41.0189L220.954 25.4633L240.606 25.9034Z" fill="#F5F5F5"/>
<path d="M240.606 25.9034L229.26 41.0189L220.954 25.4633L240.606 25.9034Z" fill="#F5F5F5"/>
<path fill-rule="evenodd" clip-rule="evenodd" d="M604.32 165.214L599.455 167.408L603.591 176.571L606.835 175.108L608.456 174.377L611.7 172.913L611.008 171.386C610.628 170.543 609.592 170.186 608.699 170.591L607.078 171.322L604.32 165.214Z" fill="#606060"/>
<path d="M593.253 153.664L598.118 151.469L598.805 152.997L593.939 155.191L593.253 153.664Z" fill="#C4C4C4"/>
<path d="M594.631 156.719L599.497 154.524L600.184 156.051L595.318 158.246L594.631 156.719Z" fill="#C4C4C4"/>
<path d="M596.01 159.773L600.876 157.578L601.562 159.105L596.697 161.3L596.01 159.773Z" fill="#C4C4C4"/>
<path d="M597.389 162.827L602.255 160.632L602.941 162.159L598.076 164.354L597.389 162.827Z" fill="#C4C4C4"/>
<path d="M598.768 165.881L603.633 163.686L604.32 165.214L599.455 167.408L598.768 165.881Z" fill="#C4C4C4"/>
<path d="M602.941 162.159L598.076 164.354L598.768 165.881L603.633 163.686L602.941 162.159Z" fill="#232323"/>
<path d="M598.805 152.997L593.939 155.191L594.631 156.719L599.497 154.524L598.805 152.997Z" fill="#232323"/>
<path d="M600.184 156.051L595.318 158.246L596.01 159.773L600.876 157.578L600.184 156.051Z" fill="#232323"/>
<path d="M601.562 159.105L596.697 161.3L597.389 162.827L602.255 160.632L601.562 159.105Z" fill="#232323"/>
<path fill-rule="evenodd" clip-rule="evenodd" d="M592.846 167.052L587.859 165.148L584.272 174.538L587.595 175.808L589.259 176.443L592.582 177.713L593.179 176.148C593.512 175.284 593.036 174.298 592.117 173.948L590.453 173.313L592.846 167.052Z" fill="#606060"/>
<path d="M593.242 151.062L598.229 152.967L597.632 154.532L592.645 152.627L593.242 151.062Z" fill="#C4C4C4"/>
<path d="M592.048 154.192L597.035 156.098L596.433 157.663L591.446 155.757L592.048 154.192Z" fill="#C4C4C4"/>
<path d="M590.849 157.322L595.836 159.228L595.239 160.793L590.252 158.887L590.849 157.322Z" fill="#C4C4C4"/>
<path d="M589.655 160.452L594.642 162.357L594.045 163.922L589.058 162.017L589.655 160.452Z" fill="#C4C4C4"/>
<path d="M588.456 163.583L593.443 165.487L592.846 167.052L587.859 165.148L588.456 163.583Z" fill="#C4C4C4"/>
<path d="M594.045 163.922L589.058 162.017L588.456 163.583L593.443 165.487L594.045 163.922Z" fill="#232323"/>
<path d="M597.632 154.532L592.645 152.627L592.048 154.192L597.035 156.098L597.632 154.532Z" fill="#232323"/>
<path d="M596.433 157.663L591.446 155.757L590.849 157.322L595.836 159.228L596.433 157.663Z" fill="#232323"/>
<path d="M595.239 160.793L590.252 158.887L589.655 160.452L594.642 162.357L595.239 160.793Z" fill="#232323"/>
<path d="M597.394 89.7606L614.341 155.1H580.442L597.394 89.7606Z" fill="#232323"/>
<path d="M595.45 110.859C595.471 110.157 596.079 109.597 596.829 109.597C597.569 109.597 598.176 110.15 598.203 110.848L599.106 135.134C599.143 136.082 598.335 136.868 597.331 136.868H596.544C595.545 136.868 594.737 136.091 594.764 135.148L595.45 110.859Z" fill="white"/>
<path d="M643.227 53.7301C643.227 82.414 638.779 103.163 599.634 103.163C548.92 103.163 556.929 82.414 556.929 53.7301C556.929 25.0463 575.555 4.31633 599.634 4.31633C623.708 4.31633 643.227 25.0463 643.227 53.7301Z" fill="#F5F5F5"/>
<path d="M626.751 76.3578C630.19 76.3578 632.979 73.7321 632.979 70.4938C632.979 67.2555 630.19 64.6298 626.751 64.6298C623.312 64.6298 620.522 67.2555 620.522 70.4938C620.522 73.7321 623.312 76.3578 626.751 76.3578Z" fill="#232323"/>
<path d="M641.875 71.3315L644.955 81.3835H638.795L641.875 71.3315Z" fill="#F5F5F5"/>
<path d="M627.031 88.9657C626.566 88.8194 626.064 89.0565 625.905 89.4954C625.752 89.9344 626.006 90.4087 626.471 90.555L627.031 88.9657ZM632.086 91.436C632.577 91.436 632.979 91.061 632.979 90.5983C632.979 90.1356 632.577 89.7606 632.086 89.7606V91.436ZM626.471 90.555L627.77 90.9633L628.33 89.3739L627.031 88.9657L626.471 90.555ZM630.866 91.436H632.086V89.7606H630.866V91.436ZM627.77 90.9633C628.769 91.2765 629.809 91.436 630.866 91.436V89.7606C630.005 89.7606 629.149 89.6301 628.33 89.3739L627.77 90.9633Z" fill="black"/>
<path d="M643.645 36.7734L644.316 39.9896C645.061 43.5636 645.436 47.1969 645.436 50.839V57.9282H614.267C608.192 57.9282 603.269 62.5652 603.269 68.2854V102.326L590.78 104.807C585.08 105.94 579.238 106.335 573.421 105.98L554.689 104.839V83.8966V64.6298V51.5018C554.689 47.4241 555.212 43.3613 556.242 39.4011C558.233 31.753 562.09 24.6459 567.499 18.6411L569.924 15.9487C571.377 14.3397 572.967 12.8458 574.684 11.4874C581.889 5.78035 591.018 2.64095 600.432 2.64095C607.685 2.64095 614.806 4.49946 621.024 8.01734L623.09 9.18665C628.156 12.0535 632.562 15.8508 636.038 20.3527C639.81 25.2396 642.409 30.8438 643.645 36.7734Z" fill="#232323"/>
<path d="M595.662 113.773C595.207 113.237 595.287 112.413 595.841 111.915C596.396 111.42 597.215 111.425 597.701 111.927L614.6 129.397C615.261 130.079 615.187 131.202 614.436 131.875L613.85 132.399C613.105 133.067 611.991 133.026 611.378 132.307L595.662 113.773Z" fill="white"/>
<path d="M597.394 89.7606L614.341 155.1H580.442L597.394 89.7606Z" fill="#232323"/>
<path d="M595.725 112.355C596.079 111.749 596.882 111.549 597.537 111.905C598.187 112.259 598.461 113.036 598.15 113.661L587.331 135.425C586.908 136.274 585.825 136.579 584.938 136.098L584.251 135.723C583.369 135.244 583.036 134.177 583.511 133.362L595.725 112.355Z" fill="white"/>
<path d="M643.227 53.7301C643.227 82.414 638.779 103.163 599.634 103.163C548.92 103.163 556.929 82.414 556.929 53.7301C556.929 25.0463 575.555 4.31633 599.634 4.31633C623.708 4.31633 643.227 25.0463 643.227 53.7301Z" fill="#F5F5F5"/>
<path d="M626.751 76.3578C630.19 76.3578 632.979 73.7321 632.979 70.4938C632.979 67.2555 630.19 64.6298 626.751 64.6298C623.312 64.6298 620.522 67.2555 620.522 70.4938C620.522 73.7321 623.312 76.3578 626.751 76.3578Z" fill="#232323"/>
<path d="M641.875 71.3315L644.955 81.3835H638.795L641.875 71.3315Z" fill="#F5F5F5"/>
<path d="M627.031 88.9662C626.566 88.8194 626.064 89.0565 625.905 89.4954C625.752 89.9349 626.006 90.4087 626.471 90.555L627.031 88.9662ZM632.086 91.436C632.577 91.436 632.979 91.061 632.979 90.5983C632.979 90.1356 632.577 89.7606 632.086 89.7606V91.436ZM626.471 90.555L627.77 90.9633L628.33 89.374L627.031 88.9662L626.471 90.555ZM630.866 91.436H632.086V89.7606H630.866V91.436ZM627.77 90.9633C628.769 91.2765 629.809 91.436 630.866 91.436V89.7606C630.005 89.7606 629.149 89.6301 628.33 89.374L627.77 90.9633Z" fill="black"/>
<path d="M643.645 36.7734L644.316 39.9896C645.061 43.5636 645.436 47.1969 645.436 50.839V57.9282H614.267C608.192 57.9282 603.269 62.5652 603.269 68.2854V102.326L590.78 104.807C585.08 105.94 579.238 106.335 573.421 105.98L554.689 104.839V83.8966V64.6298V51.5018C554.689 47.4241 555.212 43.3613 556.242 39.4011C558.233 31.753 562.09 24.6459 567.499 18.6411L569.924 15.9487C571.377 14.3397 572.967 12.8458 574.684 11.4874C581.889 5.78035 591.018 2.64095 600.432 2.64095C607.685 2.64095 614.806 4.49946 621.024 8.01734L623.09 9.18665C628.156 12.0535 632.562 15.8508 636.038 20.3527C639.81 25.2396 642.409 30.8438 643.645 36.7734Z" fill="#232323"/>
<path d="M609.592 21.1885L606.412 22.6937C605.535 23.1094 605.181 24.1164 605.62 24.9431L608.816 30.9305C609.259 31.7572 610.327 32.0904 611.209 31.6747L614.384 30.1696C615.266 29.7539 615.62 28.7468 615.176 27.9202L611.98 21.9328C611.536 21.1061 610.469 20.7729 609.592 21.1885Z" fill="#F5F5F5"/>
<path d="M610.4 26.4316L621.743 11.3161L630.052 26.8718L610.4 26.4316Z" fill="#F5F5F5"/>
<path d="M610.4 26.4316L621.743 11.3161L630.052 26.8718L610.4 26.4316Z" fill="#F5F5F5"/>
<path d="M610.4 26.4316L621.743 11.3161L630.052 26.8718L610.4 26.4316Z" fill="#F5F5F5"/>
<path d="M610.4 26.4316L599.053 41.547L590.743 25.9915L610.4 26.4316Z" fill="#F5F5F5"/>
<path d="M610.4 26.4316L599.053 41.547L590.743 25.9915L610.4 26.4316Z" fill="#F5F5F5"/>
<path d="M610.4 26.4316L599.053 41.547L590.743 25.9915L610.4 26.4316Z" fill="#F5F5F5"/>
<path fill-rule="evenodd" clip-rule="evenodd" d="M132.66 166.817L127.396 165.932L125.729 175.846L129.239 176.435L130.994 176.73L134.503 177.32L134.781 175.668C134.934 174.755 134.273 173.883 133.304 173.72L131.549 173.425L132.66 166.817Z" fill="#606060"/>
<path d="M129.894 151.062L135.159 151.947L134.881 153.599L129.617 152.714L129.894 151.062Z" fill="#C4C4C4"/>
<path d="M129.339 154.367L134.603 155.251L134.325 156.904L129.061 156.019L129.339 154.367Z" fill="#C4C4C4"/>
<path d="M128.784 157.672L134.048 158.556L133.77 160.208L128.506 159.324L128.784 157.672Z" fill="#C4C4C4"/>
<path d="M128.229 160.975L133.492 161.86L133.215 163.512L127.951 162.628L128.229 160.975Z" fill="#C4C4C4"/>
<path d="M127.673 164.28L132.937 165.164L132.66 166.817L127.396 165.932L127.673 164.28Z" fill="#C4C4C4"/>
<path d="M133.215 163.512L127.951 162.628L127.673 164.28L132.937 165.164L133.215 163.512Z" fill="#232323"/>
<path d="M134.881 153.599L129.617 152.714L129.339 154.367L134.603 155.251L134.881 153.599Z" fill="#232323"/>
<path d="M134.325 156.904L129.061 156.019L128.784 157.672L134.048 158.556L134.325 156.904Z" fill="#232323"/>
<path d="M133.77 160.208L128.506 159.324L128.229 160.975L133.493 161.86L133.77 160.208Z" fill="#232323"/>
<path fill-rule="evenodd" clip-rule="evenodd" d="M142.568 166.485L137.304 167.375L138.981 177.287L142.489 176.694L144.244 176.397L147.753 175.804L147.473 174.152C147.319 173.24 146.409 172.633 145.439 172.797L143.685 173.093L142.568 166.485Z" fill="#606060"/>
<path d="M134.79 152.508L140.054 151.618L140.333 153.27L135.069 154.16L134.79 152.508Z" fill="#C4C4C4"/>
<path d="M135.349 155.812L140.612 154.922L140.891 156.574L135.628 157.464L135.349 155.812Z" fill="#C4C4C4"/>
<path d="M135.908 159.116L141.171 158.226L141.45 159.878L136.187 160.768L135.908 159.116Z" fill="#C4C4C4"/>
<path d="M136.467 162.419L141.73 161.529L142.009 163.181L136.746 164.071L136.467 162.419Z" fill="#C4C4C4"/>
<path d="M137.025 165.723L142.288 164.833L142.568 166.485L137.304 167.375L137.025 165.723Z" fill="#C4C4C4"/>
<path d="M142.009 163.181L136.746 164.071L137.025 165.723L142.288 164.833L142.009 163.181Z" fill="#232323"/>
<path d="M140.333 153.27L135.069 154.16L135.349 155.812L140.612 154.922L140.333 153.27Z" fill="#232323"/>
<path d="M140.891 156.574L135.628 157.464L135.908 159.116L141.171 158.226L140.891 156.574Z" fill="#232323"/>
<path d="M141.45 159.878L136.187 160.768L136.467 162.419L141.73 161.529L141.45 159.878Z" fill="#232323"/>
<path d="M135.152 87.1196L152.101 152.459H118.202L135.152 87.1196Z" fill="#232323"/>
<path d="M133.21 108.218C133.23 107.516 133.841 106.956 134.586 106.956C135.328 106.956 135.936 107.509 135.962 108.207L136.866 132.493C136.901 133.441 136.095 134.227 135.088 134.227H134.304C133.303 134.227 132.499 133.45 132.526 132.508L133.21 108.218Z" fill="white"/>
<path d="M180.985 51.0893C180.985 79.773 176.537 100.522 137.392 100.522C86.682 100.522 94.6885 79.773 94.6885 51.0893C94.6885 22.4053 113.316 1.67538 137.392 1.67538C161.468 1.67538 180.985 22.4053 180.985 51.0893Z" fill="#F5F5F5"/>
<path d="M164.51 73.7168C167.95 73.7168 170.738 71.0912 170.738 67.8529C170.738 64.6145 167.95 61.9889 164.51 61.9889C161.07 61.9889 158.282 64.6145 158.282 67.8529C158.282 71.0912 161.07 73.7168 164.51 73.7168Z" fill="#232323"/>
<path d="M179.634 68.6906L182.716 78.7426H176.552L179.634 68.6906Z" fill="#F5F5F5"/>
<path d="M164.791 86.3247C164.325 86.1784 163.822 86.4156 163.666 86.8545C163.511 87.2934 163.763 87.7677 164.228 87.914L164.791 86.3247ZM169.848 88.7951C170.339 88.7951 170.738 88.42 170.738 87.9574C170.738 87.4947 170.339 87.1196 169.848 87.1196V88.7951ZM164.228 87.914L165.528 88.3223L166.091 86.733L164.791 86.3247L164.228 87.914ZM168.623 88.7951H169.848V87.1196H168.623V88.7951ZM165.528 88.3223C166.526 88.6355 167.571 88.7951 168.623 88.7951V87.1196C167.762 87.1196 166.907 86.9892 166.091 86.733L165.528 88.3223Z" fill="black"/>
<path d="M181.402 34.1325L182.073 37.3487C182.818 40.9226 183.193 44.556 183.193 48.1981V55.2872H152.028C145.953 55.2872 141.029 59.9242 141.029 65.6445V99.6848L128.541 102.166C122.838 103.299 116.998 103.694 111.181 103.339L92.4481 102.198V81.2557V61.9889V48.8609C92.4481 44.7832 92.9695 40.7204 94.0012 36.7601C95.9939 29.112 99.8476 22.0049 105.259 16.0002L107.685 13.3077C109.135 11.6987 110.729 10.2048 112.444 8.84649C119.649 3.13941 128.775 0 138.191 0C145.446 0 152.563 1.85851 158.781 5.37639L160.848 6.5457C165.915 9.41256 170.319 13.2099 173.796 17.7117C177.571 22.5987 180.167 28.2028 181.402 34.1325Z" fill="#232323"/>
<path d="M135.152 87.1196L152.101 152.459H118.202L135.152 87.1196Z" fill="#232323"/>
<path d="M134.235 109.238C133.989 108.58 134.345 107.832 135.035 107.552C135.722 107.273 136.494 107.556 136.78 108.193L146.75 130.358C147.139 131.223 146.687 132.255 145.754 132.634L145.027 132.928C144.1 133.305 143.062 132.887 142.733 132.003L134.235 109.238Z" fill="white"/>
<path d="M180.985 51.0893C180.985 79.773 176.537 100.522 137.392 100.522C86.682 100.522 94.6885 79.773 94.6885 51.0893C94.6885 22.4053 113.316 1.67538 137.392 1.67538C161.468 1.67538 180.985 22.4053 180.985 51.0893Z" fill="#F5F5F5"/>
<path d="M164.51 73.7168C167.95 73.7168 170.738 71.0912 170.738 67.8529C170.738 64.6145 167.95 61.9889 164.51 61.9889C161.07 61.9889 158.282 64.6145 158.282 67.8529C158.282 71.0912 161.07 73.7168 164.51 73.7168Z" fill="#232323"/>
<path d="M179.634 68.6906L182.716 78.7426H176.552L179.634 68.6906Z" fill="#F5F5F5"/>
<path d="M164.791 86.3253C164.325 86.1784 163.822 86.4156 163.666 86.8545C163.511 87.294 163.763 87.7677 164.228 87.914L164.791 86.3253ZM169.848 88.7951C170.339 88.7951 170.738 88.4201 170.738 87.9574C170.738 87.4947 170.339 87.1196 169.848 87.1196V88.7951ZM164.228 87.914L165.528 88.3223L166.091 86.733L164.791 86.3253L164.228 87.914ZM168.623 88.7951H169.848V87.1196H168.623V88.7951ZM165.528 88.3223C166.526 88.6356 167.571 88.7951 168.623 88.7951V87.1196C167.762 87.1196 166.907 86.9892 166.091 86.733L165.528 88.3223Z" fill="black"/>
<path d="M181.402 34.1325L182.073 37.3487C182.818 40.9226 183.193 44.556 183.193 48.1981V55.2872H152.028C145.953 55.2872 141.029 59.9242 141.029 65.6445V99.6848L128.541 102.166C122.838 103.299 116.998 103.694 111.181 103.339L92.4481 102.198V81.2557V61.9889V48.8609C92.4481 44.7832 92.9695 40.7204 94.0012 36.7601C95.9939 29.112 99.8476 22.0049 105.259 16.0002L107.685 13.3077C109.135 11.6987 110.729 10.2048 112.444 8.84649C119.649 3.13941 128.775 0 138.191 0C145.446 0 152.563 1.85851 158.781 5.37639L160.848 6.5457C165.915 9.41256 170.319 13.2099 173.796 17.7117C177.571 22.5987 180.167 28.2028 181.402 34.1325Z" fill="#232323"/>
<path d="M147.35 18.5476L144.17 20.0527C143.292 20.4684 142.938 21.4755 143.38 22.3021L146.577 28.2896C147.018 29.1162 148.088 29.4494 148.966 29.0338L152.145 27.5286C153.023 27.1129 153.377 26.1059 152.936 25.2793L149.738 19.2918C149.297 18.4652 148.228 18.1319 147.35 18.5476Z" fill="#F5F5F5"/>
<path d="M148.158 23.7907L159.504 8.6752L167.811 24.2308L148.158 23.7907Z" fill="#F5F5F5"/>
<path d="M148.158 23.7907L159.504 8.6752L167.811 24.2308L148.158 23.7907Z" fill="#F5F5F5"/>
<path d="M148.158 23.7907L159.504 8.6752L167.811 24.2308L148.158 23.7907Z" fill="#F5F5F5"/>
<path d="M148.158 23.7907L136.812 38.9061L128.505 23.3506L148.158 23.7907Z" fill="#F5F5F5"/>
<path d="M148.158 23.7907L136.812 38.9061L128.505 23.3506L148.158 23.7907Z" fill="#F5F5F5"/>
<path d="M148.158 23.7907L136.812 38.9061L128.505 23.3506L148.158 23.7907Z" fill="#F5F5F5"/>
<path fill-rule="evenodd" clip-rule="evenodd" d="M318.613 166.817L313.348 165.932L311.682 175.846L315.191 176.435L316.946 176.73L320.456 177.32L320.734 175.668C320.887 174.755 320.225 173.883 319.257 173.72L317.502 173.425L318.613 166.817Z" fill="#606060"/>
<path d="M315.847 151.062L321.111 151.947L320.833 153.599L315.57 152.714L315.847 151.062Z" fill="#C4C4C4"/>
<path d="M315.292 154.367L320.556 155.251L320.278 156.904L315.014 156.019L315.292 154.367Z" fill="#C4C4C4"/>
<path d="M314.737 157.672L320.001 158.556L319.723 160.208L314.459 159.324L314.737 157.672Z" fill="#C4C4C4"/>
<path d="M314.181 160.975L319.445 161.86L319.168 163.512L313.904 162.628L314.181 160.975Z" fill="#C4C4C4"/>
<path d="M313.626 164.28L318.89 165.164L318.613 166.817L313.348 165.932L313.626 164.28Z" fill="#C4C4C4"/>
<path d="M319.168 163.512L313.904 162.628L313.626 164.28L318.89 165.164L319.168 163.512Z" fill="#232323"/>
<path d="M320.833 153.599L315.57 152.714L315.292 154.367L320.556 155.251L320.833 153.599Z" fill="#232323"/>
<path d="M320.278 156.904L315.014 156.019L314.737 157.672L320.001 158.556L320.278 156.904Z" fill="#232323"/>
<path d="M319.723 160.208L314.459 159.324L314.181 160.975L319.446 161.86L319.723 160.208Z" fill="#232323"/>
<path fill-rule="evenodd" clip-rule="evenodd" d="M327.464 166.485L322.201 167.375L323.877 177.287L327.386 176.694L329.14 176.397L332.649 175.804L332.369 174.152C332.215 173.24 331.305 172.633 330.336 172.797L328.581 173.093L327.464 166.485Z" fill="#606060"/>
<path d="M319.687 152.508L324.95 151.618L325.229 153.27L319.966 154.16L319.687 152.508Z" fill="#C4C4C4"/>
<path d="M320.245 155.812L325.508 154.922L325.788 156.574L320.524 157.464L320.245 155.812Z" fill="#C4C4C4"/>
<path d="M320.804 159.116L326.067 158.226L326.347 159.878L321.083 160.768L320.804 159.116Z" fill="#C4C4C4"/>
<path d="M321.363 162.419L326.626 161.529L326.905 163.181L321.642 164.071L321.363 162.419Z" fill="#C4C4C4"/>
<path d="M321.921 165.723L327.184 164.833L327.464 166.485L322.201 167.375L321.921 165.723Z" fill="#C4C4C4"/>
<path d="M326.905 163.181L321.642 164.071L321.921 165.723L327.184 164.833L326.905 163.181Z" fill="#232323"/>
<path d="M325.229 153.27L319.966 154.16L320.245 155.812L325.508 154.922L325.229 153.27Z" fill="#232323"/>
<path d="M325.788 156.574L320.524 157.464L320.804 159.116L326.067 158.226L325.788 156.574Z" fill="#232323"/>
<path d="M326.347 159.878L321.083 160.768L321.363 162.419L326.626 161.529L326.347 159.878Z" fill="#232323"/>
<path d="M320.048 87.1196L336.998 152.459H303.098L320.048 87.1196Z" fill="#232323"/>
<path d="M318.107 108.218C318.127 107.516 318.737 106.956 319.483 106.956C320.224 106.956 320.832 107.509 320.858 108.207L321.762 132.493C321.798 133.441 320.991 134.227 319.984 134.227H319.2C318.199 134.227 317.395 133.45 317.422 132.508L318.107 108.218Z" fill="white"/>
<path d="M365.881 51.0893C365.881 79.773 361.433 100.522 322.288 100.522C271.578 100.522 279.585 79.773 279.585 51.0893C279.585 22.4053 298.212 1.67538 322.288 1.67538C346.364 1.67538 365.881 22.4053 365.881 51.0893Z" fill="#F5F5F5"/>
<path d="M349.406 73.7168C352.846 73.7168 355.634 71.0912 355.634 67.8529C355.634 64.6145 352.846 61.9889 349.406 61.9889C345.967 61.9889 343.178 64.6145 343.178 67.8529C343.178 71.0912 345.967 73.7168 349.406 73.7168Z" fill="#232323"/>
<path d="M364.53 68.6906L367.612 78.7426H361.448L364.53 68.6906Z" fill="#F5F5F5"/>
<path d="M349.687 86.3247C349.221 86.1784 348.718 86.4156 348.562 86.8545C348.407 87.2934 348.659 87.7677 349.125 87.914L349.687 86.3247ZM354.744 88.7951C355.235 88.7951 355.634 88.42 355.634 87.9574C355.634 87.4947 355.235 87.1196 354.744 87.1196V88.7951ZM349.125 87.914L350.424 88.3223L350.987 86.733L349.687 86.3247L349.125 87.914ZM353.519 88.7951H354.744V87.1196H353.519V88.7951ZM350.424 88.3223C351.422 88.6355 352.467 88.7951 353.519 88.7951V87.1196C352.658 87.1196 351.804 86.9892 350.987 86.733L350.424 88.3223Z" fill="black"/>
<path d="M366.298 34.1325L366.969 37.3487C367.714 40.9226 368.089 44.556 368.089 48.1981V55.2872H336.924C330.85 55.2872 325.925 59.9242 325.925 65.6445V99.6848L313.438 102.166C307.734 103.299 301.894 103.694 296.077 103.339L277.344 102.198V81.2557V61.9889V48.8609C277.344 44.7832 277.866 40.7204 278.897 36.7601C280.89 29.112 284.744 22.0049 290.155 16.0002L292.581 13.3077C294.031 11.6987 295.625 10.2048 297.34 8.84649C304.546 3.13941 313.672 0 323.088 0C330.342 0 337.459 1.85851 343.678 5.37639L345.744 6.5457C350.811 9.41256 355.215 13.2099 358.692 17.7117C362.467 22.5987 365.063 28.2028 366.298 34.1325Z" fill="#232323"/>
<path d="M320.048 87.1196L336.998 152.459H303.098L320.048 87.1196Z" fill="#232323"/>
<path d="M319.131 109.238C318.885 108.58 319.241 107.832 319.932 107.552C320.618 107.273 321.39 107.556 321.676 108.193L331.646 130.358C332.035 131.223 331.583 132.255 330.65 132.634L329.924 132.928C328.996 133.305 327.958 132.887 327.629 132.003L319.131 109.238Z" fill="white"/>
<path d="M365.881 51.0893C365.881 79.773 361.433 100.522 322.288 100.522C271.578 100.522 279.585 79.773 279.585 51.0893C279.585 22.4053 298.212 1.67538 322.288 1.67538C346.364 1.67538 365.881 22.4053 365.881 51.0893Z" fill="#F5F5F5"/>
<path d="M349.406 73.7168C352.846 73.7168 355.634 71.0912 355.634 67.8529C355.634 64.6145 352.846 61.9889 349.406 61.9889C345.967 61.9889 343.178 64.6145 343.178 67.8529C343.178 71.0912 345.967 73.7168 349.406 73.7168Z" fill="#232323"/>
<path d="M364.53 68.6906L367.612 78.7426H361.448L364.53 68.6906Z" fill="#F5F5F5"/>
<path d="M349.687 86.3253C349.221 86.1784 348.718 86.4156 348.562 86.8545C348.407 87.294 348.659 87.7677 349.125 87.914L349.687 86.3253ZM354.744 88.7951C355.235 88.7951 355.634 88.4201 355.634 87.9574C355.634 87.4947 355.235 87.1196 354.744 87.1196V88.7951ZM349.125 87.914L350.424 88.3223L350.987 86.733L349.687 86.3253L349.125 87.914ZM353.519 88.7951H354.744V87.1196H353.519V88.7951ZM350.424 88.3223C351.422 88.6356 352.467 88.7951 353.519 88.7951V87.1196C352.658 87.1196 351.804 86.9892 350.987 86.733L350.424 88.3223Z" fill="black"/>
<path d="M366.298 34.1325L366.969 37.3487C367.714 40.9226 368.089 44.556 368.089 48.1981V55.2872H336.924C330.85 55.2872 325.925 59.9242 325.925 65.6445V99.6848L313.438 102.166C307.734 103.299 301.894 103.694 296.077 103.339L277.344 102.198V81.2557V61.9889V48.8609C277.344 44.7832 277.866 40.7204 278.897 36.7601C280.89 29.112 284.744 22.0049 290.155 16.0002L292.581 13.3077C294.031 11.6987 295.625 10.2048 297.34 8.84649C304.546 3.13941 313.672 0 323.088 0C330.342 0 337.459 1.85851 343.678 5.37639L345.744 6.5457C350.811 9.41256 355.215 13.2099 358.692 17.7117C362.467 22.5987 365.063 28.2028 366.298 34.1325Z" fill="#232323"/>
<path d="M332.246 18.5476L329.067 20.0527C328.189 20.4684 327.835 21.4755 328.276 22.3021L331.473 28.2896C331.915 29.1162 332.984 29.4494 333.862 29.0338L337.041 27.5286C337.919 27.1129 338.273 26.1059 337.832 25.2793L334.635 19.2918C334.194 18.4652 333.124 18.1319 332.246 18.5476Z" fill="#F5F5F5"/>
<path d="M333.054 23.7907L344.4 8.6752L352.707 24.2308L333.054 23.7907Z" fill="#F5F5F5"/>
<path d="M333.054 23.7907L344.4 8.6752L352.707 24.2308L333.054 23.7907Z" fill="#F5F5F5"/>
<path d="M333.054 23.7907L344.4 8.6752L352.707 24.2308L333.054 23.7907Z" fill="#F5F5F5"/>
<path d="M333.054 23.7907L321.708 38.9061L313.402 23.3506L333.054 23.7907Z" fill="#F5F5F5"/>
<path d="M333.054 23.7907L321.708 38.9061L313.402 23.3506L333.054 23.7907Z" fill="#F5F5F5"/>
<path d="M333.054 23.7907L321.708 38.9061L313.402 23.3506L333.054 23.7907Z" fill="#F5F5F5"/>
<path fill-rule="evenodd" clip-rule="evenodd" d="M509.482 166.456L504.182 167.091L505.377 177.072L508.91 176.649L510.677 176.438L514.21 176.015L514.011 174.351C513.901 173.433 513.021 172.783 512.045 172.899L510.279 173.111L509.482 166.456Z" fill="#606060"/>
<path d="M502.389 152.12L507.69 151.485L507.889 153.149L502.589 153.783L502.389 152.12Z" fill="#C4C4C4"/>
<path d="M502.788 155.447L508.088 154.812L508.287 156.476L502.987 157.11L502.788 155.447Z" fill="#C4C4C4"/>
<path d="M503.186 158.774L508.486 158.14L508.685 159.803L503.385 160.437L503.186 158.774Z" fill="#C4C4C4"/>
<path d="M503.584 162.1L508.884 161.466L509.084 163.129L503.784 163.764L503.584 162.1Z" fill="#C4C4C4"/>
<path d="M503.983 165.427L509.283 164.793L509.482 166.456L504.182 167.091L503.983 165.427Z" fill="#C4C4C4"/>
<path d="M509.084 163.129L503.784 163.764L503.983 165.427L509.283 164.793L509.084 163.129Z" fill="#232323"/>
<path d="M507.889 153.149L502.589 153.783L502.788 155.447L508.088 154.812L507.889 153.149Z" fill="#232323"/>
<path d="M508.287 156.476L502.987 157.11L503.186 158.774L508.486 158.14L508.287 156.476Z" fill="#232323"/>
<path d="M508.685 159.803L503.385 160.437L503.584 162.1L508.885 161.466L508.685 159.803Z" fill="#232323"/>
<path fill-rule="evenodd" clip-rule="evenodd" d="M501.036 166.987L495.859 165.686L493.409 175.436L496.86 176.302L498.586 176.736L502.037 177.603L502.445 175.978C502.671 175.081 502.081 174.159 501.128 173.92L499.403 173.486L501.036 166.987Z" fill="#606060"/>
<path d="M499.534 151.062L504.711 152.363L504.302 153.988L499.125 152.687L499.534 151.062Z" fill="#C4C4C4"/>
<path d="M498.717 154.312L503.894 155.613L503.486 157.237L498.309 155.937L498.717 154.312Z" fill="#C4C4C4"/>
<path d="M497.9 157.562L503.077 158.863L502.669 160.487L497.492 159.187L497.9 157.562Z" fill="#C4C4C4"/>
<path d="M497.083 160.811L502.26 162.112L501.852 163.737L496.675 162.436L497.083 160.811Z" fill="#C4C4C4"/>
<path d="M496.267 164.061L501.444 165.361L501.035 166.987L495.858 165.686L496.267 164.061Z" fill="#C4C4C4"/>
<path d="M501.852 163.737L496.675 162.436L496.267 164.061L501.444 165.361L501.852 163.737Z" fill="#232323"/>
<path d="M504.302 153.988L499.125 152.687L498.717 154.312L503.894 155.613L504.302 153.988Z" fill="#232323"/>
<path d="M503.486 157.237L498.309 155.937L497.9 157.562L503.077 158.863L503.486 157.237Z" fill="#232323"/>
<path d="M502.669 160.487L497.492 159.187L497.083 160.811L502.26 162.112L502.669 160.487Z" fill="#232323"/>
<path d="M504.944 87.1196L521.894 152.459H487.994L504.944 87.1196Z" fill="#232323"/>
<path d="M503.003 108.218C503.023 107.516 503.633 106.956 504.379 106.956C505.12 106.956 505.728 107.509 505.754 108.207L506.658 132.493C506.694 133.441 505.888 134.227 504.88 134.227H504.096C503.095 134.227 502.291 133.45 502.318 132.508L503.003 108.218Z" fill="white"/>
<path d="M550.779 51.0893C550.779 79.773 546.331 100.522 507.185 100.522C456.474 100.522 464.481 79.773 464.481 51.0893C464.481 22.4053 483.108 1.67538 507.185 1.67538C531.26 1.67538 550.779 22.4053 550.779 51.0893Z" fill="#F5F5F5"/>
<path d="M534.302 73.7168C537.742 73.7168 540.531 71.0912 540.531 67.8529C540.531 64.6145 537.742 61.9889 534.302 61.9889C530.863 61.9889 528.075 64.6145 528.075 67.8529C528.075 71.0912 530.863 73.7168 534.302 73.7168Z" fill="#232323"/>
<path d="M549.427 68.6906L552.507 78.7426H546.347L549.427 68.6906Z" fill="#F5F5F5"/>
<path d="M534.582 86.3247C534.118 86.1784 533.616 86.4156 533.457 86.8545C533.304 87.2934 533.558 87.7677 534.022 87.914L534.582 86.3247ZM539.638 88.7951C540.129 88.7951 540.531 88.42 540.531 87.9574C540.531 87.4947 540.129 87.1196 539.638 87.1196V88.7951ZM534.022 87.914L535.322 88.3223L535.882 86.733L534.582 86.3247L534.022 87.914ZM538.418 88.7951H539.638V87.1196H538.418V88.7951ZM535.322 88.3223C536.321 88.6355 537.361 88.7951 538.418 88.7951V87.1196C537.557 87.1196 536.701 86.9892 535.882 86.733L535.322 88.3223Z" fill="black"/>
<path d="M551.197 34.1325L551.868 37.3487C552.613 40.9226 552.988 44.556 552.988 48.1981V55.2872H521.82C515.746 55.2872 510.821 59.9242 510.821 65.6445V99.6848L498.334 102.166C492.631 103.299 486.79 103.694 480.973 103.339L462.241 102.198V81.2557V61.9889V48.8609C462.241 44.7832 462.762 40.7204 463.794 36.7601C465.786 29.112 469.64 22.0049 475.051 16.0002L477.478 13.3077C478.928 11.6987 480.521 10.2048 482.236 8.84649C489.442 3.13941 498.568 0 507.984 0C515.238 0 522.356 1.85851 528.576 5.37639L530.642 6.5457C535.708 9.41256 540.114 13.2099 543.59 17.7117C547.361 22.5987 549.961 28.2028 551.197 34.1325Z" fill="#232323"/>
<path d="M504.944 87.1196L521.894 152.459H487.994L504.944 87.1196Z" fill="#232323"/>
<path d="M502.541 108.643C502.803 107.992 503.569 107.678 504.269 107.937C504.964 108.194 505.343 108.923 505.125 109.586L497.554 132.681C497.258 133.582 496.229 134.04 495.285 133.691L494.549 133.419C493.611 133.073 493.126 132.064 493.477 131.19L502.541 108.643Z" fill="white"/>
<path d="M550.779 51.0893C550.779 79.773 546.331 100.522 507.185 100.522C456.474 100.522 464.481 79.773 464.481 51.0893C464.481 22.4053 483.108 1.67538 507.185 1.67538C531.26 1.67538 550.779 22.4053 550.779 51.0893Z" fill="#F5F5F5"/>
<path d="M534.302 73.7168C537.742 73.7168 540.531 71.0912 540.531 67.8529C540.531 64.6145 537.742 61.9889 534.302 61.9889C530.863 61.9889 528.075 64.6145 528.075 67.8529C528.075 71.0912 530.863 73.7168 534.302 73.7168Z" fill="#232323"/>
<path d="M549.427 68.6906L552.507 78.7426H546.347L549.427 68.6906Z" fill="#F5F5F5"/>
<path d="M534.582 86.3253C534.118 86.1784 533.616 86.4156 533.457 86.8545C533.304 87.294 533.558 87.7677 534.022 87.914L534.582 86.3253ZM539.638 88.7951C540.129 88.7951 540.531 88.4201 540.531 87.9574C540.531 87.4947 540.129 87.1196 539.638 87.1196V88.7951ZM534.022 87.914L535.322 88.3223L535.882 86.733L534.582 86.3253L534.022 87.914ZM538.418 88.7951H539.638V87.1196H538.418V88.7951ZM535.322 88.3223C536.321 88.6356 537.361 88.7951 538.418 88.7951V87.1196C537.557 87.1196 536.701 86.9892 535.882 86.733L535.322 88.3223Z" fill="black"/>
<path d="M551.197 34.1325L551.868 37.3487C552.613 40.9226 552.988 44.556 552.988 48.1981V55.2872H521.82C515.746 55.2872 510.821 59.9242 510.821 65.6445V99.6848L498.334 102.166C492.631 103.299 486.79 103.694 480.973 103.339L462.241 102.198V81.2557V61.9889V48.8609C462.241 44.7832 462.762 40.7204 463.794 36.7601C465.786 29.112 469.64 22.0049 475.051 16.0002L477.478 13.3077C478.928 11.6987 480.521 10.2048 482.236 8.84649C489.442 3.13941 498.568 0 507.984 0C515.238 0 522.356 1.85851 528.576 5.37639L530.642 6.5457C535.708 9.41256 540.114 13.2099 543.59 17.7117C547.361 22.5987 549.961 28.2028 551.197 34.1325Z" fill="#232323"/>
<path d="M517.142 18.5476L513.963 20.0527C513.085 20.4684 512.731 21.4755 513.173 22.3021L516.369 28.2896C516.811 29.1162 517.881 29.4494 518.758 29.0338L521.938 27.5286C522.816 27.1129 523.17 26.1059 522.728 25.2793L519.531 19.2918C519.09 18.4652 518.02 18.1319 517.142 18.5476Z" fill="#F5F5F5"/>
<path d="M517.95 23.7907L529.294 8.6752L537.604 24.2308L517.95 23.7907Z" fill="#F5F5F5"/>
<path d="M517.95 23.7907L529.294 8.6752L537.604 24.2308L517.95 23.7907Z" fill="#F5F5F5"/>
<path d="M517.95 23.7907L529.294 8.6752L537.604 24.2308L517.95 23.7907Z" fill="#F5F5F5"/>
<path d="M517.95 23.7907L506.604 38.9061L498.298 23.3506L517.95 23.7907Z" fill="#F5F5F5"/>
<path d="M517.95 23.7907L506.604 38.9061L498.298 23.3506L517.95 23.7907Z" fill="#F5F5F5"/>
<path d="M517.95 23.7907L506.604 38.9061L498.298 23.3506L517.95 23.7907Z" fill="#F5F5F5"/>
<path fill-rule="evenodd" clip-rule="evenodd" d="M694.38 166.456L689.076 167.091L690.27 177.072L693.805 176.649L695.574 176.438L699.108 176.015L698.908 174.351C698.797 173.433 697.92 172.783 696.942 172.899L695.173 173.111L694.38 166.456Z" fill="#606060"/>
<path d="M687.286 152.12L692.584 151.485L692.785 153.149L687.486 153.783L687.286 152.12Z" fill="#C4C4C4"/>
<path d="M687.682 155.447L692.986 154.812L693.181 156.476L687.883 157.11L687.682 155.447Z" fill="#C4C4C4"/>
<path d="M688.083 158.774L693.382 158.14L693.583 159.803L688.279 160.437L688.083 158.774Z" fill="#C4C4C4"/>
<path d="M688.479 162.1L693.778 161.466L693.979 163.129L688.68 163.764L688.479 162.1Z" fill="#C4C4C4"/>
<path d="M688.881 165.427L694.18 164.793L694.38 166.456L689.077 167.091L688.881 165.427Z" fill="#C4C4C4"/>
<path d="M693.979 163.129L688.68 163.764L688.881 165.427L694.18 164.793L693.979 163.129Z" fill="#232323"/>
<path d="M692.785 153.149L687.486 153.783L687.682 155.447L692.986 154.812L692.785 153.149Z" fill="#232323"/>
<path d="M693.181 156.476L687.883 157.11L688.083 158.774L693.382 158.14L693.181 156.476Z" fill="#232323"/>
<path d="M693.583 159.803L688.284 160.437L688.48 162.1L693.778 161.466L693.583 159.803Z" fill="#232323"/>
<path fill-rule="evenodd" clip-rule="evenodd" d="M685.933 166.987L680.756 165.686L678.305 175.436L681.755 176.302L683.482 176.736L686.932 177.603L687.344 175.978C687.566 175.081 686.979 174.159 686.023 173.92L684.301 173.486L685.933 166.987Z" fill="#606060"/>
<path d="M684.428 151.062L689.605 152.363L689.198 153.988L684.021 152.687L684.428 151.062Z" fill="#C4C4C4"/>
<path d="M683.614 154.312L688.791 155.613L688.379 157.237L683.202 155.937L683.614 154.312Z" fill="#C4C4C4"/>
<path d="M682.795 157.562L687.972 158.863L687.566 160.487L682.388 159.187L682.795 157.562Z" fill="#C4C4C4"/>
<path d="M681.982 160.811L687.159 162.112L686.747 163.737L681.57 162.436L681.982 160.811Z" fill="#C4C4C4"/>
<path d="M681.163 164.061L686.34 165.361L685.933 166.987L680.756 165.686L681.163 164.061Z" fill="#C4C4C4"/>
<path d="M686.747 163.737L681.57 162.436L681.163 164.061L686.34 165.361L686.747 163.737Z" fill="#232323"/>
<path d="M689.198 153.988L684.021 152.687L683.614 154.312L688.791 155.613L689.198 153.988Z" fill="#232323"/>
<path d="M688.379 157.237L683.202 155.937L682.795 157.562L687.972 158.863L688.379 157.237Z" fill="#232323"/>
<path d="M687.566 160.487L682.388 159.187L681.982 160.811L687.159 162.112L687.566 160.487Z" fill="#232323"/>
<path d="M689.842 87.1196L706.79 152.459H672.89L689.842 87.1196Z" fill="#232323"/>
<path d="M687.898 108.218C687.92 107.516 688.527 106.956 689.277 106.956C690.017 106.956 690.624 107.509 690.651 108.207L691.554 132.493C691.591 133.441 690.783 134.227 689.779 134.227H688.992C687.993 134.227 687.185 133.45 687.212 132.508L687.898 108.218Z" fill="white"/>
<path d="M735.676 51.0893C735.676 79.773 731.228 100.522 692.082 100.522C641.368 100.522 649.377 79.773 649.377 51.0893C649.377 22.4053 668.004 1.67538 692.082 1.67538C716.156 1.67538 735.676 22.4053 735.676 51.0893Z" fill="#F5F5F5"/>
<path d="M719.199 73.7168C722.638 73.7168 725.427 71.0912 725.427 67.8529C725.427 64.6145 722.638 61.9889 719.199 61.9889C715.76 61.9889 712.97 64.6145 712.97 67.8529C712.97 71.0912 715.76 73.7168 719.199 73.7168Z" fill="#232323"/>
<path d="M734.323 68.6906L737.403 78.7426H731.243L734.323 68.6906Z" fill="#F5F5F5"/>
<path d="M719.479 86.3247C719.014 86.1784 718.512 86.4156 718.353 86.8545C718.2 87.2934 718.454 87.7677 718.919 87.914L719.479 86.3247ZM724.534 88.7951C725.026 88.7951 725.427 88.42 725.427 87.9574C725.427 87.4947 725.026 87.1196 724.534 87.1196V88.7951ZM718.919 87.914L720.218 88.3223L720.778 86.733L719.479 86.3247L718.919 87.914ZM723.314 88.7951H724.534V87.1196H723.314V88.7951ZM720.218 88.3223C721.217 88.6355 722.257 88.7951 723.314 88.7951V87.1196C722.453 87.1196 721.597 86.9892 720.778 86.733L720.218 88.3223Z" fill="black"/>
<path d="M736.093 34.1325L736.764 37.3487C737.509 40.9226 737.884 44.556 737.884 48.1981V55.2872H706.716C700.64 55.2872 695.717 59.9242 695.717 65.6445V99.6848L683.228 102.166C677.528 103.299 671.686 103.694 665.869 103.339L647.137 102.198V81.2557V61.9889V48.8609C647.137 44.7832 647.66 40.7204 648.69 36.7601C650.681 29.112 654.538 22.0049 659.947 16.0002L662.372 13.3077C663.825 11.6987 665.415 10.2048 667.132 8.84649C674.338 3.13941 683.466 0 692.88 0C700.133 0 707.254 1.85851 713.472 5.37639L715.538 6.5457C720.604 9.41256 725.01 13.2099 728.486 17.7117C732.258 22.5987 734.857 28.2028 736.093 34.1325Z" fill="#232323"/>
<path d="M689.842 87.1196L706.79 152.459H672.89L689.842 87.1196Z" fill="#232323"/>
<path d="M687.439 108.643C687.698 107.992 688.464 107.678 689.166 107.937C689.858 108.194 690.239 108.923 690.022 109.586L682.452 132.681C682.156 133.582 681.126 134.04 680.18 133.691L679.446 133.419C678.506 133.073 678.02 132.064 678.374 131.19L687.439 108.643Z" fill="white"/>
<path d="M735.676 51.0893C735.676 79.773 731.228 100.522 692.082 100.522C641.368 100.522 649.377 79.773 649.377 51.0893C649.377 22.4053 668.004 1.67538 692.082 1.67538C716.156 1.67538 735.676 22.4053 735.676 51.0893Z" fill="#F5F5F5"/>
<path d="M719.199 73.7168C722.638 73.7168 725.427 71.0912 725.427 67.8529C725.427 64.6145 722.638 61.9889 719.199 61.9889C715.76 61.9889 712.97 64.6145 712.97 67.8529C712.97 71.0912 715.76 73.7168 719.199 73.7168Z" fill="#232323"/>
<path d="M734.323 68.6906L737.403 78.7426H731.243L734.323 68.6906Z" fill="#F5F5F5"/>
<path d="M719.479 86.3253C719.014 86.1784 718.512 86.4156 718.353 86.8545C718.2 87.294 718.454 87.7677 718.919 87.914L719.479 86.3253ZM724.534 88.7951C725.026 88.7951 725.427 88.4201 725.427 87.9574C725.427 87.4947 725.026 87.1196 724.534 87.1196V88.7951ZM718.919 87.914L720.218 88.3223L720.778 86.733L719.479 86.3253L718.919 87.914ZM723.314 88.7951H724.534V87.1196H723.314V88.7951ZM720.218 88.3223C721.217 88.6356 722.257 88.7951 723.314 88.7951V87.1196C722.453 87.1196 721.597 86.9892 720.778 86.733L720.218 88.3223Z" fill="black"/>
<path d="M736.093 34.1325L736.764 37.3487C737.509 40.9226 737.884 44.556 737.884 48.1981V55.2872H706.716C700.64 55.2872 695.717 59.9242 695.717 65.6445V99.6848L683.228 102.166C677.528 103.299 671.686 103.694 665.869 103.339L647.137 102.198V81.2557V61.9889V48.8609C647.137 44.7832 647.66 40.7204 648.69 36.7601C650.681 29.112 654.538 22.0049 659.947 16.0002L662.372 13.3077C663.825 11.6987 665.415 10.2048 667.132 8.84649C674.338 3.13941 683.466 0 692.88 0C700.133 0 707.254 1.85851 713.472 5.37639L715.538 6.5457C720.604 9.41256 725.01 13.2099 728.486 17.7117C732.258 22.5987 734.857 28.2028 736.093 34.1325Z" fill="#232323"/>
<path d="M702.04 18.5476L698.86 20.0527C697.983 20.4684 697.629 21.4755 698.068 22.3021L701.264 28.2896C701.708 29.1162 702.775 29.4494 703.657 29.0338L706.832 27.5286C707.714 27.1129 708.068 26.1059 707.624 25.2793L704.428 19.2918C703.984 18.4652 702.917 18.1319 702.04 18.5476Z" fill="#F5F5F5"/>
<path d="M702.849 23.7907L714.191 8.6752L722.5 24.2308L702.849 23.7907Z" fill="#F5F5F5"/>
<path d="M702.849 23.7907L714.191 8.6752L722.5 24.2308L702.849 23.7907Z" fill="#F5F5F5"/>
<path d="M702.849 23.7907L714.191 8.6752L722.5 24.2308L702.849 23.7907Z" fill="#F5F5F5"/>
<path d="M702.849 23.7907L691.501 38.9061L683.191 23.3506L702.849 23.7907Z" fill="#F5F5F5"/>
<path d="M702.849 23.7907L691.501 38.9061L683.191 23.3506L702.849 23.7907Z" fill="#F5F5F5"/>
<path d="M702.849 23.7907L691.501 38.9061L683.191 23.3506L702.849 23.7907Z" fill="#F5F5F5"/>
<path d="M414.275 129.842C414.275 128.454 413.08 127.329 411.606 127.329C410.132 127.329 408.937 128.454 408.937 129.842V171.726C408.937 173.113 410.132 174.239 411.606 174.239C413.08 174.239 414.275 173.113 414.275 171.726V129.842Z" fill="white"/>
<path fill-rule="evenodd" clip-rule="evenodd" d="M414.275 167.538H408.937V177.59H412.496H414.275H417.834V175.915C417.834 174.99 417.037 174.239 416.054 174.239H414.275V167.538Z" fill="#606060"/>
<path d="M412.496 87.1196L429.446 152.459H395.546L412.496 87.1196Z" fill="#232323"/>
<path d="M410.555 108.218C410.575 107.516 411.185 106.956 411.931 106.956C412.672 106.956 413.28 107.509 413.306 108.207L414.21 132.493C414.246 133.441 413.44 134.227 412.432 134.227H411.648C410.647 134.227 409.843 133.45 409.87 132.508L410.555 108.218Z" fill="white"/>
<path d="M458.329 51.0893C458.329 79.773 453.881 100.522 414.736 100.522C364.026 100.522 372.033 79.773 372.033 51.0893C372.033 22.4053 390.66 1.67538 414.736 1.67538C438.812 1.67538 458.329 22.4053 458.329 51.0893Z" fill="#F5F5F5"/>
<path d="M441.854 73.7168C445.294 73.7168 448.082 71.0912 448.082 67.8529C448.082 64.6145 445.294 61.9889 441.854 61.9889C438.415 61.9889 435.627 64.6145 435.627 67.8529C435.627 71.0912 438.415 73.7168 441.854 73.7168Z" fill="#232323"/>
<path d="M456.978 68.6906L460.06 78.7426H453.896L456.978 68.6906Z" fill="#F5F5F5"/>
<path d="M442.135 86.3247C441.67 86.1784 441.166 86.4156 441.01 86.8545C440.855 87.2934 441.107 87.7677 441.573 87.914L442.135 86.3247ZM447.192 88.7951C447.683 88.7951 448.082 88.42 448.082 87.9574C448.082 87.4947 447.683 87.1196 447.192 87.1196V88.7951ZM441.573 87.914L442.872 88.3223L443.435 86.733L442.135 86.3247L441.573 87.914ZM445.967 88.7951H447.192V87.1196H445.967V88.7951ZM442.872 88.3223C443.87 88.6355 444.915 88.7951 445.967 88.7951V87.1196C445.106 87.1196 444.252 86.9892 443.435 86.733L442.872 88.3223Z" fill="black"/>
<path d="M458.746 34.1325L459.417 37.3487C460.162 40.9226 460.537 44.556 460.537 48.1981V55.2872H429.372C423.298 55.2872 418.373 59.9242 418.373 65.6445V99.6848L405.886 102.166C400.182 103.299 394.342 103.694 388.525 103.339L369.792 102.198V81.2557V61.9889V48.8609C369.792 44.7832 370.314 40.7204 371.346 36.7601C373.338 29.112 377.192 22.0049 382.603 16.0002L385.029 13.3077C386.48 11.6987 388.073 10.2048 389.788 8.84649C396.994 3.13941 406.12 0 415.536 0C422.79 0 429.907 1.85851 436.126 5.37639L438.192 6.5457C443.26 9.41256 447.663 13.2099 451.14 17.7117C454.915 22.5987 457.511 28.2028 458.746 34.1325Z" fill="#232323"/>
<path d="M414.275 129.842C414.275 128.454 413.08 127.329 411.606 127.329C410.132 127.329 408.937 128.454 408.937 129.842V171.726C408.937 173.113 410.132 174.239 411.606 174.239C413.08 174.239 414.275 173.113 414.275 171.726V129.842Z" fill="white"/>
<path fill-rule="evenodd" clip-rule="evenodd" d="M414.275 167.538H408.937V177.59H412.496H414.275H417.834V175.915C417.834 174.99 417.037 174.239 416.054 174.239H414.275V167.538Z" fill="#606060"/>
<path d="M412.496 87.1196L429.446 152.459H395.546L412.496 87.1196Z" fill="#232323"/>
<path d="M410.555 108.218C410.575 107.516 411.185 106.956 411.931 106.956C412.672 106.956 413.28 107.509 413.306 108.207L414.21 132.493C414.246 133.441 413.44 134.227 412.432 134.227H411.648C410.647 134.227 409.843 133.45 409.87 132.508L410.555 108.218Z" fill="white"/>
<path d="M458.329 51.0893C458.329 79.773 453.881 100.522 414.736 100.522C364.026 100.522 372.033 79.773 372.033 51.0893C372.033 22.4053 390.66 1.67538 414.736 1.67538C438.812 1.67538 458.329 22.4053 458.329 51.0893Z" fill="#F5F5F5"/>
<path d="M441.854 73.7168C445.294 73.7168 448.082 71.0912 448.082 67.8529C448.082 64.6145 445.294 61.9889 441.854 61.9889C438.415 61.9889 435.627 64.6145 435.627 67.8529C435.627 71.0912 438.415 73.7168 441.854 73.7168Z" fill="#232323"/>
<path d="M456.978 68.6906L460.06 78.7426H453.896L456.978 68.6906Z" fill="#F5F5F5"/>
<path d="M442.135 86.3253C441.67 86.1784 441.166 86.4156 441.01 86.8545C440.855 87.294 441.107 87.7677 441.573 87.914L442.135 86.3253ZM447.192 88.7951C447.683 88.7951 448.082 88.4201 448.082 87.9574C448.082 87.4947 447.683 87.1196 447.192 87.1196V88.7951ZM441.573 87.914L442.872 88.3223L443.435 86.733L442.135 86.3253L441.573 87.914ZM445.967 88.7951H447.192V87.1196H445.967V88.7951ZM442.872 88.3223C443.87 88.6356 444.915 88.7951 445.967 88.7951V87.1196C445.106 87.1196 444.252 86.9892 443.435 86.733L442.872 88.3223Z" fill="black"/>
<path d="M458.746 34.1325L459.417 37.3487C460.162 40.9226 460.537 44.556 460.537 48.1981V55.2872H429.372C423.298 55.2872 418.373 59.9242 418.373 65.6445V99.6848L405.886 102.166C400.182 103.299 394.342 103.694 388.525 103.339L369.792 102.198V81.2557V61.9889V48.8609C369.792 44.7832 370.314 40.7204 371.346 36.7601C373.338 29.112 377.192 22.0049 382.603 16.0002L385.029 13.3077C386.48 11.6987 388.073 10.2048 389.788 8.84649C396.994 3.13941 406.12 0 415.536 0C422.79 0 429.907 1.85851 436.126 5.37639L438.192 6.5457C443.26 9.41256 447.663 13.2099 451.14 17.7117C454.915 22.5987 457.511 28.2028 458.746 34.1325Z" fill="#232323"/>
<path d="M424.694 18.5476L421.515 20.0527C420.637 20.4684 420.283 21.4755 420.724 22.3021L423.921 28.2896C424.363 29.1162 425.432 29.4494 426.31 29.0338L429.49 27.5286C430.368 27.1129 430.722 26.1059 430.28 25.2793L427.083 19.2918C426.642 18.4652 425.572 18.1319 424.694 18.5476Z" fill="#F5F5F5"/>
<path d="M425.502 23.7907L436.848 8.6752L445.155 24.2308L425.502 23.7907Z" fill="#F5F5F5"/>
<path d="M425.502 23.7907L436.848 8.6752L445.155 24.2308L425.502 23.7907Z" fill="#F5F5F5"/>
<path d="M425.502 23.7907L436.848 8.6752L445.155 24.2308L425.502 23.7907Z" fill="#F5F5F5"/>
<path d="M425.502 23.7907L414.156 38.9061L405.85 23.3506L425.502 23.7907Z" fill="#F5F5F5"/>
<path d="M425.502 23.7907L414.156 38.9061L405.85 23.3506L425.502 23.7907Z" fill="#F5F5F5"/>
<path d="M425.502 23.7907L414.156 38.9061L405.85 23.3506L425.502 23.7907Z" fill="#F5F5F5"/>
<path d="M414.275 164.187H408.937V165.862H414.275V164.187Z" fill="#232323"/>
<path d="M414.275 154.135H408.937V155.81H414.275V154.135Z" fill="#232323"/>
<path d="M414.275 157.486H408.937V159.161H414.275V157.486Z" fill="#232323"/>
<path d="M414.275 160.836H408.937V162.511H414.275V160.836Z" fill="#232323"/>
<path d="M408.937 152.459H414.275V154.135H408.937V152.459Z" fill="#C4C4C4"/>
<path d="M408.937 155.81H414.275V157.486H408.937V155.81Z" fill="#C4C4C4"/>
<path d="M408.937 159.161H414.275V160.836H408.937V159.161Z" fill="#C4C4C4"/>
<path d="M408.937 162.511H414.275V164.187H408.937V162.511Z" fill="#C4C4C4"/>
<path d="M408.937 165.862H414.275V167.538H408.937V165.862Z" fill="#C4C4C4"/>
<path d="M414.275 164.187H408.937V165.862H414.275V164.187Z" fill="#232323"/>
<path d="M414.275 154.135H408.937V155.81H414.275V154.135Z" fill="#232323"/>
<path d="M414.275 157.486H408.937V159.161H414.275V157.486Z" fill="#232323"/>
<path d="M414.275 160.836H408.937V162.511H414.275V160.836Z" fill="#232323"/>
<path d="M44.4827 129.842C44.4827 128.454 43.2877 127.329 41.8137 127.329C40.3398 127.329 39.1447 128.454 39.1447 129.842V171.726C39.1447 173.113 40.3398 174.239 41.8137 174.239C43.2877 174.239 44.4827 173.113 44.4827 171.726V129.842Z" fill="white"/>
<path fill-rule="evenodd" clip-rule="evenodd" d="M44.4827 167.538H39.1447V177.59H42.7034H44.4827H48.0413V175.915C48.0413 174.99 47.2447 174.239 46.262 174.239H44.4827V167.538Z" fill="#606060"/>
<path d="M42.7034 87.1196L59.6533 152.459H25.7531L42.7034 87.1196Z" fill="#232323"/>
<path d="M40.7623 108.218C40.7821 107.516 41.3922 106.956 42.1381 106.956C42.8793 106.956 43.4875 107.509 43.5135 108.207L44.4181 132.493C44.4533 133.441 43.6469 134.227 42.6399 134.227H41.8559C40.8549 134.227 40.0506 133.45 40.0773 132.508L40.7623 108.218Z" fill="white"/>
<path d="M88.5368 51.0893C88.5368 79.773 84.0887 100.522 44.9439 100.522C-5.76638 100.522 2.24053 79.773 2.24053 51.0893C2.24053 22.4053 20.8681 1.67538 44.9439 1.67538C69.0197 1.67538 88.5368 22.4053 88.5368 51.0893Z" fill="#F5F5F5"/>
<path d="M72.062 73.7168C75.5016 73.7168 78.2898 71.0912 78.2898 67.8529C78.2898 64.6145 75.5016 61.9889 72.062 61.9889C68.6224 61.9889 65.8341 64.6145 65.8341 67.8529C65.8341 71.0912 68.6224 73.7168 72.062 73.7168Z" fill="#232323"/>
<path d="M87.186 68.6906L90.2679 78.7426H84.104L87.186 68.6906Z" fill="#F5F5F5"/>
<path d="M72.343 86.3247C71.8771 86.1784 71.3736 86.4156 71.2178 86.8545C71.0625 87.2934 71.3145 87.7677 71.7804 87.914L72.343 86.3247ZM77.3997 88.7951C77.891 88.7951 78.2898 88.42 78.2898 87.9574C78.2898 87.4947 77.891 87.1196 77.3997 87.1196V88.7951ZM71.7804 87.914L73.08 88.3223L73.6426 86.733L72.343 86.3247L71.7804 87.914ZM76.1746 88.7951H77.3997V87.1196H76.1746V88.7951ZM73.08 88.3223C74.0779 88.6355 75.1228 88.7951 76.1746 88.7951V87.1196C75.314 87.1196 74.4593 86.9892 73.6426 86.733L73.08 88.3223Z" fill="black"/>
<path d="M88.9541 34.1325L89.625 37.3487C90.3699 40.9226 90.7449 44.556 90.7449 48.1981V55.2872H59.5799C53.5053 55.2872 48.5804 59.9242 48.5804 65.6445V99.6848L36.0931 102.166C30.39 103.299 24.5492 103.694 18.7327 103.339L0 102.198V81.2557V61.9889V48.8609C0 44.7832 0.521518 40.7204 1.55334 36.7601C3.54581 29.112 7.39976 22.0049 12.8107 16.0002L15.2369 13.3077C16.6869 11.6987 18.2806 10.2048 19.9957 8.84649C27.2011 3.13941 36.3276 0 45.7433 0C52.9976 0 60.115 1.85851 66.3334 5.37639L68.4 6.5457C73.4672 9.41256 77.8709 13.2099 81.348 17.7117C85.1225 22.5987 87.7185 28.2028 88.9541 34.1325Z" fill="#232323"/>
<path d="M44.4827 129.842C44.4827 128.454 43.2877 127.329 41.8137 127.329C40.3398 127.329 39.1447 128.454 39.1447 129.842V171.726C39.1447 173.113 40.3398 174.239 41.8137 174.239C43.2877 174.239 44.4827 173.113 44.4827 171.726V129.842Z" fill="white"/>
<path fill-rule="evenodd" clip-rule="evenodd" d="M44.4827 167.538H39.1447V177.59H42.7034H44.4827H48.0413V175.915C48.0413 174.99 47.2447 174.239 46.262 174.239H44.4827V167.538Z" fill="#606060"/>
<path d="M42.7034 87.1196L59.6533 152.459H25.7531L42.7034 87.1196Z" fill="#232323"/>
<path d="M40.7623 108.218C40.7821 107.516 41.3922 106.956 42.1381 106.956C42.8793 106.956 43.4875 107.509 43.5135 108.207L44.4181 132.493C44.4533 133.441 43.647 134.227 42.6399 134.227H41.8559C40.8549 134.227 40.0506 133.45 40.0773 132.508L40.7623 108.218Z" fill="white"/>
<path d="M88.5368 51.0893C88.5368 79.773 84.0887 100.522 44.9439 100.522C-5.76638 100.522 2.24053 79.773 2.24053 51.0893C2.24053 22.4053 20.8681 1.67538 44.9439 1.67538C69.0197 1.67538 88.5368 22.4053 88.5368 51.0893Z" fill="#F5F5F5"/>
<path d="M72.062 73.7168C75.5016 73.7168 78.2898 71.0912 78.2898 67.8529C78.2898 64.6145 75.5016 61.9889 72.062 61.9889C68.6224 61.9889 65.8341 64.6145 65.8341 67.8529C65.8341 71.0912 68.6224 73.7168 72.062 73.7168Z" fill="#232323"/>
<path d="M87.186 68.6906L90.2679 78.7426H84.104L87.186 68.6906Z" fill="#F5F5F5"/>
<path d="M72.343 86.3253C71.8771 86.1784 71.3736 86.4156 71.2178 86.8545C71.0625 87.294 71.3145 87.7677 71.7804 87.914L72.343 86.3253ZM77.3997 88.7951C77.891 88.7951 78.2898 88.4201 78.2898 87.9574C78.2898 87.4947 77.891 87.1196 77.3997 87.1196V88.7951ZM71.7804 87.914L73.08 88.3223L73.6426 86.733L72.343 86.3253L71.7804 87.914ZM76.1746 88.7951H77.3997V87.1196H76.1746V88.7951ZM73.08 88.3223C74.0779 88.6356 75.1228 88.7951 76.1746 88.7951V87.1196C75.314 87.1196 74.4593 86.9892 73.6426 86.733L73.08 88.3223Z" fill="black"/>
<path d="M88.9541 34.1325L89.625 37.3487C90.3699 40.9226 90.7449 44.556 90.7449 48.1981V55.2872H59.5799C53.5053 55.2872 48.5804 59.9242 48.5804 65.6445V99.6848L36.0931 102.166C30.39 103.299 24.5492 103.694 18.7327 103.339L0 102.198V81.2557V61.9889V48.8609C0 44.7832 0.521518 40.7204 1.55334 36.7601C3.54581 29.112 7.39976 22.0049 12.8107 16.0002L15.2369 13.3077C16.6869 11.6987 18.2806 10.2048 19.9957 8.84649C27.2011 3.13941 36.3276 0 45.7433 0C52.9976 0 60.115 1.85851 66.3334 5.37639L68.4 6.5457C73.4672 9.41256 77.8709 13.2099 81.348 17.7117C85.1225 22.5987 87.7185 28.2028 88.9541 34.1325Z" fill="#232323"/>
<path d="M54.9015 18.5476L51.7222 20.0527C50.8442 20.4684 50.4903 21.4755 50.9318 22.3021L54.1286 28.2896C54.5703 29.1162 55.64 29.4494 56.5175 29.0338L59.6972 27.5286C60.5752 27.1129 60.9291 26.1059 60.4875 25.2793L57.2903 19.2918C56.8492 18.4652 55.7795 18.1319 54.9015 18.5476Z" fill="#F5F5F5"/>
<path d="M55.7097 23.7907L67.056 8.6752L75.3626 24.2308L55.7097 23.7907Z" fill="#F5F5F5"/>
<path d="M55.7097 23.7907L67.056 8.6752L75.3626 24.2308L55.7097 23.7907Z" fill="#F5F5F5"/>
<path d="M55.7097 23.7907L67.056 8.6752L75.3626 24.2308L55.7097 23.7907Z" fill="#F5F5F5"/>
<path d="M55.7098 23.7907L44.3635 38.9061L36.0571 23.3506L55.7098 23.7907Z" fill="#F5F5F5"/>
<path d="M55.7098 23.7907L44.3635 38.9061L36.0571 23.3506L55.7098 23.7907Z" fill="#F5F5F5"/>
<path d="M55.7098 23.7907L44.3635 38.9061L36.0571 23.3506L55.7098 23.7907Z" fill="#F5F5F5"/>
<path d="M44.4827 164.187H39.1447V165.862H44.4827V164.187Z" fill="#232323"/>
<path d="M44.4827 154.135H39.1447V155.81H44.4827V154.135Z" fill="#232323"/>
<path d="M44.4827 157.486H39.1447V159.161H44.4827V157.486Z" fill="#232323"/>
<path d="M44.4827 160.836H39.1447V162.511H44.4827V160.836Z" fill="#232323"/>
<path d="M39.1447 152.459H44.4827V154.135H39.1447V152.459Z" fill="#C4C4C4"/>
<path d="M39.1447 155.81H44.4827V157.486H39.1447V155.81Z" fill="#C4C4C4"/>
<path d="M39.1447 159.161H44.4827V160.836H39.1447V159.161Z" fill="#C4C4C4"/>
<path d="M39.1447 162.511H44.4827V164.187H39.1447V162.511Z" fill="#C4C4C4"/>
<path d="M39.1447 165.862H44.4827V167.538H39.1447V165.862Z" fill="#C4C4C4"/>
<path d="M44.4827 164.187H39.1447V165.862H44.4827V164.187Z" fill="#232323"/>
<path d="M44.4827 154.135H39.1447V155.81H44.4827V154.135Z" fill="#232323"/>
<path d="M44.4827 157.486H39.1447V159.161H44.4827V157.486Z" fill="#232323"/>
<path d="M44.4827 160.836H39.1447V162.511H44.4827V160.836Z" fill="#232323"/>
</svg>
