<svg width="176" height="300" viewBox="0 0 176 300" fill="none" xmlns="http://www.w3.org/2000/svg">
<path d="M109.295 231.02C109.295 228.864 107.446 227.116 105.164 227.116C102.883 227.116 101.033 228.864 101.033 231.02V296.095C101.033 298.251 102.883 300 105.164 300C107.446 300 109.295 298.251 109.295 296.095V231.02Z" fill="white"/>
<path fill-rule="evenodd" clip-rule="evenodd" d="M100.615 300V295.397H102.627H105.043C105.043 295.397 106.948 295.397 107.996 295.397C109.045 295.397 109.367 294.485 109.367 294.485H112.285C113.896 294.485 115.202 295.721 115.202 297.243V300H109.367H106.45H100.615Z" fill="#606060"/>
<path d="M105.164 153.007L131.4 254.524H78.9283L105.164 153.007Z" fill="#A2A2A2"/>
<path d="M171.23 103.458C171.23 148.023 164.345 180.262 103.755 180.262C25.2645 180.262 37.6577 148.023 37.6577 103.458C37.6577 58.8921 66.49 26.6844 103.755 26.6844C141.02 26.6844 171.23 58.8921 171.23 103.458Z" fill="#F5F5F5"/>
<ellipse cx="125.392" cy="112.327" rx="0.363956" ry="0.363056" fill="#B3B3B3"/>
<ellipse cx="127.137" cy="119.528" rx="0.363941" ry="0.36306" fill="#B3B3B3"/>
<ellipse cx="136.522" cy="117.387" rx="0.363953" ry="0.36306" fill="#B3B3B3"/>
<ellipse cx="129.607" cy="117.024" rx="0.363953" ry="0.36306" fill="#B3B3B3"/>
<ellipse cx="129.243" cy="113.053" rx="0.363953" ry="0.36306" fill="#B3B3B3"/>
<ellipse cx="123.557" cy="117.024" rx="0.363949" ry="0.36306" fill="#B3B3B3"/>
<ellipse cx="126.41" cy="115.845" rx="0.363953" ry="0.36306" fill="#B3B3B3"/>
<ellipse cx="133.196" cy="113.779" rx="0.363953" ry="0.36306" fill="#B3B3B3"/>
<ellipse cx="140.117" cy="115.845" rx="0.36393" ry="0.36306" fill="#B3B3B3"/>
<ellipse cx="142.937" cy="117.75" rx="0.363945" ry="0.36306" fill="#B3B3B3"/>
<ellipse cx="139.389" cy="119.891" rx="0.363953" ry="0.36306" fill="#B3B3B3"/>
<ellipse cx="134.79" cy="121.047" rx="0.363953" ry="0.36306" fill="#B3B3B3"/>
<ellipse cx="132.832" cy="118.113" rx="0.363945" ry="0.36306" fill="#B3B3B3"/>
<path d="M155.022 149.169C154.301 148.941 153.521 149.31 153.281 149.992C153.04 150.674 153.43 151.411 154.151 151.638L155.022 149.169ZM162.849 153.007C163.609 153.007 164.226 152.424 164.226 151.705C164.226 150.986 163.609 150.404 162.849 150.404V153.007ZM154.151 151.638L156.162 152.272L157.033 149.803L155.022 149.169L154.151 151.638ZM160.953 153.007H162.849V150.404H160.953V153.007ZM156.162 152.272C157.707 152.758 159.324 153.007 160.953 153.007V150.404C159.62 150.404 158.297 150.201 157.033 149.803L156.162 152.272Z" fill="black"/>
<path d="M171.23 109.578L176 125.196H166.459L171.23 109.578Z" fill="#F5F5F5"/>
<path d="M141.04 109.712C146.363 109.712 150.679 105.408 150.679 100.098C150.679 94.7884 146.363 90.484 141.04 90.484C135.716 90.484 131.4 94.7884 131.4 100.098C131.4 105.408 135.716 109.712 141.04 109.712Z" fill="#232323"/>
<path d="M149.378 47.5215L116.052 77.9622L106.014 109.204L99.5898 144.852C99.5898 144.852 85.6472 170.059 86.3844 175.392C87.1217 180.726 76.3465 192.215 76.3465 192.215C76.6943 193.389 70.9974 199.393 69.8775 197.722C69.8285 198.193 66.9074 205.861 62.6503 206.534C62.2167 206.334 61.7027 213.01 56.6275 213.744C55.1595 217.677 53.265 218.878 48.9987 220.153C46.6126 223.272 44.8025 224.374 40.5668 224.959C34.486 226.891 32.9545 229.285 22.4986 228.163C27.0811 223.613 30.5263 222.235 36.9532 220.153C39.5947 216.118 41.1543 214.1 44.9835 213.744C47.1437 209.574 48.9427 207.984 52.6123 206.534C52.4775 203.268 56.1445 200.191 56.1445 200.191C56.4309 197.932 61.9403 194.762 62.6503 194.518C63.3602 194.275 68.1619 185.56 69.8775 185.706C71.5022 185.845 72.631 177.773 74.4298 177.58C73.5116 177.446 70.7467 177.03 68.88 176.619C63.6945 175.477 60.6933 174.757 55.9919 172.294C52.1255 170.269 49.9001 168.987 46.853 165.866C44.2885 163.24 43.0641 161.482 41.4049 158.211C39.7719 154.991 39.2676 152.966 38.4758 149.445C37.6092 145.591 37.3627 139.393 37.3627 139.393V131.621C37.3627 131.621 37.4024 122.84 37.5198 117.215C37.7399 106.664 36.9145 100.633 38.5884 90.2125C40.0206 81.2973 41.0158 76.1793 44.5698 67.8755C47.732 60.4869 49.9385 56.378 54.9988 50.1282C59.7383 44.2747 62.9277 41.2834 69.1087 36.9708C74.5974 33.1411 77.9347 31.1268 84.2829 28.9953C89.223 27.3366 92.1773 26.8676 97.3636 26.3477C102.557 25.8271 105.537 25.8126 110.729 26.3477C114.773 26.7646 117.058 27.1179 120.966 28.2388C125.59 29.5656 128.075 30.7434 132.34 32.9666C136.499 35.1348 142.482 39.3964 142.482 39.3964C142.482 39.3964 146.216 42.044 148.359 44.0297C149.357 44.9536 150.824 46.4881 150.824 46.4881L149.378 47.5215Z" fill="#D5D5D5"/>
<path d="M77.1048 173.69L74.7386 177.624M74.7386 177.624C72.756 176.843 71.5932 185.853 69.8775 185.706C68.1619 185.56 63.3602 194.275 62.6503 194.518C61.9403 194.762 56.4309 197.932 56.1445 200.191C56.1445 200.191 52.4775 203.268 52.6123 206.534C48.9427 207.984 47.1437 209.574 44.9835 213.744C41.1543 214.1 39.5947 216.118 36.9532 220.153C30.5263 222.235 27.0811 223.613 22.4986 228.163C32.9545 229.285 34.486 226.891 40.5668 224.959C44.8025 224.374 46.6126 223.272 48.9987 220.153C53.265 218.878 55.1595 217.677 56.6275 213.744C61.7027 213.01 62.2167 206.334 62.6503 206.534C66.9074 205.861 69.8285 198.193 69.8775 197.722C70.9974 199.393 76.6943 193.389 76.3465 192.215C76.3465 192.215 87.1217 180.726 86.3844 175.392C85.6472 170.059 99.5898 144.852 99.5898 144.852L106.014 109.204L116.052 77.9623L149.378 47.5215L150.824 46.4881C150.824 46.4881 149.357 44.9536 148.359 44.0297C146.216 42.044 142.482 39.3964 142.482 39.3964C142.482 39.3964 136.499 35.1348 132.34 32.9666C128.075 30.7434 125.59 29.5656 120.966 28.2388C117.058 27.1179 114.773 26.7646 110.729 26.3477C105.537 25.8126 102.557 25.8271 97.3636 26.3477C92.1773 26.8676 89.223 27.3366 84.2829 28.9953C77.9347 31.1268 74.5974 33.1411 69.1087 36.9708C62.9277 41.2834 59.7383 44.2747 54.9988 50.1282C49.9385 56.378 47.732 60.4869 44.5698 67.8755C41.0158 76.1793 40.0206 81.2973 38.5884 90.2125C36.9145 100.633 37.7399 106.664 37.5198 117.215C37.4024 122.84 37.3627 131.621 37.3627 131.621V139.393C37.3627 139.393 37.6092 145.591 38.4758 149.445C39.2676 152.966 39.7719 154.991 41.4049 158.211C43.0641 161.482 44.2885 163.24 46.853 165.866C49.9001 168.987 52.1255 170.269 55.9919 172.294C60.6933 174.757 63.6945 175.477 68.88 176.619C71.147 177.118 74.7386 177.624 74.7386 177.624Z" stroke="#D4D4D4"/>
<path fill-rule="evenodd" clip-rule="evenodd" d="M55.1384 169.842C55.1384 169.842 66.1718 158.078 65.4169 152.617L53.492 154.902C53.3962 154.864 53.3023 154.849 53.2102 154.854C52.2656 154.903 51.5017 157.081 50.7597 159.197C50.0391 161.252 49.3391 163.248 48.5144 163.178C47.3808 163.081 44.9314 166.762 43.1411 169.453C42.1568 170.932 41.3717 172.112 41.1139 172.201C40.387 172.45 34.7455 175.696 34.4522 178.009C34.4522 178.009 30.6973 181.16 30.8354 184.505C27.0778 185.989 25.2357 187.618 23.0238 191.887C19.1028 192.252 17.5058 194.319 14.801 198.449C8.22003 200.581 4.69227 201.993 0 206.652C8.08169 207.519 10.9565 206.335 14.5584 204.851C15.7282 204.369 16.9747 203.856 18.5012 203.371C22.8384 202.772 24.6919 201.644 27.1352 198.449C31.5037 197.145 33.4437 195.915 34.9468 191.887C38.8846 191.318 40.1408 187.255 40.7115 185.409C40.8939 184.819 41.0063 184.455 41.1139 184.505C45.473 183.816 48.4641 175.964 48.5144 175.482C49.6611 177.192 55.4945 171.044 55.1384 169.842Z" fill="#D4D4D4"/>
<path d="M36.7484 219.844L40.4399 225.337" stroke="black" stroke-width="2"/>
<path d="M14.9515 198.354L18.294 203.153" stroke="black" stroke-width="2"/>
<path fill-rule="evenodd" clip-rule="evenodd" d="M104.994 190.257C103.84 190.257 102.895 191.126 102.865 192.217L102.6 201.652L102.335 211.087H107.824L107.474 201.652L107.123 192.2C107.083 191.116 106.142 190.257 104.994 190.257Z" fill="white"/>
<path fill-rule="evenodd" clip-rule="evenodd" d="M112.106 205.119L102.929 207.427L104.073 212.783L113.378 211.075L122.684 209.367C124.128 209.102 125.053 207.636 124.73 206.124L124.477 204.94C124.152 203.419 122.694 202.456 121.261 202.817L112.106 205.119Z" fill="white"/>
<ellipse cx="103.498" cy="211.63" rx="1.27548" ry="1.27237" fill="white"/>
</svg>
