<svg width="161" height="324" viewBox="0 0 161 324" fill="none" xmlns="http://www.w3.org/2000/svg">
<path fill-rule="evenodd" clip-rule="evenodd" d="M87.0927 307.204H78.561V324H84.2488H87.0927H92.7805V321.201C92.7805 319.655 91.5073 318.401 89.9366 318.401H87.0927V307.204Z" fill="#606060"/>
<path d="M70.8048 163.792H96.6585C96.6585 163.792 100.537 239.374 96.6585 243.896C92.7805 248.418 74.6829 248.418 70.8048 243.896C66.9268 239.374 70.8048 163.792 70.8048 163.792Z" fill="#8A8A8A"/>
<path d="M150.434 101.776L155.088 117.792H145.781L150.434 101.776Z" fill="#E8E8E8"/>
<path d="M90.6514 188.244C93.0847 190.172 97.9512 189.529 97.9512 189.529L97.3429 181.176V175.393V170.252L91.868 170.895H87.6098V174.75C87.6098 176.066 88.2181 181.176 88.2181 181.176C88.2181 181.176 88.2181 186.316 90.6514 188.244Z" fill="#CACACA"/>
<path d="M79.8537 178.116V171.375L70.1205 170.252L69.5122 182.61V191.598L70.1205 194.969L73.1621 196.092H75.5954L78.0287 193.845L78.637 189.351L79.2453 183.734L79.8537 178.116Z" fill="#CACACA"/>
<path d="M151.394 92.6495C151.394 138.35 144.678 171.41 85.5687 171.41C8.99638 171.41 21.0866 138.35 21.0866 92.6495C21.0866 46.9483 49.2143 13.92 85.5687 13.92C121.923 13.92 151.394 46.9483 151.394 92.6495Z" fill="#E8E8E8"/>
<path d="M122.4 105.301C127.335 105.301 131.336 101.33 131.336 96.4325C131.336 91.5346 127.335 87.564 122.4 87.564C117.464 87.564 113.463 91.5346 113.463 96.4325C113.463 101.33 117.464 105.301 122.4 105.301Z" fill="#232323"/>
<path d="M147.073 134.722H145.134L142.549 134.076L139.963 133.43L137.378 132.784L134.793 130.846C134.793 130.846 132.854 129.554 133.5 129.554" stroke="black"/>
<path d="M133.5 129.554L134.793 130.846" stroke="black"/>
<path d="M133.379 129.458C133.405 129.463 133.402 129.466 133.417 129.481C133.424 129.488 133.432 129.5 133.44 129.504" stroke="black" stroke-linecap="round" stroke-linejoin="round"/>
<path d="M145.054 66.4332C161.016 66.4332 154.076 60.076 158.24 53.7188C162.404 47.3617 159.628 35.3536 145.054 33.9409C130.479 32.5282 138.113 19.8139 138.113 19.8139C138.113 19.8139 143.665 12.044 129.091 8.51226C114.516 4.98049 108.964 12.044 108.964 12.044C108.964 12.044 96.4713 -2.08303 86.7549 4.98049C77.0385 12.044 80.6555 -6.80926 64.5459 4.98049C48.4363 16.7702 57.8037 21.5736 46.5011 17.6948C35.1985 13.8161 36.7846 25.4647 26.3742 27.5838C15.9637 29.7028 15.9637 31.8219 18.0458 46.6553C20.1279 61.4887 15.9637 41.0045 8.32937 69.2586C0.695048 97.5127 25.6802 76.3221 8.32937 94.6872C-9.02143 113.052 14.5756 118.703 5.55324 122.941C-3.46916 127.179 2.77712 133.537 8.32937 144.132C13.8816 154.727 21.516 140.6 30.5384 149.783C39.5608 158.965 51.3593 138.481 52.7474 140.6C54.1354 142.719 65.7072 151.095 74.2623 136.362C82.8175 121.629 74.2849 127.633 86.7549 122.941C99.2249 118.25 98.872 103.208 91.6131 101.044C84.3542 98.8804 93.6952 84.7983 102.024 82.6793C110.352 80.5602 121.456 89.7428 121.456 72.084C121.456 54.4252 129.091 66.4332 145.054 66.4332Z" fill="#747474" stroke="#747474"/>
<rect x="78.561" y="246.48" width="10.3415" height="69.768" fill="#8A8A8A"/>
<rect x="78.561" y="312.372" width="10.3415" height="3.87604" fill="#C4C4C4"/>
<path d="M80.8742 181.687C80.9036 180.356 81.8117 179.296 82.9219 179.296C84.0252 179.296 84.9304 180.344 84.969 181.666L86.3154 227.69C86.3679 229.486 85.1677 230.976 83.6687 230.976H82.5019C81.0119 230.976 79.8149 229.503 79.8546 227.717L80.8742 181.687Z" fill="#E8E8E8"/>
<path d="M81.1463 181.234C81.1463 181.88 80.5 185.756 80.5 185.756H85.6707C85.6707 185.756 85.0244 181.88 85.0244 181.234C85.0244 180.588 84.3781 179.942 84.3781 179.942L83.7317 179.296C83.7317 179.296 83.0854 178.65 82.439 179.296L81.7927 179.942C81.7927 179.942 81.1463 180.588 81.1463 181.234Z" fill="#CACACA" stroke="#CACACA"/>
</svg>
