<svg width="144" height="255" viewBox="0 0 144 255" fill="none" xmlns="http://www.w3.org/2000/svg">
<path d="M67.8085 196.933C67.8085 195.212 66.3326 193.817 64.5122 193.817C62.6917 193.817 61.2158 195.212 61.2158 196.933V248.863C61.2158 250.583 62.6917 251.978 64.5122 251.978C66.3326 251.978 67.8085 250.583 67.8085 248.863V196.933Z" fill="white"/>
<path d="M60.1058 193.817H69.1683L68.4007 232.327H60.9934L60.1058 193.817Z" fill="#8B8B8B"/>
<rect x="60.4735" y="229.515" width="8.32699" height="2.81195" fill="#C1C1C1"/>
<path fill-rule="evenodd" clip-rule="evenodd" d="M68.8973 248.209L60.1058 249.375V255H66.4751H69.6597H76.029V253.168C76.029 251.511 74.4574 250.914 72.8443 250.165L68.8973 248.209Z" fill="#C4C4C4"/>
<path d="M70.5727 249.308L69.1199 249.51L68.6195 249.58" stroke="#606060"/>
<path d="M69.7223 250.494L69.5354 248.932L69.471 248.394" stroke="#606060"/>
<path d="M72.6367 250.112L71.1839 250.314L70.6835 250.383" stroke="#606060"/>
<path d="M71.7863 251.298L71.5994 249.736L71.535 249.198" stroke="#606060"/>
<path d="M67.8085 188.07C67.8085 186.073 66.3326 184.453 64.5122 184.453C62.6917 184.453 61.2158 186.073 61.2158 188.07V248.361C61.2158 250.358 62.6917 251.978 64.5122 251.978C66.3326 251.978 67.8085 250.358 67.8085 248.361V188.07Z" fill="white"/>
<path d="M60.1058 193.817H69.1683L68.4007 244.909H60.9934L60.1058 193.817Z" fill="#8B8B8B"/>
<rect x="60.4735" y="242.097" width="8.32701" height="2.81195" fill="#C1C1C1"/>
<path fill-rule="evenodd" clip-rule="evenodd" d="M68.8973 248.209L60.1058 249.375V255H66.4751H69.6597H76.029V253.168C76.029 251.511 74.4574 250.914 72.8443 250.165L68.8973 248.209Z" fill="#C4C4C4"/>
<path d="M70.5727 249.308L69.1199 249.51L68.6195 249.58" stroke="#606060"/>
<path d="M69.7223 250.494L69.5354 248.932L69.471 248.394" stroke="#606060"/>
<path d="M72.6367 250.112L71.1839 250.314L70.6835 250.383" stroke="#606060"/>
<path d="M71.7863 251.298L71.5994 249.736L71.535 249.198" stroke="#606060"/>
<path d="M53.1674 136.322L75.6609 136.322C75.6609 136.322 76.414 156.393 76.414 169.258C76.414 182.123 76.4907 199.936 75.6609 202.194C74.831 204.453 68.6383 204.521 63.9842 204.453C59.6585 204.389 53.4438 202.232 53.3298 199.973C53.2157 197.715 52.4149 182.123 52.4149 169.258C52.4149 156.393 53.1674 136.322 53.1674 136.322Z" fill="#8B8B8B"/>
<path d="M127.941 89.5681L132.363 104.038H123.518L127.941 89.5681Z" fill="#F5F5F5"/>
<path d="M128.43 73.0593C128.43 114.348 122.047 144.216 65.8761 144.216C-6.89025 144.216 4.59917 114.348 4.59917 73.0593C4.59917 31.77 31.3287 1.93022 65.8761 1.93022C100.423 1.93022 128.43 31.77 128.43 73.0593Z" fill="#F5F5F5"/>
<path d="M96.0709 93.9793C101.785 93.9793 106.417 90.1619 106.417 85.4529C106.417 80.7439 101.785 76.9266 96.0709 76.9266C90.3572 76.9266 85.7253 80.7439 85.7253 85.4529C85.7253 90.1619 90.3572 93.9793 96.0709 93.9793Z" fill="#B7B7B7"/>
<path d="M97.4803 88.8412C102.416 88.8412 106.417 85.0622 106.417 80.4005C106.417 75.7388 102.416 71.9598 97.4803 71.9598C92.5449 71.9598 88.5441 75.7388 88.5441 80.4005C88.5441 85.0622 92.5449 88.8412 97.4803 88.8412Z" fill="#232323"/>
<path d="M107.021 120.039C105.854 120.25 104.594 119.908 104.206 119.277C103.817 118.645 104.447 117.962 105.613 117.751L107.021 120.039ZM119.671 116.484C120.9 116.484 121.896 117.024 121.896 117.689C121.896 118.355 120.9 118.895 119.671 118.895V116.484ZM105.613 117.751L108.863 117.164L110.271 119.452L107.021 120.039L105.613 117.751ZM116.606 116.484H119.671V118.895H116.606V116.484ZM108.863 117.164C111.36 116.713 113.974 116.484 116.606 116.484V118.895C114.453 118.895 112.314 119.083 110.271 119.452L108.863 117.164Z" fill="black"/>
<path fill-rule="evenodd" clip-rule="evenodd" d="M2.96891 90.2014C2.5264 102.388 2.13478 113.174 4.93741 121.955C4.93741 121.955 23.0781 114.037 29.8125 104.241C32.9069 99.7405 32.9113 96.2537 35.8061 91.6244C40.3913 84.2919 44.1995 80.9061 50.7901 75.2695C57.5728 69.4685 61.6239 66.0956 69.8946 62.6795C76.9689 59.7576 81.5116 59.8486 88.9992 58.2265C95.4175 56.836 105.482 54.8867 105.482 54.8867L124.076 49.8691C115.217 22.2915 92.1054 4.14043 64.9898 4.14043C30.2228 4.14043 3.32344 33.9802 3.32344 75.2695C3.32344 80.4378 3.14227 85.4272 2.96891 90.2014Z" fill="#D3D3D3"/>
<path fill-rule="evenodd" clip-rule="evenodd" d="M67.063 0.741623C36.6659 0.741623 9.95175 23.335 2.79888 55.0375C2.79888 55.0375 30.8748 61.3426 51.6119 50.8033C60.352 46.3613 76.8216 44.9256 79.4646 46.1417C82.1075 47.3577 140.253 63.9774 143.912 59.3158C146.352 46.1417 97.4601 0.741623 67.063 0.741623Z" fill="#767676"/>
<ellipse cx="67.1999" cy="0.741632" rx="2.68771" ry="0.741632" fill="#979797"/>
<path d="M62.2824 153.077C62.3107 152.066 63.1862 151.261 64.2565 151.261C65.3202 151.261 66.1929 152.057 66.2301 153.061L67.5282 188.02C67.5787 189.384 66.4216 190.516 64.9765 190.516H63.8516C62.4151 190.516 61.2611 189.397 61.2994 188.041L62.2824 153.077Z" fill="white"/>
<path fill-rule="evenodd" clip-rule="evenodd" d="M64.2565 151.261C63.1862 151.261 62.3107 152.06 62.2824 153.063L61.3467 186.101H67.4664L66.2301 153.048C66.1929 152.051 65.3202 151.261 64.2565 151.261Z" fill="#A6A6A6"/>
<path d="M64.2565 151.261C63.3508 151.261 62.5846 151.837 62.3532 152.627H66.1598C65.9282 151.837 65.1615 151.261 64.2565 151.261Z" fill="#C4C4C4"/>
<path d="M61.348 186.136H67.4677L67.3897 184.031H61.4178L61.348 186.136Z" fill="#C4C4C4"/>
<path d="M61.461 181.85H67.3045L67.23 179.744H61.5277L61.461 181.85Z" fill="#C4C4C4"/>
<path d="M61.6122 177.612H67.154L67.0834 175.506H61.6754L61.6122 177.612Z" fill="#C4C4C4"/>
<path d="M61.7037 173.32H66.9773L66.91 171.214H61.7639L61.7037 173.32Z" fill="#C4C4C4"/>
<path d="M61.8358 169.28H66.8237L66.7601 167.174H61.8928L61.8358 169.28Z" fill="#C4C4C4"/>
<path d="M61.9498 165.213H66.6967L66.6361 163.107H62.004L61.9498 165.213Z" fill="#C4C4C4"/>
<path d="M62.0473 161.01H66.5103L66.4533 158.905H62.0982L62.0473 161.01Z" fill="#C4C4C4"/>
<path d="M62.1647 156.937H66.3635L66.3099 154.831H62.2127L62.1647 156.937Z" fill="#C4C4C4"/>
</svg>
