<svg width="193" height="299" viewBox="0 0 193 299" fill="none" xmlns="http://www.w3.org/2000/svg">
<path d="M131.202 298.34H123.139V290.692H129.187L131.154 290.692C131.154 290.692 130.655 292.15 131.154 293.07C131.654 293.991 138.065 296.757 139.251 297.595C140.438 298.432 138.29 298.34 138.29 298.34H135.234H131.202Z" fill="#B0B0B0"/>
<path d="M131.175 231.04C131.175 228.935 129.376 227.229 127.157 227.229C124.938 227.229 123.139 228.935 123.139 231.04V294.553C123.139 296.656 124.938 298.364 127.157 298.364C129.376 298.364 131.175 296.656 131.175 294.553V231.04Z" fill="#B0B0B0"/>
<path d="M121.747 239.136H132.293L131.175 288.997H123.139L121.747 239.136Z" fill="#242424"/>
<path d="M115.069 165.697H138.579L141.8 246.096H112.514L115.069 165.697Z" fill="#E2E2E2"/>
<path d="M124.783 191.675C124.813 190.61 125.732 189.762 126.855 189.762C127.971 189.762 128.886 190.601 128.925 191.658L130.287 228.486C130.34 229.924 129.126 231.116 127.61 231.116H126.43C124.923 231.116 123.712 229.937 123.752 228.508L124.783 191.675Z" fill="#B0B0B0"/>
<path fill-rule="evenodd" clip-rule="evenodd" d="M126.855 189.762C125.732 189.762 124.813 190.61 124.783 191.675L123.821 226.06H130.197L128.925 191.658C128.886 190.601 127.971 189.762 126.855 189.762Z" fill="#DBDBDB"/>
<path d="M188.039 120.314L192.678 135.557H183.399L188.039 120.314Z" fill="#B0B0B0"/>
<path d="M188.598 103.753C188.598 144.968 181.902 174.782 122.971 174.782C46.6284 174.782 58.6824 144.968 58.6824 103.753C58.6824 62.5386 86.7255 32.7526 122.971 32.7526C159.216 32.7526 188.598 62.5386 188.598 103.753Z" fill="#B0B0B0"/>
<path d="M152.59 112.659C157.767 112.659 161.965 108.678 161.965 103.767C161.965 98.8565 157.767 94.8755 152.59 94.8755C147.412 94.8755 143.214 98.8565 143.214 103.767C143.214 108.678 147.412 112.659 152.59 112.659Z" fill="#232323"/>
<path fill-rule="evenodd" clip-rule="evenodd" d="M105.202 34.1915C102.356 32.2617 101.386 30.4126 98.8275 28.1142C96.5115 26.0339 95.2756 24.7768 92.7564 22.9486C89.7442 20.7626 88.0037 19.4973 84.5604 18.0868C79.8696 16.1652 76.8643 16.049 71.8111 15.6559C68.2655 15.38 66.1401 14.7362 62.7045 15.6559C59.1103 16.618 57.5296 18.3439 54.5085 20.5177C50.8953 23.1174 48.8479 24.6841 46.009 28.1142C43.4276 31.2332 42.2848 33.2695 40.545 36.9262C37.9474 42.3859 37.7187 45.9384 36.2952 51.8155C34.871 57.6959 34.3943 61.0653 33.2597 67.0086C31.8805 74.2332 31.3482 78.329 29.9206 85.5442C28.1045 94.7232 25.6683 99.6285 24.7602 108.942C24.0231 116.5 24.9773 120.797 24.7602 128.389C24.4609 138.851 23.2706 144.667 22.9388 155.129C22.6493 164.261 22.7824 169.39 22.9388 178.526C23.2033 193.967 24.1726 214.696 24.7602 218.028C25.3478 221.36 26.3665 221.848 26.7177 218.028C27.0689 214.208 25.0444 193.969 24.7602 178.526C24.592 169.39 24.4767 164.261 24.7602 155.129C25.0848 144.668 26.2499 138.85 26.5428 128.389C26.7553 120.797 25.7815 116.498 26.5428 108.942C27.4822 99.6161 30.0601 94.7374 31.8837 85.5442C33.3136 78.3359 33.8624 74.2472 35.1303 67.0086C36.3942 61.0753 37.1029 57.7487 38.3668 51.8155C38.9938 45.7825 40.0196 42.3242 42.7829 36.9262C44.4321 33.7048 45.5635 31.9665 47.8847 29.1909C50.497 26.0674 52.2904 24.5665 55.5374 22.1109C58.3943 19.9502 59.8543 18.1892 63.306 17.2361C66.5078 16.3519 68.5004 16.9683 71.8111 17.2361C76.6285 17.6256 79.4677 17.8516 83.9449 19.6735C87.0823 20.9501 88.7036 22.029 91.4817 23.9679C94.0926 25.7902 95.4249 27.0075 97.7429 29.1909C100.31 31.6086 101.652 33.0796 103.888 35.8067C104.727 36.8301 105.975 38.4763 105.975 38.4763L110.381 36.9262C110.381 36.9262 107.095 35.4751 105.202 34.1915Z" fill="#5B5B5B"/>
<path d="M35.1303 67.0086C33.8624 74.2472 33.3136 78.3359 31.8837 85.5442C30.0601 94.7374 27.4822 99.6161 26.5428 108.942C25.7815 116.498 26.7553 120.797 26.5428 128.389C26.2499 138.85 25.0848 144.668 24.7602 155.129C24.4767 164.261 24.592 169.39 24.7602 178.526C25.0444 193.969 27.0689 214.208 26.7177 218.028C26.3665 221.848 25.3478 221.36 24.7602 218.028C24.1726 214.696 23.2033 193.967 22.9388 178.526C22.7824 169.39 22.6493 164.261 22.9388 155.129C23.2706 144.667 24.4609 138.851 24.7602 128.389C24.9773 120.797 24.0231 116.5 24.7602 108.942C25.6683 99.6285 28.1045 94.7232 29.9206 85.5442C31.3482 78.329 31.8805 74.2332 33.2597 67.0086C34.3943 61.0653 34.871 57.6959 36.2952 51.8155C37.7187 45.9384 37.9474 42.3859 40.545 36.9262C42.2848 33.2695 43.4276 31.2332 46.009 28.1142C48.8479 24.6841 50.8953 23.1174 54.5085 20.5177C57.5296 18.3439 59.1103 16.618 62.7045 15.6559C66.1401 14.7362 68.2655 15.38 71.8111 15.6559C76.8643 16.049 79.8696 16.1652 84.5604 18.0868C88.0037 19.4973 89.7442 20.7626 92.7564 22.9486C95.2756 24.7768 96.5115 26.0339 98.8275 28.1142C101.386 30.4126 102.356 32.2617 105.202 34.1915C107.095 35.4751 110.381 36.9262 110.381 36.9262L105.975 38.4763C105.975 38.4763 104.727 36.8301 103.888 35.8067C101.652 33.0796 100.31 31.6086 97.7429 29.1909C95.4249 27.0075 94.0926 25.7902 91.4816 23.9679C88.7036 22.029 87.0823 20.9501 83.9449 19.6735C79.4677 17.8516 76.6285 17.6256 71.8111 17.2361C68.5004 16.9683 66.5078 16.3519 63.306 17.2361C59.8543 18.1892 58.3943 19.9502 55.5374 22.1109C52.2904 24.5665 50.497 26.0674 47.8847 29.1909C45.5635 31.9665 44.4321 33.7048 42.7829 36.9262C40.0196 42.3242 38.9938 45.7825 38.3668 51.8155M35.1303 67.0086C36.2091 61.9442 37.288 56.8798 38.3668 51.8155M35.1303 67.0086C36.3942 61.0753 37.1029 57.7487 38.3668 51.8155" stroke="#5B5B5B" stroke-width="2"/>
<path fill-rule="evenodd" clip-rule="evenodd" d="M100.51 31.8219C97.6632 29.8921 96.6936 28.043 94.1349 25.7446C91.819 23.6643 90.5831 22.4072 88.0639 20.579C85.0517 18.393 83.3112 17.1277 79.8679 15.7172C75.1771 13.7956 72.1718 13.6794 67.1186 13.2863C63.573 13.0104 61.4476 12.3666 58.012 13.2863C54.4178 14.2484 52.8371 15.9744 49.816 18.1481C46.2028 20.7479 44.1554 22.3146 41.3165 25.7446C38.7351 28.8636 37.5923 30.8999 35.8525 34.5566C33.2549 40.0163 33.0262 43.5689 31.6027 49.4459C30.1785 55.3263 29.7018 58.6958 28.5672 64.639C27.188 71.8636 26.6557 75.9594 25.2281 83.1746C23.412 92.3536 20.9758 97.259 20.0677 106.572C19.3306 114.131 20.2848 118.428 20.0677 126.019C19.7684 136.482 18.5781 142.298 18.2463 152.759C17.9568 161.892 18.0899 167.021 18.2463 176.156C18.5108 191.597 19.4801 212.326 20.0677 215.659C20.6553 218.991 21.6739 219.479 22.0252 215.659C22.3764 211.839 20.3519 191.599 20.0677 176.156C19.8995 167.021 19.7842 161.892 20.0677 152.759C20.3923 142.298 21.5574 136.481 21.8502 126.019C22.0628 118.428 21.089 114.128 21.8502 106.572C22.7897 97.2465 25.3676 92.3679 27.1912 83.1746C28.6211 75.9663 29.1699 71.8776 30.4378 64.639C31.7017 58.7057 32.4104 55.3792 33.6743 49.4459C34.3013 43.413 35.3271 39.9546 38.0904 34.5566C39.7396 31.3352 40.871 29.5969 43.1922 26.8214C45.8045 23.6978 47.5979 22.1969 50.8449 19.7413C53.7018 17.5806 55.1618 15.8197 58.6135 14.8665C61.8153 13.9823 63.8079 14.5988 67.1186 14.8665C71.9359 15.256 74.7752 15.482 79.2524 17.3039C82.3898 18.5805 84.011 19.6594 86.7891 21.5983C89.4001 23.4206 90.7324 24.6379 93.0504 26.8214C95.6171 29.239 96.9599 30.7101 99.1957 33.4372C100.035 34.4605 101.283 36.1067 101.283 36.1067L105.689 34.5566C105.689 34.5566 102.403 33.1055 100.51 31.8219Z" fill="#5B5B5B"/>
<path d="M30.4378 64.639C29.1699 71.8776 28.6211 75.9663 27.1912 83.1746C25.3676 92.3679 22.7897 97.2465 21.8502 106.572C21.089 114.128 22.0628 118.428 21.8502 126.019C21.5574 136.481 20.3923 142.298 20.0677 152.759C19.7842 161.892 19.8995 167.021 20.0677 176.156C20.3519 191.599 22.3764 211.839 22.0252 215.659C21.6739 219.479 20.6553 218.991 20.0677 215.659C19.4801 212.326 18.5108 191.597 18.2463 176.156C18.0899 167.021 17.9568 161.892 18.2463 152.759C18.5781 142.298 19.7684 136.482 20.0677 126.019C20.2848 118.428 19.3306 114.131 20.0677 106.572C20.9758 97.259 23.412 92.3536 25.2281 83.1746C26.6557 75.9594 27.188 71.8636 28.5672 64.639C29.7018 58.6958 30.1785 55.3263 31.6027 49.4459C33.0262 43.5689 33.2549 40.0163 35.8525 34.5566C37.5923 30.8999 38.7351 28.8636 41.3165 25.7446C44.1554 22.3146 46.2028 20.7479 49.816 18.1481C52.8371 15.9744 54.4178 14.2484 58.012 13.2863C61.4476 12.3666 63.573 13.0104 67.1186 13.2863C72.1718 13.6794 75.1771 13.7956 79.8679 15.7172C83.3112 17.1277 85.0517 18.393 88.0639 20.579C90.5831 22.4072 91.819 23.6643 94.1349 25.7446C96.6936 28.043 97.6632 29.8921 100.51 31.8219C102.403 33.1055 105.689 34.5566 105.689 34.5566L101.283 36.1067C101.283 36.1067 100.035 34.4605 99.1957 33.4372C96.9599 30.7101 95.6171 29.239 93.0504 26.8214C90.7324 24.6379 89.4001 23.4206 86.7891 21.5983C84.011 19.6594 82.3898 18.5805 79.2524 17.3039C74.7752 15.482 71.9359 15.256 67.1186 14.8665C63.8079 14.5988 61.8153 13.9823 58.6135 14.8665C55.1618 15.8197 53.7018 17.5806 50.8449 19.7413C47.5979 22.1969 45.8045 23.6978 43.1922 26.8214C40.871 29.5969 39.7396 31.3352 38.0904 34.5566C35.3271 39.9546 34.3013 43.413 33.6743 49.4459M30.4378 64.639C31.5166 59.5746 32.5955 54.5103 33.6743 49.4459M30.4378 64.639C31.7017 58.7057 32.4104 55.3792 33.6743 49.4459" stroke="#5B5B5B" stroke-width="2"/>
<path fill-rule="evenodd" clip-rule="evenodd" d="M107.335 29.4732C104.489 27.5434 103.519 25.6943 100.96 23.396C98.6445 21.3157 97.4086 20.0586 94.8894 18.2303C91.8772 16.0443 90.1367 14.7791 86.6934 13.3685C82.0026 11.4469 78.9973 11.3308 73.9441 10.9376C70.3985 10.6618 68.2731 10.018 64.8375 10.9376C61.2433 11.8997 59.6626 13.6257 56.6415 15.7994C53.0283 18.3992 50.9809 19.9659 48.142 23.396C45.5606 26.515 44.4178 28.5512 42.678 32.208C40.0804 37.6677 39.8517 41.2202 38.4282 47.0972C37.004 52.9777 36.5273 56.3471 35.3927 62.2904C34.0135 69.515 33.4812 73.6108 32.0536 80.826C30.2375 90.005 27.8013 94.9103 26.8932 104.223C26.1561 111.782 27.1103 116.079 26.8932 123.671C26.5939 134.133 25.4036 139.949 25.0718 150.41C24.7823 159.543 24.9154 164.672 25.0718 173.808C25.3363 189.248 26.3056 209.978 26.8932 213.31C27.4808 216.642 28.4994 217.13 28.8507 213.31C29.2019 209.49 27.1774 189.251 26.8932 173.808C26.725 164.672 26.6097 159.543 26.8932 150.41C27.2178 139.95 28.3829 134.132 28.6757 123.671C28.8883 116.079 27.9145 111.78 28.6757 104.223C29.6152 94.8979 32.1931 90.0192 34.0167 80.826C35.4466 73.6177 35.9954 69.529 37.2633 62.2904C38.5272 56.3571 39.2359 53.0305 40.4998 47.0972C41.1268 41.0643 42.1526 37.606 44.9159 32.208C46.5651 28.9866 47.6965 27.2483 50.0177 24.4727C52.63 21.3491 54.4234 19.8483 57.6704 17.3926C60.5273 15.232 61.9873 13.471 65.439 12.5178C68.6408 11.6336 70.6334 12.2501 73.9441 12.5178C78.7614 12.9074 81.6007 13.1334 86.0779 14.9552C89.2153 16.2319 90.8365 17.3108 93.6146 19.2497C96.2256 21.072 97.5579 22.2893 99.8759 24.4727C102.443 26.8904 103.785 28.3614 106.021 31.0885C106.86 32.1119 108.108 33.7581 108.108 33.7581L112.514 32.208C112.514 32.208 109.228 30.7569 107.335 29.4732Z" fill="#5B5B5B"/>
<path d="M37.2633 62.2904C35.9954 69.529 35.4466 73.6177 34.0167 80.826C32.1931 90.0192 29.6152 94.8979 28.6757 104.223C27.9145 111.78 28.8883 116.079 28.6757 123.671C28.3829 134.132 27.2178 139.95 26.8932 150.41C26.6097 159.543 26.725 164.672 26.8932 173.808C27.1774 189.251 29.2019 209.49 28.8507 213.31C28.4994 217.13 27.4808 216.642 26.8932 213.31C26.3056 209.978 25.3363 189.248 25.0718 173.808C24.9154 164.672 24.7823 159.543 25.0718 150.41C25.4036 139.949 26.5939 134.133 26.8932 123.671C27.1103 116.079 26.1561 111.782 26.8932 104.223C27.8013 94.9103 30.2375 90.005 32.0536 80.826C33.4812 73.6108 34.0135 69.515 35.3927 62.2904C36.5273 56.3471 37.004 52.9777 38.4282 47.0972C39.8517 41.2202 40.0804 37.6677 42.678 32.208C44.4178 28.5512 45.5606 26.515 48.142 23.396C50.9809 19.9659 53.0283 18.3992 56.6415 15.7994C59.6626 13.6257 61.2433 11.8997 64.8375 10.9376C68.2731 10.018 70.3985 10.6618 73.9441 10.9376C78.9973 11.3308 82.0026 11.4469 86.6934 13.3685C90.1367 14.7791 91.8772 16.0443 94.8894 18.2303C97.4086 20.0586 98.6445 21.3157 100.96 23.396C103.519 25.6943 104.489 27.5434 107.335 29.4732C109.228 30.7569 112.514 32.208 112.514 32.208L108.108 33.7581C108.108 33.7581 106.86 32.1119 106.021 31.0885C103.785 28.3614 102.443 26.8904 99.8759 24.4727C97.5579 22.2893 96.2256 21.072 93.6146 19.2497C90.8365 17.3108 89.2153 16.2319 86.0779 14.9552C81.6007 13.1334 78.7614 12.9074 73.9441 12.5178C70.6334 12.2501 68.6408 11.6336 65.439 12.5178C61.9873 13.471 60.5273 15.232 57.6704 17.3926C54.4234 19.8483 52.63 21.3491 50.0177 24.4727C47.6965 27.2483 46.5651 28.9866 44.9159 32.208C42.1526 37.606 41.1268 41.0643 40.4998 47.0972M37.2633 62.2904C38.3421 57.226 39.421 52.1616 40.4998 47.0972M37.2633 62.2904C38.5272 56.3571 39.2359 53.0305 40.4998 47.0972" stroke="#5B5B5B" stroke-width="2"/>
<path fill-rule="evenodd" clip-rule="evenodd" d="M93.9259 34.1915C91.0795 32.2617 90.11 30.4126 87.5513 28.1142C85.2353 26.0339 83.9994 24.7768 81.4802 22.9486C78.468 20.7626 76.7276 19.4973 73.2842 18.0868C68.5934 16.1652 65.5881 16.049 60.5349 15.6559C56.9893 15.38 54.864 14.7362 51.4283 15.6559C47.8341 16.618 46.2534 18.3439 43.2323 20.5177C39.6191 23.1174 37.5717 24.6841 34.7328 28.1142C32.1514 31.2332 31.0086 33.2695 29.2688 36.9262C26.6712 42.3859 26.4425 45.9384 25.0191 51.8155C23.5948 57.6959 23.1181 61.0653 21.9835 67.0086C20.6043 74.2332 20.072 78.329 18.6444 85.5442C16.8283 94.7232 14.3922 99.6285 13.484 108.942C12.7469 116.5 13.7011 120.797 13.484 128.389C13.1847 138.851 11.9944 144.667 11.6627 155.129C11.3731 164.261 11.5062 169.39 11.6627 178.526C11.9271 193.967 12.8964 214.696 13.484 218.028C14.0716 221.36 15.0903 221.848 15.4415 218.028C15.7927 214.208 13.7682 193.969 13.484 178.526C13.3159 169.39 13.2006 164.261 13.484 155.129C13.8087 144.668 14.9737 138.85 15.2666 128.389C15.4791 120.797 14.5053 116.498 15.2666 108.942C16.206 99.6161 18.7839 94.7374 20.6075 85.5442C22.0374 78.3359 22.5862 74.2472 23.8541 67.0086C25.1181 61.0753 25.8267 57.7487 27.0907 51.8155C27.7177 45.7825 28.7434 42.3242 31.5068 36.9262C33.1559 33.7048 34.2873 31.9665 36.6085 29.1909C39.2208 26.0674 41.0142 24.5665 44.2612 22.1109C47.1181 19.9502 48.5781 18.1892 52.0298 17.2361C55.2317 16.3519 57.2243 16.9683 60.5349 17.2361C65.3523 17.6256 68.1915 17.8516 72.6688 19.6735C75.8062 20.9501 77.4274 22.029 80.2055 23.9679C82.8164 25.7902 84.1487 27.0075 86.4667 29.1909C89.0334 31.6086 90.3762 33.0796 92.612 35.8067C93.451 36.8301 94.6991 38.4763 94.6991 38.4763L99.1052 36.9262C99.1052 36.9262 95.8193 35.4751 93.9259 34.1915Z" fill="#5B5B5B"/>
<path d="M23.8541 67.0086C22.5862 74.2472 22.0374 78.3359 20.6075 85.5442C18.7839 94.7374 16.206 99.6161 15.2666 108.942C14.5053 116.498 15.4791 120.797 15.2666 128.389C14.9737 138.85 13.8087 144.668 13.484 155.129C13.2006 164.261 13.3159 169.39 13.484 178.526C13.7682 193.969 15.7927 214.208 15.4415 218.028C15.0903 221.848 14.0716 221.36 13.484 218.028C12.8964 214.696 11.9271 193.967 11.6627 178.526C11.5062 169.39 11.3731 164.261 11.6627 155.129C11.9944 144.667 13.1847 138.851 13.484 128.389C13.7011 120.797 12.7469 116.5 13.484 108.942C14.3922 99.6285 16.8283 94.7232 18.6444 85.5442C20.072 78.329 20.6043 74.2332 21.9835 67.0086C23.1181 61.0653 23.5948 57.6959 25.0191 51.8155C26.4425 45.9384 26.6712 42.3859 29.2688 36.9262C31.0086 33.2695 32.1514 31.2332 34.7328 28.1142C37.5717 24.6841 39.6191 23.1174 43.2323 20.5177C46.2534 18.3439 47.8341 16.618 51.4283 15.6559C54.864 14.7362 56.9893 15.38 60.5349 15.6559C65.5881 16.049 68.5934 16.1652 73.2842 18.0868C76.7276 19.4973 78.468 20.7626 81.4802 22.9486C83.9994 24.7768 85.2353 26.0339 87.5513 28.1142C90.11 30.4126 91.0795 32.2617 93.9259 34.1915C95.8193 35.4751 99.1052 36.9262 99.1052 36.9262L94.6991 38.4763C94.6991 38.4763 93.451 36.8301 92.612 35.8067C90.3762 33.0796 89.0334 31.6086 86.4667 29.1909C84.1487 27.0075 82.8164 25.7902 80.2055 23.9679C77.4274 22.029 75.8061 20.9501 72.6688 19.6735C68.1915 17.8516 65.3523 17.6256 60.5349 17.2361C57.2243 16.9683 55.2317 16.3519 52.0298 17.2361C48.5781 18.1892 47.1181 19.9502 44.2612 22.1109C41.0142 24.5665 39.2208 26.0674 36.6085 29.1909C34.2873 31.9665 33.1559 33.7048 31.5068 36.9262C28.7434 42.3242 27.7177 45.7825 27.0907 51.8155M23.8541 67.0086C24.933 61.9442 26.0118 56.8798 27.0907 51.8155M23.8541 67.0086C25.1181 61.0753 25.8267 57.7487 27.0907 51.8155" stroke="#5B5B5B" stroke-width="2"/>
<path fill-rule="evenodd" clip-rule="evenodd" d="M105.202 39.5083C102.356 37.5785 101.386 35.7294 98.8275 33.431C96.5115 31.3507 95.2756 30.0937 92.7564 28.2654C89.7442 26.0794 88.0037 24.8141 84.5604 23.4036C79.8696 21.482 76.8643 21.3658 71.8111 20.9727C68.2655 20.6968 66.1401 20.053 62.7045 20.9727C59.1103 21.9348 57.5296 23.6608 54.5085 25.8345C50.8953 28.4343 48.8479 30.001 46.009 33.431C43.4276 36.55 42.2848 38.5863 40.545 42.243C37.9474 47.7028 37.7187 51.2553 36.2952 57.1323C34.871 63.0127 34.3943 66.3822 33.2597 72.3254C31.8805 79.55 31.3482 83.6458 29.9206 90.861C28.1045 100.04 25.6683 104.945 24.7602 114.258C24.0231 121.817 24.9773 126.114 24.7602 133.706C24.4609 144.168 23.2706 149.984 22.9388 160.445C22.6493 169.578 22.7824 174.707 22.9388 183.843C23.2033 199.284 24.1726 220.013 24.7602 223.345C25.3478 226.677 26.3665 227.165 26.7177 223.345C27.0689 219.525 25.0444 199.286 24.7602 183.843C24.592 174.707 24.4767 169.578 24.7602 160.445C25.0848 149.985 26.2499 144.167 26.5428 133.706C26.7553 126.114 25.7815 121.815 26.5428 114.258C27.4822 104.933 30.0601 100.054 31.8837 90.861C33.3136 83.6527 33.8624 79.564 35.1303 72.3254C36.3942 66.3921 37.1029 63.0656 38.3668 57.1323C38.9938 51.0994 40.0196 47.641 42.7829 42.243C44.4321 39.0216 45.5635 37.2834 47.8847 34.5078C50.497 31.3842 52.2904 29.8834 55.5374 27.4277C58.3943 25.267 59.8543 23.5061 63.306 22.5529C66.5078 21.6687 68.5004 22.2852 71.8111 22.5529C76.6285 22.9424 79.4677 23.1684 83.9449 24.9903C87.0823 26.267 88.7036 27.3458 91.4817 29.2848C94.0926 31.107 95.4249 32.3243 97.7429 34.5078C100.31 36.9254 101.652 38.3965 103.888 41.1236C104.727 42.1469 105.975 43.7931 105.975 43.7931L110.381 42.243C110.381 42.243 107.095 40.792 105.202 39.5083Z" fill="#5B5B5B"/>
<path d="M35.1303 72.3254C33.8624 79.564 33.3136 83.6527 31.8837 90.861C30.0601 100.054 27.4822 104.933 26.5428 114.258C25.7815 121.815 26.7553 126.114 26.5428 133.706C26.2499 144.167 25.0848 149.985 24.7602 160.445C24.4767 169.578 24.592 174.707 24.7602 183.843C25.0444 199.286 27.0689 219.525 26.7177 223.345C26.3665 227.165 25.3478 226.677 24.7602 223.345C24.1726 220.013 23.2033 199.284 22.9388 183.843C22.7824 174.707 22.6493 169.578 22.9388 160.445C23.2706 149.984 24.4609 144.168 24.7602 133.706C24.9773 126.114 24.0231 121.817 24.7602 114.258C25.6683 104.945 28.1045 100.04 29.9206 90.861C31.3482 83.6458 31.8805 79.55 33.2597 72.3254C34.3943 66.3822 34.871 63.0127 36.2952 57.1323C37.7187 51.2553 37.9474 47.7028 40.545 42.2431C42.2848 38.5863 43.4276 36.55 46.009 33.431C48.8479 30.001 50.8953 28.4343 54.5085 25.8345C57.5296 23.6608 59.1103 21.9348 62.7045 20.9727C66.1401 20.053 68.2655 20.6968 71.8111 20.9727C76.8643 21.3658 79.8696 21.482 84.5604 23.4036C88.0037 24.8141 89.7442 26.0794 92.7564 28.2654C95.2756 30.0937 96.5115 31.3507 98.8275 33.431C101.386 35.7294 102.356 37.5785 105.202 39.5083C107.095 40.792 110.381 42.2431 110.381 42.2431L105.975 43.7931C105.975 43.7931 104.727 42.1469 103.888 41.1236C101.652 38.3965 100.31 36.9254 97.7429 34.5078C95.4249 32.3243 94.0926 31.107 91.4816 29.2848C88.7036 27.3458 87.0823 26.267 83.9449 24.9903C79.4677 23.1684 76.6285 22.9424 71.8111 22.5529C68.5004 22.2852 66.5078 21.6687 63.306 22.5529C59.8543 23.5061 58.3943 25.267 55.5374 27.4277C52.2904 29.8834 50.497 31.3842 47.8847 34.5078C45.5635 37.2834 44.4321 39.0216 42.7829 42.2431C40.0196 47.641 38.9938 51.0994 38.3668 57.1323M35.1303 72.3254C36.2091 67.261 37.288 62.1967 38.3668 57.1323M35.1303 72.3254C36.3942 66.3921 37.1029 63.0656 38.3668 57.1323" stroke="#5B5B5B" stroke-width="2"/>
<path fill-rule="evenodd" clip-rule="evenodd" d="M103.282 38.2272C100.436 36.2974 99.4665 34.4483 96.9078 32.15C94.5919 30.0697 93.356 28.8126 90.8367 26.9843C87.8246 24.7983 86.0841 23.5331 82.6408 22.1225C77.95 20.2009 74.9447 20.0848 69.8915 19.6916C66.3458 19.4158 64.2205 18.772 60.7849 19.6916C57.1907 20.6537 55.61 22.3797 52.5889 24.5534C48.9757 27.1532 46.9282 28.7199 44.0894 32.15C41.508 35.2689 40.3652 37.3052 38.6254 40.962C36.0278 46.4217 35.7991 49.9742 34.3756 55.8512C32.9514 61.7317 32.4747 65.1011 31.3401 71.0443C29.9608 78.269 29.4285 82.3647 28.001 89.5799C26.1849 98.7589 23.7487 103.664 22.8406 112.977C22.1035 120.536 23.0577 124.833 22.8406 132.425C22.5413 142.887 21.3509 148.703 21.0192 159.164C20.7297 168.297 20.8628 173.426 21.0192 182.562C21.2837 198.002 22.253 218.732 22.8406 222.064C23.4282 225.396 24.4468 225.884 24.798 222.064C25.1493 218.244 23.1248 198.005 22.8406 182.562C22.6724 173.426 22.5571 168.297 22.8406 159.164C23.1652 148.704 24.3302 142.886 24.6231 132.425C24.8357 124.833 23.8619 120.534 24.6231 112.977C25.5626 103.652 28.1405 98.7732 29.9641 89.5799C31.394 82.3717 31.9428 78.2829 33.2107 71.0443C34.4746 65.1111 35.1833 61.7845 36.4472 55.8512C37.0742 49.8183 38.1 46.36 40.8633 40.962C42.5125 37.7405 43.6439 36.0023 45.9651 33.2267C48.5774 30.1031 50.3708 28.6023 53.6178 26.1466C56.4747 23.986 57.9347 22.225 61.3864 21.2718C64.5882 20.3876 66.5808 21.0041 69.8915 21.2718C74.7088 21.6614 77.5481 21.8874 82.0253 23.7092C85.1627 24.9859 86.7839 26.0647 89.562 28.0037C92.173 29.826 93.5053 31.0433 95.8233 33.2267C98.39 35.6444 99.7328 37.1154 101.969 39.8425C102.808 40.8658 104.056 42.5121 104.056 42.5121L108.462 40.962C108.462 40.962 105.176 39.5109 103.282 38.2272Z" fill="#5B5B5B"/>
<path d="M33.2107 71.0443C31.9428 78.2829 31.394 82.3717 29.9641 89.5799C28.1405 98.7732 25.5626 103.652 24.6231 112.977C23.8619 120.534 24.8357 124.833 24.6231 132.425C24.3302 142.886 23.1652 148.704 22.8406 159.164C22.5571 168.297 22.6724 173.426 22.8406 182.562C23.1248 198.005 25.1493 218.244 24.798 222.064C24.4468 225.884 23.4282 225.396 22.8406 222.064C22.253 218.732 21.2837 198.002 21.0192 182.562C20.8628 173.426 20.7297 168.297 21.0192 159.164C21.3509 148.703 22.5413 142.887 22.8406 132.425C23.0577 124.833 22.1035 120.536 22.8406 112.977C23.7487 103.664 26.1849 98.7589 28.001 89.5799C29.4285 82.3647 29.9608 78.269 31.3401 71.0443C32.4747 65.1011 32.9514 61.7317 34.3756 55.8512C35.7991 49.9742 36.0278 46.4217 38.6254 40.962C40.3652 37.3052 41.508 35.2689 44.0894 32.15C46.9282 28.7199 48.9757 27.1532 52.5889 24.5534C55.61 22.3797 57.1906 20.6537 60.7849 19.6916C64.2205 18.772 66.3458 19.4158 69.8915 19.6916C74.9447 20.0848 77.95 20.2009 82.6408 22.1225C86.0841 23.5331 87.8246 24.7983 90.8367 26.9843C93.356 28.8126 94.5919 30.0697 96.9078 32.15C99.4665 34.4483 100.436 36.2974 103.282 38.2272C105.176 39.5109 108.462 40.962 108.462 40.962L104.056 42.5121C104.056 42.5121 102.808 40.8658 101.969 39.8425C99.7328 37.1154 98.39 35.6444 95.8233 33.2267C93.5053 31.0433 92.173 29.826 89.562 28.0037C86.7839 26.0647 85.1627 24.9859 82.0253 23.7092C77.5481 21.8874 74.7088 21.6614 69.8915 21.2718C66.5808 21.0041 64.5882 20.3876 61.3864 21.2718C57.9347 22.225 56.4747 23.986 53.6178 26.1466C50.3708 28.6023 48.5774 30.1031 45.9651 33.2267C43.6439 36.0023 42.5125 37.7405 40.8633 40.962C38.1 46.36 37.0742 49.8183 36.4472 55.8512M33.2107 71.0443C34.2895 65.98 35.3684 60.9156 36.4472 55.8512M33.2107 71.0443C34.4746 65.1111 35.1833 61.7845 36.4472 55.8512" stroke="#5B5B5B" stroke-width="2"/>
<path fill-rule="evenodd" clip-rule="evenodd" d="M101.832 36.3798C98.986 34.45 98.0164 32.6009 95.4578 30.3026C93.1418 28.2222 91.9059 26.9652 89.3867 25.1369C86.3745 22.9509 84.634 21.6856 81.1907 20.2751C76.4999 18.3535 73.4946 18.2373 68.4414 17.8442C64.8958 17.5683 62.7704 16.9245 59.3348 17.8442C55.7406 18.8063 54.1599 20.5323 51.1388 22.706C47.5256 25.3058 45.4782 26.8725 42.6393 30.3026C40.0579 33.4215 38.9151 35.4578 37.1753 39.1146C34.5777 44.5743 34.349 48.1268 32.9256 54.0038C31.5013 59.8842 31.0246 63.2537 29.89 69.1969C28.5108 76.4215 27.9785 80.5173 26.5509 87.7325C24.7348 96.9115 22.2986 101.817 21.3905 111.13C20.6534 118.689 21.6076 122.986 21.3905 130.577C21.0912 141.04 19.9009 146.855 19.5692 157.317C19.2796 166.45 19.4127 171.578 19.5692 180.714C19.8336 196.155 20.8029 216.884 21.3905 220.216C21.9781 223.549 22.9968 224.037 23.348 220.216C23.6992 216.396 21.6747 196.157 21.3905 180.714C21.2224 171.579 21.107 166.45 21.3905 157.317C21.7152 146.856 22.8802 141.039 23.1731 130.577C23.3856 122.985 22.4118 118.686 23.1731 111.13C24.1125 101.804 26.6904 96.9258 28.514 87.7325C29.9439 80.5242 30.4927 76.4355 31.7606 69.1969C33.0246 63.2636 33.7332 59.9371 34.9972 54.0038C35.6241 47.9709 36.6499 44.5125 39.4133 39.1146C41.0624 35.8931 42.1938 34.1549 44.515 31.3793C47.1273 28.2557 48.9207 26.7549 52.1677 24.2992C55.0246 22.1385 56.4846 20.3776 59.9363 19.4244C63.1381 18.5402 65.1308 19.1567 68.4414 19.4244C73.2588 19.8139 76.098 20.0399 80.5753 21.8618C83.7126 23.1385 85.3339 24.2173 88.112 26.1563C90.7229 27.9785 92.0552 29.1959 94.3732 31.3793C96.9399 33.7969 98.2827 35.268 100.519 37.9951C101.358 39.0184 102.606 40.6646 102.606 40.6646L107.012 39.1146C107.012 39.1146 103.726 37.6635 101.832 36.3798Z" fill="#5B5B5B"/>
<path d="M31.7606 69.1969C30.4927 76.4355 29.9439 80.5242 28.514 87.7325C26.6904 96.9258 24.1125 101.804 23.1731 111.13C22.4118 118.686 23.3856 122.985 23.1731 130.577C22.8802 141.039 21.7152 146.856 21.3905 157.317C21.107 166.45 21.2224 171.579 21.3905 180.714C21.6747 196.157 23.6992 216.396 23.348 220.216C22.9968 224.037 21.9781 223.549 21.3905 220.216C20.8029 216.884 19.8336 196.155 19.5692 180.714C19.4127 171.578 19.2796 166.45 19.5692 157.317C19.9009 146.855 21.0912 141.04 21.3905 130.577C21.6076 122.986 20.6534 118.689 21.3905 111.13C22.2986 101.817 24.7348 96.9115 26.5509 87.7325C27.9785 80.5173 28.5108 76.4215 29.89 69.1969C31.0246 63.2537 31.5013 59.8842 32.9256 54.0038C34.349 48.1268 34.5777 44.5743 37.1753 39.1146C38.9151 35.4578 40.0579 33.4215 42.6393 30.3026C45.4782 26.8725 47.5256 25.3058 51.1388 22.706C54.1599 20.5323 55.7406 18.8063 59.3348 17.8442C62.7704 16.9245 64.8958 17.5683 68.4414 17.8442C73.4946 18.2373 76.4999 18.3535 81.1907 20.2751C84.634 21.6856 86.3745 22.9509 89.3867 25.1369C91.9059 26.9652 93.1418 28.2222 95.4578 30.3026C98.0164 32.6009 98.986 34.45 101.832 36.3798C103.726 37.6635 107.012 39.1146 107.012 39.1146L102.606 40.6646C102.606 40.6646 101.358 39.0184 100.519 37.9951C98.2827 35.268 96.9399 33.797 94.3732 31.3793C92.0552 29.1959 90.7229 27.9785 88.112 26.1563C85.3339 24.2173 83.7126 23.1385 80.5753 21.8618C76.098 20.0399 73.2588 19.8139 68.4414 19.4244C65.1308 19.1567 63.1382 18.5402 59.9363 19.4244C56.4846 20.3776 55.0246 22.1385 52.1677 24.2992C48.9207 26.7549 47.1273 28.2557 44.515 31.3793C42.1938 34.1549 41.0624 35.8931 39.4133 39.1146C36.6499 44.5125 35.6241 47.9709 34.9972 54.0038M31.7606 69.1969C32.8395 64.1326 33.9183 59.0682 34.9972 54.0038M31.7606 69.1969C33.0246 63.2636 33.7332 59.9371 34.9972 54.0038" stroke="#5B5B5B" stroke-width="2"/>
<path fill-rule="evenodd" clip-rule="evenodd" d="M97.7504 34.1915C94.904 32.2617 93.9345 30.4126 91.3758 28.1142C89.0598 26.0339 87.824 24.7768 85.3047 22.9486C82.2925 20.7626 80.5521 19.4973 77.1087 18.0868C72.4179 16.1652 69.4126 16.049 64.3595 15.6559C60.8138 15.38 58.6885 14.7362 55.2528 15.6559C51.6586 16.618 50.0779 18.3439 47.0569 20.5177C43.4436 23.1174 41.3962 24.6841 38.5573 28.1142C35.976 31.2332 34.8332 33.2695 33.0933 36.9262C30.4957 42.3859 30.267 45.9384 28.8436 51.8155C27.4193 57.6959 26.9427 61.0653 25.808 67.0086C24.4288 74.2332 23.8965 78.329 22.4689 85.5442C20.6529 94.7232 18.2167 99.6285 17.3085 108.942C16.5714 116.5 17.5257 120.797 17.3085 128.389C17.0093 138.851 15.8189 144.667 15.4872 155.129C15.1976 164.261 15.3307 169.39 15.4872 178.526C15.7517 193.967 16.7209 214.696 17.3085 218.028C17.8961 221.36 18.9148 221.848 19.266 218.028C19.6172 214.208 17.5927 193.969 17.3085 178.526C17.1404 169.39 17.0251 164.261 17.3085 155.129C17.6332 144.668 18.7982 138.85 19.0911 128.389C19.3036 120.797 18.3299 116.498 19.0911 108.942C20.0305 99.6161 22.6084 94.7374 24.4321 85.5442C25.8619 78.3359 26.4108 74.2472 27.6786 67.0086C28.9426 61.0753 29.6512 57.7487 30.9152 51.8155C31.5422 45.7825 32.5679 42.3242 35.3313 36.9262C36.9804 33.7048 38.1118 31.9665 40.4331 29.1909C43.0453 26.0674 44.8387 24.5665 48.0857 22.1109C50.9426 19.9502 52.4026 18.1892 55.8543 17.2361C59.0562 16.3519 61.0488 16.9683 64.3595 17.2361C69.1768 17.6256 72.0161 17.8516 76.4933 19.6735C79.6307 20.9501 81.2519 22.029 84.03 23.9679C86.6409 25.7902 87.9732 27.0075 90.2913 29.1909C92.8579 31.6086 94.2007 33.0796 96.4366 35.8067C97.2756 36.8301 98.5237 38.4763 98.5237 38.4763L102.93 36.9262C102.93 36.9262 99.6438 35.4751 97.7504 34.1915Z" fill="#5B5B5B"/>
<path d="M27.6786 67.0086C26.4108 74.2472 25.8619 78.3359 24.4321 85.5442C22.6084 94.7374 20.0305 99.6161 19.0911 108.942C18.3299 116.498 19.3036 120.797 19.0911 128.389C18.7982 138.85 17.6332 144.668 17.3085 155.129C17.0251 164.261 17.1404 169.39 17.3085 178.526C17.5927 193.969 19.6172 214.208 19.266 218.028C18.9148 221.848 17.8961 221.36 17.3085 218.028C16.7209 214.696 15.7517 193.967 15.4872 178.526C15.3307 169.39 15.1976 164.261 15.4872 155.129C15.8189 144.667 17.0093 138.851 17.3085 128.389C17.5257 120.797 16.5714 116.5 17.3085 108.942C18.2167 99.6285 20.6529 94.7232 22.4689 85.5442C23.8965 78.329 24.4288 74.2332 25.808 67.0086C26.9427 61.0653 27.4193 57.6959 28.8436 51.8155C30.267 45.9384 30.4957 42.3859 33.0933 36.9262C34.8332 33.2695 35.976 31.2332 38.5573 28.1142C41.3962 24.6841 43.4436 23.1174 47.0569 20.5177C50.0779 18.3439 51.6586 16.618 55.2528 15.6559C58.6885 14.7362 60.8138 15.38 64.3595 15.6559C69.4126 16.049 72.4179 16.1652 77.1087 18.0868C80.5521 19.4973 82.2925 20.7626 85.3047 22.9486C87.824 24.7768 89.0598 26.0339 91.3758 28.1142C93.9345 30.4126 94.904 32.2617 97.7504 34.1915C99.6438 35.4751 102.93 36.9262 102.93 36.9262L98.5237 38.4763C98.5237 38.4763 97.2755 36.8301 96.4366 35.8067C94.2007 33.0796 92.8579 31.6086 90.2912 29.1909C87.9732 27.0075 86.6409 25.7902 84.03 23.9679C81.2519 22.029 79.6307 20.9501 76.4933 19.6735C72.0161 17.8516 69.1768 17.6256 64.3595 17.2361C61.0488 16.9683 59.0562 16.3519 55.8543 17.2361C52.4026 18.1892 50.9426 19.9502 48.0857 22.1109C44.8387 24.5665 43.0453 26.0674 40.4331 29.1909C38.1118 31.9665 36.9804 33.7048 35.3313 36.9262C32.5679 42.3242 31.5422 45.7825 30.9152 51.8155M27.6786 67.0086C28.7575 61.9442 29.8363 56.8798 30.9152 51.8155M27.6786 67.0086C28.9426 61.0753 29.6512 57.7487 30.9152 51.8155" stroke="#5B5B5B" stroke-width="2"/>
<path fill-rule="evenodd" clip-rule="evenodd" d="M93.9259 25.9876C91.0795 24.0578 90.11 22.2087 87.5513 19.9104C85.2353 17.8301 83.9994 16.573 81.4802 14.7447C78.468 12.5587 76.7276 11.2935 73.2842 9.88293C68.5934 7.96134 65.5881 7.84516 60.5349 7.45203C56.9893 7.17618 54.864 6.53238 51.4283 7.45203C47.8341 8.41414 46.2534 10.1401 43.2323 12.3138C39.6191 14.9136 37.5717 16.4803 34.7328 19.9104C32.1514 23.0293 31.0086 25.0656 29.2688 28.7224C26.6712 34.1821 26.4425 37.7346 25.0191 43.6116C23.5948 49.4921 23.1181 52.8615 21.9835 58.8048C20.6043 66.0294 20.072 70.1251 18.6444 77.3403C16.8283 86.5193 14.3922 91.4247 13.484 100.738C12.7469 108.296 13.7011 112.593 13.484 120.185C13.1847 130.647 11.9944 136.463 11.6627 146.925C11.3731 156.057 11.5062 161.186 11.6627 170.322C11.9271 185.763 12.8964 206.492 13.484 209.824C14.0716 213.157 15.0903 213.644 15.4415 209.824C15.7927 206.004 13.7682 185.765 13.484 170.322C13.3159 161.186 13.2006 156.058 13.484 146.925C13.8087 136.464 14.9737 130.647 15.2666 120.185C15.4791 112.593 14.5053 108.294 15.2666 100.738C16.206 91.4123 18.7839 86.5336 20.6075 77.3403C22.0374 70.1321 22.5862 66.0434 23.8541 58.8048C25.1181 52.8715 25.8267 49.5449 27.0907 43.6116C27.7177 37.5787 28.7434 34.1204 31.5068 28.7224C33.1559 25.5009 34.2873 23.7627 36.6085 20.9871C39.2208 17.8635 41.0142 16.3627 44.2612 13.907C47.1181 11.7464 48.5781 9.98541 52.0298 9.03223C55.2317 8.14803 57.2243 8.76451 60.5349 9.03223C65.3523 9.42178 68.1915 9.64776 72.6688 11.4696C75.8062 12.7463 77.4274 13.8251 80.2055 15.7641C82.8164 17.5864 84.1487 18.8037 86.4667 20.9871C89.0334 23.4048 90.3762 24.8758 92.612 27.6029C93.451 28.6262 94.6991 30.2725 94.6991 30.2725L99.1052 28.7224C99.1052 28.7224 95.8193 27.2713 93.9259 25.9876Z" fill="#5B5B5B"/>
<path d="M23.8541 58.8048C22.5862 66.0434 22.0374 70.1321 20.6075 77.3403C18.7839 86.5336 16.206 91.4123 15.2666 100.738C14.5053 108.294 15.4791 112.593 15.2666 120.185C14.9737 130.647 13.8087 136.464 13.484 146.925C13.2006 156.058 13.3159 161.186 13.484 170.322C13.7682 185.765 15.7927 206.004 15.4415 209.824C15.0903 213.644 14.0716 213.157 13.484 209.824C12.8964 206.492 11.9271 185.763 11.6627 170.322C11.5062 161.186 11.3731 156.057 11.6627 146.925C11.9944 136.463 13.1847 130.647 13.484 120.185C13.7011 112.593 12.7469 108.296 13.484 100.738C14.3922 91.4247 16.8283 86.5194 18.6444 77.3403C20.072 70.1251 20.6043 66.0294 21.9835 58.8048C23.1181 52.8615 23.5948 49.4921 25.0191 43.6116C26.4425 37.7346 26.6712 34.1821 29.2688 28.7224C31.0086 25.0656 32.1514 23.0293 34.7328 19.9104C37.5717 16.4803 39.6191 14.9136 43.2323 12.3138C46.2534 10.1401 47.8341 8.41414 51.4283 7.45203C54.864 6.53238 56.9893 7.17618 60.5349 7.45203C65.5881 7.84516 68.5934 7.96134 73.2842 9.88293C76.7276 11.2935 78.468 12.5587 81.4802 14.7447C83.9994 16.573 85.2353 17.8301 87.5513 19.9104C90.11 22.2087 91.0795 24.0578 93.9259 25.9876C95.8193 27.2713 99.1052 28.7224 99.1052 28.7224L94.6991 30.2725C94.6991 30.2725 93.451 28.6262 92.612 27.6029C90.3762 24.8758 89.0334 23.4048 86.4667 20.9871C84.1487 18.8037 82.8164 17.5864 80.2055 15.7641C77.4274 13.8251 75.8061 12.7463 72.6688 11.4696C68.1915 9.64776 65.3523 9.42178 60.5349 9.03223C57.2243 8.76451 55.2317 8.14803 52.0298 9.03223C48.5781 9.98541 47.1181 11.7464 44.2612 13.907C41.0142 16.3627 39.2208 17.8635 36.6085 20.9871C34.2873 23.7627 33.1559 25.5009 31.5068 28.7224C28.7434 34.1204 27.7177 37.5787 27.0907 43.6116M23.8541 58.8048C24.933 53.7404 26.0118 48.676 27.0907 43.6116M23.8541 58.8048C25.1181 52.8715 25.8267 49.5449 27.0907 43.6116" stroke="#5B5B5B" stroke-width="2"/>
<path fill-rule="evenodd" clip-rule="evenodd" d="M107.335 41.2308C104.489 39.301 103.519 37.4519 100.96 35.1536C98.6445 33.0732 97.4086 31.8162 94.8894 29.9879C91.8772 27.8019 90.1367 26.5366 86.6934 25.1261C82.0026 23.2045 78.9973 23.0883 73.9441 22.6952C70.3985 22.4193 68.2731 21.7755 64.8375 22.6952C61.2433 23.6573 59.6626 25.3833 56.6415 27.557C53.0283 30.1568 50.9809 31.7235 48.142 35.1536C45.5606 38.2725 44.4178 40.3088 42.678 43.9656C40.0804 49.4253 39.8517 52.9778 38.4282 58.8548C37.004 64.7352 36.5273 68.1047 35.3927 74.0479C34.0135 81.2725 33.4812 85.3683 32.0536 92.5835C30.2375 101.763 27.8013 106.668 26.8932 115.981C26.1561 123.54 27.1103 127.837 26.8932 135.428C26.5939 145.891 25.4036 151.706 25.0718 162.168C24.7823 171.301 24.9154 176.429 25.0718 185.565C25.3363 201.006 26.3056 221.735 26.8932 225.067C27.4808 228.4 28.4994 228.888 28.8507 225.067C29.2019 221.247 27.1774 201.008 26.8932 185.565C26.725 176.43 26.6097 171.301 26.8932 162.168C27.2178 151.707 28.3829 145.89 28.6757 135.428C28.8883 127.836 27.9145 123.537 28.6757 115.981C29.6152 106.655 32.1931 101.777 34.0167 92.5835C35.4466 85.3752 35.9954 81.2865 37.2633 74.0479C38.5272 68.1146 39.2359 64.7881 40.4998 58.8548C41.1268 52.8219 42.1526 49.3635 44.9159 43.9656C46.5651 40.7441 47.6965 39.0059 50.0177 36.2303C52.63 33.1067 54.4234 31.6059 57.6704 29.1502C60.5273 26.9895 61.9873 25.2286 65.439 24.2754C68.6408 23.3912 70.6334 24.0077 73.9441 24.2754C78.7614 24.6649 81.6007 24.8909 86.0779 26.7128C89.2153 27.9895 90.8365 29.0683 93.6146 31.0073C96.2256 32.8295 97.5579 34.0468 99.8759 36.2303C102.443 38.6479 103.785 40.119 106.021 42.8461C106.86 43.8694 108.108 45.5156 108.108 45.5156L112.514 43.9656C112.514 43.9656 109.228 42.5145 107.335 41.2308Z" fill="#5B5B5B"/>
<path d="M37.2633 74.0479C35.9954 81.2865 35.4466 85.3752 34.0167 92.5835C32.1931 101.777 29.6152 106.655 28.6757 115.981C27.9145 123.537 28.8883 127.836 28.6757 135.428C28.3829 145.89 27.2178 151.707 26.8932 162.168C26.6097 171.301 26.725 176.43 26.8932 185.565C27.1774 201.008 29.2019 221.247 28.8507 225.067C28.4994 228.888 27.4808 228.4 26.8932 225.067C26.3056 221.735 25.3363 201.006 25.0718 185.565C24.9154 176.429 24.7823 171.301 25.0718 162.168C25.4036 151.706 26.5939 145.891 26.8932 135.428C27.1103 127.837 26.1561 123.54 26.8932 115.981C27.8013 106.668 30.2375 101.763 32.0536 92.5835C33.4812 85.3683 34.0135 81.2725 35.3927 74.0479C36.5273 68.1047 37.004 64.7352 38.4282 58.8548C39.8517 52.9778 40.0804 49.4253 42.678 43.9656C44.4178 40.3088 45.5606 38.2725 48.142 35.1536C50.9809 31.7235 53.0283 30.1568 56.6415 27.557C59.6626 25.3833 61.2433 23.6573 64.8375 22.6952C68.2731 21.7755 70.3985 22.4193 73.9441 22.6952C78.9973 23.0883 82.0026 23.2045 86.6934 25.1261C90.1367 26.5366 91.8772 27.8019 94.8894 29.9879C97.4086 31.8162 98.6445 33.0732 100.96 35.1536C103.519 37.4519 104.489 39.301 107.335 41.2308C109.228 42.5145 112.514 43.9656 112.514 43.9656L108.108 45.5156C108.108 45.5156 106.86 43.8694 106.021 42.8461C103.785 40.119 102.443 38.6479 99.8759 36.2303C97.5579 34.0468 96.2256 32.8295 93.6146 31.0073C90.8365 29.0683 89.2153 27.9895 86.0779 26.7128C81.6007 24.8909 78.7614 24.6649 73.9441 24.2754C70.6334 24.0077 68.6408 23.3912 65.439 24.2754C61.9873 25.2286 60.5273 26.9895 57.6704 29.1502C54.4234 31.6059 52.63 33.1067 50.0177 36.2303C47.6965 39.0059 46.5651 40.7441 44.9159 43.9656C42.1526 49.3635 41.1268 52.8219 40.4998 58.8548M37.2633 74.0479C38.3421 68.9835 39.421 63.9192 40.4998 58.8548M37.2633 74.0479C38.5272 68.1146 39.2359 64.7881 40.4998 58.8548" stroke="#5B5B5B" stroke-width="2"/>
<path fill-rule="evenodd" clip-rule="evenodd" d="M103.282 29.4732C100.436 27.5434 99.4665 25.6943 96.9078 23.396C94.5919 21.3157 93.356 20.0586 90.8367 18.2303C87.8246 16.0443 86.0841 14.7791 82.6408 13.3685C77.95 11.4469 74.9447 11.3308 69.8915 10.9376C66.3458 10.6618 64.2205 10.018 60.7849 10.9376C57.1907 11.8997 55.61 13.6257 52.5889 15.7994C48.9757 18.3992 46.9282 19.9659 44.0894 23.396C41.508 26.515 40.3652 28.5512 38.6254 32.208C36.0278 37.6677 35.7991 41.2202 34.3756 47.0972C32.9514 52.9777 32.4747 56.3471 31.3401 62.2904C29.9608 69.515 29.4285 73.6108 28.001 80.826C26.1849 90.005 23.7487 94.9103 22.8406 104.223C22.1035 111.782 23.0577 116.079 22.8406 123.671C22.5413 134.133 21.3509 139.949 21.0192 150.41C20.7297 159.543 20.8628 164.672 21.0192 173.808C21.2837 189.248 22.253 209.978 22.8406 213.31C23.4282 216.642 24.4468 217.13 24.798 213.31C25.1493 209.49 23.1248 189.251 22.8406 173.808C22.6724 164.672 22.5571 159.543 22.8406 150.41C23.1652 139.95 24.3302 134.132 24.6231 123.671C24.8357 116.079 23.8619 111.78 24.6231 104.223C25.5626 94.8979 28.1405 90.0192 29.9641 80.826C31.394 73.6177 31.9428 69.529 33.2107 62.2904C34.4746 56.3571 35.1833 53.0305 36.4472 47.0972C37.0742 41.0643 38.1 37.606 40.8633 32.208C42.5125 28.9866 43.6439 27.2483 45.9651 24.4727C48.5774 21.3491 50.3708 19.8483 53.6178 17.3926C56.4747 15.232 57.9347 13.471 61.3864 12.5178C64.5882 11.6336 66.5808 12.2501 69.8915 12.5178C74.7088 12.9074 77.5481 13.1334 82.0253 14.9552C85.1627 16.2319 86.7839 17.3108 89.562 19.2497C92.173 21.072 93.5053 22.2893 95.8233 24.4727C98.39 26.8904 99.7328 28.3614 101.969 31.0885C102.808 32.1119 104.056 33.7581 104.056 33.7581L108.462 32.208C108.462 32.208 105.176 30.7569 103.282 29.4732Z" fill="#5B5B5B"/>
<path d="M33.2107 62.2904C31.9428 69.529 31.394 73.6177 29.9641 80.826C28.1405 90.0192 25.5626 94.8979 24.6231 104.223C23.8619 111.78 24.8357 116.079 24.6231 123.671C24.3302 134.132 23.1652 139.95 22.8406 150.41C22.5571 159.543 22.6724 164.672 22.8406 173.808C23.1248 189.251 25.1493 209.49 24.798 213.31C24.4468 217.13 23.4282 216.642 22.8406 213.31C22.253 209.978 21.2837 189.248 21.0192 173.808C20.8628 164.672 20.7297 159.543 21.0192 150.41C21.3509 139.949 22.5413 134.133 22.8406 123.671C23.0577 116.079 22.1035 111.782 22.8406 104.223C23.7487 94.9103 26.1849 90.005 28.001 80.826C29.4285 73.6108 29.9608 69.515 31.3401 62.2904C32.4747 56.3471 32.9514 52.9777 34.3756 47.0972C35.7991 41.2202 36.0278 37.6677 38.6254 32.208C40.3652 28.5512 41.508 26.515 44.0894 23.396C46.9282 19.9659 48.9757 18.3992 52.5889 15.7994C55.61 13.6257 57.1906 11.8997 60.7849 10.9376C64.2205 10.018 66.3458 10.6618 69.8915 10.9376C74.9447 11.3308 77.95 11.4469 82.6408 13.3685C86.0841 14.7791 87.8246 16.0443 90.8367 18.2303C93.356 20.0586 94.5919 21.3157 96.9078 23.396C99.4665 25.6943 100.436 27.5434 103.282 29.4732C105.176 30.7569 108.462 32.208 108.462 32.208L104.056 33.7581C104.056 33.7581 102.808 32.1119 101.969 31.0885C99.7328 28.3614 98.39 26.8904 95.8233 24.4727C93.5053 22.2893 92.173 21.072 89.562 19.2497C86.7839 17.3108 85.1627 16.2319 82.0253 14.9552C77.5481 13.1334 74.7088 12.9074 69.8915 12.5178C66.5808 12.2501 64.5882 11.6336 61.3864 12.5178C57.9347 13.471 56.4747 15.232 53.6178 17.3926C50.3708 19.8483 48.5774 21.3491 45.9651 24.4727C43.6439 27.2483 42.5125 28.9866 40.8633 32.208C38.1 37.606 37.0742 41.0643 36.4472 47.0972M33.2107 62.2904C34.2895 57.226 35.3684 52.1616 36.4472 47.0972M33.2107 62.2904C34.4746 56.3571 35.1833 53.0305 36.4472 47.0972" stroke="#5B5B5B" stroke-width="2"/>
<path fill-rule="evenodd" clip-rule="evenodd" d="M86.5823 25.9876C83.7359 24.0578 82.7663 22.2087 80.2076 19.9104C77.8917 17.8301 76.6558 16.573 74.1365 14.7447C71.1244 12.5587 69.3839 11.2935 65.9406 9.88293C61.2498 7.96134 58.2445 7.84516 53.1913 7.45203C49.6456 7.17618 47.5203 6.53238 44.0847 7.45203C40.4905 8.41414 38.9098 10.1401 35.8887 12.3138C32.2755 14.9136 30.228 16.4803 27.3892 19.9104C24.8078 23.0293 23.665 25.0656 21.9252 28.7224C19.3276 34.1821 19.0989 37.7346 17.6754 43.6116C16.2512 49.4921 15.7745 52.8615 14.6399 58.8048C13.2606 66.0294 12.7283 70.1251 11.3008 77.3403C9.48471 86.5193 7.04853 91.4247 6.14037 100.738C5.40329 108.296 6.3575 112.593 6.14037 120.185C5.84112 130.647 4.65074 136.463 4.31904 146.925C4.02946 156.057 4.16255 161.186 4.31904 170.322C4.58351 185.763 5.55276 206.492 6.14037 209.824C6.72798 213.157 7.74664 213.644 8.09785 209.824C8.44907 206.004 6.42459 185.765 6.14037 170.322C5.97223 161.186 5.85693 156.058 6.14037 146.925C6.46503 136.464 7.63005 130.647 7.92294 120.185C8.13548 112.593 7.16172 108.294 7.92294 100.738C8.86239 91.4123 11.4403 86.5336 13.2639 77.3403C14.6938 70.1321 15.2426 66.0434 16.5105 58.8048C17.7744 52.8715 18.4831 49.5449 19.747 43.6116C20.374 37.5787 21.3998 34.1204 24.1631 28.7224C25.8123 25.5009 26.9437 23.7627 29.2649 20.9871C31.8772 17.8635 33.6706 16.3627 36.9176 13.907C39.7745 11.7464 41.2345 9.98541 44.6862 9.03223C47.888 8.14803 49.8806 8.76451 53.1913 9.03223C58.0086 9.42178 60.8479 9.64776 65.3251 11.4696C68.4625 12.7463 70.0837 13.8251 72.8618 15.7641C75.4727 17.5864 76.8051 18.8037 79.1231 20.9871C81.6898 23.4048 83.0326 24.8758 85.2684 27.6029C86.1074 28.6262 87.3555 30.2725 87.3555 30.2725L91.7616 28.7224C91.7616 28.7224 88.4757 27.2713 86.5823 25.9876Z" fill="#5B5B5B"/>
<path d="M16.5105 58.8048C15.2426 66.0434 14.6938 70.1321 13.2639 77.3403C11.4403 86.5336 8.86239 91.4123 7.92294 100.738C7.16172 108.294 8.13548 112.593 7.92294 120.185C7.63005 130.647 6.46503 136.464 6.14037 146.925C5.85693 156.058 5.97223 161.186 6.14037 170.322C6.42459 185.765 8.44907 206.004 8.09785 209.824C7.74664 213.644 6.72798 213.157 6.14037 209.824C5.55276 206.492 4.58351 185.763 4.31904 170.322C4.16255 161.186 4.02946 156.057 4.31904 146.925C4.65074 136.463 5.84112 130.647 6.14037 120.185C6.3575 112.593 5.40329 108.296 6.14037 100.738C7.04853 91.4247 9.48471 86.5194 11.3008 77.3403C12.7283 70.1251 13.2606 66.0294 14.6399 58.8048C15.7745 52.8615 16.2512 49.4921 17.6754 43.6116C19.0989 37.7346 19.3276 34.1821 21.9252 28.7224C23.665 25.0656 24.8078 23.0293 27.3892 19.9104C30.228 16.4803 32.2755 14.9136 35.8887 12.3138C38.9098 10.1401 40.4905 8.41414 44.0847 7.45203C47.5203 6.53238 49.6456 7.17618 53.1913 7.45203C58.2445 7.84516 61.2498 7.96134 65.9406 9.88293C69.3839 11.2935 71.1244 12.5587 74.1365 14.7447C76.6558 16.573 77.8917 17.8301 80.2076 19.9104C82.7663 22.2087 83.7359 24.0578 86.5823 25.9876C88.4757 27.2713 91.7616 28.7224 91.7616 28.7224L87.3555 30.2725C87.3555 30.2725 86.1074 28.6262 85.2684 27.6029C83.0326 24.8758 81.6898 23.4048 79.1231 20.9871C76.8051 18.8037 75.4728 17.5864 72.8618 15.7641C70.0837 13.8251 68.4625 12.7463 65.3251 11.4696C60.8479 9.64776 58.0086 9.42178 53.1913 9.03223C49.8806 8.76451 47.888 8.14803 44.6862 9.03223C41.2345 9.98541 39.7745 11.7464 36.9176 13.907C33.6706 16.3627 31.8772 17.8635 29.2649 20.9871C26.9437 23.7627 25.8123 25.5009 24.1631 28.7224C21.3998 34.1204 20.374 37.5787 19.747 43.6116M16.5105 58.8048C17.5893 53.7404 18.6682 48.676 19.747 43.6116M16.5105 58.8048C17.7744 52.8715 18.4831 49.5449 19.747 43.6116" stroke="#5B5B5B" stroke-width="2"/>
<path fill-rule="evenodd" clip-rule="evenodd" d="M83.4341 22.2185C80.5877 20.2886 79.6181 18.4396 77.0594 16.1412C74.7435 14.0609 73.5076 12.8038 70.9883 10.9755C67.9762 8.78955 66.2357 7.5243 62.7924 6.11375C58.1016 4.19216 55.0963 4.07598 50.0431 3.68285C46.4974 3.407 44.3721 2.7632 40.9365 3.68285C37.3423 4.64496 35.7616 6.37094 32.7405 8.54465C29.1273 11.1444 27.0798 12.7111 24.241 16.1412C21.6596 19.2602 20.5168 21.2964 18.777 24.9532C16.1794 30.4129 15.9507 33.9654 14.5272 39.8425C13.103 45.7229 12.6263 49.0923 11.4917 55.0356C10.1125 62.2602 9.58015 66.356 8.1526 73.5712C6.33651 82.7502 3.90033 87.6555 2.99218 96.9686C2.2551 104.527 3.20931 108.824 2.99218 116.416C2.69293 126.878 1.50255 132.694 1.17084 143.156C0.881269 152.288 1.01436 157.417 1.17084 166.553C1.43531 181.994 2.40457 202.723 2.99218 206.055C3.57979 209.387 4.59845 209.875 4.94966 206.055C5.30087 202.235 3.2764 181.996 2.99218 166.553C2.82404 157.417 2.70873 152.288 2.99218 143.156C3.31684 132.695 4.48186 126.877 4.77475 116.416C4.98729 108.824 4.01353 104.525 4.77475 96.9686C5.7142 87.6431 8.2921 82.7645 10.1157 73.5712C11.5456 66.3629 12.0944 62.2742 13.3623 55.0356C14.6262 49.1023 15.3349 45.7757 16.5988 39.8425C17.2258 33.8095 18.2516 30.3512 21.0149 24.9532C22.6641 21.7318 23.7955 19.9935 26.1167 17.2179C28.729 14.0944 30.5224 12.5935 33.7694 10.1379C36.6263 7.97719 38.0863 6.21623 41.538 5.26305C44.7398 4.37885 46.7324 4.99533 50.0431 5.26305C54.8604 5.6526 57.6997 5.87858 62.1769 7.70045C65.3143 8.97711 66.9355 10.056 69.7136 11.9949C72.3246 13.8172 73.6569 15.0345 75.9749 17.2179C78.5416 19.6356 79.8844 21.1066 82.1202 23.8337C82.9592 24.8571 84.2073 26.5033 84.2073 26.5033L88.6134 24.9532C88.6134 24.9532 85.3275 23.5021 83.4341 22.2185Z" fill="#5B5B5B"/>
<path d="M13.3623 55.0356C12.0944 62.2742 11.5456 66.3629 10.1157 73.5712C8.2921 82.7645 5.7142 87.6431 4.77475 96.9686C4.01353 104.525 4.98729 108.824 4.77475 116.416C4.48186 126.877 3.31684 132.695 2.99218 143.156C2.70873 152.288 2.82404 157.417 2.99218 166.553C3.2764 181.996 5.30087 202.235 4.94966 206.055C4.59845 209.875 3.57979 209.387 2.99218 206.055C2.40457 202.723 1.43531 181.994 1.17084 166.553C1.01436 157.417 0.881269 152.288 1.17084 143.156C1.50255 132.694 2.69293 126.878 2.99218 116.416C3.20931 108.824 2.2551 104.527 2.99218 96.9686C3.90033 87.6555 6.33651 82.7502 8.1526 73.5712C9.58015 66.356 10.1125 62.2602 11.4917 55.0356C12.6263 49.0923 13.103 45.7229 14.5272 39.8425C15.9507 33.9654 16.1794 30.4129 18.777 24.9532C20.5168 21.2964 21.6596 19.2602 24.241 16.1412C27.0798 12.7111 29.1273 11.1444 32.7405 8.54465C35.7616 6.37094 37.3423 4.64496 40.9365 3.68285C44.3721 2.7632 46.4974 3.407 50.0431 3.68285C55.0963 4.07598 58.1016 4.19216 62.7924 6.11375C66.2357 7.5243 67.9762 8.78955 70.9883 10.9755C73.5076 12.8038 74.7435 14.0609 77.0594 16.1412C79.6181 18.4396 80.5877 20.2886 83.4341 22.2185C85.3275 23.5021 88.6134 24.9532 88.6134 24.9532L84.2073 26.5033C84.2073 26.5033 82.9592 24.8571 82.1202 23.8337C79.8844 21.1066 78.5416 19.6356 75.9749 17.2179C73.6569 15.0345 72.3246 13.8172 69.7136 11.9949C66.9355 10.056 65.3143 8.97711 62.1769 7.70045C57.6997 5.87858 54.8604 5.6526 50.0431 5.26305C46.7324 4.99533 44.7398 4.37885 41.538 5.26305C38.0863 6.21623 36.6263 7.97719 33.7694 10.1379C30.5224 12.5935 28.729 14.0944 26.1167 17.2179C23.7955 19.9935 22.6641 21.7318 21.0149 24.9532C18.2516 30.3512 17.2258 33.8095 16.5988 39.8425M13.3623 55.0356C14.4411 49.9712 15.52 44.9068 16.5988 39.8425M13.3623 55.0356C14.6262 49.1023 15.3349 45.7757 16.5988 39.8425" stroke="#5B5B5B" stroke-width="2"/>
<path fill-rule="evenodd" clip-rule="evenodd" d="M86.5823 36.3798C83.7359 34.45 82.7663 32.6009 80.2076 30.3026C77.8917 28.2222 76.6558 26.9652 74.1365 25.1369C71.1244 22.9509 69.3839 21.6856 65.9406 20.2751C61.2498 18.3535 58.2445 18.2373 53.1913 17.8442C49.6456 17.5683 47.5203 16.9245 44.0847 17.8442C40.4905 18.8063 38.9098 20.5323 35.8887 22.706C32.2755 25.3058 30.228 26.8725 27.3892 30.3026C24.8078 33.4215 23.665 35.4578 21.9252 39.1146C19.3276 44.5743 19.0989 48.1268 17.6754 54.0038C16.2512 59.8842 15.7745 63.2537 14.6399 69.1969C13.2606 76.4215 12.7283 80.5173 11.3008 87.7325C9.48471 96.9115 7.04853 101.817 6.14037 111.13C5.40329 118.689 6.3575 122.986 6.14037 130.577C5.84112 141.04 4.65074 146.855 4.31904 157.317C4.02946 166.45 4.16255 171.578 4.31904 180.714C4.58351 196.155 5.55276 216.884 6.14037 220.216C6.72798 223.549 7.74664 224.037 8.09785 220.216C8.44907 216.396 6.42459 196.157 6.14037 180.714C5.97223 171.579 5.85693 166.45 6.14037 157.317C6.46503 146.856 7.63005 141.039 7.92294 130.577C8.13548 122.985 7.16172 118.686 7.92294 111.13C8.86239 101.804 11.4403 96.9258 13.2639 87.7325C14.6938 80.5242 15.2426 76.4355 16.5105 69.1969C17.7744 63.2636 18.4831 59.9371 19.747 54.0038C20.374 47.9709 21.3998 44.5125 24.1631 39.1146C25.8123 35.8931 26.9437 34.1549 29.2649 31.3793C31.8772 28.2557 33.6706 26.7549 36.9176 24.2992C39.7745 22.1385 41.2345 20.3776 44.6862 19.4244C47.888 18.5402 49.8806 19.1567 53.1913 19.4244C58.0086 19.8139 60.8479 20.0399 65.3251 21.8618C68.4625 23.1385 70.0837 24.2173 72.8618 26.1563C75.4727 27.9785 76.8051 29.1959 79.1231 31.3793C81.6898 33.7969 83.0326 35.268 85.2684 37.9951C86.1074 39.0184 87.3555 40.6646 87.3555 40.6646L91.7616 39.1146C91.7616 39.1146 88.4757 37.6635 86.5823 36.3798Z" fill="#5B5B5B"/>
<path d="M16.5105 69.1969C15.2426 76.4355 14.6938 80.5242 13.2639 87.7325C11.4403 96.9258 8.86239 101.804 7.92294 111.13C7.16172 118.686 8.13548 122.985 7.92294 130.577C7.63005 141.039 6.46503 146.856 6.14037 157.317C5.85693 166.45 5.97223 171.579 6.14037 180.714C6.42459 196.157 8.44907 216.396 8.09785 220.216C7.74664 224.037 6.72798 223.549 6.14037 220.216C5.55276 216.884 4.58351 196.155 4.31904 180.714C4.16255 171.578 4.02946 166.45 4.31904 157.317C4.65074 146.855 5.84112 141.04 6.14037 130.577C6.3575 122.986 5.40329 118.689 6.14037 111.13C7.04853 101.817 9.48471 96.9115 11.3008 87.7325C12.7283 80.5173 13.2606 76.4215 14.6399 69.1969C15.7745 63.2537 16.2512 59.8842 17.6754 54.0038C19.0989 48.1268 19.3276 44.5743 21.9252 39.1146C23.665 35.4578 24.8078 33.4215 27.3892 30.3026C30.228 26.8725 32.2755 25.3058 35.8887 22.706C38.9098 20.5323 40.4905 18.8063 44.0847 17.8442C47.5203 16.9245 49.6456 17.5683 53.1913 17.8442C58.2445 18.2373 61.2498 18.3535 65.9406 20.2751C69.3839 21.6856 71.1244 22.9509 74.1365 25.1369C76.6558 26.9652 77.8917 28.2222 80.2076 30.3026C82.7663 32.6009 83.7359 34.45 86.5823 36.3798C88.4757 37.6635 91.7616 39.1146 91.7616 39.1146L87.3555 40.6646C87.3555 40.6646 86.1074 39.0184 85.2684 37.9951C83.0326 35.268 81.6898 33.797 79.1231 31.3793C76.8051 29.1959 75.4728 27.9785 72.8618 26.1563C70.0837 24.2173 68.4625 23.1385 65.3251 21.8618C60.8479 20.0399 58.0086 19.8139 53.1913 19.4244C49.8806 19.1567 47.888 18.5402 44.6862 19.4244C41.2345 20.3776 39.7745 22.1385 36.9176 24.2992C33.6706 26.7549 31.8772 28.2557 29.2649 31.3793C26.9437 34.1549 25.8123 35.8931 24.1631 39.1146C21.3998 44.5125 20.374 47.9709 19.747 54.0038M16.5105 69.1969C17.5893 64.1326 18.6682 59.0682 19.747 54.0038M16.5105 69.1969C17.7744 63.2636 18.4831 59.9371 19.747 54.0038" stroke="#5B5B5B" stroke-width="2"/>
<path fill-rule="evenodd" clip-rule="evenodd" d="M93.9259 20.0128C91.0795 18.083 90.11 16.2339 87.5513 13.9355C85.2353 11.8552 83.9994 10.5982 81.4802 8.76989C78.468 6.58389 76.7276 5.31864 73.2842 3.90809C68.5934 1.9865 65.5881 1.87033 60.5349 1.47719C56.9893 1.20134 54.864 0.557538 51.4283 1.47719C47.8341 2.4393 46.2534 4.16529 43.2323 6.33899C39.6191 8.93877 37.5717 10.5055 34.7328 13.9355C32.1514 17.0545 31.0086 19.0908 29.2688 22.7476C26.6712 28.2073 26.4425 31.7598 25.0191 37.6368C23.5948 43.5172 23.1181 46.8867 21.9835 52.8299C20.6043 60.0545 20.072 64.1503 18.6444 71.3655C16.8283 80.5445 14.3922 85.4499 13.484 94.7629C12.7469 102.322 13.7011 106.619 13.484 114.21C13.1847 124.673 11.9944 130.488 11.6627 140.95C11.3731 150.083 11.5062 155.211 11.6627 164.347C11.9271 179.788 12.8964 200.517 13.484 203.849C14.0716 207.182 15.0903 207.67 15.4415 203.849C15.7927 200.029 13.7682 179.79 13.484 164.347C13.3159 155.212 13.2006 150.083 13.484 140.95C13.8087 130.489 14.9737 124.672 15.2666 114.21C15.4791 106.618 14.5053 102.319 15.2666 94.7629C16.206 85.4375 18.7839 80.5588 20.6075 71.3655C22.0374 64.1572 22.5862 60.0685 23.8541 52.8299C25.1181 46.8966 25.8267 43.5701 27.0907 37.6368C27.7177 31.6039 28.7434 28.1455 31.5068 22.7476C33.1559 19.5261 34.2873 17.7879 36.6085 15.0123C39.2208 11.8887 41.0142 10.3879 44.2612 7.9322C47.1181 5.77153 48.5781 4.01057 52.0298 3.05739C55.2317 2.1732 57.2243 2.78967 60.5349 3.05739C65.3523 3.44694 68.1915 3.67292 72.6688 5.49479C75.8062 6.77146 77.4274 7.85031 80.2055 9.78927C82.8164 11.6115 84.1487 12.8288 86.4667 15.0123C89.0334 17.4299 90.3762 18.901 92.612 21.6281C93.451 22.6514 94.6991 24.2976 94.6991 24.2976L99.1052 22.7476C99.1052 22.7476 95.8193 21.2965 93.9259 20.0128Z" fill="#5B5B5B"/>
<path d="M23.8541 52.8299C22.5862 60.0685 22.0374 64.1572 20.6075 71.3655C18.7839 80.5588 16.206 85.4375 15.2666 94.7629C14.5053 102.319 15.4791 106.618 15.2666 114.21C14.9737 124.672 13.8087 130.489 13.484 140.95C13.2006 150.083 13.3159 155.212 13.484 164.347C13.7682 179.79 15.7927 200.029 15.4415 203.849C15.0903 207.67 14.0716 207.182 13.484 203.849C12.8964 200.517 11.9271 179.788 11.6627 164.347C11.5062 155.211 11.3731 150.083 11.6627 140.95C11.9944 130.488 13.1847 124.673 13.484 114.21C13.7011 106.619 12.7469 102.322 13.484 94.7629C14.3922 85.4499 16.8283 80.5445 18.6444 71.3655C20.072 64.1503 20.6043 60.0545 21.9835 52.8299C23.1181 46.8867 23.5948 43.5172 25.0191 37.6368C26.4425 31.7598 26.6712 28.2073 29.2688 22.7476C31.0086 19.0908 32.1514 17.0545 34.7328 13.9355C37.5717 10.5055 39.6191 8.93877 43.2323 6.33899C46.2534 4.16529 47.8341 2.4393 51.4283 1.47719C54.864 0.557538 56.9893 1.20134 60.5349 1.47719C65.5881 1.87033 68.5934 1.9865 73.2842 3.90809C76.7276 5.31864 78.468 6.58389 81.4802 8.76989C83.9994 10.5982 85.2353 11.8552 87.5513 13.9355C90.11 16.2339 91.0795 18.083 93.9259 20.0128C95.8193 21.2965 99.1052 22.7476 99.1052 22.7476L94.6991 24.2976C94.6991 24.2976 93.451 22.6514 92.612 21.6281C90.3762 18.901 89.0334 17.4299 86.4667 15.0123C84.1487 12.8288 82.8164 11.6115 80.2055 9.78927C77.4274 7.85031 75.8061 6.77146 72.6688 5.49479C68.1915 3.67292 65.3523 3.44694 60.5349 3.05739C57.2243 2.78967 55.2317 2.1732 52.0298 3.05739C48.5781 4.01057 47.1181 5.77153 44.2612 7.9322C41.0142 10.3879 39.2208 11.8887 36.6085 15.0123C34.2873 17.7879 33.1559 19.5261 31.5068 22.7476C28.7434 28.1455 27.7177 31.6039 27.0907 37.6368M23.8541 52.8299C24.933 47.7655 26.0118 42.7012 27.0907 37.6368M23.8541 52.8299C25.1181 46.8966 25.8267 43.5701 27.0907 37.6368" stroke="#5B5B5B" stroke-width="2"/>
<path fill-rule="evenodd" clip-rule="evenodd" d="M105.288 22.2185C102.441 20.2886 101.472 18.4396 98.9129 16.1412C96.597 14.0609 95.3611 12.8038 92.8418 10.9755C89.8296 8.78955 88.0892 7.5243 84.6459 6.11375C79.955 4.19216 76.9498 4.07598 71.8966 3.68285C68.3509 3.407 66.2256 2.7632 62.7899 3.68285C59.1957 4.64496 57.615 6.37094 54.594 8.54465C50.9807 11.1444 48.9333 12.7111 46.0944 16.1412C43.5131 19.2602 42.3703 21.2964 40.6305 24.9532C38.0328 30.4129 37.8041 33.9654 36.3807 39.8425C34.9564 45.7229 34.4798 49.0923 33.3452 55.0356C31.9659 62.2602 31.4336 66.356 30.0061 73.5712C28.19 82.7502 25.7538 87.6555 24.8456 96.9686C24.1086 104.527 25.0628 108.824 24.8456 116.416C24.5464 126.878 23.356 132.694 23.0243 143.156C22.7347 152.288 22.8678 157.417 23.0243 166.553C23.2888 181.994 24.258 202.723 24.8456 206.055C25.4332 209.387 26.4519 209.875 26.8031 206.055C27.1543 202.235 25.1299 181.996 24.8456 166.553C24.6775 157.417 24.5622 152.288 24.8456 143.156C25.1703 132.695 26.3353 126.877 26.6282 116.416C26.8407 108.824 25.867 104.525 26.6282 96.9686C27.5677 87.6431 30.1456 82.7645 31.9692 73.5712C33.399 66.3629 33.9479 62.2742 35.2157 55.0356C36.4797 49.1023 37.1883 45.7757 38.4523 39.8425C39.0793 33.8095 40.105 30.3512 42.8684 24.9532C44.5175 21.7318 45.6489 19.9935 47.9702 17.2179C50.5824 14.0944 52.3759 12.5935 55.6228 10.1379C58.4797 7.97719 59.9397 6.21623 63.3914 5.26305C66.5933 4.37885 68.5859 4.99533 71.8966 5.26305C76.7139 5.6526 79.5532 5.87858 84.0304 7.70045C87.1678 8.97711 88.789 10.056 91.5671 11.9949C94.178 13.8172 95.5104 15.0345 97.8284 17.2179C100.395 19.6356 101.738 21.1066 103.974 23.8337C104.813 24.8571 106.061 26.5033 106.061 26.5033L110.467 24.9532C110.467 24.9532 107.181 23.5021 105.288 22.2185Z" fill="#5B5B5B"/>
<path d="M35.2157 55.0356C33.9479 62.2742 33.399 66.3629 31.9692 73.5712C30.1456 82.7645 27.5677 87.6431 26.6282 96.9686C25.867 104.525 26.8407 108.824 26.6282 116.416C26.3353 126.877 25.1703 132.695 24.8456 143.156C24.5622 152.288 24.6775 157.417 24.8456 166.553C25.1299 181.996 27.1543 202.235 26.8031 206.055C26.4519 209.875 25.4332 209.387 24.8456 206.055C24.258 202.723 23.2888 181.994 23.0243 166.553C22.8678 157.417 22.7347 152.288 23.0243 143.156C23.356 132.694 24.5464 126.878 24.8456 116.416C25.0628 108.824 24.1086 104.527 24.8456 96.9686C25.7538 87.6555 28.19 82.7502 30.0061 73.5712C31.4336 66.356 31.9659 62.2602 33.3452 55.0356C34.4798 49.0923 34.9564 45.7229 36.3807 39.8425C37.8041 33.9654 38.0328 30.4129 40.6305 24.9532C42.3703 21.2964 43.5131 19.2602 46.0944 16.1412C48.9333 12.7111 50.9807 11.1444 54.594 8.54465C57.615 6.37094 59.1957 4.64496 62.7899 3.68285C66.2256 2.7632 68.3509 3.407 71.8966 3.68285C76.9498 4.07598 79.955 4.19216 84.6459 6.11375C88.0892 7.5243 89.8296 8.78955 92.8418 10.9755C95.3611 12.8038 96.597 14.0609 98.9129 16.1412C101.472 18.4396 102.441 20.2886 105.288 22.2185C107.181 23.5021 110.467 24.9532 110.467 24.9532L106.061 26.5033C106.061 26.5033 104.813 24.8571 103.974 23.8337C101.738 21.1066 100.395 19.6356 97.8284 17.2179C95.5104 15.0345 94.178 13.8172 91.5671 11.9949C88.789 10.056 87.1678 8.97711 84.0304 7.70045C79.5532 5.87858 76.7139 5.6526 71.8966 5.26305C68.5859 4.99533 66.5933 4.37885 63.3914 5.26305C59.9397 6.21623 58.4797 7.97719 55.6228 10.1379C52.3759 12.5935 50.5824 14.0944 47.9702 17.2179C45.6489 19.9935 44.5175 21.7318 42.8684 24.9532C40.105 30.3512 39.0793 33.8095 38.4523 39.8425M35.2157 55.0356C36.2946 49.9712 37.3734 44.9068 38.4523 39.8425M35.2157 55.0356C36.4797 49.1023 37.1883 45.7757 38.4523 39.8425" stroke="#5B5B5B" stroke-width="2"/>
<path fill-rule="evenodd" clip-rule="evenodd" d="M89.4183 34.1915C86.5719 32.2617 85.6023 30.4126 83.0436 28.1142C80.7277 26.0339 79.4918 24.7768 76.9725 22.9486C73.9604 20.7626 72.2199 19.4973 68.7766 18.0868C64.0858 16.1652 61.0805 16.049 56.0273 15.6559C52.4816 15.38 50.3563 14.7362 46.9207 15.6559C43.3265 16.618 41.7458 18.3439 38.7247 20.5177C35.1115 23.1174 33.064 24.6841 30.2252 28.1142C27.6438 31.2332 26.501 33.2695 24.7612 36.9262C22.1636 42.3859 21.9349 45.9384 20.5114 51.8155C19.0872 57.6959 18.6105 61.0653 17.4759 67.0086C16.0966 74.2332 15.5643 78.329 14.1368 85.5442C12.3207 94.7232 9.88453 99.6285 8.97637 108.942C8.23929 116.5 9.1935 120.797 8.97637 128.389C8.67712 138.851 7.48674 144.667 7.15503 155.129C6.86546 164.261 6.99855 169.39 7.15503 178.526C7.4195 193.967 8.38876 214.696 8.97637 218.028C9.56398 221.36 10.5826 221.848 10.9339 218.028C11.2851 214.208 9.26059 193.969 8.97637 178.526C8.80823 169.39 8.69292 164.261 8.97637 155.129C9.30103 144.668 10.466 138.85 10.7589 128.389C10.9715 120.797 9.99772 116.498 10.7589 108.942C11.6984 99.6161 14.2763 94.7374 16.0999 85.5442C17.5298 78.3359 18.0786 74.2472 19.3465 67.0086C20.6104 61.0753 21.3191 57.7487 22.583 51.8155C23.21 45.7825 24.2358 42.3242 26.9991 36.9262C28.6483 33.7048 29.7797 31.9665 32.1009 29.1909C34.7132 26.0674 36.5066 24.5665 39.7536 22.1109C42.6105 19.9502 44.0705 18.1892 47.5222 17.2361C50.724 16.3519 52.7166 16.9683 56.0273 17.2361C60.8446 17.6256 63.6839 17.8516 68.1611 19.6735C71.2985 20.9501 72.9197 22.029 75.6978 23.9679C78.3087 25.7902 79.6411 27.0075 81.9591 29.1909C84.5258 31.6086 85.8686 33.0796 88.1044 35.8067C88.9434 36.8301 90.1915 38.4763 90.1915 38.4763L94.5976 36.9262C94.5976 36.9262 91.3117 35.4751 89.4183 34.1915Z" fill="#5B5B5B"/>
<path d="M19.3465 67.0086C18.0786 74.2472 17.5298 78.3359 16.0999 85.5442C14.2763 94.7374 11.6984 99.6161 10.7589 108.942C9.99772 116.498 10.9715 120.797 10.7589 128.389C10.466 138.85 9.30103 144.668 8.97637 155.129C8.69292 164.261 8.80823 169.39 8.97637 178.526C9.26059 193.969 11.2851 214.208 10.9339 218.028C10.5826 221.848 9.56398 221.36 8.97637 218.028C8.38876 214.696 7.4195 193.967 7.15503 178.526C6.99855 169.39 6.86546 164.261 7.15503 155.129C7.48674 144.667 8.67712 138.851 8.97637 128.389C9.1935 120.797 8.23929 116.5 8.97637 108.942C9.88453 99.6285 12.3207 94.7232 14.1368 85.5442C15.5643 78.329 16.0966 74.2332 17.4759 67.0086C18.6105 61.0653 19.0872 57.6959 20.5114 51.8155C21.9349 45.9384 22.1636 42.3859 24.7612 36.9262C26.501 33.2695 27.6438 31.2332 30.2252 28.1142C33.064 24.6841 35.1115 23.1174 38.7247 20.5177C41.7458 18.3439 43.3264 16.618 46.9207 15.6559C50.3563 14.7362 52.4816 15.38 56.0273 15.6559C61.0805 16.049 64.0858 16.1652 68.7766 18.0868C72.2199 19.4973 73.9604 20.7626 76.9725 22.9486C79.4918 24.7768 80.7277 26.0339 83.0436 28.1142C85.6023 30.4126 86.5719 32.2617 89.4183 34.1915C91.3117 35.4751 94.5976 36.9262 94.5976 36.9262L90.1915 38.4763C90.1915 38.4763 88.9434 36.8301 88.1044 35.8067C85.8686 33.0796 84.5258 31.6086 81.9591 29.1909C79.6411 27.0075 78.3087 25.7902 75.6978 23.9679C72.9197 22.029 71.2985 20.9501 68.1611 19.6735C63.6839 17.8516 60.8446 17.6256 56.0273 17.2361C52.7166 16.9683 50.724 16.3519 47.5222 17.2361C44.0705 18.1892 42.6105 19.9502 39.7536 22.1109C36.5066 24.5665 34.7132 26.0674 32.1009 29.1909C29.7797 31.9665 28.6483 33.7048 26.9991 36.9262C24.2358 42.3242 23.21 45.7825 22.583 51.8155M19.3465 67.0086C20.4253 61.9442 21.5042 56.8798 22.583 51.8155M19.3465 67.0086C20.6104 61.0753 21.3191 57.7487 22.583 51.8155" stroke="#5B5B5B" stroke-width="2"/>
<path d="M140.135 71.2457C151.039 61.5402 175.904 60.4376 175.904 60.4376C175.904 60.4376 171.598 55.2644 168.669 52.1024C165.249 48.4107 163.361 46.2856 159.562 42.9865C154.295 38.4125 151.44 35.3107 144.991 32.6552C137.797 29.6928 133.038 29.7724 125.26 29.9204C118.421 30.0506 114.559 30.8575 107.958 32.6552C99.7569 34.8886 94.6928 36.0197 87.9232 41.1633C82.5046 45.2804 79.491 48.3532 75.3599 53.7633C70.2471 60.4591 68.3623 64.8004 64.853 72.4611C61.5398 79.6938 60.1428 84.069 58.7819 91.9083C56.9959 102.197 58.0333 108.434 58.0333 118.876V136.77C58.0333 136.77 58.5913 145.618 60.6133 150.814C62.4631 155.568 63.8857 158.269 67.3755 161.987C70.2384 165.037 75.9302 168.43 75.9302 168.43C75.9302 168.43 86.7521 161.101 97.0298 154.2C104.266 149.341 109.845 148.337 115.547 141.742C124.882 130.945 120.598 119.989 125.26 106.494C130.139 92.3714 128.979 81.1748 140.135 71.2457Z" fill="#5B5B5B" stroke="#5B5B5B"/>
<ellipse rx="19.13" ry="6.22719" transform="matrix(0.827588 -0.561336 0.560557 0.828116 99.1053 35.1097)" fill="#C4C4C4"/>
<rect width="28.1561" height="3.57763" transform="matrix(0.836377 -0.548154 0.547377 0.836886 86.3514 40.8759)" fill="#E2E2E2"/>
<path d="M168.015 153.12C167.313 152.898 166.554 153.257 166.321 153.923C166.086 154.589 166.466 155.308 167.168 155.53L168.015 153.12ZM175.627 156.865C176.367 156.865 176.966 156.296 176.966 155.595C176.966 154.893 176.367 154.325 175.627 154.325V156.865ZM167.168 155.53L169.123 156.148L169.971 153.738L168.015 153.12L167.168 155.53ZM173.782 156.865H175.627V154.325H173.782V156.865ZM169.123 156.148C170.626 156.623 172.199 156.865 173.782 156.865V154.325C172.487 154.325 171.2 154.126 169.971 153.738L169.123 156.148Z" fill="black"/>
<rect x="123.139" y="298.172" width="16.4697" height="0.827881" fill="#353535"/>
<path d="M123.139 292.752H131.175L131.576 293.498L123.139 293.58V292.752Z" fill="#353535"/>
<path d="M131.495 293.439L137.607 296.689L137.24 296.851L130.929 293.439L131.495 293.439Z" fill="#353535"/>
<path d="M137.406 296.674L137.848 298.586L137.52 298.557L137.111 296.569L137.406 296.674Z" fill="#353535"/>
</svg>
