<svg width="145" height="299" viewBox="0 0 145 299" fill="none" xmlns="http://www.w3.org/2000/svg">
<path d="M80.9719 225.523C80.9719 223.376 79.1333 221.635 76.8654 221.635C74.5975 221.635 72.7589 223.376 72.7589 225.523V290.324C72.7589 292.47 74.5975 294.212 76.8654 294.212C79.1333 294.212 80.9719 292.47 80.9719 290.324V225.523Z" fill="#D3D3D3"/>
<rect x="72.6479" y="234.676" width="8.43488" height="55.6051" fill="#8A8A8A"/>
<path d="M65.8844 154.243H87.2415L90.1674 236.652H63.5632L65.8844 154.243Z" fill="#BABABA"/>
<path d="M142.32 95.9069C142.32 140.284 135.608 172.387 76.542 172.387C0.0250341 172.387 12.1067 140.284 12.1067 95.9069C12.1067 51.529 40.2139 19.4571 76.542 19.4571C112.87 19.4571 142.32 51.529 142.32 95.9069Z" fill="#D3D3D3"/>
<path d="M121.517 114.066C126.809 114.066 131.099 110.004 131.099 104.994C131.099 99.9836 126.809 95.9219 121.517 95.9219C116.225 95.9219 111.935 99.9836 111.935 104.994C111.935 110.004 116.225 114.066 121.517 114.066Z" fill="#232323"/>
<path d="M74.5796 186.884C74.61 185.798 75.5488 184.932 76.6964 184.932C77.8369 184.932 78.7726 185.788 78.8126 186.867L80.2044 224.441C80.2586 225.908 79.0179 227.124 77.4684 227.124H76.2622C74.722 227.124 73.4846 225.922 73.5257 224.463L74.5796 186.884Z" fill="#D3D3D3"/>
<path d="M140.258 117.332L145 132.884H135.516L140.258 117.332Z" fill="#D3D3D3"/>
<path d="M103.247 74.8348L137.725 61.1061C137.725 61.1061 130.308 46.7442 123.365 39.2551C115.696 30.9839 110.56 26.4551 100.188 22.0154C90.6898 17.95 84.5266 16.574 74.2042 17.0305C63.3892 17.5087 57.4695 19.7624 47.6374 24.9387C38.3968 29.8035 33.3626 33.4792 26.6536 41.4063C17.9682 51.6685 15.8975 59.6522 12.1525 72.4932C8.26719 85.8153 8.63073 93.8853 7.72896 107.718C6.74804 122.764 8.40923 131.263 7.72896 146.326C6.5952 171.429 0 210.219 0 210.219C0 210.219 54.9867 232.419 84.1907 217.288C88.7926 214.904 95.4055 210.219 95.4055 210.219V196.897V151.471C95.4055 134.934 93.3774 125.541 95.4055 109.125C97.089 95.4991 103.247 74.8348 103.247 74.8348Z" fill="#979797"/>
<path d="M121.95 148.548C121.233 148.321 120.458 148.688 120.219 149.367C119.979 150.046 120.367 150.78 121.084 151.007L121.95 148.548ZM129.73 152.369C130.486 152.369 131.099 151.789 131.099 151.073C131.099 150.358 130.486 149.777 129.73 149.777V152.369ZM121.084 151.007L123.083 151.638L123.949 149.179L121.95 148.548L121.084 151.007ZM127.845 152.369H129.73V149.777H127.845V152.369ZM123.083 151.638C124.619 152.122 126.226 152.369 127.845 152.369V149.777C126.521 149.777 125.205 149.575 123.949 149.179L123.083 151.638Z" fill="black"/>
<path d="M54.4167 10.4285C56.6295 13.5789 55.8005 16.6534 58.4981 19.4008C60.1274 21.0601 63.4589 22.6963 63.4589 22.6963L66.7991 25.9619L63.4589 29.4606L58.4981 30.9121L53.8237 26.8042L52.3462 24.0229C52.3462 24.0229 50.8974 21.5681 49.3914 20.7066C47.6119 19.6886 46.7415 20.2404 44.7353 19.8166C43.0735 19.4656 42.9248 19.6162 41.6387 18.5075C40.1148 17.1937 39.6761 15.8835 39.1376 13.9456C38.7575 12.5775 38.5748 11.3663 37.508 10.4285C36.2913 9.35889 34.7815 9.65394 33.3583 10.4285C30.7455 11.8505 33.5475 15.0743 33.3583 18.0413C33.1599 21.1547 33.7308 23.1794 32.319 25.9619C31.0317 28.499 29.5104 29.483 27.207 31.1546C24.2905 33.271 18.772 34.8984 18.772 34.8984C18.772 34.8984 22.453 31.7746 24.486 29.4606C26.2386 27.4658 28.0755 26.6314 28.5675 24.0229C29.0115 21.6688 27.8581 20.3468 27.207 18.0413C26.3489 15.0031 24.1087 13.5628 24.486 10.4285C24.8452 7.44492 26.2831 5.85765 28.5675 3.90317C32.0523 0.92165 35.43 0.734318 39.9955 1.18429C43.2394 1.504 45.1025 2.20885 47.8864 3.90317C50.9666 5.77785 52.3447 7.47869 54.4167 10.4285Z" fill="#979797" stroke="#979797"/>
<rect width="9.36045" height="2.82472" transform="matrix(0.864532 -0.502578 0.503156 0.864196 49.7468 21.5642)" fill="#C4C4C4"/>
<path d="M81.003 298.565H72.7589V290.718H78.942L80.9536 290.718C80.9536 290.718 80.4429 292.214 80.9536 293.158C81.4643 294.103 88.0191 296.941 89.2326 297.801C90.4461 298.661 88.2493 298.565 88.2493 298.565H85.1251H81.003Z" fill="#D3D3D3"/>
<rect x="72.6265" y="298.137" width="17.1776" height="0.862793" fill="#353535"/>
<path d="M82.9487 294.419L85.1038 295.532V298.37H82.9487V294.419Z" fill="#353535"/>
</svg>
