<svg width="163" height="299" viewBox="0 0 163 299" fill="none" xmlns="http://www.w3.org/2000/svg">
<rect x="79.5738" y="232.302" width="5.00053" height="63.9073" fill="white"/>
<path fill-rule="evenodd" clip-rule="evenodd" d="M86.0956 293.418L78.9281 294.376V299H84.1208H86.7171H91.9098V296.532C91.9098 295.169 90.7474 294.064 89.3135 294.064L86.0956 293.418Z" fill="#606060"/>
<rect x="77.3144" y="226.85" width="9.41891" height="63.9072" fill="#404040"/>
<path d="M71.8386 157.019H91.6482L94.3621 233.913H69.6856L71.8386 157.019Z" fill="#9F9F9F"/>
<path d="M148.905 113.419L153.756 129.425H144.053L148.905 113.419Z" fill="#F5F5F5"/>
<path d="M150.311 93.397C150.311 139.068 143.309 172.107 81.6866 172.107C1.85843 172.107 14.4629 139.068 14.4629 93.397C14.4629 47.7253 43.7864 14.7183 81.6866 14.7183C119.587 14.7183 150.311 47.7253 150.311 93.397Z" fill="#F5F5F5"/>
<path d="M114.765 102.895C119.395 103.024 123.548 101.939 126.083 99.3316C122.54 94.3381 119.612 93.2328 114.765 93.4348C110.274 93.6219 105.566 93.3692 104.456 99.3316C107.804 102.942 110.509 102.777 114.765 102.895Z" fill="#232323"/>
<path d="M129.04 139.133C127.863 138.9 126.591 139.278 126.199 139.977C125.806 140.676 126.442 141.431 127.619 141.664L129.04 139.133ZM141.807 143.066C143.047 143.066 144.053 142.469 144.053 141.732C144.053 140.996 143.047 140.398 141.807 140.398V143.066ZM127.619 141.664L130.9 142.313L132.321 139.783L129.04 139.133L127.619 141.664ZM138.714 143.066H141.807V140.398H138.714V143.066ZM130.9 142.313C133.42 142.812 136.058 143.066 138.714 143.066V140.398C136.541 140.398 134.382 140.19 132.321 139.783L130.9 142.313Z" fill="black"/>
<path fill-rule="evenodd" clip-rule="evenodd" d="M35.8381 10.1328L30.7905 31.4427L22.7143 29.6669V38.2923L16.6572 33.7259V43.8735H13.881L16.6572 54.7821L4.79525 59.0948L12.6191 72.2867L6.30953 75.0773L10.0952 84.7175L2.52381 88.0154L6.30953 99.6851H2.52381L7.57143 107.042L0 115.414L7.57143 119.727L0 125.054L10.0952 131.904L4.79525 144.588L12.6191 146.364V157.019L22.7143 155.497L40.1286 152.199L67.1334 134.948L81.9797 6.60772H74.1062L64.6096 10.1328L67.1334 1L54.0096 14.4455L44.6715 4.04427V19.0119L35.8381 10.1328Z" fill="black"/>
<path d="M84.5271 7.14123L65.3943 19.279L52.2237 144.334L74.1809 129.874L88.0619 113.638L91.3428 90.5523L97.6523 77.6142L101.943 72.7941H123.648L161 93.0892L145.1 62.1391L148.381 55.7969L137.024 46.9178L143.838 37.0239L137.024 33.2185V19.773L125.919 27.6374V10.3865L116.581 19.773L114.562 11.6549L99.419 15.714L89.6824 2.2554L88.0619 17.7435L84.5271 7.14123Z" fill="black" stroke="black"/>
<path d="M90.9796 7.25833H79.9327L78.0916 17.927H90.0222L90.9796 7.25833Z" fill="black" stroke="black"/>
<path d="M79.524 181.249C79.5528 180.214 80.4431 179.39 81.5315 179.39C82.6131 179.39 83.5005 180.205 83.5385 181.233L84.8584 217.011C84.9098 218.408 83.7332 219.566 82.2636 219.566H81.1197C79.659 219.566 78.4854 218.421 78.5244 217.032L79.524 181.249Z" fill="white"/>
<rect x="77.002" y="288.605" width="10.1441" height="3.11038" fill="#7B7B7B"/>
<rect x="78.5234" y="179.39" width="6.33662" height="4.88315" fill="#9F9F9F"/>
<ellipse cx="78.5234" cy="102.906" rx="21.5786" ry="21.6904" fill="#9C9C9C"/>
<path d="M72.2043 6.58116C77.6463 4.66391 80.3268 4.99198 84.8425 6.58116V84.4638H72.2043V6.58116Z" fill="#C4C4C4"/>
</svg>
