<svg width="139" height="277" viewBox="0 0 139 277" fill="none" xmlns="http://www.w3.org/2000/svg">
<path d="M75.7473 206.406C75.7473 204.269 73.9316 202.536 71.692 202.536C69.4524 202.536 67.6367 204.269 67.6367 206.406L68.3391 270.911C68.3391 273.048 69.4524 274.782 71.692 274.782C73.9316 274.782 75.0462 273.048 75.0462 270.911L75.7473 206.406Z" fill="white"/>
<path fill-rule="evenodd" clip-rule="evenodd" d="M75.3968 238.659H67.9879L68.3391 270.911C68.3391 273.048 69.4524 274.782 71.692 274.782C73.9316 274.782 75.0462 273.048 75.0462 270.911L75.3968 238.659Z" fill="#414141"/>
<path d="M132.556 100.17L137.239 115.651H127.873L132.556 100.17Z" fill="#F5F5F5"/>
<path d="M71.6921 124.851L80.1171 151.13L97.4466 229.311H45.9375L62.3766 151.13L71.6921 124.851Z" fill="#EFEFEF"/>
<path d="M71.692 125.469L80.1171 150.784L97.4466 226.097H45.9375L62.3766 150.784L71.692 125.469Z" fill="#C6C6C6"/>
<path d="M135.342 79.9619C135.342 124.137 128.583 156.093 69.1057 156.093C-7.94459 156.093 4.22126 124.137 4.22126 79.9619C4.22126 35.7866 32.5244 3.86104 69.1057 3.86104C105.687 3.86104 135.342 35.7866 135.342 79.9619Z" fill="#F5F5F5"/>
<path d="M106.909 100.17C112.135 100.17 116.371 95.9031 116.371 90.6399C116.371 85.3766 112.135 81.1099 106.909 81.1099C101.683 81.1099 97.4465 85.3766 97.4465 90.6399C97.4465 95.9031 101.683 100.17 106.909 100.17Z" fill="#232323"/>
<path d="M89.8992 75.0183L125.896 35.6692C120.71 28.8904 109.574 14.4713 102.016 10.1545L98.9334 8.39379C89.6593 3.09667 79.0437 0.298187 68.2243 0.298187C54.1811 0.298187 40.5694 5.0254 29.8227 13.6189C27.2648 15.6643 24.8878 17.9137 22.7252 20.3365L19.1066 24.3907C11.0365 33.4324 5.28842 44.1341 2.31674 55.6503C0.777821 61.6136 0 67.7312 0 73.8712V93.6391V122.65L0.564824 150.266C0.564824 150.266 17.0788 154.835 27.9391 155.903C38.0687 156.899 54.0013 155.903 54.0013 155.903H72.4557V99.1431C72.4557 90.5303 89.8992 75.0183 89.8992 75.0183Z" fill="#DEDEDE"/>
<ellipse cx="72.2108" cy="48.441" rx="48.441" ry="6.17011" transform="rotate(-90 72.2108 48.441)" fill="#AAAAAA"/>
<ellipse cx="72.2108" cy="96.2638" rx="17.8397" ry="17.942" fill="#AAAAAA"/>
<ellipse cx="72.2108" cy="96.2639" rx="14.7099" ry="14.7943" fill="#8D8D8D"/>
<path d="M117.329 128.535C116.704 128.13 115.871 128.282 115.467 128.872C115.063 129.462 115.242 130.268 115.867 130.672L117.329 128.535ZM123.754 134.229C124.475 134.426 125.209 134.027 125.395 133.34C125.58 132.652 125.146 131.935 124.426 131.739L123.754 134.229ZM115.867 130.672L117.609 131.798L119.071 129.661L117.329 128.535L115.867 130.672ZM121.958 133.739L123.754 134.229L124.426 131.739L122.629 131.249L121.958 133.739ZM117.609 131.798C118.947 132.663 120.415 133.318 121.958 133.739L122.629 131.249C121.367 130.904 120.166 130.368 119.071 129.661L117.609 131.798Z" fill="black"/>
<path fill-rule="evenodd" clip-rule="evenodd" d="M75.8679 269.228L68.0651 267.897V276.992H70.496V274.637C70.496 274.637 74.7093 276.973 75.5137 276.992C76.3182 277.01 82.2145 276.992 82.2145 276.992C82.2145 276.992 81.9322 274.641 81.3781 274.035C80.9161 273.53 80.2297 273.409 79.5414 273.287C78.871 273.169 78.1987 273.051 77.7301 272.577C77.6529 272.498 77.5785 272.425 77.5067 272.355C77.1951 272.048 76.9322 271.79 76.6985 271.374C76.3337 270.723 76.0645 269.992 75.8679 269.228Z" fill="#DEDEDE"/>
<path fill-rule="evenodd" clip-rule="evenodd" d="M67.0299 274.402L75.5136 274.402C75.5426 274.396 75.5238 274.136 75.4919 273.694C75.3916 272.308 75.2482 271.921 75.9561 269.175L68.065 267.701C68.0931 270.59 67.8268 272.032 67.0299 274.402Z" fill="#A6A6A6"/>
<path d="M70.4906 168.264C70.5135 167.222 71.22 166.392 72.0836 166.392C72.942 166.392 73.6462 167.212 73.6762 168.247L74.7237 204.277C74.7645 205.683 73.8308 206.849 72.6646 206.849H71.7569C70.5978 206.849 69.6665 205.696 69.6974 204.298L70.4906 168.264Z" fill="white"/>
<path d="M75.5941 271.037L76.9409 271.619" stroke="black" stroke-width="0.5"/>
<path d="M76.283 270.642L76.2521 272.116" stroke="black" stroke-width="0.5"/>
<path d="M77.0212 272.589L78.368 273.171" stroke="black" stroke-width="0.5"/>
<path d="M77.71 272.194L77.6791 273.668" stroke="black" stroke-width="0.5"/>
<path d="M67.9863 238.659H75.3978L75.3674 241.05H73.5295H71.6915H69.8536H68.0156L67.9863 238.659Z" fill="#747474"/>
<rect x="69.0494" y="166.392" width="6.32266" height="4.22536" fill="#C4C4C4"/>
</svg>
