<svg width="155" height="290" viewBox="0 0 155 290" fill="none" xmlns="http://www.w3.org/2000/svg">
<path d="M80.7544 215.071C80.7544 212.74 79.2413 210.849 77.3748 210.849C75.5083 210.849 73.9951 212.74 73.9951 215.071V285.435C73.9951 287.765 75.5083 289.657 77.3748 289.657C79.2413 289.657 80.7544 287.765 80.7544 285.435V215.071Z" fill="white"/>
<rect x="73.9951" y="228.358" width="6.75933" height="55.2384" fill="#242424"/>
<path d="M65.5949 154.524H88.5059L91.6447 245.335H63.1049L65.5949 154.524Z" fill="#7B7B7B"/>
<path fill-rule="evenodd" clip-rule="evenodd" d="M82.3224 261.381H72.9153L72.9154 287.777H79.1867H82.3224H88.5937V284.808C88.5937 283.169 87.1899 281.839 85.458 281.839H82.3224V261.381Z" fill="#606060"/>
<path d="M149.851 102.892L155 119.779H144.702L149.851 102.892Z" fill="#F5F5F5"/>
<path d="M149.851 88.0985C149.851 136.286 142.419 171.144 77.0169 171.144C-7.70831 171.144 5.66936 136.286 5.66936 88.0985C5.66936 39.9109 36.7917 5.08562 77.0169 5.08562C117.242 5.08562 149.851 39.9109 149.851 88.0985Z" fill="#F5F5F5"/>
<path d="M115.351 99.5973C121.097 99.5973 125.755 95.1869 125.755 89.7463C125.755 84.3058 121.097 79.8954 115.351 79.8954C109.604 79.8954 104.946 84.3058 104.946 89.7463C104.946 95.1869 109.604 99.5973 115.351 99.5973Z" fill="black"/>
<path d="M115.351 97.9658C121.097 97.9658 125.755 93.5554 125.755 88.1148C125.755 82.6743 121.097 78.2639 115.351 78.2639C109.604 78.2639 104.946 82.6743 104.946 88.1148C104.946 93.5554 109.604 97.9658 115.351 97.9658Z" fill="#4E4E4E"/>
<path fill-rule="evenodd" clip-rule="evenodd" d="M104.946 88.1148H125.755C125.755 82.6743 121.097 78.2639 115.351 78.2639C109.604 78.2639 104.946 82.6743 104.946 88.1148Z" fill="#DFDFDF"/>
<path d="M134.767 137.385C133.988 137.63 133.146 137.232 132.887 136.495C132.627 135.757 133.048 134.96 133.827 134.715L134.767 137.385ZM143.215 133.235C144.036 133.235 144.702 133.865 144.702 134.642C144.702 135.419 144.036 136.05 143.215 136.05V133.235ZM133.827 134.715L135.997 134.029L136.938 136.699L134.767 137.385L133.827 134.715ZM141.168 133.235H143.215V136.05H141.168V133.235ZM135.997 134.029C137.665 133.503 139.411 133.235 141.168 133.235V136.05C139.73 136.05 138.302 136.269 136.938 136.699L135.997 134.029Z" fill="black"/>
<path d="M104.946 105.726L104.309 103.768H102.248L103.915 102.557L103.278 100.599L104.946 101.809L106.613 100.599L105.976 102.557L107.643 103.768H105.583L104.946 105.726Z" fill="#4F4F4F"/>
<rect x="72.5648" y="286.051" width="16.4057" height="3.94937" fill="#3A3A3A"/>
<path d="M73.5978 286.413L73.751 286.884L74.2469 286.884L73.8457 287.175L73.9989 287.646L73.5978 287.355L73.1966 287.646L73.3498 287.175L72.9487 286.884L73.4445 286.884L73.5978 286.413Z" fill="#C4C4C4"/>
<path d="M83.3332 286.413L83.4864 286.884L83.9823 286.884L83.5811 287.175L83.7344 287.646L83.3332 287.355L82.932 287.646L83.0853 287.175L82.6841 286.884L83.18 286.884L83.3332 286.413Z" fill="#C4C4C4"/>
<path d="M80.7545 288.025L80.9077 288.497H81.4036L81.0024 288.788L81.1557 289.259L80.7545 288.968L80.3534 289.259L80.5066 288.788L80.1054 288.497H80.6013L80.7545 288.025Z" fill="#C4C4C4"/>
<path d="M78.4654 286.413L78.6186 286.884L79.1145 286.884L78.7133 287.175L78.8666 287.646L78.4654 287.355L78.0642 287.646L78.2175 287.175L77.8163 286.884L78.3122 286.884L78.4654 286.413Z" fill="#C4C4C4"/>
<path d="M75.7354 288.025L75.8886 288.497H76.3845L75.9833 288.788L76.1366 289.259L75.7354 288.968L75.3343 289.259L75.4875 288.788L75.0863 288.497H75.5822L75.7354 288.025Z" fill="#C4C4C4"/>
<path d="M85.7738 288.025L85.927 288.497H86.4229L86.0217 288.788L86.175 289.259L85.7738 288.968L85.3726 289.259L85.5259 288.788L85.1247 288.497H85.6206L85.7738 288.025Z" fill="#C4C4C4"/>
<path d="M88.201 286.413L88.3542 286.884L88.8501 286.884L88.4489 287.175L88.6022 287.646L88.201 287.355L87.7998 287.646L87.9531 287.175L87.5519 286.884L88.0478 286.884L88.201 286.413Z" fill="#C4C4C4"/>
<path d="M75.6604 179.142C75.6832 177.962 76.3873 177.022 77.248 177.022C78.1034 177.022 78.8052 177.951 78.8352 179.123L79.879 219.924C79.9197 221.516 78.9892 222.837 77.827 222.837H76.9224C75.7672 222.837 74.8391 221.531 74.8699 219.947L75.6604 179.142Z" fill="white"/>
<rect x="74.4489" y="176.071" width="6.25076" height="3.87259" fill="#7B7B7B"/>
<path d="M67.1449 2.08513C59.1131 3.05896 54.6261 4.18872 46.9201 6.80912C40.7493 8.90748 37.1146 9.90408 31.5317 13.4227C24.189 18.0504 20.2054 21.5643 15.2639 29.0119C10.3954 36.3496 9.45098 41.6819 6.91021 50.2698C3.52322 61.718 2.78125 68.5541 1.63418 80.5034C0.207279 95.3677 1.63418 103.825 1.63418 118.768V154.198V185.848L15.2639 170.259V191.045L31.5317 170.259V191.045L43.8424 170.259V191.045L52.6358 170.259V188.683L54.8341 170.259L59.6705 188.683V170.259L67.1449 191.045V170.259L71.5416 191.045V170.259L75.9383 191.045V170.259L83.8523 191.045V170.259L90.0077 191.045V170.259L94.844 191.045V139.553V96.5649L93.0854 64.4418L140.57 45.0734C137.066 38.382 134.662 34.847 130.018 29.0119C124.65 22.2673 121.44 18.4431 114.629 13.4227C106.003 7.06414 100.288 4.16617 90.0077 2.08513C81.2336 0.308975 76.0171 1.0094 67.1449 2.08513Z" fill="black" stroke="black"/>
</svg>
