<svg width="156" height="437" viewBox="0 0 156 437" fill="none" xmlns="http://www.w3.org/2000/svg">
<path d="M82.3208 315.432C82.3208 312.284 78.715 309.732 74.2674 309.732C69.8197 309.732 66.2139 312.284 66.2139 315.432V410.427C66.2139 413.573 69.8197 416.127 74.2674 416.127C78.715 416.127 82.3208 413.573 82.3208 410.427V315.432Z" fill="white"/>
<path d="M74.2674 129.12L128.985 339.899H19.5498L74.2674 129.12Z" fill="#6D6D6D"/>
<path d="M151.303 86.8733C151.303 134.427 143.923 168.827 78.9809 168.827C-5.14885 168.827 8.1348 134.427 8.1348 86.8733C8.1348 39.3189 39.0385 4.95132 78.9809 4.95132C118.923 4.95132 151.303 39.3189 151.303 86.8733Z" fill="#F5F5F5"/>
<path d="M116.72 98.43C123.494 98.43 128.985 93.2631 128.985 86.8894C128.985 80.5157 123.494 75.3488 116.72 75.3488C109.946 75.3488 104.455 80.5157 104.455 86.8894C104.455 93.2631 109.946 98.43 116.72 98.43Z" fill="#232323"/>
<path d="M150.968 101.47L156 117.873H145.935L150.968 101.47Z" fill="#F5F5F5"/>
<path d="M144.758 134.898C145.262 135.082 140.318 133.338 139.253 133.121C138.189 132.904 133.628 133.267 132.327 133.121C131.026 132.975 125.155 131.323 125.934 131.7" stroke="black" stroke-width="2"/>
<path d="M126.32 131.188C126.329 131.2 126.333 131.21 126.338 131.224" stroke="black" stroke-linecap="round" stroke-linejoin="round"/>
<path d="M144.659 134.876C144.632 134.867 144.61 134.852 144.586 134.839C144.575 134.832 144.562 134.819 144.551 134.815" stroke="black" stroke-linecap="round" stroke-linejoin="round"/>
<path d="M108.788 37.4979C117.645 34.4602 132.178 32.2333 132.178 32.2333C132.178 32.2333 130.731 23.3066 127.5 18.7794C122.628 11.9538 116.462 11.628 108.788 8.25031C101.517 5.05019 97.3382 3.05304 89.4916 1.81584C77.0116 -0.151953 69.4047 1.60384 57.3307 5.32554C46.302 8.72507 39.9171 11.4299 31.0173 18.7794C23.6441 24.8683 20.376 29.4375 15.2293 37.4979C7.94754 48.9019 5.08011 56.4137 2.36491 69.6703C-0.706133 84.6641 2.36491 93.5567 2.36491 108.862C2.36491 119.37 -0.181008 125.575 2.36491 135.77C4.94013 146.082 7.66356 152.29 15.2293 159.753C23.3739 167.787 30.8978 168.434 41.5427 172.622C53.7156 177.41 61.2416 178.006 73.7036 181.981C85.6755 185.8 104.11 192.51 104.11 192.51C104.11 192.51 89.5947 177.618 84.8137 165.602C79.6285 152.571 81.4391 143.928 80.7205 129.92C80.1353 118.513 80.7205 112.095 80.7205 100.673C80.7205 88.5655 78.3296 81.5389 80.7205 69.6703C82.6477 60.1037 82.5935 53.1727 89.4916 46.2722C95.3449 40.4169 100.958 40.1836 108.788 37.4979Z" fill="#232323" stroke="#232323"/>
<path d="M137.207 30.605C135.259 21.7401 118.892 16.3051 118.892 16.3051L46.0776 49.3735C46.0776 49.3735 60.6469 115.126 80.251 100.987C90.8278 93.3589 87.067 81.7707 92.5356 69.9296C96.986 60.293 96.9524 52.6667 105.043 45.7986C114.869 37.4582 137.207 38.4252 137.207 38.4252C137.207 38.4252 137.862 33.5878 137.207 30.605Z" fill="#232323" stroke="#232323"/>
<path d="M70.0351 201.659C70.1015 199.302 72.1512 197.424 74.6571 197.424C77.1475 197.424 79.1907 199.28 79.2779 201.622L82.317 283.158C82.4354 286.34 79.7263 288.981 76.3428 288.981H73.7091C70.346 288.981 67.644 286.37 67.7337 283.206L70.0351 201.659Z" fill="white"/>
<path d="M62.5894 408.466C62.5142 407.173 66.3025 398.694 66.3025 398.694C72.2039 399.434 75.8036 399.246 82.3276 398.694C84.3716 410.378 86.3774 416.574 90.9265 427.227C94.0868 429.179 97.6658 431.101 97.571 432.112C97.4763 433.123 96.7429 434.395 96.2073 434.691C95.6716 434.987 82.9791 436.547 82.3276 436.216C81.6762 435.886 78.084 434.294 77.6373 433.871C77.1907 433.448 74.9217 422.511 74.41 421.329C73.8983 420.147 68.0649 414.984 68.0649 414.984L66.3025 433.871C66.3025 433.871 62.6645 409.758 62.5894 408.466Z" fill="#232323" stroke="#232323"/>
</svg>
